M48
; DRILL file {KiCad 8.0.6} date 2024-12-02T12:57:02+0100
; FORMAT={-:-/ absolute / inch / decimal}
; #@! TF.CreationDate,2024-12-02T12:57:02+01:00
; #@! TF.GenerationSoftware,Kicad,Pcbnew,8.0.6
; #@! TF.FileFunction,Plated,1,2,PTH
FMAT,2
INCH
; #@! TA.AperFunction,Plated,PTH,ViaDrill
T1C0.0118
; #@! TA.AperFunction,Plated,PTH,ComponentDrill
T2C0.0315
; #@! TA.AperFunction,Plated,PTH,ComponentDrill
T3C0.0394
; #@! TA.AperFunction,Plated,PTH,ComponentDrill
T4C0.0472
%
G90
G05
T1
X3.5748Y-2.1654
X3.5748Y-3.3031
X3.5748Y-3.4921
X3.5787Y-3.126
X3.5827Y-2.3425
X3.5827Y-2.5433
X3.5827Y-2.7795
X3.5827Y-2.9882
X3.5827Y-3.6693
X3.5827Y-3.8701
X3.5827Y-4.1063
X3.5827Y-4.315
X3.5866Y-1.6535
X3.5866Y-1.7913
X3.5866Y-2.0039
X3.5866Y-5.126
X3.5906Y-4.5157
X3.5906Y-4.7165
X3.5906Y-4.9528
X3.5906Y-5.2953
X3.5906Y-5.4488
X3.6811Y-1.6535
X3.6811Y-1.7913
X3.6811Y-2.0039
X3.6811Y-5.126
X3.685Y-5.2953
X3.685Y-5.4488
X3.7087Y-3.3189
X3.7087Y-4.0118
X3.7087Y-4.122
X3.7126Y-3.0551
X3.7165Y-3.6693
X3.7165Y-4.437
X3.7165Y-4.8661
X3.7441Y-2.9055
X3.748Y-2.2244
X3.748Y-2.3622
X3.748Y-2.5748
X3.748Y-2.7441
X3.7756Y-1.6535
X3.7756Y-1.7913
X3.7756Y-2.0039
X3.7756Y-5.126
X3.7795Y-5.2953
X3.7795Y-5.4488
X3.7835Y-4.5276
X3.7835Y-4.7165
X3.7835Y-4.9016
X3.7953Y-4.1378
X3.8031Y-4.9646
X3.8346Y-4.0039
X3.8622Y-3.2835
X3.8622Y-3.4528
X3.878Y-1.6535
X3.878Y-1.7913
X3.878Y-2.0039
X3.878Y-5.126
X3.8819Y-5.2953
X3.8819Y-5.4488
X3.8898Y-3.7402
X3.9173Y-2.9094
X3.9213Y-2.2283
X3.9213Y-2.3661
X3.9213Y-2.5787
X3.9213Y-2.748
X3.9409Y-3.9961
X3.9449Y-4.3622
X3.9567Y-3.2835
X3.9567Y-3.4528
X3.9803Y-1.6535
X3.9803Y-1.7913
X3.9803Y-2.0039
X3.9803Y-5.126
X3.9843Y-5.2953
X3.9843Y-5.4488
X4.0039Y-3.7402
X4.0433Y-3.9961
X4.0433Y-4.3661
X4.0512Y-2.2283
X4.0512Y-2.3661
X4.0512Y-3.2835
X4.0512Y-3.4528
X4.0709Y-2.9094
X4.0748Y-2.5787
X4.0748Y-2.748
X4.0866Y-1.6535
X4.0866Y-1.7913
X4.0866Y-2.0039
X4.0866Y-5.126
X4.0906Y-5.2953
X4.0906Y-5.4488
X4.1063Y-3.7441
X4.1417Y-4.3661
X4.1457Y-3.9961
X4.1535Y-3.0945
X4.1535Y-3.2835
X4.1535Y-3.4528
X4.189Y-1.6535
X4.189Y-1.7913
X4.189Y-2.0039
X4.189Y-5.126
X4.1929Y-5.2953
X4.1929Y-5.4488
X4.2087Y-3.748
X4.2205Y-2.1496
X4.2244Y-2.2323
X4.2244Y-2.3701
X4.2402Y-4.3661
X4.2441Y-2.9134
X4.2441Y-3.9921
X4.248Y-2.5827
X4.248Y-2.752
X4.2559Y-3.2835
X4.2559Y-3.4528
X4.2913Y-1.6535
X4.2913Y-1.7913
X4.2913Y-2.0039
X4.2913Y-5.126
X4.2953Y-5.2953
X4.2953Y-5.4488
X4.315Y-3.748
X4.3425Y-3.9921
X4.3425Y-4.3661
X4.3465Y-2.5866
X4.3543Y-2.8937
X4.3622Y-3.2835
X4.4173Y-1.6535
X4.4173Y-1.7913
X4.4173Y-2.0039
X4.4173Y-5.126
X4.4213Y-5.2953
X4.4213Y-5.4488
X4.4331Y-3.9961
X4.4449Y-4.3661
X4.4488Y-2.5906
X4.4488Y-3.6732
X4.4528Y-2.8937
X4.4646Y-3.2835
X4.4646Y-3.4724
X4.5157Y-1.6535
X4.5157Y-1.7913
X4.5157Y-2.0039
X4.5157Y-5.126
X4.5197Y-5.2953
X4.5197Y-5.4488
X4.5433Y-4.3898
X4.5472Y-2.5906
X4.5472Y-2.8937
X4.5512Y-3.6772
X4.5669Y-3.2835
X4.5669Y-3.4685
X4.5906Y-3.9882
X4.5906Y-4.1457
X4.5906Y-4.3031
X4.6142Y-1.6535
X4.6142Y-1.7913
X4.6142Y-2.0039
X4.6142Y-5.126
X4.6181Y-5.2953
X4.6181Y-5.4488
X4.6457Y-2.5906
X4.6496Y-2.8937
X4.6496Y-3.6811
X4.6929Y-3.2835
X4.6929Y-3.4685
X4.7087Y-1.6535
X4.7087Y-1.7913
X4.7087Y-5.126
X4.7126Y-2.0039
X4.7126Y-5.2953
X4.7126Y-5.4488
X4.7244Y-4.1417
X4.7283Y-4.0079
X4.7362Y-4.3661
X4.748Y-2.5906
X4.748Y-2.8937
X4.7598Y-3.6811
X4.7913Y-3.2835
X4.7913Y-3.4685
X4.7992Y-2.0079
X4.8031Y-1.6535
X4.8031Y-1.7913
X4.8031Y-5.126
X4.8071Y-5.2953
X4.8071Y-5.4488
X4.8346Y-4.3622
X4.8465Y-2.5906
X4.8504Y-2.8937
X4.874Y-3.8346
X4.878Y-4.0
X4.8898Y-3.2835
X4.8898Y-3.4724
X4.8976Y-1.6535
X4.8976Y-1.7913
X4.8976Y-5.126
X4.9016Y-2.0079
X4.9016Y-5.2953
X4.9016Y-5.4488
X4.9291Y-4.3661
X4.9488Y-2.5945
X4.9528Y-2.8976
X4.9764Y-3.8346
X4.9803Y-4.0
X5.0Y-1.6535
X5.0Y-1.7913
X5.0Y-2.0039
X5.0Y-5.126
X5.0039Y-5.2953
X5.0039Y-5.4488
X5.0236Y-3.2835
X5.0276Y-3.4724
X5.0315Y-4.3661
X5.0472Y-2.8976
X5.0551Y-2.5945
X5.0709Y-3.8346
X5.0787Y-4.0
X5.1063Y-1.6535
X5.1063Y-1.7913
X5.1063Y-2.0039
X5.1063Y-5.126
X5.1102Y-5.2953
X5.1102Y-5.4488
X5.1339Y-4.3661
X5.1496Y-2.6181
X5.1496Y-2.8976
X5.1575Y-3.685
X5.1732Y-3.3819
X5.1772Y-4.0
X5.189Y-3.8346
X5.2087Y-1.6535
X5.2087Y-1.7913
X5.2087Y-2.0039
X5.2087Y-5.126
X5.2126Y-5.2953
X5.2126Y-5.4488
X5.2362Y-4.3661
X5.248Y-2.6181
X5.2795Y-4.0
X5.2913Y-3.1378
X5.2953Y-3.8346
X5.3031Y-2.8937
X5.311Y-1.6535
X5.311Y-1.7913
X5.311Y-2.0039
X5.311Y-4.6063
X5.311Y-5.126
X5.315Y-4.7717
X5.315Y-5.2953
X5.315Y-5.4488
X5.3189Y-4.9567
X5.3701Y-4.0
X5.374Y-2.6142
X5.3937Y-3.1102
X5.3976Y-3.8307
X5.4094Y-2.3346
X5.4094Y-3.685
X5.4134Y-1.6535
X5.4134Y-1.7913
X5.4134Y-2.0039
X5.4134Y-2.1732
X5.4134Y-4.6063
X5.4134Y-5.126
X5.4173Y-4.7717
X5.4173Y-5.2953
X5.4173Y-5.4488
X5.4213Y-4.9567
X5.4409Y-2.7244
X5.4567Y-2.9016
X5.4882Y-3.1929
X5.5Y-4.3937
X5.5039Y-3.7323
X5.5315Y-2.3346
X5.5354Y-1.6535
X5.5354Y-1.7913
X5.5354Y-2.0039
X5.5354Y-2.1732
X5.5354Y-4.6063
X5.5354Y-5.126
X5.5394Y-4.7717
X5.5394Y-5.2953
X5.5394Y-5.4488
X5.5433Y-4.9567
X5.5512Y-3.1102
X5.563Y-3.9961
X5.5709Y-3.8346
X5.5787Y-4.2795
X5.5906Y-2.878
X5.5945Y-2.5472
X5.5945Y-2.7165
X5.6063Y-3.248
X5.6063Y-4.3937
X5.6693Y-2.3346
X5.6732Y-1.6535
X5.6732Y-1.7913
X5.6732Y-2.0039
X5.6732Y-2.1732
X5.6732Y-4.6063
X5.6732Y-5.126
X5.6772Y-4.7717
X5.6772Y-5.2953
X5.6772Y-5.4488
X5.6811Y-4.9567
X5.7047Y-4.2795
X5.7126Y-4.3937
X5.748Y-3.252
X5.752Y-3.1063
X5.7638Y-2.8819
X5.7677Y-2.5512
X5.7677Y-2.7205
X5.7953Y-2.3346
X5.7992Y-1.6535
X5.7992Y-1.7913
X5.7992Y-2.0039
X5.7992Y-2.1732
X5.7992Y-4.6063
X5.7992Y-5.126
X5.8031Y-4.7717
X5.8031Y-5.2953
X5.8031Y-5.4488
X5.8071Y-4.9567
X5.811Y-3.8307
X5.811Y-4.2795
X5.8189Y-4.0669
X5.8268Y-4.3937
X5.8976Y-3.5866
X5.9016Y-2.3346
X5.9055Y-1.6535
X5.9055Y-1.7913
X5.9055Y-2.0039
X5.9055Y-2.1732
X5.9055Y-4.6063
X5.9055Y-5.126
X5.9094Y-4.7717
X5.9094Y-5.2953
X5.9094Y-5.4488
X5.9134Y-4.9567
X5.9252Y-3.8307
X5.9252Y-4.2795
X5.9331Y-4.0669
X5.9724Y-4.3937
X6.0079Y-2.3346
X6.0079Y-2.4685
X6.0079Y-2.5669
X6.0079Y-2.6732
X6.0079Y-2.7795
X6.0079Y-2.9055
X6.0079Y-3.0433
X6.0079Y-3.1654
X6.0118Y-1.6535
X6.0118Y-1.7913
X6.0118Y-2.0039
X6.0118Y-2.1732
X6.0118Y-4.6063
X6.0118Y-5.126
X6.0157Y-4.7717
X6.0157Y-5.2953
X6.0157Y-5.4488
X6.0197Y-4.9567
X6.0709Y-3.8307
X6.0709Y-4.2795
X6.0787Y-4.0669
X6.1063Y-2.3346
X6.1102Y-2.0039
X6.1102Y-2.1732
X6.1102Y-3.2441
X6.126Y-1.6535
X6.126Y-1.7913
X6.126Y-4.3937
X6.126Y-4.6063
X6.126Y-5.126
X6.1299Y-4.7717
X6.1299Y-5.2953
X6.1299Y-5.4488
X6.1339Y-4.9567
X6.2244Y-3.8307
X6.2244Y-4.2795
X6.2323Y-4.0669
X6.2598Y-4.3937
X6.2717Y-1.6535
X6.2717Y-1.7913
X6.2717Y-2.0039
X6.2717Y-4.6063
X6.2717Y-5.126
X6.2756Y-2.374
X6.2756Y-4.7717
X6.2756Y-5.2953
X6.2756Y-5.4488
X6.2795Y-4.9567
X6.3268Y-2.7244
X6.3583Y-3.8307
X6.3583Y-4.2795
X6.3661Y-4.0669
X6.3819Y-2.374
X6.3898Y-2.0039
X6.3898Y-3.2677
X6.3898Y-3.4567
X6.3937Y-3.0906
X6.4016Y-4.3937
X6.4173Y-4.563
X6.4252Y-1.6535
X6.4291Y-5.1299
X6.4291Y-5.2953
X6.4291Y-5.4488
X6.4331Y-1.9134
X6.4331Y-2.7244
X6.437Y-2.2638
X6.4843Y-3.2677
X6.4843Y-3.4567
X6.4882Y-2.374
X6.4882Y-3.0906
X6.4961Y-2.0039
X6.5Y-3.8307
X6.5Y-4.2795
X6.5079Y-4.0669
X6.5394Y-2.7244
X6.5551Y-4.3937
X6.5551Y-4.563
X6.5591Y-1.6535
X6.563Y-5.1299
X6.563Y-5.2953
X6.563Y-5.4488
X6.5709Y-2.4646
X6.5787Y-2.8268
X6.5787Y-3.2677
X6.5787Y-3.4567
X6.5827Y-3.0906
X6.6024Y-2.0039
X6.6024Y-2.374
X6.6535Y-2.7244
X6.6535Y-3.8307
X6.6535Y-4.2795
X6.6614Y-4.0669
X6.6811Y-3.2677
X6.6811Y-3.4567
X6.685Y-3.0906
X6.6929Y-4.3937
X6.7008Y-1.6535
X6.7047Y-5.1299
X6.7047Y-5.2953
X6.7047Y-5.4488
X6.7126Y-4.9685
X6.7165Y-2.0039
X6.7205Y-4.7677
X6.748Y-2.374
X6.752Y-4.563
X6.7835Y-3.2677
X6.7835Y-3.4567
X6.7874Y-3.0906
X6.7913Y-3.8307
X6.7913Y-4.2795
X6.7992Y-2.7244
X6.7992Y-4.0669
X6.8307Y-4.3937
X6.8543Y-1.6535
X6.8583Y-4.5866
X6.8583Y-4.7402
X6.8583Y-4.8819
X6.8583Y-5.0157
X6.8583Y-5.1299
X6.8583Y-5.2953
X6.8583Y-5.4488
X6.8622Y-2.0039
X6.8858Y-2.374
X6.8898Y-3.2677
X6.8898Y-3.4567
X6.8937Y-3.0906
X6.9173Y-2.7244
X6.9291Y-3.8307
X6.9291Y-4.2795
X6.937Y-4.0669
X6.9567Y-4.3937
X6.9921Y-1.6535
X6.9921Y-3.2677
X6.9921Y-3.4567
X6.9921Y-4.8071
X6.9961Y-3.0906
X6.9961Y-5.0394
X6.9961Y-5.2953
X6.9961Y-5.4488
X7.0157Y-3.5906
X7.0236Y-2.1575
X7.0236Y-2.3307
X7.0236Y-2.4567
X7.0236Y-2.5945
X7.0236Y-2.7323
X7.0236Y-2.8858
X7.0551Y-4.2795
X7.063Y-4.0669
X7.0945Y-3.2677
X7.0984Y-3.0906
X7.1299Y-1.6535
X7.1339Y-5.2953
X7.1339Y-5.4488
X7.2008Y-3.6339
X7.2008Y-3.8346
X7.2087Y-4.0709
X7.2087Y-4.2795
X7.2205Y-3.2677
X7.2205Y-3.4567
X7.2244Y-3.0906
X7.2559Y-1.6535
X7.2559Y-1.9449
X7.2598Y-1.7677
X7.2598Y-4.8071
X7.2598Y-5.122
X7.2598Y-5.2953
X7.2598Y-5.4488
X7.2638Y-2.1339
X7.2638Y-2.311
X7.2638Y-2.5118
X7.2638Y-2.748
X7.2638Y-2.9567
X7.2717Y-4.5669
X7.2795Y-4.9173
X7.315Y-3.6339
X7.315Y-3.8346
X7.3189Y-3.2677
X7.3189Y-3.4567
X7.3228Y-3.0906
X7.3228Y-4.0709
X7.3228Y-4.2795
X7.4173Y-1.9409
X7.4173Y-3.2677
X7.4173Y-3.4567
X7.4213Y-1.7638
X7.4213Y-3.0906
X7.4252Y-2.1299
X7.4252Y-2.3071
X7.4252Y-2.5079
X7.4252Y-2.7441
X7.4252Y-2.9528
X7.4252Y-3.6339
X7.4252Y-3.8346
X7.4252Y-4.0709
X7.4252Y-4.2795
X7.4291Y-1.6535
X7.4331Y-4.4803
X7.4331Y-4.6811
X7.4331Y-4.9173
X7.4331Y-5.126
X7.4331Y-5.2953
X7.4331Y-5.4488
T2
X3.7953Y-3.9315
X3.7953Y-4.2315
X3.8008Y-3.0024
X3.8008Y-3.6024
X3.8953Y-3.9315
X3.8953Y-4.2315
X3.9008Y-3.0024
X3.9008Y-3.6024
X3.9953Y-3.9315
X3.9953Y-4.2315
X4.0008Y-3.0024
X4.0008Y-3.6024
X4.0953Y-3.9315
X4.0953Y-4.2315
X4.1008Y-3.0024
X4.1008Y-3.6024
X4.1953Y-3.9315
X4.1953Y-4.2315
X4.2008Y-3.0024
X4.2008Y-3.6024
X4.2953Y-3.9315
X4.2953Y-4.2315
X4.3008Y-3.0024
X4.3008Y-3.6024
X4.3953Y-3.9315
X4.3953Y-4.2315
X4.4008Y-3.0024
X4.4008Y-3.6024
X4.4953Y-3.9315
X4.4953Y-4.2315
X4.5008Y-3.0024
X4.5008Y-3.6024
X4.6008Y-3.0024
X4.6008Y-3.6024
X4.7008Y-3.0024
X4.7008Y-3.6024
X4.7291Y-3.9323
X4.7291Y-4.2323
X4.8008Y-3.0024
X4.8008Y-3.6024
X4.8291Y-3.9323
X4.8291Y-4.2323
X4.9008Y-3.0024
X4.9008Y-3.6024
X4.9291Y-3.9323
X4.9291Y-4.2323
X5.0008Y-3.0024
X5.0008Y-3.6024
X5.0291Y-3.9323
X5.0291Y-4.2323
X5.1008Y-3.0024
X5.1008Y-3.6024
X5.1291Y-3.9323
X5.1291Y-4.2323
X5.2008Y-3.0024
X5.2008Y-3.6024
X5.2291Y-3.9323
X5.2291Y-4.2323
X5.3008Y-3.0024
X5.3008Y-3.6024
X5.3291Y-3.9323
X5.3291Y-4.2323
X5.4008Y-3.0024
X5.4008Y-3.6024
X5.4291Y-3.9323
X5.4291Y-4.2323
X5.5008Y-3.0024
X5.5008Y-3.6024
X5.6008Y-3.0024
X5.6008Y-3.6024
X5.7008Y-3.0024
X5.7008Y-3.6024
T3
X3.8953Y-4.6406
X3.9953Y-4.6406
X4.0953Y-4.6406
X4.1Y-2.4764
X4.1953Y-4.6406
X4.2Y-2.4764
X4.2953Y-4.6406
X4.3Y-2.4764
X4.3953Y-4.6406
X4.4Y-2.4764
X4.4953Y-4.6406
X4.5Y-2.4764
X4.5953Y-4.6406
X4.6Y-2.4764
X4.6953Y-4.6406
X4.7Y-2.4764
X4.7953Y-4.6406
X4.8Y-2.4764
X4.8953Y-4.6406
X4.9Y-2.4764
X4.9953Y-4.6406
X5.0Y-2.4764
X5.0953Y-4.6406
X5.1Y-2.4764
X5.1953Y-4.6406
X5.2Y-2.4764
X5.3Y-2.4764
X5.4Y-2.4764
X5.5Y-2.4764
X6.4882Y-4.7414
X6.4882Y-4.9383
X7.0827Y-1.7874
X7.0827Y-1.8874
X7.0827Y-1.9874
X7.0827Y-2.0874
X7.1063Y-3.4409
X7.1063Y-3.5409
X7.1063Y-3.6409
X7.1063Y-3.7409
X7.1063Y-3.8409
X7.1063Y-3.9409
T4
X7.1378Y-4.9803
X7.1378Y-5.1181
X7.1417Y-4.4961
X7.1417Y-4.6339
M30
