%TF.GenerationSoftware,KiCad,Pcbnew,8.0.6*%
%TF.CreationDate,2024-12-03T08:56:14+01:00*%
%TF.ProjectId,PCB_Tester,5043425f-5465-4737-9465-722e6b696361,rev?*%
%TF.SameCoordinates,Original*%
%TF.FileFunction,Drillmap*%
%TF.FilePolarity,Positive*%
%FSLAX45Y45*%
G04 Gerber Fmt 4.5, Leading zero omitted, Abs format (unit mm)*
G04 Created by KiCad (PCBNEW 8.0.6) date 2024-12-03 08:56:14*
%MOMM*%
%LPD*%
G01*
G04 APERTURE LIST*
%ADD10C,0.050000*%
%ADD11C,0.200000*%
%ADD12C,0.320000*%
G04 APERTURE END LIST*
D10*
X19000000Y-14000000D02*
X9000000Y-14000000D01*
X19000000Y-4000000D02*
X19000000Y-14000000D01*
X9000000Y-14000000D02*
X9000000Y-4000000D01*
X9000000Y-4000000D02*
X19000000Y-4000000D01*
D11*
D12*
X9260000Y-4460000D02*
X9580000Y-4780000D01*
X9580000Y-4460000D02*
X9260000Y-4780000D01*
X9280000Y-13280000D02*
X9600000Y-13600000D01*
X9600000Y-13280000D02*
X9280000Y-13600000D01*
X17070000Y-13340000D02*
X17390000Y-13660000D01*
X17390000Y-13340000D02*
X17070000Y-13660000D01*
X18340000Y-5830000D02*
X18660000Y-6150000D01*
X18660000Y-5830000D02*
X18340000Y-6150000D01*
D11*
X9258277Y-14313984D02*
X9258277Y-14113984D01*
X9258277Y-14113984D02*
X9305896Y-14113984D01*
X9305896Y-14113984D02*
X9334467Y-14123508D01*
X9334467Y-14123508D02*
X9353515Y-14142555D01*
X9353515Y-14142555D02*
X9363039Y-14161603D01*
X9363039Y-14161603D02*
X9372563Y-14199698D01*
X9372563Y-14199698D02*
X9372563Y-14228269D01*
X9372563Y-14228269D02*
X9363039Y-14266365D01*
X9363039Y-14266365D02*
X9353515Y-14285412D01*
X9353515Y-14285412D02*
X9334467Y-14304460D01*
X9334467Y-14304460D02*
X9305896Y-14313984D01*
X9305896Y-14313984D02*
X9258277Y-14313984D01*
X9458277Y-14313984D02*
X9458277Y-14180650D01*
X9458277Y-14218746D02*
X9467801Y-14199698D01*
X9467801Y-14199698D02*
X9477324Y-14190174D01*
X9477324Y-14190174D02*
X9496372Y-14180650D01*
X9496372Y-14180650D02*
X9515420Y-14180650D01*
X9582086Y-14313984D02*
X9582086Y-14180650D01*
X9582086Y-14113984D02*
X9572563Y-14123508D01*
X9572563Y-14123508D02*
X9582086Y-14133031D01*
X9582086Y-14133031D02*
X9591610Y-14123508D01*
X9591610Y-14123508D02*
X9582086Y-14113984D01*
X9582086Y-14113984D02*
X9582086Y-14133031D01*
X9705896Y-14313984D02*
X9686848Y-14304460D01*
X9686848Y-14304460D02*
X9677324Y-14285412D01*
X9677324Y-14285412D02*
X9677324Y-14113984D01*
X9810658Y-14313984D02*
X9791610Y-14304460D01*
X9791610Y-14304460D02*
X9782086Y-14285412D01*
X9782086Y-14285412D02*
X9782086Y-14113984D01*
X10039229Y-14313984D02*
X10039229Y-14113984D01*
X10039229Y-14113984D02*
X10105896Y-14256841D01*
X10105896Y-14256841D02*
X10172563Y-14113984D01*
X10172563Y-14113984D02*
X10172563Y-14313984D01*
X10353515Y-14313984D02*
X10353515Y-14209222D01*
X10353515Y-14209222D02*
X10343991Y-14190174D01*
X10343991Y-14190174D02*
X10324944Y-14180650D01*
X10324944Y-14180650D02*
X10286848Y-14180650D01*
X10286848Y-14180650D02*
X10267801Y-14190174D01*
X10353515Y-14304460D02*
X10334467Y-14313984D01*
X10334467Y-14313984D02*
X10286848Y-14313984D01*
X10286848Y-14313984D02*
X10267801Y-14304460D01*
X10267801Y-14304460D02*
X10258277Y-14285412D01*
X10258277Y-14285412D02*
X10258277Y-14266365D01*
X10258277Y-14266365D02*
X10267801Y-14247317D01*
X10267801Y-14247317D02*
X10286848Y-14237793D01*
X10286848Y-14237793D02*
X10334467Y-14237793D01*
X10334467Y-14237793D02*
X10353515Y-14228269D01*
X10448753Y-14180650D02*
X10448753Y-14380650D01*
X10448753Y-14190174D02*
X10467801Y-14180650D01*
X10467801Y-14180650D02*
X10505896Y-14180650D01*
X10505896Y-14180650D02*
X10524944Y-14190174D01*
X10524944Y-14190174D02*
X10534467Y-14199698D01*
X10534467Y-14199698D02*
X10543991Y-14218746D01*
X10543991Y-14218746D02*
X10543991Y-14275888D01*
X10543991Y-14275888D02*
X10534467Y-14294936D01*
X10534467Y-14294936D02*
X10524944Y-14304460D01*
X10524944Y-14304460D02*
X10505896Y-14313984D01*
X10505896Y-14313984D02*
X10467801Y-14313984D01*
X10467801Y-14313984D02*
X10448753Y-14304460D01*
X10629705Y-14294936D02*
X10639229Y-14304460D01*
X10639229Y-14304460D02*
X10629705Y-14313984D01*
X10629705Y-14313984D02*
X10620182Y-14304460D01*
X10620182Y-14304460D02*
X10629705Y-14294936D01*
X10629705Y-14294936D02*
X10629705Y-14313984D01*
X10629705Y-14190174D02*
X10639229Y-14199698D01*
X10639229Y-14199698D02*
X10629705Y-14209222D01*
X10629705Y-14209222D02*
X10620182Y-14199698D01*
X10620182Y-14199698D02*
X10629705Y-14190174D01*
X10629705Y-14190174D02*
X10629705Y-14209222D01*
X8797500Y-14542500D02*
X8997500Y-14742500D01*
X8997500Y-14542500D02*
X8797500Y-14742500D01*
X9239229Y-14533984D02*
X9363039Y-14533984D01*
X9363039Y-14533984D02*
X9296372Y-14610174D01*
X9296372Y-14610174D02*
X9324944Y-14610174D01*
X9324944Y-14610174D02*
X9343991Y-14619698D01*
X9343991Y-14619698D02*
X9353515Y-14629222D01*
X9353515Y-14629222D02*
X9363039Y-14648269D01*
X9363039Y-14648269D02*
X9363039Y-14695888D01*
X9363039Y-14695888D02*
X9353515Y-14714936D01*
X9353515Y-14714936D02*
X9343991Y-14724460D01*
X9343991Y-14724460D02*
X9324944Y-14733984D01*
X9324944Y-14733984D02*
X9267801Y-14733984D01*
X9267801Y-14733984D02*
X9248753Y-14724460D01*
X9248753Y-14724460D02*
X9239229Y-14714936D01*
X9448753Y-14714936D02*
X9458277Y-14724460D01*
X9458277Y-14724460D02*
X9448753Y-14733984D01*
X9448753Y-14733984D02*
X9439229Y-14724460D01*
X9439229Y-14724460D02*
X9448753Y-14714936D01*
X9448753Y-14714936D02*
X9448753Y-14733984D01*
X9534467Y-14553031D02*
X9543991Y-14543508D01*
X9543991Y-14543508D02*
X9563039Y-14533984D01*
X9563039Y-14533984D02*
X9610658Y-14533984D01*
X9610658Y-14533984D02*
X9629705Y-14543508D01*
X9629705Y-14543508D02*
X9639229Y-14553031D01*
X9639229Y-14553031D02*
X9648753Y-14572079D01*
X9648753Y-14572079D02*
X9648753Y-14591127D01*
X9648753Y-14591127D02*
X9639229Y-14619698D01*
X9639229Y-14619698D02*
X9524944Y-14733984D01*
X9524944Y-14733984D02*
X9648753Y-14733984D01*
X9772563Y-14533984D02*
X9791610Y-14533984D01*
X9791610Y-14533984D02*
X9810658Y-14543508D01*
X9810658Y-14543508D02*
X9820182Y-14553031D01*
X9820182Y-14553031D02*
X9829705Y-14572079D01*
X9829705Y-14572079D02*
X9839229Y-14610174D01*
X9839229Y-14610174D02*
X9839229Y-14657793D01*
X9839229Y-14657793D02*
X9829705Y-14695888D01*
X9829705Y-14695888D02*
X9820182Y-14714936D01*
X9820182Y-14714936D02*
X9810658Y-14724460D01*
X9810658Y-14724460D02*
X9791610Y-14733984D01*
X9791610Y-14733984D02*
X9772563Y-14733984D01*
X9772563Y-14733984D02*
X9753515Y-14724460D01*
X9753515Y-14724460D02*
X9743991Y-14714936D01*
X9743991Y-14714936D02*
X9734467Y-14695888D01*
X9734467Y-14695888D02*
X9724944Y-14657793D01*
X9724944Y-14657793D02*
X9724944Y-14610174D01*
X9724944Y-14610174D02*
X9734467Y-14572079D01*
X9734467Y-14572079D02*
X9743991Y-14553031D01*
X9743991Y-14553031D02*
X9753515Y-14543508D01*
X9753515Y-14543508D02*
X9772563Y-14533984D01*
X9963039Y-14533984D02*
X9982086Y-14533984D01*
X9982086Y-14533984D02*
X10001134Y-14543508D01*
X10001134Y-14543508D02*
X10010658Y-14553031D01*
X10010658Y-14553031D02*
X10020182Y-14572079D01*
X10020182Y-14572079D02*
X10029705Y-14610174D01*
X10029705Y-14610174D02*
X10029705Y-14657793D01*
X10029705Y-14657793D02*
X10020182Y-14695888D01*
X10020182Y-14695888D02*
X10010658Y-14714936D01*
X10010658Y-14714936D02*
X10001134Y-14724460D01*
X10001134Y-14724460D02*
X9982086Y-14733984D01*
X9982086Y-14733984D02*
X9963039Y-14733984D01*
X9963039Y-14733984D02*
X9943991Y-14724460D01*
X9943991Y-14724460D02*
X9934467Y-14714936D01*
X9934467Y-14714936D02*
X9924944Y-14695888D01*
X9924944Y-14695888D02*
X9915420Y-14657793D01*
X9915420Y-14657793D02*
X9915420Y-14610174D01*
X9915420Y-14610174D02*
X9924944Y-14572079D01*
X9924944Y-14572079D02*
X9934467Y-14553031D01*
X9934467Y-14553031D02*
X9943991Y-14543508D01*
X9943991Y-14543508D02*
X9963039Y-14533984D01*
X10115420Y-14733984D02*
X10115420Y-14600650D01*
X10115420Y-14619698D02*
X10124944Y-14610174D01*
X10124944Y-14610174D02*
X10143991Y-14600650D01*
X10143991Y-14600650D02*
X10172563Y-14600650D01*
X10172563Y-14600650D02*
X10191610Y-14610174D01*
X10191610Y-14610174D02*
X10201134Y-14629222D01*
X10201134Y-14629222D02*
X10201134Y-14733984D01*
X10201134Y-14629222D02*
X10210658Y-14610174D01*
X10210658Y-14610174D02*
X10229705Y-14600650D01*
X10229705Y-14600650D02*
X10258277Y-14600650D01*
X10258277Y-14600650D02*
X10277325Y-14610174D01*
X10277325Y-14610174D02*
X10286848Y-14629222D01*
X10286848Y-14629222D02*
X10286848Y-14733984D01*
X10382086Y-14733984D02*
X10382086Y-14600650D01*
X10382086Y-14619698D02*
X10391610Y-14610174D01*
X10391610Y-14610174D02*
X10410658Y-14600650D01*
X10410658Y-14600650D02*
X10439229Y-14600650D01*
X10439229Y-14600650D02*
X10458277Y-14610174D01*
X10458277Y-14610174D02*
X10467801Y-14629222D01*
X10467801Y-14629222D02*
X10467801Y-14733984D01*
X10467801Y-14629222D02*
X10477325Y-14610174D01*
X10477325Y-14610174D02*
X10496372Y-14600650D01*
X10496372Y-14600650D02*
X10524944Y-14600650D01*
X10524944Y-14600650D02*
X10543991Y-14610174D01*
X10543991Y-14610174D02*
X10553515Y-14629222D01*
X10553515Y-14629222D02*
X10553515Y-14733984D01*
X10943991Y-14524460D02*
X10772563Y-14781603D01*
X11201134Y-14533984D02*
X11220182Y-14533984D01*
X11220182Y-14533984D02*
X11239229Y-14543508D01*
X11239229Y-14543508D02*
X11248753Y-14553031D01*
X11248753Y-14553031D02*
X11258277Y-14572079D01*
X11258277Y-14572079D02*
X11267801Y-14610174D01*
X11267801Y-14610174D02*
X11267801Y-14657793D01*
X11267801Y-14657793D02*
X11258277Y-14695888D01*
X11258277Y-14695888D02*
X11248753Y-14714936D01*
X11248753Y-14714936D02*
X11239229Y-14724460D01*
X11239229Y-14724460D02*
X11220182Y-14733984D01*
X11220182Y-14733984D02*
X11201134Y-14733984D01*
X11201134Y-14733984D02*
X11182087Y-14724460D01*
X11182087Y-14724460D02*
X11172563Y-14714936D01*
X11172563Y-14714936D02*
X11163039Y-14695888D01*
X11163039Y-14695888D02*
X11153515Y-14657793D01*
X11153515Y-14657793D02*
X11153515Y-14610174D01*
X11153515Y-14610174D02*
X11163039Y-14572079D01*
X11163039Y-14572079D02*
X11172563Y-14553031D01*
X11172563Y-14553031D02*
X11182087Y-14543508D01*
X11182087Y-14543508D02*
X11201134Y-14533984D01*
X11353515Y-14714936D02*
X11363039Y-14724460D01*
X11363039Y-14724460D02*
X11353515Y-14733984D01*
X11353515Y-14733984D02*
X11343991Y-14724460D01*
X11343991Y-14724460D02*
X11353515Y-14714936D01*
X11353515Y-14714936D02*
X11353515Y-14733984D01*
X11553515Y-14733984D02*
X11439229Y-14733984D01*
X11496372Y-14733984D02*
X11496372Y-14533984D01*
X11496372Y-14533984D02*
X11477325Y-14562555D01*
X11477325Y-14562555D02*
X11458277Y-14581603D01*
X11458277Y-14581603D02*
X11439229Y-14591127D01*
X11629706Y-14553031D02*
X11639229Y-14543508D01*
X11639229Y-14543508D02*
X11658277Y-14533984D01*
X11658277Y-14533984D02*
X11705896Y-14533984D01*
X11705896Y-14533984D02*
X11724944Y-14543508D01*
X11724944Y-14543508D02*
X11734467Y-14553031D01*
X11734467Y-14553031D02*
X11743991Y-14572079D01*
X11743991Y-14572079D02*
X11743991Y-14591127D01*
X11743991Y-14591127D02*
X11734467Y-14619698D01*
X11734467Y-14619698D02*
X11620182Y-14733984D01*
X11620182Y-14733984D02*
X11743991Y-14733984D01*
X11915420Y-14533984D02*
X11877325Y-14533984D01*
X11877325Y-14533984D02*
X11858277Y-14543508D01*
X11858277Y-14543508D02*
X11848753Y-14553031D01*
X11848753Y-14553031D02*
X11829706Y-14581603D01*
X11829706Y-14581603D02*
X11820182Y-14619698D01*
X11820182Y-14619698D02*
X11820182Y-14695888D01*
X11820182Y-14695888D02*
X11829706Y-14714936D01*
X11829706Y-14714936D02*
X11839229Y-14724460D01*
X11839229Y-14724460D02*
X11858277Y-14733984D01*
X11858277Y-14733984D02*
X11896372Y-14733984D01*
X11896372Y-14733984D02*
X11915420Y-14724460D01*
X11915420Y-14724460D02*
X11924944Y-14714936D01*
X11924944Y-14714936D02*
X11934467Y-14695888D01*
X11934467Y-14695888D02*
X11934467Y-14648269D01*
X11934467Y-14648269D02*
X11924944Y-14629222D01*
X11924944Y-14629222D02*
X11915420Y-14619698D01*
X11915420Y-14619698D02*
X11896372Y-14610174D01*
X11896372Y-14610174D02*
X11858277Y-14610174D01*
X11858277Y-14610174D02*
X11839229Y-14619698D01*
X11839229Y-14619698D02*
X11829706Y-14629222D01*
X11829706Y-14629222D02*
X11820182Y-14648269D01*
X12058277Y-14533984D02*
X12077325Y-14533984D01*
X12077325Y-14533984D02*
X12096372Y-14543508D01*
X12096372Y-14543508D02*
X12105896Y-14553031D01*
X12105896Y-14553031D02*
X12115420Y-14572079D01*
X12115420Y-14572079D02*
X12124944Y-14610174D01*
X12124944Y-14610174D02*
X12124944Y-14657793D01*
X12124944Y-14657793D02*
X12115420Y-14695888D01*
X12115420Y-14695888D02*
X12105896Y-14714936D01*
X12105896Y-14714936D02*
X12096372Y-14724460D01*
X12096372Y-14724460D02*
X12077325Y-14733984D01*
X12077325Y-14733984D02*
X12058277Y-14733984D01*
X12058277Y-14733984D02*
X12039229Y-14724460D01*
X12039229Y-14724460D02*
X12029706Y-14714936D01*
X12029706Y-14714936D02*
X12020182Y-14695888D01*
X12020182Y-14695888D02*
X12010658Y-14657793D01*
X12010658Y-14657793D02*
X12010658Y-14610174D01*
X12010658Y-14610174D02*
X12020182Y-14572079D01*
X12020182Y-14572079D02*
X12029706Y-14553031D01*
X12029706Y-14553031D02*
X12039229Y-14543508D01*
X12039229Y-14543508D02*
X12058277Y-14533984D01*
X12201134Y-14533984D02*
X12201134Y-14572079D01*
X12277325Y-14533984D02*
X12277325Y-14572079D01*
X12572563Y-14810174D02*
X12563039Y-14800650D01*
X12563039Y-14800650D02*
X12543991Y-14772079D01*
X12543991Y-14772079D02*
X12534468Y-14753031D01*
X12534468Y-14753031D02*
X12524944Y-14724460D01*
X12524944Y-14724460D02*
X12515420Y-14676841D01*
X12515420Y-14676841D02*
X12515420Y-14638746D01*
X12515420Y-14638746D02*
X12524944Y-14591127D01*
X12524944Y-14591127D02*
X12534468Y-14562555D01*
X12534468Y-14562555D02*
X12543991Y-14543508D01*
X12543991Y-14543508D02*
X12563039Y-14514936D01*
X12563039Y-14514936D02*
X12572563Y-14505412D01*
X12734468Y-14600650D02*
X12734468Y-14733984D01*
X12686848Y-14524460D02*
X12639229Y-14667317D01*
X12639229Y-14667317D02*
X12763039Y-14667317D01*
X12991610Y-14733984D02*
X12991610Y-14533984D01*
X13077325Y-14733984D02*
X13077325Y-14629222D01*
X13077325Y-14629222D02*
X13067801Y-14610174D01*
X13067801Y-14610174D02*
X13048753Y-14600650D01*
X13048753Y-14600650D02*
X13020182Y-14600650D01*
X13020182Y-14600650D02*
X13001134Y-14610174D01*
X13001134Y-14610174D02*
X12991610Y-14619698D01*
X13201134Y-14733984D02*
X13182087Y-14724460D01*
X13182087Y-14724460D02*
X13172563Y-14714936D01*
X13172563Y-14714936D02*
X13163039Y-14695888D01*
X13163039Y-14695888D02*
X13163039Y-14638746D01*
X13163039Y-14638746D02*
X13172563Y-14619698D01*
X13172563Y-14619698D02*
X13182087Y-14610174D01*
X13182087Y-14610174D02*
X13201134Y-14600650D01*
X13201134Y-14600650D02*
X13229706Y-14600650D01*
X13229706Y-14600650D02*
X13248753Y-14610174D01*
X13248753Y-14610174D02*
X13258277Y-14619698D01*
X13258277Y-14619698D02*
X13267801Y-14638746D01*
X13267801Y-14638746D02*
X13267801Y-14695888D01*
X13267801Y-14695888D02*
X13258277Y-14714936D01*
X13258277Y-14714936D02*
X13248753Y-14724460D01*
X13248753Y-14724460D02*
X13229706Y-14733984D01*
X13229706Y-14733984D02*
X13201134Y-14733984D01*
X13382087Y-14733984D02*
X13363039Y-14724460D01*
X13363039Y-14724460D02*
X13353515Y-14705412D01*
X13353515Y-14705412D02*
X13353515Y-14533984D01*
X13534468Y-14724460D02*
X13515420Y-14733984D01*
X13515420Y-14733984D02*
X13477325Y-14733984D01*
X13477325Y-14733984D02*
X13458277Y-14724460D01*
X13458277Y-14724460D02*
X13448753Y-14705412D01*
X13448753Y-14705412D02*
X13448753Y-14629222D01*
X13448753Y-14629222D02*
X13458277Y-14610174D01*
X13458277Y-14610174D02*
X13477325Y-14600650D01*
X13477325Y-14600650D02*
X13515420Y-14600650D01*
X13515420Y-14600650D02*
X13534468Y-14610174D01*
X13534468Y-14610174D02*
X13543991Y-14629222D01*
X13543991Y-14629222D02*
X13543991Y-14648269D01*
X13543991Y-14648269D02*
X13448753Y-14667317D01*
X13620182Y-14724460D02*
X13639230Y-14733984D01*
X13639230Y-14733984D02*
X13677325Y-14733984D01*
X13677325Y-14733984D02*
X13696372Y-14724460D01*
X13696372Y-14724460D02*
X13705896Y-14705412D01*
X13705896Y-14705412D02*
X13705896Y-14695888D01*
X13705896Y-14695888D02*
X13696372Y-14676841D01*
X13696372Y-14676841D02*
X13677325Y-14667317D01*
X13677325Y-14667317D02*
X13648753Y-14667317D01*
X13648753Y-14667317D02*
X13629706Y-14657793D01*
X13629706Y-14657793D02*
X13620182Y-14638746D01*
X13620182Y-14638746D02*
X13620182Y-14629222D01*
X13620182Y-14629222D02*
X13629706Y-14610174D01*
X13629706Y-14610174D02*
X13648753Y-14600650D01*
X13648753Y-14600650D02*
X13677325Y-14600650D01*
X13677325Y-14600650D02*
X13696372Y-14610174D01*
X13772563Y-14810174D02*
X13782087Y-14800650D01*
X13782087Y-14800650D02*
X13801134Y-14772079D01*
X13801134Y-14772079D02*
X13810658Y-14753031D01*
X13810658Y-14753031D02*
X13820182Y-14724460D01*
X13820182Y-14724460D02*
X13829706Y-14676841D01*
X13829706Y-14676841D02*
X13829706Y-14638746D01*
X13829706Y-14638746D02*
X13820182Y-14591127D01*
X13820182Y-14591127D02*
X13810658Y-14562555D01*
X13810658Y-14562555D02*
X13801134Y-14543508D01*
X13801134Y-14543508D02*
X13782087Y-14514936D01*
X13782087Y-14514936D02*
X13772563Y-14505412D01*
X14134468Y-14810174D02*
X14124944Y-14800650D01*
X14124944Y-14800650D02*
X14105896Y-14772079D01*
X14105896Y-14772079D02*
X14096372Y-14753031D01*
X14096372Y-14753031D02*
X14086849Y-14724460D01*
X14086849Y-14724460D02*
X14077325Y-14676841D01*
X14077325Y-14676841D02*
X14077325Y-14638746D01*
X14077325Y-14638746D02*
X14086849Y-14591127D01*
X14086849Y-14591127D02*
X14096372Y-14562555D01*
X14096372Y-14562555D02*
X14105896Y-14543508D01*
X14105896Y-14543508D02*
X14124944Y-14514936D01*
X14124944Y-14514936D02*
X14134468Y-14505412D01*
X14210658Y-14600650D02*
X14210658Y-14733984D01*
X14210658Y-14619698D02*
X14220182Y-14610174D01*
X14220182Y-14610174D02*
X14239230Y-14600650D01*
X14239230Y-14600650D02*
X14267801Y-14600650D01*
X14267801Y-14600650D02*
X14286849Y-14610174D01*
X14286849Y-14610174D02*
X14296372Y-14629222D01*
X14296372Y-14629222D02*
X14296372Y-14733984D01*
X14420182Y-14733984D02*
X14401134Y-14724460D01*
X14401134Y-14724460D02*
X14391611Y-14714936D01*
X14391611Y-14714936D02*
X14382087Y-14695888D01*
X14382087Y-14695888D02*
X14382087Y-14638746D01*
X14382087Y-14638746D02*
X14391611Y-14619698D01*
X14391611Y-14619698D02*
X14401134Y-14610174D01*
X14401134Y-14610174D02*
X14420182Y-14600650D01*
X14420182Y-14600650D02*
X14448753Y-14600650D01*
X14448753Y-14600650D02*
X14467801Y-14610174D01*
X14467801Y-14610174D02*
X14477325Y-14619698D01*
X14477325Y-14619698D02*
X14486849Y-14638746D01*
X14486849Y-14638746D02*
X14486849Y-14695888D01*
X14486849Y-14695888D02*
X14477325Y-14714936D01*
X14477325Y-14714936D02*
X14467801Y-14724460D01*
X14467801Y-14724460D02*
X14448753Y-14733984D01*
X14448753Y-14733984D02*
X14420182Y-14733984D01*
X14543992Y-14600650D02*
X14620182Y-14600650D01*
X14572563Y-14533984D02*
X14572563Y-14705412D01*
X14572563Y-14705412D02*
X14582087Y-14724460D01*
X14582087Y-14724460D02*
X14601134Y-14733984D01*
X14601134Y-14733984D02*
X14620182Y-14733984D01*
X14839230Y-14600650D02*
X14839230Y-14800650D01*
X14839230Y-14610174D02*
X14858277Y-14600650D01*
X14858277Y-14600650D02*
X14896373Y-14600650D01*
X14896373Y-14600650D02*
X14915420Y-14610174D01*
X14915420Y-14610174D02*
X14924944Y-14619698D01*
X14924944Y-14619698D02*
X14934468Y-14638746D01*
X14934468Y-14638746D02*
X14934468Y-14695888D01*
X14934468Y-14695888D02*
X14924944Y-14714936D01*
X14924944Y-14714936D02*
X14915420Y-14724460D01*
X14915420Y-14724460D02*
X14896373Y-14733984D01*
X14896373Y-14733984D02*
X14858277Y-14733984D01*
X14858277Y-14733984D02*
X14839230Y-14724460D01*
X15048753Y-14733984D02*
X15029706Y-14724460D01*
X15029706Y-14724460D02*
X15020182Y-14705412D01*
X15020182Y-14705412D02*
X15020182Y-14533984D01*
X15210658Y-14733984D02*
X15210658Y-14629222D01*
X15210658Y-14629222D02*
X15201134Y-14610174D01*
X15201134Y-14610174D02*
X15182087Y-14600650D01*
X15182087Y-14600650D02*
X15143992Y-14600650D01*
X15143992Y-14600650D02*
X15124944Y-14610174D01*
X15210658Y-14724460D02*
X15191611Y-14733984D01*
X15191611Y-14733984D02*
X15143992Y-14733984D01*
X15143992Y-14733984D02*
X15124944Y-14724460D01*
X15124944Y-14724460D02*
X15115420Y-14705412D01*
X15115420Y-14705412D02*
X15115420Y-14686365D01*
X15115420Y-14686365D02*
X15124944Y-14667317D01*
X15124944Y-14667317D02*
X15143992Y-14657793D01*
X15143992Y-14657793D02*
X15191611Y-14657793D01*
X15191611Y-14657793D02*
X15210658Y-14648269D01*
X15277325Y-14600650D02*
X15353515Y-14600650D01*
X15305896Y-14533984D02*
X15305896Y-14705412D01*
X15305896Y-14705412D02*
X15315420Y-14724460D01*
X15315420Y-14724460D02*
X15334468Y-14733984D01*
X15334468Y-14733984D02*
X15353515Y-14733984D01*
X15496373Y-14724460D02*
X15477325Y-14733984D01*
X15477325Y-14733984D02*
X15439230Y-14733984D01*
X15439230Y-14733984D02*
X15420182Y-14724460D01*
X15420182Y-14724460D02*
X15410658Y-14705412D01*
X15410658Y-14705412D02*
X15410658Y-14629222D01*
X15410658Y-14629222D02*
X15420182Y-14610174D01*
X15420182Y-14610174D02*
X15439230Y-14600650D01*
X15439230Y-14600650D02*
X15477325Y-14600650D01*
X15477325Y-14600650D02*
X15496373Y-14610174D01*
X15496373Y-14610174D02*
X15505896Y-14629222D01*
X15505896Y-14629222D02*
X15505896Y-14648269D01*
X15505896Y-14648269D02*
X15410658Y-14667317D01*
X15677325Y-14733984D02*
X15677325Y-14533984D01*
X15677325Y-14724460D02*
X15658277Y-14733984D01*
X15658277Y-14733984D02*
X15620182Y-14733984D01*
X15620182Y-14733984D02*
X15601134Y-14724460D01*
X15601134Y-14724460D02*
X15591611Y-14714936D01*
X15591611Y-14714936D02*
X15582087Y-14695888D01*
X15582087Y-14695888D02*
X15582087Y-14638746D01*
X15582087Y-14638746D02*
X15591611Y-14619698D01*
X15591611Y-14619698D02*
X15601134Y-14610174D01*
X15601134Y-14610174D02*
X15620182Y-14600650D01*
X15620182Y-14600650D02*
X15658277Y-14600650D01*
X15658277Y-14600650D02*
X15677325Y-14610174D01*
X15753515Y-14810174D02*
X15763039Y-14800650D01*
X15763039Y-14800650D02*
X15782087Y-14772079D01*
X15782087Y-14772079D02*
X15791611Y-14753031D01*
X15791611Y-14753031D02*
X15801134Y-14724460D01*
X15801134Y-14724460D02*
X15810658Y-14676841D01*
X15810658Y-14676841D02*
X15810658Y-14638746D01*
X15810658Y-14638746D02*
X15801134Y-14591127D01*
X15801134Y-14591127D02*
X15791611Y-14562555D01*
X15791611Y-14562555D02*
X15782087Y-14543508D01*
X15782087Y-14543508D02*
X15763039Y-14514936D01*
X15763039Y-14514936D02*
X15753515Y-14505412D01*
M02*
