%TF.GenerationSoftware,KiCad,Pcbnew,8.0.6*%
%TF.CreationDate,2024-12-03T08:55:30+01:00*%
%TF.ProjectId,PCB_Tester,5043425f-5465-4737-9465-722e6b696361,rev?*%
%TF.SameCoordinates,Original*%
%TF.FileFunction,Paste,Top*%
%TF.FilePolarity,Positive*%
%FSLAX46Y46*%
G04 Gerber Fmt 4.6, Leading zero omitted, Abs format (unit mm)*
G04 Created by KiCad (PCBNEW 8.0.6) date 2024-12-03 08:55:30*
%MOMM*%
%LPD*%
G01*
G04 APERTURE LIST*
G04 Aperture macros list*
%AMRoundRect*
0 Rectangle with rounded corners*
0 $1 Rounding radius*
0 $2 $3 $4 $5 $6 $7 $8 $9 X,Y pos of 4 corners*
0 Add a 4 corners polygon primitive as box body*
4,1,4,$2,$3,$4,$5,$6,$7,$8,$9,$2,$3,0*
0 Add four circle primitives for the rounded corners*
1,1,$1+$1,$2,$3*
1,1,$1+$1,$4,$5*
1,1,$1+$1,$6,$7*
1,1,$1+$1,$8,$9*
0 Add four rect primitives between the rounded corners*
20,1,$1+$1,$2,$3,$4,$5,0*
20,1,$1+$1,$4,$5,$6,$7,0*
20,1,$1+$1,$6,$7,$8,$9,0*
20,1,$1+$1,$8,$9,$2,$3,0*%
G04 Aperture macros list end*
%ADD10RoundRect,0.250000X-0.450000X0.262500X-0.450000X-0.262500X0.450000X-0.262500X0.450000X0.262500X0*%
%ADD11RoundRect,0.250000X0.450000X-0.262500X0.450000X0.262500X-0.450000X0.262500X-0.450000X-0.262500X0*%
%ADD12RoundRect,0.243750X-0.456250X0.243750X-0.456250X-0.243750X0.456250X-0.243750X0.456250X0.243750X0*%
%ADD13RoundRect,0.250000X0.262500X0.450000X-0.262500X0.450000X-0.262500X-0.450000X0.262500X-0.450000X0*%
%ADD14RoundRect,0.243750X0.456250X-0.243750X0.456250X0.243750X-0.456250X0.243750X-0.456250X-0.243750X0*%
%ADD15RoundRect,0.250000X-0.475000X0.250000X-0.475000X-0.250000X0.475000X-0.250000X0.475000X0.250000X0*%
%ADD16RoundRect,0.150000X0.150000X-0.587500X0.150000X0.587500X-0.150000X0.587500X-0.150000X-0.587500X0*%
G04 APERTURE END LIST*
D10*
%TO.C,R27*%
X129480000Y-120660000D03*
X129480000Y-122485000D03*
%TD*%
D11*
%TO.C,R49*%
X119400000Y-60025000D03*
X119400000Y-58200000D03*
%TD*%
D12*
%TO.C,D8*%
X116680000Y-124235000D03*
X116680000Y-126110000D03*
%TD*%
%TO.C,D11*%
X124280000Y-124235000D03*
X124280000Y-126110000D03*
%TD*%
D13*
%TO.C,R29*%
X171112500Y-53500000D03*
X169287500Y-53500000D03*
%TD*%
D11*
%TO.C,R45*%
X129500000Y-60025000D03*
X129500000Y-58200000D03*
%TD*%
D10*
%TO.C,R20*%
X111580000Y-120647500D03*
X111580000Y-122472500D03*
%TD*%
%TO.C,R5*%
X109080000Y-113147500D03*
X109080000Y-114972500D03*
%TD*%
%TO.C,R1*%
X98980000Y-113172500D03*
X98980000Y-114997500D03*
%TD*%
D14*
%TO.C,D17*%
X129500000Y-56475000D03*
X129500000Y-54600000D03*
%TD*%
D10*
%TO.C,R57*%
X106600000Y-102875000D03*
X106600000Y-104700000D03*
%TD*%
D15*
%TO.C,C6*%
X174900000Y-55400000D03*
X174900000Y-57300000D03*
%TD*%
D13*
%TO.C,R43*%
X167500000Y-57500000D03*
X165675000Y-57500000D03*
%TD*%
D12*
%TO.C,D2*%
X101480000Y-124235000D03*
X101480000Y-126110000D03*
%TD*%
D15*
%TO.C,C5*%
X172800000Y-55400000D03*
X172800000Y-57300000D03*
%TD*%
D10*
%TO.C,R25*%
X124280000Y-120660000D03*
X124280000Y-122485000D03*
%TD*%
D12*
%TO.C,D13*%
X129480000Y-124235000D03*
X129480000Y-126110000D03*
%TD*%
D10*
%TO.C,R55*%
X101500000Y-102900000D03*
X101500000Y-104725000D03*
%TD*%
D11*
%TO.C,R46*%
X127000000Y-60025000D03*
X127000000Y-58200000D03*
%TD*%
D10*
%TO.C,R8*%
X116680000Y-113172500D03*
X116680000Y-114997500D03*
%TD*%
D14*
%TO.C,D19*%
X124400000Y-56475000D03*
X124400000Y-54600000D03*
%TD*%
D10*
%TO.C,R54*%
X98900000Y-102875000D03*
X98900000Y-104700000D03*
%TD*%
D15*
%TO.C,C1*%
X172625000Y-64425000D03*
X172625000Y-66325000D03*
%TD*%
D12*
%TO.C,D7*%
X114180000Y-124235000D03*
X114180000Y-126110000D03*
%TD*%
D15*
%TO.C,C4*%
X174925000Y-73675000D03*
X174925000Y-75575000D03*
%TD*%
D11*
%TO.C,R47*%
X124400000Y-60025000D03*
X124400000Y-58200000D03*
%TD*%
D10*
%TO.C,R26*%
X126880000Y-120660000D03*
X126880000Y-122485000D03*
%TD*%
D12*
%TO.C,D5*%
X109080000Y-124235000D03*
X109080000Y-126110000D03*
%TD*%
D10*
%TO.C,R17*%
X103980000Y-120660000D03*
X103980000Y-122485000D03*
%TD*%
D13*
%TO.C,R42*%
X175137500Y-71775000D03*
X173312500Y-71775000D03*
%TD*%
D10*
%TO.C,R63*%
X127700000Y-102900000D03*
X127700000Y-104725000D03*
%TD*%
%TO.C,R36*%
X170600000Y-46475000D03*
X170600000Y-48300000D03*
%TD*%
%TO.C,R12*%
X126880000Y-113147500D03*
X126880000Y-114972500D03*
%TD*%
%TO.C,R10*%
X121780000Y-113160000D03*
X121780000Y-114985000D03*
%TD*%
%TO.C,R67*%
X137100000Y-102900000D03*
X137100000Y-104725000D03*
%TD*%
D13*
%TO.C,R37*%
X175100000Y-44575000D03*
X173275000Y-44575000D03*
%TD*%
D10*
%TO.C,R28*%
X131980000Y-120647500D03*
X131980000Y-122472500D03*
%TD*%
%TO.C,R19*%
X109080000Y-120647500D03*
X109080000Y-122472500D03*
%TD*%
%TO.C,R58*%
X109100000Y-102900000D03*
X109100000Y-104725000D03*
%TD*%
D14*
%TO.C,D20*%
X121900000Y-56437500D03*
X121900000Y-54562500D03*
%TD*%
D12*
%TO.C,D9*%
X119280000Y-124235000D03*
X119280000Y-126110000D03*
%TD*%
%TO.C,D6*%
X111580000Y-124235000D03*
X111580000Y-126110000D03*
%TD*%
D10*
%TO.C,R15*%
X98980000Y-120660000D03*
X98980000Y-122485000D03*
%TD*%
D11*
%TO.C,R39*%
X132100000Y-60025000D03*
X132100000Y-58200000D03*
%TD*%
D12*
%TO.C,D10*%
X121780000Y-124235000D03*
X121780000Y-126110000D03*
%TD*%
D10*
%TO.C,R61*%
X122700000Y-102900000D03*
X122700000Y-104725000D03*
%TD*%
%TO.C,R9*%
X119280000Y-113160000D03*
X119280000Y-114985000D03*
%TD*%
%TO.C,R7*%
X114180000Y-113147500D03*
X114180000Y-114972500D03*
%TD*%
D12*
%TO.C,D3*%
X103980000Y-124235000D03*
X103980000Y-126110000D03*
%TD*%
D10*
%TO.C,R56*%
X104000000Y-102900000D03*
X104000000Y-104725000D03*
%TD*%
%TO.C,R59*%
X111200000Y-102900000D03*
X111200000Y-104725000D03*
%TD*%
D15*
%TO.C,C8*%
X174900000Y-46425000D03*
X174900000Y-48325000D03*
%TD*%
D14*
%TO.C,D21*%
X119400000Y-56475000D03*
X119400000Y-54600000D03*
%TD*%
D11*
%TO.C,R50*%
X116800000Y-60012500D03*
X116800000Y-58187500D03*
%TD*%
D10*
%TO.C,R60*%
X113300000Y-102900000D03*
X113300000Y-104725000D03*
%TD*%
%TO.C,R64*%
X130300000Y-102900000D03*
X130300000Y-104725000D03*
%TD*%
D11*
%TO.C,R51*%
X114200000Y-60012500D03*
X114200000Y-58187500D03*
%TD*%
%TO.C,R48*%
X121900000Y-60025000D03*
X121900000Y-58200000D03*
%TD*%
D13*
%TO.C,R35*%
X171200000Y-44575000D03*
X169375000Y-44575000D03*
%TD*%
%TO.C,R44*%
X167612500Y-48600000D03*
X165787500Y-48600000D03*
%TD*%
D12*
%TO.C,D4*%
X106580000Y-124235000D03*
X106580000Y-126110000D03*
%TD*%
D10*
%TO.C,R23*%
X119280000Y-120672500D03*
X119280000Y-122497500D03*
%TD*%
%TO.C,R62*%
X125200000Y-102900000D03*
X125200000Y-104725000D03*
%TD*%
D11*
%TO.C,R53*%
X109200000Y-60025000D03*
X109200000Y-58200000D03*
%TD*%
D13*
%TO.C,R40*%
X171050000Y-71775000D03*
X169225000Y-71775000D03*
%TD*%
D14*
%TO.C,D16*%
X132100000Y-56475000D03*
X132100000Y-54600000D03*
%TD*%
%TO.C,D23*%
X114200000Y-56437500D03*
X114200000Y-54562500D03*
%TD*%
D12*
%TO.C,D14*%
X131980000Y-124235000D03*
X131980000Y-126110000D03*
%TD*%
D10*
%TO.C,R66*%
X135000000Y-102900000D03*
X135000000Y-104725000D03*
%TD*%
%TO.C,R16*%
X101480000Y-120660000D03*
X101480000Y-122485000D03*
%TD*%
%TO.C,R30*%
X170600000Y-55400000D03*
X170600000Y-57225000D03*
%TD*%
D15*
%TO.C,C3*%
X172725000Y-73675000D03*
X172725000Y-75575000D03*
%TD*%
D12*
%TO.C,D12*%
X126880000Y-124235000D03*
X126880000Y-126110000D03*
%TD*%
D16*
%TO.C,Q1*%
X165650000Y-55375000D03*
X167550000Y-55375000D03*
X166600000Y-53500000D03*
%TD*%
D14*
%TO.C,D25*%
X109200000Y-56437500D03*
X109200000Y-54562500D03*
%TD*%
%TO.C,D24*%
X111700000Y-56475000D03*
X111700000Y-54600000D03*
%TD*%
D10*
%TO.C,R2*%
X101480000Y-113160000D03*
X101480000Y-114985000D03*
%TD*%
D14*
%TO.C,D18*%
X127000000Y-56475000D03*
X127000000Y-54600000D03*
%TD*%
D13*
%TO.C,R34*%
X175112500Y-53500000D03*
X173287500Y-53500000D03*
%TD*%
D15*
%TO.C,C2*%
X174825000Y-64425000D03*
X174825000Y-66325000D03*
%TD*%
%TO.C,C7*%
X172800000Y-46425000D03*
X172800000Y-48325000D03*
%TD*%
D10*
%TO.C,R13*%
X129380000Y-113160000D03*
X129380000Y-114985000D03*
%TD*%
%TO.C,R3*%
X103980000Y-113172500D03*
X103980000Y-114997500D03*
%TD*%
%TO.C,R21*%
X114180000Y-120647500D03*
X114180000Y-122472500D03*
%TD*%
%TO.C,R6*%
X111680000Y-113147500D03*
X111680000Y-114972500D03*
%TD*%
D13*
%TO.C,R33*%
X175025000Y-62575000D03*
X173200000Y-62575000D03*
%TD*%
D10*
%TO.C,R18*%
X106580000Y-120647500D03*
X106580000Y-122472500D03*
%TD*%
%TO.C,R32*%
X170425000Y-64450000D03*
X170425000Y-66275000D03*
%TD*%
D11*
%TO.C,R52*%
X111700000Y-60025000D03*
X111700000Y-58200000D03*
%TD*%
D14*
%TO.C,D22*%
X116800000Y-56437500D03*
X116800000Y-54562500D03*
%TD*%
%TO.C,D15*%
X134600000Y-56437500D03*
X134600000Y-54562500D03*
%TD*%
D10*
%TO.C,R14*%
X131980000Y-113147500D03*
X131980000Y-114972500D03*
%TD*%
%TO.C,R4*%
X106580000Y-113147500D03*
X106580000Y-114972500D03*
%TD*%
D12*
%TO.C,D1*%
X98980000Y-124235000D03*
X98980000Y-126110000D03*
%TD*%
D11*
%TO.C,R38*%
X134600000Y-60012500D03*
X134600000Y-58187500D03*
%TD*%
D10*
%TO.C,R65*%
X132900000Y-102900000D03*
X132900000Y-104725000D03*
%TD*%
%TO.C,R41*%
X170525000Y-73675000D03*
X170525000Y-75500000D03*
%TD*%
%TO.C,R22*%
X116680000Y-120647500D03*
X116680000Y-122472500D03*
%TD*%
D16*
%TO.C,Q2*%
X165750000Y-46475000D03*
X167650000Y-46475000D03*
X166700000Y-44600000D03*
%TD*%
D10*
%TO.C,R24*%
X121780000Y-120660000D03*
X121780000Y-122485000D03*
%TD*%
%TO.C,R11*%
X124280000Y-113160000D03*
X124280000Y-114985000D03*
%TD*%
D13*
%TO.C,R31*%
X170950000Y-62575000D03*
X169125000Y-62575000D03*
%TD*%
M02*
