%TF.GenerationSoftware,KiCad,Pcbnew,8.0.6*%
%TF.CreationDate,2024-12-03T08:56:13+01:00*%
%TF.ProjectId,PCB_Tester,5043425f-5465-4737-9465-722e6b696361,rev?*%
%TF.SameCoordinates,Original*%
%TF.FileFunction,Drillmap*%
%TF.FilePolarity,Positive*%
%FSLAX45Y45*%
G04 Gerber Fmt 4.5, Leading zero omitted, Abs format (unit mm)*
G04 Created by KiCad (PCBNEW 8.0.6) date 2024-12-03 08:56:13*
%MOMM*%
%LPD*%
G01*
G04 APERTURE LIST*
%ADD10C,0.050000*%
%ADD11C,0.200000*%
%ADD12C,0.100000*%
%ADD13C,0.120000*%
G04 APERTURE END LIST*
D10*
X19000000Y-14000000D02*
X9000000Y-14000000D01*
X19000000Y-4000000D02*
X19000000Y-14000000D01*
X9000000Y-14000000D02*
X9000000Y-4000000D01*
X9000000Y-4000000D02*
X19000000Y-4000000D01*
D11*
D12*
X9065000Y-5485000D02*
X9095000Y-5515000D01*
X9095000Y-5485000D02*
X9065000Y-5515000D01*
X9065000Y-8375000D02*
X9095000Y-8405000D01*
X9095000Y-8375000D02*
X9065000Y-8405000D01*
X9065000Y-8855000D02*
X9095000Y-8885000D01*
X9095000Y-8855000D02*
X9065000Y-8885000D01*
X9075000Y-7925000D02*
X9105000Y-7955000D01*
X9105000Y-7925000D02*
X9075000Y-7955000D01*
X9085000Y-5935000D02*
X9115000Y-5965000D01*
X9115000Y-5935000D02*
X9085000Y-5965000D01*
X9085000Y-6445000D02*
X9115000Y-6475000D01*
X9115000Y-6445000D02*
X9085000Y-6475000D01*
X9085000Y-7045000D02*
X9115000Y-7075000D01*
X9115000Y-7045000D02*
X9085000Y-7075000D01*
X9085000Y-7575000D02*
X9115000Y-7605000D01*
X9115000Y-7575000D02*
X9085000Y-7605000D01*
X9085000Y-9305000D02*
X9115000Y-9335000D01*
X9115000Y-9305000D02*
X9085000Y-9335000D01*
X9085000Y-9815000D02*
X9115000Y-9845000D01*
X9115000Y-9815000D02*
X9085000Y-9845000D01*
X9085000Y-10415000D02*
X9115000Y-10445000D01*
X9115000Y-10415000D02*
X9085000Y-10445000D01*
X9085000Y-10945000D02*
X9115000Y-10975000D01*
X9115000Y-10945000D02*
X9085000Y-10975000D01*
X9095000Y-4185000D02*
X9125000Y-4215000D01*
X9125000Y-4185000D02*
X9095000Y-4215000D01*
X9095000Y-5075000D02*
X9125000Y-5105000D01*
X9125000Y-5075000D02*
X9095000Y-5105000D01*
X9095000Y-13005000D02*
X9125000Y-13035000D01*
X9125000Y-13005000D02*
X9095000Y-13035000D01*
X9105000Y-11455000D02*
X9135000Y-11485000D01*
X9135000Y-11455000D02*
X9105000Y-11485000D01*
X9105000Y-11965000D02*
X9135000Y-11995000D01*
X9135000Y-11965000D02*
X9105000Y-11995000D01*
X9105000Y-12565000D02*
X9135000Y-12595000D01*
X9135000Y-12565000D02*
X9105000Y-12595000D01*
X9105000Y-13825000D02*
X9135000Y-13855000D01*
X9135000Y-13825000D02*
X9105000Y-13855000D01*
X9335000Y-4185000D02*
X9365000Y-4215000D01*
X9365000Y-4185000D02*
X9335000Y-4215000D01*
X9335000Y-5075000D02*
X9365000Y-5105000D01*
X9365000Y-5075000D02*
X9335000Y-5105000D01*
X9335000Y-13005000D02*
X9365000Y-13035000D01*
X9365000Y-13005000D02*
X9335000Y-13035000D01*
X9345000Y-13825000D02*
X9375000Y-13855000D01*
X9375000Y-13825000D02*
X9345000Y-13855000D01*
X9405000Y-8415000D02*
X9435000Y-8445000D01*
X9435000Y-8415000D02*
X9405000Y-8445000D01*
X9405000Y-10175000D02*
X9435000Y-10205000D01*
X9435000Y-10175000D02*
X9405000Y-10205000D01*
X9405000Y-10455000D02*
X9435000Y-10485000D01*
X9435000Y-10455000D02*
X9405000Y-10485000D01*
X9415000Y-7745000D02*
X9445000Y-7775000D01*
X9445000Y-7745000D02*
X9415000Y-7775000D01*
X9425000Y-9305000D02*
X9455000Y-9335000D01*
X9455000Y-9305000D02*
X9425000Y-9335000D01*
X9425000Y-11255000D02*
X9455000Y-11285000D01*
X9455000Y-11255000D02*
X9425000Y-11285000D01*
X9425000Y-12345000D02*
X9455000Y-12375000D01*
X9455000Y-12345000D02*
X9425000Y-12375000D01*
X9495000Y-7365000D02*
X9525000Y-7395000D01*
X9525000Y-7365000D02*
X9495000Y-7395000D01*
X9505000Y-5635000D02*
X9535000Y-5665000D01*
X9535000Y-5635000D02*
X9505000Y-5665000D01*
X9505000Y-5985000D02*
X9535000Y-6015000D01*
X9535000Y-5985000D02*
X9505000Y-6015000D01*
X9505000Y-6525000D02*
X9535000Y-6555000D01*
X9535000Y-6525000D02*
X9505000Y-6555000D01*
X9505000Y-6955000D02*
X9535000Y-6985000D01*
X9535000Y-6955000D02*
X9505000Y-6985000D01*
X9575000Y-4185000D02*
X9605000Y-4215000D01*
X9605000Y-4185000D02*
X9575000Y-4215000D01*
X9575000Y-5075000D02*
X9605000Y-5105000D01*
X9605000Y-5075000D02*
X9575000Y-5105000D01*
X9575000Y-13005000D02*
X9605000Y-13035000D01*
X9605000Y-13005000D02*
X9575000Y-13035000D01*
X9585000Y-13825000D02*
X9615000Y-13855000D01*
X9615000Y-13825000D02*
X9585000Y-13855000D01*
X9595000Y-11485000D02*
X9625000Y-11515000D01*
X9625000Y-11485000D02*
X9595000Y-11515000D01*
X9595000Y-11965000D02*
X9625000Y-11995000D01*
X9625000Y-11965000D02*
X9595000Y-11995000D01*
X9595000Y-12435000D02*
X9625000Y-12465000D01*
X9625000Y-12435000D02*
X9595000Y-12465000D01*
X9625000Y-10495000D02*
X9655000Y-10525000D01*
X9655000Y-10495000D02*
X9625000Y-10525000D01*
X9645000Y-12595000D02*
X9675000Y-12625000D01*
X9675000Y-12595000D02*
X9645000Y-12625000D01*
X9725000Y-10155000D02*
X9755000Y-10185000D01*
X9755000Y-10155000D02*
X9725000Y-10185000D01*
X9755000Y-9685000D02*
X9785000Y-9715000D01*
X9785000Y-9685000D02*
X9755000Y-9715000D01*
X9755000Y-10585000D02*
X9785000Y-10615000D01*
X9785000Y-10585000D02*
X9755000Y-10615000D01*
X9795000Y-8325000D02*
X9825000Y-8355000D01*
X9825000Y-8325000D02*
X9795000Y-8355000D01*
X9795000Y-8755000D02*
X9825000Y-8785000D01*
X9825000Y-8755000D02*
X9795000Y-8785000D01*
X9835000Y-4185000D02*
X9865000Y-4215000D01*
X9865000Y-4185000D02*
X9835000Y-4215000D01*
X9835000Y-4535000D02*
X9865000Y-4565000D01*
X9865000Y-4535000D02*
X9835000Y-4565000D01*
X9835000Y-5075000D02*
X9865000Y-5105000D01*
X9865000Y-5075000D02*
X9835000Y-5105000D01*
X9835000Y-13005000D02*
X9865000Y-13035000D01*
X9865000Y-13005000D02*
X9835000Y-13035000D01*
X9845000Y-13435000D02*
X9875000Y-13465000D01*
X9875000Y-13435000D02*
X9845000Y-13465000D01*
X9845000Y-13825000D02*
X9875000Y-13855000D01*
X9875000Y-13825000D02*
X9845000Y-13855000D01*
X9865000Y-9485000D02*
X9895000Y-9515000D01*
X9895000Y-9485000D02*
X9865000Y-9515000D01*
X9935000Y-7375000D02*
X9965000Y-7405000D01*
X9965000Y-7375000D02*
X9935000Y-7405000D01*
X9945000Y-5645000D02*
X9975000Y-5675000D01*
X9975000Y-5645000D02*
X9945000Y-5675000D01*
X9945000Y-5995000D02*
X9975000Y-6025000D01*
X9975000Y-5995000D02*
X9945000Y-6025000D01*
X9945000Y-6535000D02*
X9975000Y-6565000D01*
X9975000Y-6535000D02*
X9945000Y-6565000D01*
X9945000Y-6965000D02*
X9975000Y-6995000D01*
X9975000Y-6965000D02*
X9945000Y-6995000D01*
X9995000Y-10135000D02*
X10025000Y-10165000D01*
X10025000Y-10135000D02*
X9995000Y-10165000D01*
X9995000Y-10585000D02*
X10025000Y-10615000D01*
X10025000Y-10585000D02*
X9995000Y-10615000D01*
X10005000Y-11065000D02*
X10035000Y-11095000D01*
X10035000Y-11065000D02*
X10005000Y-11095000D01*
X10005000Y-11955000D02*
X10035000Y-11985000D01*
X10035000Y-11955000D02*
X10005000Y-11985000D01*
X10035000Y-8325000D02*
X10065000Y-8355000D01*
X10065000Y-8325000D02*
X10035000Y-8355000D01*
X10035000Y-8755000D02*
X10065000Y-8785000D01*
X10065000Y-8755000D02*
X10035000Y-8785000D01*
X10095000Y-4185000D02*
X10125000Y-4215000D01*
X10125000Y-4185000D02*
X10095000Y-4215000D01*
X10095000Y-4535000D02*
X10125000Y-4565000D01*
X10125000Y-4535000D02*
X10095000Y-4565000D01*
X10095000Y-5075000D02*
X10125000Y-5105000D01*
X10125000Y-5075000D02*
X10095000Y-5105000D01*
X10095000Y-13005000D02*
X10125000Y-13035000D01*
X10125000Y-13005000D02*
X10095000Y-13035000D01*
X10105000Y-13435000D02*
X10135000Y-13465000D01*
X10135000Y-13435000D02*
X10105000Y-13465000D01*
X10105000Y-13825000D02*
X10135000Y-13855000D01*
X10135000Y-13825000D02*
X10105000Y-13855000D01*
X10155000Y-9485000D02*
X10185000Y-9515000D01*
X10185000Y-9485000D02*
X10155000Y-9515000D01*
X10255000Y-10135000D02*
X10285000Y-10165000D01*
X10285000Y-10135000D02*
X10255000Y-10165000D01*
X10255000Y-10585000D02*
X10285000Y-10615000D01*
X10285000Y-10585000D02*
X10255000Y-10615000D01*
X10255000Y-11075000D02*
X10285000Y-11105000D01*
X10285000Y-11075000D02*
X10255000Y-11105000D01*
X10255000Y-11955000D02*
X10285000Y-11985000D01*
X10285000Y-11955000D02*
X10255000Y-11985000D01*
X10275000Y-5645000D02*
X10305000Y-5675000D01*
X10305000Y-5645000D02*
X10275000Y-5675000D01*
X10275000Y-5995000D02*
X10305000Y-6025000D01*
X10305000Y-5995000D02*
X10275000Y-6025000D01*
X10275000Y-8325000D02*
X10305000Y-8355000D01*
X10305000Y-8325000D02*
X10275000Y-8355000D01*
X10275000Y-8755000D02*
X10305000Y-8785000D01*
X10305000Y-8755000D02*
X10275000Y-8785000D01*
X10325000Y-7375000D02*
X10355000Y-7405000D01*
X10355000Y-7375000D02*
X10325000Y-7405000D01*
X10335000Y-6535000D02*
X10365000Y-6565000D01*
X10365000Y-6535000D02*
X10335000Y-6565000D01*
X10335000Y-6965000D02*
X10365000Y-6995000D01*
X10365000Y-6965000D02*
X10335000Y-6995000D01*
X10365000Y-4185000D02*
X10395000Y-4215000D01*
X10395000Y-4185000D02*
X10365000Y-4215000D01*
X10365000Y-4535000D02*
X10395000Y-4565000D01*
X10395000Y-4535000D02*
X10365000Y-4565000D01*
X10365000Y-5075000D02*
X10395000Y-5105000D01*
X10395000Y-5075000D02*
X10365000Y-5105000D01*
X10365000Y-13005000D02*
X10395000Y-13035000D01*
X10395000Y-13005000D02*
X10365000Y-13035000D01*
X10375000Y-13435000D02*
X10405000Y-13465000D01*
X10405000Y-13435000D02*
X10375000Y-13465000D01*
X10375000Y-13825000D02*
X10405000Y-13855000D01*
X10405000Y-13825000D02*
X10375000Y-13855000D01*
X10415000Y-9495000D02*
X10445000Y-9525000D01*
X10445000Y-9495000D02*
X10415000Y-9525000D01*
X10505000Y-11075000D02*
X10535000Y-11105000D01*
X10535000Y-11075000D02*
X10505000Y-11105000D01*
X10515000Y-10135000D02*
X10545000Y-10165000D01*
X10545000Y-10135000D02*
X10515000Y-10165000D01*
X10515000Y-10585000D02*
X10545000Y-10615000D01*
X10545000Y-10585000D02*
X10515000Y-10615000D01*
X10515000Y-11955000D02*
X10545000Y-11985000D01*
X10545000Y-11955000D02*
X10515000Y-11985000D01*
X10535000Y-7845000D02*
X10565000Y-7875000D01*
X10565000Y-7845000D02*
X10535000Y-7875000D01*
X10535000Y-8325000D02*
X10565000Y-8355000D01*
X10565000Y-8325000D02*
X10535000Y-8355000D01*
X10535000Y-8755000D02*
X10565000Y-8785000D01*
X10565000Y-8755000D02*
X10535000Y-8785000D01*
X10625000Y-4185000D02*
X10655000Y-4215000D01*
X10655000Y-4185000D02*
X10625000Y-4215000D01*
X10625000Y-4535000D02*
X10655000Y-4565000D01*
X10655000Y-4535000D02*
X10625000Y-4565000D01*
X10625000Y-5075000D02*
X10655000Y-5105000D01*
X10655000Y-5075000D02*
X10625000Y-5105000D01*
X10625000Y-13005000D02*
X10655000Y-13035000D01*
X10655000Y-13005000D02*
X10625000Y-13035000D01*
X10635000Y-13435000D02*
X10665000Y-13465000D01*
X10665000Y-13435000D02*
X10635000Y-13465000D01*
X10635000Y-13825000D02*
X10665000Y-13855000D01*
X10665000Y-13825000D02*
X10635000Y-13855000D01*
X10675000Y-9505000D02*
X10705000Y-9535000D01*
X10705000Y-9505000D02*
X10675000Y-9535000D01*
X10705000Y-5445000D02*
X10735000Y-5475000D01*
X10735000Y-5445000D02*
X10705000Y-5475000D01*
X10715000Y-5655000D02*
X10745000Y-5685000D01*
X10745000Y-5655000D02*
X10715000Y-5685000D01*
X10715000Y-6005000D02*
X10745000Y-6035000D01*
X10745000Y-6005000D02*
X10715000Y-6035000D01*
X10755000Y-11075000D02*
X10785000Y-11105000D01*
X10785000Y-11075000D02*
X10755000Y-11105000D01*
X10765000Y-7385000D02*
X10795000Y-7415000D01*
X10795000Y-7385000D02*
X10765000Y-7415000D01*
X10765000Y-10125000D02*
X10795000Y-10155000D01*
X10795000Y-10125000D02*
X10765000Y-10155000D01*
X10765000Y-10585000D02*
X10795000Y-10615000D01*
X10795000Y-10585000D02*
X10765000Y-10615000D01*
X10765000Y-11955000D02*
X10795000Y-11985000D01*
X10795000Y-11955000D02*
X10765000Y-11985000D01*
X10775000Y-6545000D02*
X10805000Y-6575000D01*
X10805000Y-6545000D02*
X10775000Y-6575000D01*
X10775000Y-6975000D02*
X10805000Y-7005000D01*
X10805000Y-6975000D02*
X10775000Y-7005000D01*
X10795000Y-8325000D02*
X10825000Y-8355000D01*
X10825000Y-8325000D02*
X10795000Y-8355000D01*
X10795000Y-8755000D02*
X10825000Y-8785000D01*
X10825000Y-8755000D02*
X10795000Y-8785000D01*
X10885000Y-4185000D02*
X10915000Y-4215000D01*
X10915000Y-4185000D02*
X10885000Y-4215000D01*
X10885000Y-4535000D02*
X10915000Y-4565000D01*
X10915000Y-4535000D02*
X10885000Y-4565000D01*
X10885000Y-5075000D02*
X10915000Y-5105000D01*
X10915000Y-5075000D02*
X10885000Y-5105000D01*
X10885000Y-13005000D02*
X10915000Y-13035000D01*
X10915000Y-13005000D02*
X10885000Y-13035000D01*
X10895000Y-13435000D02*
X10925000Y-13465000D01*
X10925000Y-13435000D02*
X10895000Y-13465000D01*
X10895000Y-13825000D02*
X10925000Y-13855000D01*
X10925000Y-13825000D02*
X10895000Y-13855000D01*
X10945000Y-9505000D02*
X10975000Y-9535000D01*
X10975000Y-9505000D02*
X10945000Y-9535000D01*
X11015000Y-10125000D02*
X11045000Y-10155000D01*
X11045000Y-10125000D02*
X11015000Y-10155000D01*
X11015000Y-11075000D02*
X11045000Y-11105000D01*
X11045000Y-11075000D02*
X11015000Y-11105000D01*
X11025000Y-6555000D02*
X11055000Y-6585000D01*
X11055000Y-6555000D02*
X11025000Y-6585000D01*
X11025000Y-10595000D02*
X11055000Y-10625000D01*
X11055000Y-10595000D02*
X11025000Y-10625000D01*
X11025000Y-11955000D02*
X11055000Y-11985000D01*
X11055000Y-11955000D02*
X11025000Y-11985000D01*
X11045000Y-7335000D02*
X11075000Y-7365000D01*
X11075000Y-7335000D02*
X11045000Y-7365000D01*
X11065000Y-8325000D02*
X11095000Y-8355000D01*
X11095000Y-8325000D02*
X11065000Y-8355000D01*
X11205000Y-4185000D02*
X11235000Y-4215000D01*
X11235000Y-4185000D02*
X11205000Y-4215000D01*
X11205000Y-4535000D02*
X11235000Y-4565000D01*
X11235000Y-4535000D02*
X11205000Y-4565000D01*
X11205000Y-5075000D02*
X11235000Y-5105000D01*
X11235000Y-5075000D02*
X11205000Y-5105000D01*
X11205000Y-13005000D02*
X11235000Y-13035000D01*
X11235000Y-13005000D02*
X11205000Y-13035000D01*
X11215000Y-13435000D02*
X11245000Y-13465000D01*
X11245000Y-13435000D02*
X11215000Y-13465000D01*
X11215000Y-13825000D02*
X11245000Y-13855000D01*
X11245000Y-13825000D02*
X11215000Y-13855000D01*
X11245000Y-10135000D02*
X11275000Y-10165000D01*
X11275000Y-10135000D02*
X11245000Y-10165000D01*
X11275000Y-10605000D02*
X11305000Y-10635000D01*
X11305000Y-10605000D02*
X11275000Y-10635000D01*
X11275000Y-11075000D02*
X11305000Y-11105000D01*
X11305000Y-11075000D02*
X11275000Y-11105000D01*
X11275000Y-11955000D02*
X11305000Y-11985000D01*
X11305000Y-11955000D02*
X11275000Y-11985000D01*
X11285000Y-6565000D02*
X11315000Y-6595000D01*
X11315000Y-6565000D02*
X11285000Y-6595000D01*
X11285000Y-9315000D02*
X11315000Y-9345000D01*
X11315000Y-9315000D02*
X11285000Y-9345000D01*
X11295000Y-7335000D02*
X11325000Y-7365000D01*
X11325000Y-7335000D02*
X11295000Y-7365000D01*
X11325000Y-8325000D02*
X11355000Y-8355000D01*
X11355000Y-8325000D02*
X11325000Y-8355000D01*
X11325000Y-8805000D02*
X11355000Y-8835000D01*
X11355000Y-8805000D02*
X11325000Y-8835000D01*
X11455000Y-4185000D02*
X11485000Y-4215000D01*
X11485000Y-4185000D02*
X11455000Y-4215000D01*
X11455000Y-4535000D02*
X11485000Y-4565000D01*
X11485000Y-4535000D02*
X11455000Y-4565000D01*
X11455000Y-5075000D02*
X11485000Y-5105000D01*
X11485000Y-5075000D02*
X11455000Y-5105000D01*
X11455000Y-13005000D02*
X11485000Y-13035000D01*
X11485000Y-13005000D02*
X11455000Y-13035000D01*
X11465000Y-13435000D02*
X11495000Y-13465000D01*
X11495000Y-13435000D02*
X11465000Y-13465000D01*
X11465000Y-13825000D02*
X11495000Y-13855000D01*
X11495000Y-13825000D02*
X11465000Y-13855000D01*
X11485000Y-10545000D02*
X11515000Y-10575000D01*
X11515000Y-10545000D02*
X11485000Y-10575000D01*
X11495000Y-10165000D02*
X11525000Y-10195000D01*
X11525000Y-10165000D02*
X11495000Y-10195000D01*
X11525000Y-9705000D02*
X11555000Y-9735000D01*
X11555000Y-9705000D02*
X11525000Y-9735000D01*
X11525000Y-11135000D02*
X11555000Y-11165000D01*
X11555000Y-11135000D02*
X11525000Y-11165000D01*
X11535000Y-6565000D02*
X11565000Y-6595000D01*
X11565000Y-6565000D02*
X11535000Y-6595000D01*
X11535000Y-7335000D02*
X11565000Y-7365000D01*
X11565000Y-7335000D02*
X11535000Y-7365000D01*
X11535000Y-11955000D02*
X11565000Y-11985000D01*
X11565000Y-11955000D02*
X11535000Y-11985000D01*
X11545000Y-9325000D02*
X11575000Y-9355000D01*
X11575000Y-9325000D02*
X11545000Y-9355000D01*
X11585000Y-8325000D02*
X11615000Y-8355000D01*
X11615000Y-8325000D02*
X11585000Y-8355000D01*
X11585000Y-8795000D02*
X11615000Y-8825000D01*
X11615000Y-8795000D02*
X11585000Y-8825000D01*
X11645000Y-10115000D02*
X11675000Y-10145000D01*
X11675000Y-10115000D02*
X11645000Y-10145000D01*
X11645000Y-10515000D02*
X11675000Y-10545000D01*
X11675000Y-10515000D02*
X11645000Y-10545000D01*
X11645000Y-10915000D02*
X11675000Y-10945000D01*
X11675000Y-10915000D02*
X11645000Y-10945000D01*
X11705000Y-4185000D02*
X11735000Y-4215000D01*
X11735000Y-4185000D02*
X11705000Y-4215000D01*
X11705000Y-4535000D02*
X11735000Y-4565000D01*
X11735000Y-4535000D02*
X11705000Y-4565000D01*
X11705000Y-5075000D02*
X11735000Y-5105000D01*
X11735000Y-5075000D02*
X11705000Y-5105000D01*
X11705000Y-13005000D02*
X11735000Y-13035000D01*
X11735000Y-13005000D02*
X11705000Y-13035000D01*
X11715000Y-13435000D02*
X11745000Y-13465000D01*
X11745000Y-13435000D02*
X11715000Y-13465000D01*
X11715000Y-13825000D02*
X11745000Y-13855000D01*
X11745000Y-13825000D02*
X11715000Y-13855000D01*
X11785000Y-6565000D02*
X11815000Y-6595000D01*
X11815000Y-6565000D02*
X11785000Y-6595000D01*
X11785000Y-11955000D02*
X11815000Y-11985000D01*
X11815000Y-11955000D02*
X11785000Y-11985000D01*
X11795000Y-7335000D02*
X11825000Y-7365000D01*
X11825000Y-7335000D02*
X11795000Y-7365000D01*
X11795000Y-9335000D02*
X11825000Y-9365000D01*
X11825000Y-9335000D02*
X11795000Y-9365000D01*
X11905000Y-8325000D02*
X11935000Y-8355000D01*
X11935000Y-8325000D02*
X11905000Y-8355000D01*
X11905000Y-8795000D02*
X11935000Y-8825000D01*
X11935000Y-8795000D02*
X11905000Y-8825000D01*
X11945000Y-4185000D02*
X11975000Y-4215000D01*
X11975000Y-4185000D02*
X11945000Y-4215000D01*
X11945000Y-4535000D02*
X11975000Y-4565000D01*
X11975000Y-4535000D02*
X11945000Y-4565000D01*
X11945000Y-13005000D02*
X11975000Y-13035000D01*
X11975000Y-13005000D02*
X11945000Y-13035000D01*
X11955000Y-5075000D02*
X11985000Y-5105000D01*
X11985000Y-5075000D02*
X11955000Y-5105000D01*
X11955000Y-13435000D02*
X11985000Y-13465000D01*
X11985000Y-13435000D02*
X11955000Y-13465000D01*
X11955000Y-13825000D02*
X11985000Y-13855000D01*
X11985000Y-13825000D02*
X11955000Y-13855000D01*
X11985000Y-10505000D02*
X12015000Y-10535000D01*
X12015000Y-10505000D02*
X11985000Y-10535000D01*
X11995000Y-10165000D02*
X12025000Y-10195000D01*
X12025000Y-10165000D02*
X11995000Y-10195000D01*
X12015000Y-11075000D02*
X12045000Y-11105000D01*
X12045000Y-11075000D02*
X12015000Y-11105000D01*
X12035000Y-11955000D02*
X12065000Y-11985000D01*
X12065000Y-11955000D02*
X12035000Y-11985000D01*
X12045000Y-6565000D02*
X12075000Y-6595000D01*
X12075000Y-6565000D02*
X12045000Y-6595000D01*
X12045000Y-7335000D02*
X12075000Y-7365000D01*
X12075000Y-7335000D02*
X12045000Y-7365000D01*
X12075000Y-9335000D02*
X12105000Y-9365000D01*
X12105000Y-9335000D02*
X12075000Y-9365000D01*
X12115000Y-9725000D02*
X12145000Y-9755000D01*
X12145000Y-9725000D02*
X12115000Y-9755000D01*
X12155000Y-8325000D02*
X12185000Y-8355000D01*
X12185000Y-8325000D02*
X12155000Y-8355000D01*
X12155000Y-8795000D02*
X12185000Y-8825000D01*
X12185000Y-8795000D02*
X12155000Y-8825000D01*
X12175000Y-5085000D02*
X12205000Y-5115000D01*
X12205000Y-5085000D02*
X12175000Y-5115000D01*
X12185000Y-4185000D02*
X12215000Y-4215000D01*
X12215000Y-4185000D02*
X12185000Y-4215000D01*
X12185000Y-4535000D02*
X12215000Y-4565000D01*
X12215000Y-4535000D02*
X12185000Y-4565000D01*
X12185000Y-13005000D02*
X12215000Y-13035000D01*
X12215000Y-13005000D02*
X12185000Y-13035000D01*
X12195000Y-13435000D02*
X12225000Y-13465000D01*
X12225000Y-13435000D02*
X12195000Y-13465000D01*
X12195000Y-13825000D02*
X12225000Y-13855000D01*
X12225000Y-13825000D02*
X12195000Y-13855000D01*
X12265000Y-11065000D02*
X12295000Y-11095000D01*
X12295000Y-11065000D02*
X12265000Y-11095000D01*
X12295000Y-6565000D02*
X12325000Y-6595000D01*
X12325000Y-6565000D02*
X12295000Y-6595000D01*
X12295000Y-11955000D02*
X12325000Y-11985000D01*
X12325000Y-11955000D02*
X12295000Y-11985000D01*
X12305000Y-7335000D02*
X12335000Y-7365000D01*
X12335000Y-7335000D02*
X12305000Y-7365000D01*
X12365000Y-9725000D02*
X12395000Y-9755000D01*
X12395000Y-9725000D02*
X12365000Y-9755000D01*
X12375000Y-10145000D02*
X12405000Y-10175000D01*
X12405000Y-10145000D02*
X12375000Y-10175000D01*
X12375000Y-10595000D02*
X12405000Y-10625000D01*
X12405000Y-10595000D02*
X12375000Y-10625000D01*
X12405000Y-8325000D02*
X12435000Y-8355000D01*
X12435000Y-8325000D02*
X12405000Y-8355000D01*
X12405000Y-8805000D02*
X12435000Y-8835000D01*
X12435000Y-8805000D02*
X12405000Y-8835000D01*
X12425000Y-4185000D02*
X12455000Y-4215000D01*
X12455000Y-4185000D02*
X12425000Y-4215000D01*
X12425000Y-4535000D02*
X12455000Y-4565000D01*
X12455000Y-4535000D02*
X12425000Y-4565000D01*
X12425000Y-13005000D02*
X12455000Y-13035000D01*
X12455000Y-13005000D02*
X12425000Y-13035000D01*
X12435000Y-5085000D02*
X12465000Y-5115000D01*
X12465000Y-5085000D02*
X12435000Y-5115000D01*
X12435000Y-13435000D02*
X12465000Y-13465000D01*
X12465000Y-13435000D02*
X12435000Y-13465000D01*
X12435000Y-13825000D02*
X12465000Y-13855000D01*
X12465000Y-13825000D02*
X12435000Y-13855000D01*
X12505000Y-11075000D02*
X12535000Y-11105000D01*
X12535000Y-11075000D02*
X12505000Y-11105000D01*
X12545000Y-11955000D02*
X12575000Y-11985000D01*
X12575000Y-11955000D02*
X12545000Y-11985000D01*
X12555000Y-6575000D02*
X12585000Y-6605000D01*
X12585000Y-6575000D02*
X12555000Y-6605000D01*
X12565000Y-7345000D02*
X12595000Y-7375000D01*
X12595000Y-7345000D02*
X12565000Y-7375000D01*
X12625000Y-9725000D02*
X12655000Y-9755000D01*
X12655000Y-9725000D02*
X12625000Y-9755000D01*
X12635000Y-10145000D02*
X12665000Y-10175000D01*
X12665000Y-10145000D02*
X12635000Y-10175000D01*
X12635000Y-10595000D02*
X12665000Y-10625000D01*
X12665000Y-10595000D02*
X12635000Y-10625000D01*
X12685000Y-4185000D02*
X12715000Y-4215000D01*
X12715000Y-4185000D02*
X12685000Y-4215000D01*
X12685000Y-4535000D02*
X12715000Y-4565000D01*
X12715000Y-4535000D02*
X12685000Y-4565000D01*
X12685000Y-5075000D02*
X12715000Y-5105000D01*
X12715000Y-5075000D02*
X12685000Y-5105000D01*
X12685000Y-13005000D02*
X12715000Y-13035000D01*
X12715000Y-13005000D02*
X12685000Y-13035000D01*
X12695000Y-13435000D02*
X12725000Y-13465000D01*
X12725000Y-13435000D02*
X12695000Y-13465000D01*
X12695000Y-13825000D02*
X12725000Y-13855000D01*
X12725000Y-13825000D02*
X12695000Y-13855000D01*
X12745000Y-8325000D02*
X12775000Y-8355000D01*
X12775000Y-8325000D02*
X12745000Y-8355000D01*
X12755000Y-8805000D02*
X12785000Y-8835000D01*
X12785000Y-8805000D02*
X12755000Y-8835000D01*
X12765000Y-11075000D02*
X12795000Y-11105000D01*
X12795000Y-11075000D02*
X12765000Y-11105000D01*
X12805000Y-7345000D02*
X12835000Y-7375000D01*
X12835000Y-7345000D02*
X12805000Y-7375000D01*
X12805000Y-11955000D02*
X12835000Y-11985000D01*
X12835000Y-11955000D02*
X12805000Y-11985000D01*
X12825000Y-6575000D02*
X12855000Y-6605000D01*
X12855000Y-6575000D02*
X12825000Y-6605000D01*
X12865000Y-9725000D02*
X12895000Y-9755000D01*
X12895000Y-9725000D02*
X12865000Y-9755000D01*
X12885000Y-10145000D02*
X12915000Y-10175000D01*
X12915000Y-10145000D02*
X12885000Y-10175000D01*
X12885000Y-10595000D02*
X12915000Y-10625000D01*
X12915000Y-10595000D02*
X12885000Y-10625000D01*
X12955000Y-4185000D02*
X12985000Y-4215000D01*
X12985000Y-4185000D02*
X12955000Y-4215000D01*
X12955000Y-4535000D02*
X12985000Y-4565000D01*
X12985000Y-4535000D02*
X12955000Y-4565000D01*
X12955000Y-5075000D02*
X12985000Y-5105000D01*
X12985000Y-5075000D02*
X12955000Y-5105000D01*
X12955000Y-13005000D02*
X12985000Y-13035000D01*
X12985000Y-13005000D02*
X12955000Y-13035000D01*
X12965000Y-13435000D02*
X12995000Y-13465000D01*
X12995000Y-13435000D02*
X12965000Y-13465000D01*
X12965000Y-13825000D02*
X12995000Y-13855000D01*
X12995000Y-13825000D02*
X12965000Y-13855000D01*
X13025000Y-11075000D02*
X13055000Y-11105000D01*
X13055000Y-11075000D02*
X13025000Y-11105000D01*
X13065000Y-6635000D02*
X13095000Y-6665000D01*
X13095000Y-6635000D02*
X13065000Y-6665000D01*
X13065000Y-7345000D02*
X13095000Y-7375000D01*
X13095000Y-7345000D02*
X13065000Y-7375000D01*
X13065000Y-11955000D02*
X13095000Y-11985000D01*
X13095000Y-11955000D02*
X13065000Y-11985000D01*
X13085000Y-9345000D02*
X13115000Y-9375000D01*
X13115000Y-9345000D02*
X13085000Y-9375000D01*
X13125000Y-8575000D02*
X13155000Y-8605000D01*
X13155000Y-8575000D02*
X13125000Y-8605000D01*
X13135000Y-10145000D02*
X13165000Y-10175000D01*
X13165000Y-10145000D02*
X13135000Y-10175000D01*
X13145000Y-10585000D02*
X13175000Y-10615000D01*
X13175000Y-10585000D02*
X13145000Y-10615000D01*
X13165000Y-9725000D02*
X13195000Y-9755000D01*
X13195000Y-9725000D02*
X13165000Y-9755000D01*
X13215000Y-4185000D02*
X13245000Y-4215000D01*
X13245000Y-4185000D02*
X13215000Y-4215000D01*
X13215000Y-4535000D02*
X13245000Y-4565000D01*
X13245000Y-4535000D02*
X13215000Y-4565000D01*
X13215000Y-5075000D02*
X13245000Y-5105000D01*
X13245000Y-5075000D02*
X13215000Y-5105000D01*
X13215000Y-13005000D02*
X13245000Y-13035000D01*
X13245000Y-13005000D02*
X13215000Y-13035000D01*
X13225000Y-13435000D02*
X13255000Y-13465000D01*
X13255000Y-13435000D02*
X13225000Y-13465000D01*
X13225000Y-13825000D02*
X13255000Y-13855000D01*
X13255000Y-13825000D02*
X13225000Y-13855000D01*
X13285000Y-11075000D02*
X13315000Y-11105000D01*
X13315000Y-11075000D02*
X13285000Y-11105000D01*
X13315000Y-6635000D02*
X13345000Y-6665000D01*
X13345000Y-6635000D02*
X13315000Y-6665000D01*
X13395000Y-10145000D02*
X13425000Y-10175000D01*
X13425000Y-10145000D02*
X13395000Y-10175000D01*
X13395000Y-10595000D02*
X13425000Y-10625000D01*
X13425000Y-10595000D02*
X13395000Y-10625000D01*
X13425000Y-7955000D02*
X13455000Y-7985000D01*
X13455000Y-7955000D02*
X13425000Y-7985000D01*
X13435000Y-9725000D02*
X13465000Y-9755000D01*
X13465000Y-9725000D02*
X13435000Y-9755000D01*
X13455000Y-7335000D02*
X13485000Y-7365000D01*
X13485000Y-7335000D02*
X13455000Y-7365000D01*
X13455000Y-11245000D02*
X13485000Y-11275000D01*
X13485000Y-11245000D02*
X13455000Y-11275000D01*
X13475000Y-4185000D02*
X13505000Y-4215000D01*
X13505000Y-4185000D02*
X13475000Y-4215000D01*
X13475000Y-4535000D02*
X13505000Y-4565000D01*
X13505000Y-4535000D02*
X13475000Y-4565000D01*
X13475000Y-5075000D02*
X13505000Y-5105000D01*
X13505000Y-5075000D02*
X13475000Y-5105000D01*
X13475000Y-11685000D02*
X13505000Y-11715000D01*
X13505000Y-11685000D02*
X13475000Y-11715000D01*
X13475000Y-13005000D02*
X13505000Y-13035000D01*
X13505000Y-13005000D02*
X13475000Y-13035000D01*
X13485000Y-12105000D02*
X13515000Y-12135000D01*
X13515000Y-12105000D02*
X13485000Y-12135000D01*
X13485000Y-13435000D02*
X13515000Y-13465000D01*
X13515000Y-13435000D02*
X13485000Y-13465000D01*
X13485000Y-13825000D02*
X13515000Y-13855000D01*
X13515000Y-13825000D02*
X13485000Y-13855000D01*
X13495000Y-12575000D02*
X13525000Y-12605000D01*
X13525000Y-12575000D02*
X13495000Y-12605000D01*
X13625000Y-10145000D02*
X13655000Y-10175000D01*
X13655000Y-10145000D02*
X13625000Y-10175000D01*
X13635000Y-6625000D02*
X13665000Y-6655000D01*
X13665000Y-6625000D02*
X13635000Y-6655000D01*
X13645000Y-10595000D02*
X13675000Y-10625000D01*
X13675000Y-10595000D02*
X13645000Y-10625000D01*
X13685000Y-7885000D02*
X13715000Y-7915000D01*
X13715000Y-7885000D02*
X13685000Y-7915000D01*
X13695000Y-9715000D02*
X13725000Y-9745000D01*
X13725000Y-9715000D02*
X13695000Y-9745000D01*
X13725000Y-5915000D02*
X13755000Y-5945000D01*
X13755000Y-5915000D02*
X13725000Y-5945000D01*
X13725000Y-9345000D02*
X13755000Y-9375000D01*
X13755000Y-9345000D02*
X13725000Y-9375000D01*
X13735000Y-4185000D02*
X13765000Y-4215000D01*
X13765000Y-4185000D02*
X13735000Y-4215000D01*
X13735000Y-4535000D02*
X13765000Y-4565000D01*
X13765000Y-4535000D02*
X13735000Y-4565000D01*
X13735000Y-5075000D02*
X13765000Y-5105000D01*
X13765000Y-5075000D02*
X13735000Y-5105000D01*
X13735000Y-5505000D02*
X13765000Y-5535000D01*
X13765000Y-5505000D02*
X13735000Y-5535000D01*
X13735000Y-11685000D02*
X13765000Y-11715000D01*
X13765000Y-11685000D02*
X13735000Y-11715000D01*
X13735000Y-13005000D02*
X13765000Y-13035000D01*
X13765000Y-13005000D02*
X13735000Y-13035000D01*
X13745000Y-12105000D02*
X13775000Y-12135000D01*
X13775000Y-12105000D02*
X13745000Y-12135000D01*
X13745000Y-13435000D02*
X13775000Y-13465000D01*
X13775000Y-13435000D02*
X13745000Y-13465000D01*
X13745000Y-13825000D02*
X13775000Y-13855000D01*
X13775000Y-13825000D02*
X13745000Y-13855000D01*
X13755000Y-12575000D02*
X13785000Y-12605000D01*
X13785000Y-12575000D02*
X13755000Y-12605000D01*
X13805000Y-6905000D02*
X13835000Y-6935000D01*
X13835000Y-6905000D02*
X13805000Y-6935000D01*
X13845000Y-7355000D02*
X13875000Y-7385000D01*
X13875000Y-7355000D02*
X13845000Y-7385000D01*
X13865000Y-10185000D02*
X13895000Y-10215000D01*
X13895000Y-10185000D02*
X13865000Y-10215000D01*
X13915000Y-10575000D02*
X13945000Y-10605000D01*
X13945000Y-10575000D02*
X13915000Y-10605000D01*
X13925000Y-8095000D02*
X13955000Y-8125000D01*
X13955000Y-8095000D02*
X13925000Y-8125000D01*
X13955000Y-11145000D02*
X13985000Y-11175000D01*
X13985000Y-11145000D02*
X13955000Y-11175000D01*
X13965000Y-9465000D02*
X13995000Y-9495000D01*
X13995000Y-9465000D02*
X13965000Y-9495000D01*
X14035000Y-5915000D02*
X14065000Y-5945000D01*
X14065000Y-5915000D02*
X14035000Y-5945000D01*
X14045000Y-4185000D02*
X14075000Y-4215000D01*
X14075000Y-4185000D02*
X14045000Y-4215000D01*
X14045000Y-4535000D02*
X14075000Y-4565000D01*
X14075000Y-4535000D02*
X14045000Y-4565000D01*
X14045000Y-5075000D02*
X14075000Y-5105000D01*
X14075000Y-5075000D02*
X14045000Y-5105000D01*
X14045000Y-5505000D02*
X14075000Y-5535000D01*
X14075000Y-5505000D02*
X14045000Y-5535000D01*
X14045000Y-11685000D02*
X14075000Y-11715000D01*
X14075000Y-11685000D02*
X14045000Y-11715000D01*
X14045000Y-13005000D02*
X14075000Y-13035000D01*
X14075000Y-13005000D02*
X14045000Y-13035000D01*
X14055000Y-12105000D02*
X14085000Y-12135000D01*
X14085000Y-12105000D02*
X14055000Y-12135000D01*
X14055000Y-13435000D02*
X14085000Y-13465000D01*
X14085000Y-13435000D02*
X14055000Y-13465000D01*
X14055000Y-13825000D02*
X14085000Y-13855000D01*
X14085000Y-13825000D02*
X14055000Y-13855000D01*
X14065000Y-12575000D02*
X14095000Y-12605000D01*
X14095000Y-12575000D02*
X14065000Y-12605000D01*
X14085000Y-7885000D02*
X14115000Y-7915000D01*
X14115000Y-7885000D02*
X14085000Y-7915000D01*
X14085000Y-9335000D02*
X14115000Y-9365000D01*
X14115000Y-9335000D02*
X14085000Y-9365000D01*
X14095000Y-8915000D02*
X14125000Y-8945000D01*
X14125000Y-8915000D02*
X14095000Y-8945000D01*
X14115000Y-10135000D02*
X14145000Y-10165000D01*
X14145000Y-10135000D02*
X14115000Y-10165000D01*
X14135000Y-9725000D02*
X14165000Y-9755000D01*
X14165000Y-9725000D02*
X14135000Y-9755000D01*
X14155000Y-10855000D02*
X14185000Y-10885000D01*
X14185000Y-10855000D02*
X14155000Y-10885000D01*
X14185000Y-7295000D02*
X14215000Y-7325000D01*
X14215000Y-7295000D02*
X14185000Y-7325000D01*
X14195000Y-6455000D02*
X14225000Y-6485000D01*
X14225000Y-6455000D02*
X14195000Y-6485000D01*
X14195000Y-6885000D02*
X14225000Y-6915000D01*
X14225000Y-6885000D02*
X14195000Y-6915000D01*
X14225000Y-8235000D02*
X14255000Y-8265000D01*
X14255000Y-8235000D02*
X14225000Y-8265000D01*
X14225000Y-11145000D02*
X14255000Y-11175000D01*
X14255000Y-11145000D02*
X14225000Y-11175000D01*
X14385000Y-5915000D02*
X14415000Y-5945000D01*
X14415000Y-5915000D02*
X14385000Y-5945000D01*
X14395000Y-4185000D02*
X14425000Y-4215000D01*
X14425000Y-4185000D02*
X14395000Y-4215000D01*
X14395000Y-4535000D02*
X14425000Y-4565000D01*
X14425000Y-4535000D02*
X14395000Y-4565000D01*
X14395000Y-5075000D02*
X14425000Y-5105000D01*
X14425000Y-5075000D02*
X14395000Y-5105000D01*
X14395000Y-5505000D02*
X14425000Y-5535000D01*
X14425000Y-5505000D02*
X14395000Y-5535000D01*
X14395000Y-11685000D02*
X14425000Y-11715000D01*
X14425000Y-11685000D02*
X14395000Y-11715000D01*
X14395000Y-13005000D02*
X14425000Y-13035000D01*
X14425000Y-13005000D02*
X14395000Y-13035000D01*
X14405000Y-12105000D02*
X14435000Y-12135000D01*
X14435000Y-12105000D02*
X14405000Y-12135000D01*
X14405000Y-13435000D02*
X14435000Y-13465000D01*
X14435000Y-13435000D02*
X14405000Y-13465000D01*
X14405000Y-13825000D02*
X14435000Y-13855000D01*
X14435000Y-13825000D02*
X14405000Y-13855000D01*
X14415000Y-12575000D02*
X14445000Y-12605000D01*
X14445000Y-12575000D02*
X14415000Y-12605000D01*
X14475000Y-10855000D02*
X14505000Y-10885000D01*
X14505000Y-10855000D02*
X14475000Y-10885000D01*
X14495000Y-11145000D02*
X14525000Y-11175000D01*
X14525000Y-11145000D02*
X14495000Y-11175000D01*
X14585000Y-8245000D02*
X14615000Y-8275000D01*
X14615000Y-8245000D02*
X14585000Y-8275000D01*
X14595000Y-7875000D02*
X14625000Y-7905000D01*
X14625000Y-7875000D02*
X14595000Y-7905000D01*
X14605000Y-8915000D02*
X14635000Y-8945000D01*
X14635000Y-8915000D02*
X14605000Y-8945000D01*
X14625000Y-7305000D02*
X14655000Y-7335000D01*
X14655000Y-7305000D02*
X14625000Y-7335000D01*
X14635000Y-6465000D02*
X14665000Y-6495000D01*
X14665000Y-6465000D02*
X14635000Y-6495000D01*
X14635000Y-6895000D02*
X14665000Y-6925000D01*
X14665000Y-6895000D02*
X14635000Y-6925000D01*
X14655000Y-9325000D02*
X14685000Y-9355000D01*
X14685000Y-9325000D02*
X14655000Y-9355000D01*
X14705000Y-5915000D02*
X14735000Y-5945000D01*
X14735000Y-5915000D02*
X14705000Y-5945000D01*
X14715000Y-4185000D02*
X14745000Y-4215000D01*
X14745000Y-4185000D02*
X14715000Y-4215000D01*
X14715000Y-4535000D02*
X14745000Y-4565000D01*
X14745000Y-4535000D02*
X14715000Y-4565000D01*
X14715000Y-5075000D02*
X14745000Y-5105000D01*
X14745000Y-5075000D02*
X14715000Y-5105000D01*
X14715000Y-5505000D02*
X14745000Y-5535000D01*
X14745000Y-5505000D02*
X14715000Y-5535000D01*
X14715000Y-11685000D02*
X14745000Y-11715000D01*
X14745000Y-11685000D02*
X14715000Y-11715000D01*
X14715000Y-13005000D02*
X14745000Y-13035000D01*
X14745000Y-13005000D02*
X14715000Y-13035000D01*
X14725000Y-12105000D02*
X14755000Y-12135000D01*
X14755000Y-12105000D02*
X14725000Y-12135000D01*
X14725000Y-13435000D02*
X14755000Y-13465000D01*
X14755000Y-13435000D02*
X14725000Y-13465000D01*
X14725000Y-13825000D02*
X14755000Y-13855000D01*
X14755000Y-13825000D02*
X14725000Y-13855000D01*
X14735000Y-12575000D02*
X14765000Y-12605000D01*
X14765000Y-12575000D02*
X14735000Y-12605000D01*
X14745000Y-9715000D02*
X14775000Y-9745000D01*
X14775000Y-9715000D02*
X14745000Y-9745000D01*
X14745000Y-10855000D02*
X14775000Y-10885000D01*
X14775000Y-10855000D02*
X14745000Y-10885000D01*
X14765000Y-10315000D02*
X14795000Y-10345000D01*
X14795000Y-10315000D02*
X14765000Y-10345000D01*
X14785000Y-11145000D02*
X14815000Y-11175000D01*
X14815000Y-11145000D02*
X14785000Y-11175000D01*
X14965000Y-9095000D02*
X14995000Y-9125000D01*
X14995000Y-9095000D02*
X14965000Y-9125000D01*
X14975000Y-5915000D02*
X15005000Y-5945000D01*
X15005000Y-5915000D02*
X14975000Y-5945000D01*
X14985000Y-4185000D02*
X15015000Y-4215000D01*
X15015000Y-4185000D02*
X14985000Y-4215000D01*
X14985000Y-4535000D02*
X15015000Y-4565000D01*
X15015000Y-4535000D02*
X14985000Y-4565000D01*
X14985000Y-5075000D02*
X15015000Y-5105000D01*
X15015000Y-5075000D02*
X14985000Y-5105000D01*
X14985000Y-5505000D02*
X15015000Y-5535000D01*
X15015000Y-5505000D02*
X14985000Y-5535000D01*
X14985000Y-11685000D02*
X15015000Y-11715000D01*
X15015000Y-11685000D02*
X14985000Y-11715000D01*
X14985000Y-13005000D02*
X15015000Y-13035000D01*
X15015000Y-13005000D02*
X14985000Y-13035000D01*
X14995000Y-12105000D02*
X15025000Y-12135000D01*
X15025000Y-12105000D02*
X14995000Y-12135000D01*
X14995000Y-13435000D02*
X15025000Y-13465000D01*
X15025000Y-13435000D02*
X14995000Y-13465000D01*
X14995000Y-13825000D02*
X15025000Y-13855000D01*
X15025000Y-13825000D02*
X14995000Y-13855000D01*
X15005000Y-12575000D02*
X15035000Y-12605000D01*
X15035000Y-12575000D02*
X15005000Y-12605000D01*
X15035000Y-9715000D02*
X15065000Y-9745000D01*
X15065000Y-9715000D02*
X15035000Y-9745000D01*
X15035000Y-10855000D02*
X15065000Y-10885000D01*
X15065000Y-10855000D02*
X15035000Y-10885000D01*
X15055000Y-10315000D02*
X15085000Y-10345000D01*
X15085000Y-10315000D02*
X15055000Y-10345000D01*
X15155000Y-11145000D02*
X15185000Y-11175000D01*
X15185000Y-11145000D02*
X15155000Y-11175000D01*
X15245000Y-5915000D02*
X15275000Y-5945000D01*
X15275000Y-5915000D02*
X15245000Y-5945000D01*
X15245000Y-6255000D02*
X15275000Y-6285000D01*
X15275000Y-6255000D02*
X15245000Y-6285000D01*
X15245000Y-6505000D02*
X15275000Y-6535000D01*
X15275000Y-6505000D02*
X15245000Y-6535000D01*
X15245000Y-6775000D02*
X15275000Y-6805000D01*
X15275000Y-6775000D02*
X15245000Y-6805000D01*
X15245000Y-7045000D02*
X15275000Y-7075000D01*
X15275000Y-7045000D02*
X15245000Y-7075000D01*
X15245000Y-7365000D02*
X15275000Y-7395000D01*
X15275000Y-7365000D02*
X15245000Y-7395000D01*
X15245000Y-7715000D02*
X15275000Y-7745000D01*
X15275000Y-7715000D02*
X15245000Y-7745000D01*
X15245000Y-8025000D02*
X15275000Y-8055000D01*
X15275000Y-8025000D02*
X15245000Y-8055000D01*
X15255000Y-4185000D02*
X15285000Y-4215000D01*
X15285000Y-4185000D02*
X15255000Y-4215000D01*
X15255000Y-4535000D02*
X15285000Y-4565000D01*
X15285000Y-4535000D02*
X15255000Y-4565000D01*
X15255000Y-5075000D02*
X15285000Y-5105000D01*
X15285000Y-5075000D02*
X15255000Y-5105000D01*
X15255000Y-5505000D02*
X15285000Y-5535000D01*
X15285000Y-5505000D02*
X15255000Y-5535000D01*
X15255000Y-11685000D02*
X15285000Y-11715000D01*
X15285000Y-11685000D02*
X15255000Y-11715000D01*
X15255000Y-13005000D02*
X15285000Y-13035000D01*
X15285000Y-13005000D02*
X15255000Y-13035000D01*
X15265000Y-12105000D02*
X15295000Y-12135000D01*
X15295000Y-12105000D02*
X15265000Y-12135000D01*
X15265000Y-13435000D02*
X15295000Y-13465000D01*
X15295000Y-13435000D02*
X15265000Y-13465000D01*
X15265000Y-13825000D02*
X15295000Y-13855000D01*
X15295000Y-13825000D02*
X15265000Y-13855000D01*
X15275000Y-12575000D02*
X15305000Y-12605000D01*
X15305000Y-12575000D02*
X15275000Y-12605000D01*
X15405000Y-9715000D02*
X15435000Y-9745000D01*
X15435000Y-9715000D02*
X15405000Y-9745000D01*
X15405000Y-10855000D02*
X15435000Y-10885000D01*
X15435000Y-10855000D02*
X15405000Y-10885000D01*
X15425000Y-10315000D02*
X15455000Y-10345000D01*
X15455000Y-10315000D02*
X15425000Y-10345000D01*
X15495000Y-5915000D02*
X15525000Y-5945000D01*
X15525000Y-5915000D02*
X15495000Y-5945000D01*
X15505000Y-5075000D02*
X15535000Y-5105000D01*
X15535000Y-5075000D02*
X15505000Y-5105000D01*
X15505000Y-5505000D02*
X15535000Y-5535000D01*
X15535000Y-5505000D02*
X15505000Y-5535000D01*
X15505000Y-8225000D02*
X15535000Y-8255000D01*
X15535000Y-8225000D02*
X15505000Y-8255000D01*
X15545000Y-4185000D02*
X15575000Y-4215000D01*
X15575000Y-4185000D02*
X15545000Y-4215000D01*
X15545000Y-4535000D02*
X15575000Y-4565000D01*
X15575000Y-4535000D02*
X15545000Y-4565000D01*
X15545000Y-11145000D02*
X15575000Y-11175000D01*
X15575000Y-11145000D02*
X15545000Y-11175000D01*
X15545000Y-11685000D02*
X15575000Y-11715000D01*
X15575000Y-11685000D02*
X15545000Y-11715000D01*
X15545000Y-13005000D02*
X15575000Y-13035000D01*
X15575000Y-13005000D02*
X15545000Y-13035000D01*
X15555000Y-12105000D02*
X15585000Y-12135000D01*
X15585000Y-12105000D02*
X15555000Y-12135000D01*
X15555000Y-13435000D02*
X15585000Y-13465000D01*
X15585000Y-13435000D02*
X15555000Y-13465000D01*
X15555000Y-13825000D02*
X15585000Y-13855000D01*
X15585000Y-13825000D02*
X15555000Y-13855000D01*
X15565000Y-12575000D02*
X15595000Y-12605000D01*
X15595000Y-12575000D02*
X15565000Y-12605000D01*
X15795000Y-9715000D02*
X15825000Y-9745000D01*
X15825000Y-9715000D02*
X15795000Y-9745000D01*
X15795000Y-10855000D02*
X15825000Y-10885000D01*
X15825000Y-10855000D02*
X15795000Y-10885000D01*
X15815000Y-10315000D02*
X15845000Y-10345000D01*
X15845000Y-10315000D02*
X15815000Y-10345000D01*
X15885000Y-11145000D02*
X15915000Y-11175000D01*
X15915000Y-11145000D02*
X15885000Y-11175000D01*
X15915000Y-4185000D02*
X15945000Y-4215000D01*
X15945000Y-4185000D02*
X15915000Y-4215000D01*
X15915000Y-4535000D02*
X15945000Y-4565000D01*
X15945000Y-4535000D02*
X15915000Y-4565000D01*
X15915000Y-5075000D02*
X15945000Y-5105000D01*
X15945000Y-5075000D02*
X15915000Y-5105000D01*
X15915000Y-11685000D02*
X15945000Y-11715000D01*
X15945000Y-11685000D02*
X15915000Y-11715000D01*
X15915000Y-13005000D02*
X15945000Y-13035000D01*
X15945000Y-13005000D02*
X15915000Y-13035000D01*
X15925000Y-6015000D02*
X15955000Y-6045000D01*
X15955000Y-6015000D02*
X15925000Y-6045000D01*
X15925000Y-12105000D02*
X15955000Y-12135000D01*
X15955000Y-12105000D02*
X15925000Y-12135000D01*
X15925000Y-13435000D02*
X15955000Y-13465000D01*
X15955000Y-13435000D02*
X15925000Y-13465000D01*
X15925000Y-13825000D02*
X15955000Y-13855000D01*
X15955000Y-13825000D02*
X15925000Y-13855000D01*
X15935000Y-12575000D02*
X15965000Y-12605000D01*
X15965000Y-12575000D02*
X15935000Y-12605000D01*
X16055000Y-6905000D02*
X16085000Y-6935000D01*
X16085000Y-6905000D02*
X16055000Y-6935000D01*
X16135000Y-9715000D02*
X16165000Y-9745000D01*
X16165000Y-9715000D02*
X16135000Y-9745000D01*
X16135000Y-10855000D02*
X16165000Y-10885000D01*
X16165000Y-10855000D02*
X16135000Y-10885000D01*
X16155000Y-10315000D02*
X16185000Y-10345000D01*
X16185000Y-10315000D02*
X16155000Y-10345000D01*
X16195000Y-6015000D02*
X16225000Y-6045000D01*
X16225000Y-6015000D02*
X16195000Y-6045000D01*
X16215000Y-5075000D02*
X16245000Y-5105000D01*
X16245000Y-5075000D02*
X16215000Y-5105000D01*
X16215000Y-8285000D02*
X16245000Y-8315000D01*
X16245000Y-8285000D02*
X16215000Y-8315000D01*
X16215000Y-8765000D02*
X16245000Y-8795000D01*
X16245000Y-8765000D02*
X16215000Y-8795000D01*
X16225000Y-7835000D02*
X16255000Y-7865000D01*
X16255000Y-7835000D02*
X16225000Y-7865000D01*
X16225000Y-9105000D02*
X16255000Y-9135000D01*
X16255000Y-9105000D02*
X16225000Y-9135000D01*
X16245000Y-11145000D02*
X16275000Y-11175000D01*
X16275000Y-11145000D02*
X16245000Y-11175000D01*
X16285000Y-11575000D02*
X16315000Y-11605000D01*
X16315000Y-11575000D02*
X16285000Y-11605000D01*
X16305000Y-4185000D02*
X16335000Y-4215000D01*
X16335000Y-4185000D02*
X16305000Y-4215000D01*
X16315000Y-13015000D02*
X16345000Y-13045000D01*
X16345000Y-13015000D02*
X16315000Y-13045000D01*
X16315000Y-13435000D02*
X16345000Y-13465000D01*
X16345000Y-13435000D02*
X16315000Y-13465000D01*
X16315000Y-13825000D02*
X16345000Y-13855000D01*
X16345000Y-13825000D02*
X16315000Y-13855000D01*
X16325000Y-4845000D02*
X16355000Y-4875000D01*
X16355000Y-4845000D02*
X16325000Y-4875000D01*
X16325000Y-6905000D02*
X16355000Y-6935000D01*
X16355000Y-6905000D02*
X16325000Y-6935000D01*
X16335000Y-5735000D02*
X16365000Y-5765000D01*
X16365000Y-5735000D02*
X16335000Y-5765000D01*
X16455000Y-8285000D02*
X16485000Y-8315000D01*
X16485000Y-8285000D02*
X16455000Y-8315000D01*
X16455000Y-8765000D02*
X16485000Y-8795000D01*
X16485000Y-8765000D02*
X16455000Y-8795000D01*
X16465000Y-6015000D02*
X16495000Y-6045000D01*
X16495000Y-6015000D02*
X16465000Y-6045000D01*
X16465000Y-7835000D02*
X16495000Y-7865000D01*
X16495000Y-7835000D02*
X16465000Y-7865000D01*
X16485000Y-5075000D02*
X16515000Y-5105000D01*
X16515000Y-5075000D02*
X16485000Y-5105000D01*
X16495000Y-9715000D02*
X16525000Y-9745000D01*
X16525000Y-9715000D02*
X16495000Y-9745000D01*
X16495000Y-10855000D02*
X16525000Y-10885000D01*
X16525000Y-10855000D02*
X16495000Y-10885000D01*
X16515000Y-10315000D02*
X16545000Y-10345000D01*
X16545000Y-10315000D02*
X16515000Y-10345000D01*
X16595000Y-6905000D02*
X16625000Y-6935000D01*
X16625000Y-6905000D02*
X16595000Y-6935000D01*
X16635000Y-11145000D02*
X16665000Y-11175000D01*
X16665000Y-11145000D02*
X16635000Y-11175000D01*
X16635000Y-11575000D02*
X16665000Y-11605000D01*
X16665000Y-11575000D02*
X16635000Y-11605000D01*
X16645000Y-4185000D02*
X16675000Y-4215000D01*
X16675000Y-4185000D02*
X16645000Y-4215000D01*
X16655000Y-13015000D02*
X16685000Y-13045000D01*
X16685000Y-13015000D02*
X16655000Y-13045000D01*
X16655000Y-13435000D02*
X16685000Y-13465000D01*
X16685000Y-13435000D02*
X16655000Y-13465000D01*
X16655000Y-13825000D02*
X16685000Y-13855000D01*
X16685000Y-13825000D02*
X16655000Y-13855000D01*
X16675000Y-6245000D02*
X16705000Y-6275000D01*
X16705000Y-6245000D02*
X16675000Y-6275000D01*
X16695000Y-7165000D02*
X16725000Y-7195000D01*
X16725000Y-7165000D02*
X16695000Y-7195000D01*
X16695000Y-8285000D02*
X16725000Y-8315000D01*
X16725000Y-8285000D02*
X16695000Y-8315000D01*
X16695000Y-8765000D02*
X16725000Y-8795000D01*
X16725000Y-8765000D02*
X16695000Y-8795000D01*
X16705000Y-7835000D02*
X16735000Y-7865000D01*
X16735000Y-7835000D02*
X16705000Y-7865000D01*
X16755000Y-5075000D02*
X16785000Y-5105000D01*
X16785000Y-5075000D02*
X16755000Y-5105000D01*
X16755000Y-6015000D02*
X16785000Y-6045000D01*
X16785000Y-6015000D02*
X16755000Y-6045000D01*
X16885000Y-6905000D02*
X16915000Y-6935000D01*
X16915000Y-6905000D02*
X16885000Y-6935000D01*
X16885000Y-9715000D02*
X16915000Y-9745000D01*
X16915000Y-9715000D02*
X16885000Y-9745000D01*
X16885000Y-10855000D02*
X16915000Y-10885000D01*
X16915000Y-10855000D02*
X16885000Y-10885000D01*
X16905000Y-10315000D02*
X16935000Y-10345000D01*
X16935000Y-10315000D02*
X16905000Y-10345000D01*
X16955000Y-8285000D02*
X16985000Y-8315000D01*
X16985000Y-8285000D02*
X16955000Y-8315000D01*
X16955000Y-8765000D02*
X16985000Y-8795000D01*
X16985000Y-8765000D02*
X16955000Y-8795000D01*
X16965000Y-7835000D02*
X16995000Y-7865000D01*
X16995000Y-7835000D02*
X16965000Y-7865000D01*
X16985000Y-11145000D02*
X17015000Y-11175000D01*
X17015000Y-11145000D02*
X16985000Y-11175000D01*
X17005000Y-4185000D02*
X17035000Y-4215000D01*
X17035000Y-4185000D02*
X17005000Y-4215000D01*
X17015000Y-13015000D02*
X17045000Y-13045000D01*
X17045000Y-13015000D02*
X17015000Y-13045000D01*
X17015000Y-13825000D02*
X17045000Y-13855000D01*
X17045000Y-13825000D02*
X17015000Y-13855000D01*
X17035000Y-12605000D02*
X17065000Y-12635000D01*
X17065000Y-12605000D02*
X17035000Y-12635000D01*
X17045000Y-5075000D02*
X17075000Y-5105000D01*
X17075000Y-5075000D02*
X17045000Y-5105000D01*
X17055000Y-12095000D02*
X17085000Y-12125000D01*
X17085000Y-12095000D02*
X17055000Y-12125000D01*
X17125000Y-6015000D02*
X17155000Y-6045000D01*
X17155000Y-6015000D02*
X17125000Y-6045000D01*
X17135000Y-11575000D02*
X17165000Y-11605000D01*
X17165000Y-11575000D02*
X17135000Y-11605000D01*
X17215000Y-8285000D02*
X17245000Y-8315000D01*
X17245000Y-8285000D02*
X17215000Y-8315000D01*
X17215000Y-8765000D02*
X17245000Y-8795000D01*
X17245000Y-8765000D02*
X17215000Y-8795000D01*
X17225000Y-7835000D02*
X17255000Y-7865000D01*
X17255000Y-7835000D02*
X17225000Y-7865000D01*
X17235000Y-9715000D02*
X17265000Y-9745000D01*
X17265000Y-9715000D02*
X17235000Y-9745000D01*
X17235000Y-10855000D02*
X17265000Y-10885000D01*
X17265000Y-10855000D02*
X17235000Y-10885000D01*
X17255000Y-6905000D02*
X17285000Y-6935000D01*
X17285000Y-6905000D02*
X17255000Y-6935000D01*
X17255000Y-10315000D02*
X17285000Y-10345000D01*
X17285000Y-10315000D02*
X17255000Y-10345000D01*
X17335000Y-11145000D02*
X17365000Y-11175000D01*
X17365000Y-11145000D02*
X17335000Y-11175000D01*
X17395000Y-4185000D02*
X17425000Y-4215000D01*
X17425000Y-4185000D02*
X17395000Y-4215000D01*
X17405000Y-11635000D02*
X17435000Y-11665000D01*
X17435000Y-11635000D02*
X17405000Y-11665000D01*
X17405000Y-12025000D02*
X17435000Y-12055000D01*
X17435000Y-12025000D02*
X17405000Y-12055000D01*
X17405000Y-12385000D02*
X17435000Y-12415000D01*
X17435000Y-12385000D02*
X17405000Y-12415000D01*
X17405000Y-12725000D02*
X17435000Y-12755000D01*
X17435000Y-12725000D02*
X17405000Y-12755000D01*
X17405000Y-13015000D02*
X17435000Y-13045000D01*
X17435000Y-13015000D02*
X17405000Y-13045000D01*
X17405000Y-13825000D02*
X17435000Y-13855000D01*
X17435000Y-13825000D02*
X17405000Y-13855000D01*
X17415000Y-5075000D02*
X17445000Y-5105000D01*
X17445000Y-5075000D02*
X17415000Y-5105000D01*
X17475000Y-6015000D02*
X17505000Y-6045000D01*
X17505000Y-6015000D02*
X17475000Y-6045000D01*
X17485000Y-8285000D02*
X17515000Y-8315000D01*
X17515000Y-8285000D02*
X17485000Y-8315000D01*
X17485000Y-8765000D02*
X17515000Y-8795000D01*
X17515000Y-8765000D02*
X17485000Y-8795000D01*
X17495000Y-7835000D02*
X17525000Y-7865000D01*
X17525000Y-7835000D02*
X17495000Y-7865000D01*
X17555000Y-6905000D02*
X17585000Y-6935000D01*
X17585000Y-6905000D02*
X17555000Y-6935000D01*
X17585000Y-9715000D02*
X17615000Y-9745000D01*
X17615000Y-9715000D02*
X17585000Y-9745000D01*
X17585000Y-10855000D02*
X17615000Y-10885000D01*
X17615000Y-10855000D02*
X17585000Y-10885000D01*
X17605000Y-10315000D02*
X17635000Y-10345000D01*
X17635000Y-10315000D02*
X17605000Y-10345000D01*
X17655000Y-11145000D02*
X17685000Y-11175000D01*
X17685000Y-11145000D02*
X17655000Y-11175000D01*
X17745000Y-4185000D02*
X17775000Y-4215000D01*
X17775000Y-4185000D02*
X17745000Y-4215000D01*
X17745000Y-8285000D02*
X17775000Y-8315000D01*
X17775000Y-8285000D02*
X17745000Y-8315000D01*
X17745000Y-8765000D02*
X17775000Y-8795000D01*
X17775000Y-8765000D02*
X17745000Y-8795000D01*
X17745000Y-12195000D02*
X17775000Y-12225000D01*
X17775000Y-12195000D02*
X17745000Y-12225000D01*
X17755000Y-7835000D02*
X17785000Y-7865000D01*
X17785000Y-7835000D02*
X17755000Y-7865000D01*
X17755000Y-12785000D02*
X17785000Y-12815000D01*
X17785000Y-12785000D02*
X17755000Y-12815000D01*
X17755000Y-13435000D02*
X17785000Y-13465000D01*
X17785000Y-13435000D02*
X17755000Y-13465000D01*
X17755000Y-13825000D02*
X17785000Y-13855000D01*
X17785000Y-13825000D02*
X17755000Y-13855000D01*
X17805000Y-9105000D02*
X17835000Y-9135000D01*
X17835000Y-9105000D02*
X17805000Y-9135000D01*
X17825000Y-5465000D02*
X17855000Y-5495000D01*
X17855000Y-5465000D02*
X17825000Y-5495000D01*
X17825000Y-5905000D02*
X17855000Y-5935000D01*
X17855000Y-5905000D02*
X17825000Y-5935000D01*
X17825000Y-6225000D02*
X17855000Y-6255000D01*
X17855000Y-6225000D02*
X17825000Y-6255000D01*
X17825000Y-6575000D02*
X17855000Y-6605000D01*
X17855000Y-6575000D02*
X17825000Y-6605000D01*
X17825000Y-6925000D02*
X17855000Y-6955000D01*
X17855000Y-6925000D02*
X17825000Y-6955000D01*
X17825000Y-7315000D02*
X17855000Y-7345000D01*
X17855000Y-7315000D02*
X17825000Y-7345000D01*
X17905000Y-10855000D02*
X17935000Y-10885000D01*
X17935000Y-10855000D02*
X17905000Y-10885000D01*
X17925000Y-10315000D02*
X17955000Y-10345000D01*
X17955000Y-10315000D02*
X17925000Y-10345000D01*
X18005000Y-8285000D02*
X18035000Y-8315000D01*
X18035000Y-8285000D02*
X18005000Y-8315000D01*
X18015000Y-7835000D02*
X18045000Y-7865000D01*
X18045000Y-7835000D02*
X18015000Y-7865000D01*
X18095000Y-4185000D02*
X18125000Y-4215000D01*
X18125000Y-4185000D02*
X18095000Y-4215000D01*
X18105000Y-13435000D02*
X18135000Y-13465000D01*
X18135000Y-13435000D02*
X18105000Y-13465000D01*
X18105000Y-13825000D02*
X18135000Y-13855000D01*
X18135000Y-13825000D02*
X18105000Y-13855000D01*
X18265000Y-6365000D02*
X18295000Y-6395000D01*
X18295000Y-6365000D02*
X18265000Y-6395000D01*
X18275000Y-9215000D02*
X18305000Y-9245000D01*
X18305000Y-9215000D02*
X18275000Y-9245000D01*
X18275000Y-9725000D02*
X18305000Y-9755000D01*
X18305000Y-9725000D02*
X18275000Y-9755000D01*
X18295000Y-10325000D02*
X18325000Y-10355000D01*
X18325000Y-10325000D02*
X18295000Y-10355000D01*
X18295000Y-10855000D02*
X18325000Y-10885000D01*
X18325000Y-10855000D02*
X18295000Y-10885000D01*
X18325000Y-8285000D02*
X18355000Y-8315000D01*
X18355000Y-8285000D02*
X18325000Y-8315000D01*
X18325000Y-8765000D02*
X18355000Y-8795000D01*
X18355000Y-8765000D02*
X18325000Y-8795000D01*
X18335000Y-7835000D02*
X18365000Y-7865000D01*
X18365000Y-7835000D02*
X18335000Y-7865000D01*
X18415000Y-4185000D02*
X18445000Y-4215000D01*
X18445000Y-4185000D02*
X18415000Y-4215000D01*
X18415000Y-4925000D02*
X18445000Y-4955000D01*
X18445000Y-4925000D02*
X18415000Y-4955000D01*
X18425000Y-4475000D02*
X18455000Y-4505000D01*
X18455000Y-4475000D02*
X18425000Y-4505000D01*
X18425000Y-12195000D02*
X18455000Y-12225000D01*
X18455000Y-12195000D02*
X18425000Y-12225000D01*
X18425000Y-12995000D02*
X18455000Y-13025000D01*
X18455000Y-12995000D02*
X18425000Y-13025000D01*
X18425000Y-13435000D02*
X18455000Y-13465000D01*
X18455000Y-13435000D02*
X18425000Y-13465000D01*
X18425000Y-13825000D02*
X18455000Y-13855000D01*
X18455000Y-13825000D02*
X18425000Y-13855000D01*
X18435000Y-5405000D02*
X18465000Y-5435000D01*
X18465000Y-5405000D02*
X18435000Y-5435000D01*
X18435000Y-6965000D02*
X18465000Y-6995000D01*
X18465000Y-6965000D02*
X18435000Y-6995000D01*
X18435000Y-7495000D02*
X18465000Y-7525000D01*
X18465000Y-7495000D02*
X18435000Y-7525000D01*
X18455000Y-11585000D02*
X18485000Y-11615000D01*
X18485000Y-11585000D02*
X18455000Y-11615000D01*
X18475000Y-12475000D02*
X18505000Y-12505000D01*
X18505000Y-12475000D02*
X18475000Y-12505000D01*
X18565000Y-9215000D02*
X18595000Y-9245000D01*
X18595000Y-9215000D02*
X18565000Y-9245000D01*
X18565000Y-9725000D02*
X18595000Y-9755000D01*
X18595000Y-9725000D02*
X18565000Y-9755000D01*
X18575000Y-8285000D02*
X18605000Y-8315000D01*
X18605000Y-8285000D02*
X18575000Y-8315000D01*
X18575000Y-8765000D02*
X18605000Y-8795000D01*
X18605000Y-8765000D02*
X18575000Y-8795000D01*
X18585000Y-7835000D02*
X18615000Y-7865000D01*
X18615000Y-7835000D02*
X18585000Y-7865000D01*
X18585000Y-10325000D02*
X18615000Y-10355000D01*
X18615000Y-10325000D02*
X18585000Y-10355000D01*
X18585000Y-10855000D02*
X18615000Y-10885000D01*
X18615000Y-10855000D02*
X18585000Y-10885000D01*
X18825000Y-4915000D02*
X18855000Y-4945000D01*
X18855000Y-4915000D02*
X18825000Y-4945000D01*
X18825000Y-8285000D02*
X18855000Y-8315000D01*
X18855000Y-8285000D02*
X18825000Y-8315000D01*
X18825000Y-8765000D02*
X18855000Y-8795000D01*
X18855000Y-8765000D02*
X18825000Y-8795000D01*
X18835000Y-4465000D02*
X18865000Y-4495000D01*
X18865000Y-4465000D02*
X18835000Y-4495000D01*
X18835000Y-7835000D02*
X18865000Y-7865000D01*
X18865000Y-7835000D02*
X18835000Y-7865000D01*
X18845000Y-5395000D02*
X18875000Y-5425000D01*
X18875000Y-5395000D02*
X18845000Y-5425000D01*
X18845000Y-5845000D02*
X18875000Y-5875000D01*
X18875000Y-5845000D02*
X18845000Y-5875000D01*
X18845000Y-6355000D02*
X18875000Y-6385000D01*
X18875000Y-6355000D02*
X18845000Y-6385000D01*
X18845000Y-6955000D02*
X18875000Y-6985000D01*
X18875000Y-6955000D02*
X18845000Y-6985000D01*
X18845000Y-7485000D02*
X18875000Y-7515000D01*
X18875000Y-7485000D02*
X18845000Y-7515000D01*
X18845000Y-9215000D02*
X18875000Y-9245000D01*
X18875000Y-9215000D02*
X18845000Y-9245000D01*
X18845000Y-9725000D02*
X18875000Y-9755000D01*
X18875000Y-9725000D02*
X18845000Y-9755000D01*
X18845000Y-10325000D02*
X18875000Y-10355000D01*
X18875000Y-10325000D02*
X18845000Y-10355000D01*
X18845000Y-10855000D02*
X18875000Y-10885000D01*
X18875000Y-10855000D02*
X18845000Y-10885000D01*
X18855000Y-4185000D02*
X18885000Y-4215000D01*
X18885000Y-4185000D02*
X18855000Y-4215000D01*
X18865000Y-11365000D02*
X18895000Y-11395000D01*
X18895000Y-11365000D02*
X18865000Y-11395000D01*
X18865000Y-11875000D02*
X18895000Y-11905000D01*
X18895000Y-11875000D02*
X18865000Y-11905000D01*
X18865000Y-12475000D02*
X18895000Y-12505000D01*
X18895000Y-12475000D02*
X18865000Y-12505000D01*
X18865000Y-13005000D02*
X18895000Y-13035000D01*
X18895000Y-13005000D02*
X18865000Y-13035000D01*
X18865000Y-13435000D02*
X18895000Y-13465000D01*
X18895000Y-13435000D02*
X18865000Y-13465000D01*
X18865000Y-13825000D02*
X18895000Y-13855000D01*
X18895000Y-13825000D02*
X18865000Y-13855000D01*
X9680000Y-9986000D02*
G75*
G02*
X9600000Y-9986000I-40000J0D01*
G01*
X9600000Y-9986000D02*
G75*
G02*
X9680000Y-9986000I40000J0D01*
G01*
X9680000Y-10748000D02*
G75*
G02*
X9600000Y-10748000I-40000J0D01*
G01*
X9600000Y-10748000D02*
G75*
G02*
X9680000Y-10748000I40000J0D01*
G01*
X9694000Y-7626000D02*
G75*
G02*
X9614000Y-7626000I-40000J0D01*
G01*
X9614000Y-7626000D02*
G75*
G02*
X9694000Y-7626000I40000J0D01*
G01*
X9694000Y-9150000D02*
G75*
G02*
X9614000Y-9150000I-40000J0D01*
G01*
X9614000Y-9150000D02*
G75*
G02*
X9694000Y-9150000I40000J0D01*
G01*
X9934000Y-9986000D02*
G75*
G02*
X9854000Y-9986000I-40000J0D01*
G01*
X9854000Y-9986000D02*
G75*
G02*
X9934000Y-9986000I40000J0D01*
G01*
X9934000Y-10748000D02*
G75*
G02*
X9854000Y-10748000I-40000J0D01*
G01*
X9854000Y-10748000D02*
G75*
G02*
X9934000Y-10748000I40000J0D01*
G01*
X9948000Y-7626000D02*
G75*
G02*
X9868000Y-7626000I-40000J0D01*
G01*
X9868000Y-7626000D02*
G75*
G02*
X9948000Y-7626000I40000J0D01*
G01*
X9948000Y-9150000D02*
G75*
G02*
X9868000Y-9150000I-40000J0D01*
G01*
X9868000Y-9150000D02*
G75*
G02*
X9948000Y-9150000I40000J0D01*
G01*
X10188000Y-9986000D02*
G75*
G02*
X10108000Y-9986000I-40000J0D01*
G01*
X10108000Y-9986000D02*
G75*
G02*
X10188000Y-9986000I40000J0D01*
G01*
X10188000Y-10748000D02*
G75*
G02*
X10108000Y-10748000I-40000J0D01*
G01*
X10108000Y-10748000D02*
G75*
G02*
X10188000Y-10748000I40000J0D01*
G01*
X10202000Y-7626000D02*
G75*
G02*
X10122000Y-7626000I-40000J0D01*
G01*
X10122000Y-7626000D02*
G75*
G02*
X10202000Y-7626000I40000J0D01*
G01*
X10202000Y-9150000D02*
G75*
G02*
X10122000Y-9150000I-40000J0D01*
G01*
X10122000Y-9150000D02*
G75*
G02*
X10202000Y-9150000I40000J0D01*
G01*
X10442000Y-9986000D02*
G75*
G02*
X10362000Y-9986000I-40000J0D01*
G01*
X10362000Y-9986000D02*
G75*
G02*
X10442000Y-9986000I40000J0D01*
G01*
X10442000Y-10748000D02*
G75*
G02*
X10362000Y-10748000I-40000J0D01*
G01*
X10362000Y-10748000D02*
G75*
G02*
X10442000Y-10748000I40000J0D01*
G01*
X10456000Y-7626000D02*
G75*
G02*
X10376000Y-7626000I-40000J0D01*
G01*
X10376000Y-7626000D02*
G75*
G02*
X10456000Y-7626000I40000J0D01*
G01*
X10456000Y-9150000D02*
G75*
G02*
X10376000Y-9150000I-40000J0D01*
G01*
X10376000Y-9150000D02*
G75*
G02*
X10456000Y-9150000I40000J0D01*
G01*
X10696000Y-9986000D02*
G75*
G02*
X10616000Y-9986000I-40000J0D01*
G01*
X10616000Y-9986000D02*
G75*
G02*
X10696000Y-9986000I40000J0D01*
G01*
X10696000Y-10748000D02*
G75*
G02*
X10616000Y-10748000I-40000J0D01*
G01*
X10616000Y-10748000D02*
G75*
G02*
X10696000Y-10748000I40000J0D01*
G01*
X10710000Y-7626000D02*
G75*
G02*
X10630000Y-7626000I-40000J0D01*
G01*
X10630000Y-7626000D02*
G75*
G02*
X10710000Y-7626000I40000J0D01*
G01*
X10710000Y-9150000D02*
G75*
G02*
X10630000Y-9150000I-40000J0D01*
G01*
X10630000Y-9150000D02*
G75*
G02*
X10710000Y-9150000I40000J0D01*
G01*
X10950000Y-9986000D02*
G75*
G02*
X10870000Y-9986000I-40000J0D01*
G01*
X10870000Y-9986000D02*
G75*
G02*
X10950000Y-9986000I40000J0D01*
G01*
X10950000Y-10748000D02*
G75*
G02*
X10870000Y-10748000I-40000J0D01*
G01*
X10870000Y-10748000D02*
G75*
G02*
X10950000Y-10748000I40000J0D01*
G01*
X10964000Y-7626000D02*
G75*
G02*
X10884000Y-7626000I-40000J0D01*
G01*
X10884000Y-7626000D02*
G75*
G02*
X10964000Y-7626000I40000J0D01*
G01*
X10964000Y-9150000D02*
G75*
G02*
X10884000Y-9150000I-40000J0D01*
G01*
X10884000Y-9150000D02*
G75*
G02*
X10964000Y-9150000I40000J0D01*
G01*
X11204000Y-9986000D02*
G75*
G02*
X11124000Y-9986000I-40000J0D01*
G01*
X11124000Y-9986000D02*
G75*
G02*
X11204000Y-9986000I40000J0D01*
G01*
X11204000Y-10748000D02*
G75*
G02*
X11124000Y-10748000I-40000J0D01*
G01*
X11124000Y-10748000D02*
G75*
G02*
X11204000Y-10748000I40000J0D01*
G01*
X11218000Y-7626000D02*
G75*
G02*
X11138000Y-7626000I-40000J0D01*
G01*
X11138000Y-7626000D02*
G75*
G02*
X11218000Y-7626000I40000J0D01*
G01*
X11218000Y-9150000D02*
G75*
G02*
X11138000Y-9150000I-40000J0D01*
G01*
X11138000Y-9150000D02*
G75*
G02*
X11218000Y-9150000I40000J0D01*
G01*
X11458000Y-9986000D02*
G75*
G02*
X11378000Y-9986000I-40000J0D01*
G01*
X11378000Y-9986000D02*
G75*
G02*
X11458000Y-9986000I40000J0D01*
G01*
X11458000Y-10748000D02*
G75*
G02*
X11378000Y-10748000I-40000J0D01*
G01*
X11378000Y-10748000D02*
G75*
G02*
X11458000Y-10748000I40000J0D01*
G01*
X11472000Y-7626000D02*
G75*
G02*
X11392000Y-7626000I-40000J0D01*
G01*
X11392000Y-7626000D02*
G75*
G02*
X11472000Y-7626000I40000J0D01*
G01*
X11472000Y-9150000D02*
G75*
G02*
X11392000Y-9150000I-40000J0D01*
G01*
X11392000Y-9150000D02*
G75*
G02*
X11472000Y-9150000I40000J0D01*
G01*
X11726000Y-7626000D02*
G75*
G02*
X11646000Y-7626000I-40000J0D01*
G01*
X11646000Y-7626000D02*
G75*
G02*
X11726000Y-7626000I40000J0D01*
G01*
X11726000Y-9150000D02*
G75*
G02*
X11646000Y-9150000I-40000J0D01*
G01*
X11646000Y-9150000D02*
G75*
G02*
X11726000Y-9150000I40000J0D01*
G01*
X11980000Y-7626000D02*
G75*
G02*
X11900000Y-7626000I-40000J0D01*
G01*
X11900000Y-7626000D02*
G75*
G02*
X11980000Y-7626000I40000J0D01*
G01*
X11980000Y-9150000D02*
G75*
G02*
X11900000Y-9150000I-40000J0D01*
G01*
X11900000Y-9150000D02*
G75*
G02*
X11980000Y-9150000I40000J0D01*
G01*
X12052000Y-9988000D02*
G75*
G02*
X11972000Y-9988000I-40000J0D01*
G01*
X11972000Y-9988000D02*
G75*
G02*
X12052000Y-9988000I40000J0D01*
G01*
X12052000Y-10750000D02*
G75*
G02*
X11972000Y-10750000I-40000J0D01*
G01*
X11972000Y-10750000D02*
G75*
G02*
X12052000Y-10750000I40000J0D01*
G01*
X12234000Y-7626000D02*
G75*
G02*
X12154000Y-7626000I-40000J0D01*
G01*
X12154000Y-7626000D02*
G75*
G02*
X12234000Y-7626000I40000J0D01*
G01*
X12234000Y-9150000D02*
G75*
G02*
X12154000Y-9150000I-40000J0D01*
G01*
X12154000Y-9150000D02*
G75*
G02*
X12234000Y-9150000I40000J0D01*
G01*
X12306000Y-9988000D02*
G75*
G02*
X12226000Y-9988000I-40000J0D01*
G01*
X12226000Y-9988000D02*
G75*
G02*
X12306000Y-9988000I40000J0D01*
G01*
X12306000Y-10750000D02*
G75*
G02*
X12226000Y-10750000I-40000J0D01*
G01*
X12226000Y-10750000D02*
G75*
G02*
X12306000Y-10750000I40000J0D01*
G01*
X12488000Y-7626000D02*
G75*
G02*
X12408000Y-7626000I-40000J0D01*
G01*
X12408000Y-7626000D02*
G75*
G02*
X12488000Y-7626000I40000J0D01*
G01*
X12488000Y-9150000D02*
G75*
G02*
X12408000Y-9150000I-40000J0D01*
G01*
X12408000Y-9150000D02*
G75*
G02*
X12488000Y-9150000I40000J0D01*
G01*
X12560000Y-9988000D02*
G75*
G02*
X12480000Y-9988000I-40000J0D01*
G01*
X12480000Y-9988000D02*
G75*
G02*
X12560000Y-9988000I40000J0D01*
G01*
X12560000Y-10750000D02*
G75*
G02*
X12480000Y-10750000I-40000J0D01*
G01*
X12480000Y-10750000D02*
G75*
G02*
X12560000Y-10750000I40000J0D01*
G01*
X12742000Y-7626000D02*
G75*
G02*
X12662000Y-7626000I-40000J0D01*
G01*
X12662000Y-7626000D02*
G75*
G02*
X12742000Y-7626000I40000J0D01*
G01*
X12742000Y-9150000D02*
G75*
G02*
X12662000Y-9150000I-40000J0D01*
G01*
X12662000Y-9150000D02*
G75*
G02*
X12742000Y-9150000I40000J0D01*
G01*
X12814000Y-9988000D02*
G75*
G02*
X12734000Y-9988000I-40000J0D01*
G01*
X12734000Y-9988000D02*
G75*
G02*
X12814000Y-9988000I40000J0D01*
G01*
X12814000Y-10750000D02*
G75*
G02*
X12734000Y-10750000I-40000J0D01*
G01*
X12734000Y-10750000D02*
G75*
G02*
X12814000Y-10750000I40000J0D01*
G01*
X12996000Y-7626000D02*
G75*
G02*
X12916000Y-7626000I-40000J0D01*
G01*
X12916000Y-7626000D02*
G75*
G02*
X12996000Y-7626000I40000J0D01*
G01*
X12996000Y-9150000D02*
G75*
G02*
X12916000Y-9150000I-40000J0D01*
G01*
X12916000Y-9150000D02*
G75*
G02*
X12996000Y-9150000I40000J0D01*
G01*
X13068000Y-9988000D02*
G75*
G02*
X12988000Y-9988000I-40000J0D01*
G01*
X12988000Y-9988000D02*
G75*
G02*
X13068000Y-9988000I40000J0D01*
G01*
X13068000Y-10750000D02*
G75*
G02*
X12988000Y-10750000I-40000J0D01*
G01*
X12988000Y-10750000D02*
G75*
G02*
X13068000Y-10750000I40000J0D01*
G01*
X13250000Y-7626000D02*
G75*
G02*
X13170000Y-7626000I-40000J0D01*
G01*
X13170000Y-7626000D02*
G75*
G02*
X13250000Y-7626000I40000J0D01*
G01*
X13250000Y-9150000D02*
G75*
G02*
X13170000Y-9150000I-40000J0D01*
G01*
X13170000Y-9150000D02*
G75*
G02*
X13250000Y-9150000I40000J0D01*
G01*
X13322000Y-9988000D02*
G75*
G02*
X13242000Y-9988000I-40000J0D01*
G01*
X13242000Y-9988000D02*
G75*
G02*
X13322000Y-9988000I40000J0D01*
G01*
X13322000Y-10750000D02*
G75*
G02*
X13242000Y-10750000I-40000J0D01*
G01*
X13242000Y-10750000D02*
G75*
G02*
X13322000Y-10750000I40000J0D01*
G01*
X13504000Y-7626000D02*
G75*
G02*
X13424000Y-7626000I-40000J0D01*
G01*
X13424000Y-7626000D02*
G75*
G02*
X13504000Y-7626000I40000J0D01*
G01*
X13504000Y-9150000D02*
G75*
G02*
X13424000Y-9150000I-40000J0D01*
G01*
X13424000Y-9150000D02*
G75*
G02*
X13504000Y-9150000I40000J0D01*
G01*
X13576000Y-9988000D02*
G75*
G02*
X13496000Y-9988000I-40000J0D01*
G01*
X13496000Y-9988000D02*
G75*
G02*
X13576000Y-9988000I40000J0D01*
G01*
X13576000Y-10750000D02*
G75*
G02*
X13496000Y-10750000I-40000J0D01*
G01*
X13496000Y-10750000D02*
G75*
G02*
X13576000Y-10750000I40000J0D01*
G01*
X13758000Y-7626000D02*
G75*
G02*
X13678000Y-7626000I-40000J0D01*
G01*
X13678000Y-7626000D02*
G75*
G02*
X13758000Y-7626000I40000J0D01*
G01*
X13758000Y-9150000D02*
G75*
G02*
X13678000Y-9150000I-40000J0D01*
G01*
X13678000Y-9150000D02*
G75*
G02*
X13758000Y-9150000I40000J0D01*
G01*
X13830000Y-9988000D02*
G75*
G02*
X13750000Y-9988000I-40000J0D01*
G01*
X13750000Y-9988000D02*
G75*
G02*
X13830000Y-9988000I40000J0D01*
G01*
X13830000Y-10750000D02*
G75*
G02*
X13750000Y-10750000I-40000J0D01*
G01*
X13750000Y-10750000D02*
G75*
G02*
X13830000Y-10750000I40000J0D01*
G01*
X14012000Y-7626000D02*
G75*
G02*
X13932000Y-7626000I-40000J0D01*
G01*
X13932000Y-7626000D02*
G75*
G02*
X14012000Y-7626000I40000J0D01*
G01*
X14012000Y-9150000D02*
G75*
G02*
X13932000Y-9150000I-40000J0D01*
G01*
X13932000Y-9150000D02*
G75*
G02*
X14012000Y-9150000I40000J0D01*
G01*
X14266000Y-7626000D02*
G75*
G02*
X14186000Y-7626000I-40000J0D01*
G01*
X14186000Y-7626000D02*
G75*
G02*
X14266000Y-7626000I40000J0D01*
G01*
X14266000Y-9150000D02*
G75*
G02*
X14186000Y-9150000I-40000J0D01*
G01*
X14186000Y-9150000D02*
G75*
G02*
X14266000Y-9150000I40000J0D01*
G01*
X14520000Y-7626000D02*
G75*
G02*
X14440000Y-7626000I-40000J0D01*
G01*
X14440000Y-7626000D02*
G75*
G02*
X14520000Y-7626000I40000J0D01*
G01*
X14520000Y-9150000D02*
G75*
G02*
X14440000Y-9150000I-40000J0D01*
G01*
X14440000Y-9150000D02*
G75*
G02*
X14520000Y-9150000I40000J0D01*
G01*
X9894000Y-11737250D02*
X9894000Y-11837250D01*
X9844000Y-11787250D02*
X9944000Y-11787250D01*
X10148000Y-11737250D02*
X10148000Y-11837250D01*
X10098000Y-11787250D02*
X10198000Y-11787250D01*
X10402000Y-11737250D02*
X10402000Y-11837250D01*
X10352000Y-11787250D02*
X10452000Y-11787250D01*
X10414000Y-6240000D02*
X10414000Y-6340000D01*
X10364000Y-6290000D02*
X10464000Y-6290000D01*
X10656000Y-11737250D02*
X10656000Y-11837250D01*
X10606000Y-11787250D02*
X10706000Y-11787250D01*
X10668000Y-6240000D02*
X10668000Y-6340000D01*
X10618000Y-6290000D02*
X10718000Y-6290000D01*
X10910000Y-11737250D02*
X10910000Y-11837250D01*
X10860000Y-11787250D02*
X10960000Y-11787250D01*
X10922000Y-6240000D02*
X10922000Y-6340000D01*
X10872000Y-6290000D02*
X10972000Y-6290000D01*
X11164000Y-11737250D02*
X11164000Y-11837250D01*
X11114000Y-11787250D02*
X11214000Y-11787250D01*
X11176000Y-6240000D02*
X11176000Y-6340000D01*
X11126000Y-6290000D02*
X11226000Y-6290000D01*
X11418000Y-11737250D02*
X11418000Y-11837250D01*
X11368000Y-11787250D02*
X11468000Y-11787250D01*
X11430000Y-6240000D02*
X11430000Y-6340000D01*
X11380000Y-6290000D02*
X11480000Y-6290000D01*
X11672000Y-11737250D02*
X11672000Y-11837250D01*
X11622000Y-11787250D02*
X11722000Y-11787250D01*
X11684000Y-6240000D02*
X11684000Y-6340000D01*
X11634000Y-6290000D02*
X11734000Y-6290000D01*
X11926000Y-11737250D02*
X11926000Y-11837250D01*
X11876000Y-11787250D02*
X11976000Y-11787250D01*
X11938000Y-6240000D02*
X11938000Y-6340000D01*
X11888000Y-6290000D02*
X11988000Y-6290000D01*
X12180000Y-11737250D02*
X12180000Y-11837250D01*
X12130000Y-11787250D02*
X12230000Y-11787250D01*
X12192000Y-6240000D02*
X12192000Y-6340000D01*
X12142000Y-6290000D02*
X12242000Y-6290000D01*
X12434000Y-11737250D02*
X12434000Y-11837250D01*
X12384000Y-11787250D02*
X12484000Y-11787250D01*
X12446000Y-6240000D02*
X12446000Y-6340000D01*
X12396000Y-6290000D02*
X12496000Y-6290000D01*
X12688000Y-11737250D02*
X12688000Y-11837250D01*
X12638000Y-11787250D02*
X12738000Y-11787250D01*
X12700000Y-6240000D02*
X12700000Y-6340000D01*
X12650000Y-6290000D02*
X12750000Y-6290000D01*
X12942000Y-11737250D02*
X12942000Y-11837250D01*
X12892000Y-11787250D02*
X12992000Y-11787250D01*
X12954000Y-6240000D02*
X12954000Y-6340000D01*
X12904000Y-6290000D02*
X13004000Y-6290000D01*
X13196000Y-11737250D02*
X13196000Y-11837250D01*
X13146000Y-11787250D02*
X13246000Y-11787250D01*
X13208000Y-6240000D02*
X13208000Y-6340000D01*
X13158000Y-6290000D02*
X13258000Y-6290000D01*
X13462000Y-6240000D02*
X13462000Y-6340000D01*
X13412000Y-6290000D02*
X13512000Y-6290000D01*
X13716000Y-6240000D02*
X13716000Y-6340000D01*
X13666000Y-6290000D02*
X13766000Y-6290000D01*
X13970000Y-6240000D02*
X13970000Y-6340000D01*
X13920000Y-6290000D02*
X14020000Y-6290000D01*
X16480000Y-11993232D02*
X16480000Y-12093232D01*
X16430000Y-12043232D02*
X16530000Y-12043232D01*
X16480000Y-12493232D02*
X16480000Y-12593232D01*
X16430000Y-12543232D02*
X16530000Y-12543232D01*
X17990000Y-4490000D02*
X17990000Y-4590000D01*
X17940000Y-4540000D02*
X18040000Y-4540000D01*
X17990000Y-4744000D02*
X17990000Y-4844000D01*
X17940000Y-4794000D02*
X18040000Y-4794000D01*
X17990000Y-4998000D02*
X17990000Y-5098000D01*
X17940000Y-5048000D02*
X18040000Y-5048000D01*
X17990000Y-5252000D02*
X17990000Y-5352000D01*
X17940000Y-5302000D02*
X18040000Y-5302000D01*
X18050000Y-8690000D02*
X18050000Y-8790000D01*
X18000000Y-8740000D02*
X18100000Y-8740000D01*
X18050000Y-8944000D02*
X18050000Y-9044000D01*
X18000000Y-8994000D02*
X18100000Y-8994000D01*
X18050000Y-9198000D02*
X18050000Y-9298000D01*
X18000000Y-9248000D02*
X18100000Y-9248000D01*
X18050000Y-9452000D02*
X18050000Y-9552000D01*
X18000000Y-9502000D02*
X18100000Y-9502000D01*
X18050000Y-9706000D02*
X18050000Y-9806000D01*
X18000000Y-9756000D02*
X18100000Y-9756000D01*
X18050000Y-9960000D02*
X18050000Y-10060000D01*
X18000000Y-10010000D02*
X18100000Y-10010000D01*
D13*
X18172427Y-12692427D02*
X18172427Y-12607573D01*
X18087573Y-12607573D01*
X18087573Y-12692427D01*
X18172427Y-12692427D01*
X18172427Y-13042427D02*
X18172427Y-12957573D01*
X18087573Y-12957573D01*
X18087573Y-13042427D01*
X18172427Y-13042427D01*
X18182427Y-11462427D02*
X18182427Y-11377573D01*
X18097573Y-11377573D01*
X18097573Y-11462427D01*
X18182427Y-11462427D01*
X18182427Y-11812427D02*
X18182427Y-11727573D01*
X18097573Y-11727573D01*
X18097573Y-11812427D01*
X18182427Y-11812427D01*
D11*
X9258277Y-14313984D02*
X9258277Y-14113984D01*
X9258277Y-14113984D02*
X9305896Y-14113984D01*
X9305896Y-14113984D02*
X9334467Y-14123508D01*
X9334467Y-14123508D02*
X9353515Y-14142555D01*
X9353515Y-14142555D02*
X9363039Y-14161603D01*
X9363039Y-14161603D02*
X9372563Y-14199698D01*
X9372563Y-14199698D02*
X9372563Y-14228269D01*
X9372563Y-14228269D02*
X9363039Y-14266365D01*
X9363039Y-14266365D02*
X9353515Y-14285412D01*
X9353515Y-14285412D02*
X9334467Y-14304460D01*
X9334467Y-14304460D02*
X9305896Y-14313984D01*
X9305896Y-14313984D02*
X9258277Y-14313984D01*
X9458277Y-14313984D02*
X9458277Y-14180650D01*
X9458277Y-14218746D02*
X9467801Y-14199698D01*
X9467801Y-14199698D02*
X9477324Y-14190174D01*
X9477324Y-14190174D02*
X9496372Y-14180650D01*
X9496372Y-14180650D02*
X9515420Y-14180650D01*
X9582086Y-14313984D02*
X9582086Y-14180650D01*
X9582086Y-14113984D02*
X9572563Y-14123508D01*
X9572563Y-14123508D02*
X9582086Y-14133031D01*
X9582086Y-14133031D02*
X9591610Y-14123508D01*
X9591610Y-14123508D02*
X9582086Y-14113984D01*
X9582086Y-14113984D02*
X9582086Y-14133031D01*
X9705896Y-14313984D02*
X9686848Y-14304460D01*
X9686848Y-14304460D02*
X9677324Y-14285412D01*
X9677324Y-14285412D02*
X9677324Y-14113984D01*
X9810658Y-14313984D02*
X9791610Y-14304460D01*
X9791610Y-14304460D02*
X9782086Y-14285412D01*
X9782086Y-14285412D02*
X9782086Y-14113984D01*
X10039229Y-14313984D02*
X10039229Y-14113984D01*
X10039229Y-14113984D02*
X10105896Y-14256841D01*
X10105896Y-14256841D02*
X10172563Y-14113984D01*
X10172563Y-14113984D02*
X10172563Y-14313984D01*
X10353515Y-14313984D02*
X10353515Y-14209222D01*
X10353515Y-14209222D02*
X10343991Y-14190174D01*
X10343991Y-14190174D02*
X10324944Y-14180650D01*
X10324944Y-14180650D02*
X10286848Y-14180650D01*
X10286848Y-14180650D02*
X10267801Y-14190174D01*
X10353515Y-14304460D02*
X10334467Y-14313984D01*
X10334467Y-14313984D02*
X10286848Y-14313984D01*
X10286848Y-14313984D02*
X10267801Y-14304460D01*
X10267801Y-14304460D02*
X10258277Y-14285412D01*
X10258277Y-14285412D02*
X10258277Y-14266365D01*
X10258277Y-14266365D02*
X10267801Y-14247317D01*
X10267801Y-14247317D02*
X10286848Y-14237793D01*
X10286848Y-14237793D02*
X10334467Y-14237793D01*
X10334467Y-14237793D02*
X10353515Y-14228269D01*
X10448753Y-14180650D02*
X10448753Y-14380650D01*
X10448753Y-14190174D02*
X10467801Y-14180650D01*
X10467801Y-14180650D02*
X10505896Y-14180650D01*
X10505896Y-14180650D02*
X10524944Y-14190174D01*
X10524944Y-14190174D02*
X10534467Y-14199698D01*
X10534467Y-14199698D02*
X10543991Y-14218746D01*
X10543991Y-14218746D02*
X10543991Y-14275888D01*
X10543991Y-14275888D02*
X10534467Y-14294936D01*
X10534467Y-14294936D02*
X10524944Y-14304460D01*
X10524944Y-14304460D02*
X10505896Y-14313984D01*
X10505896Y-14313984D02*
X10467801Y-14313984D01*
X10467801Y-14313984D02*
X10448753Y-14304460D01*
X10629705Y-14294936D02*
X10639229Y-14304460D01*
X10639229Y-14304460D02*
X10629705Y-14313984D01*
X10629705Y-14313984D02*
X10620182Y-14304460D01*
X10620182Y-14304460D02*
X10629705Y-14294936D01*
X10629705Y-14294936D02*
X10629705Y-14313984D01*
X10629705Y-14190174D02*
X10639229Y-14199698D01*
X10639229Y-14199698D02*
X10629705Y-14209222D01*
X10629705Y-14209222D02*
X10620182Y-14199698D01*
X10620182Y-14199698D02*
X10629705Y-14190174D01*
X10629705Y-14190174D02*
X10629705Y-14209222D01*
D12*
X8967500Y-14627500D02*
X8997500Y-14657500D01*
X8997500Y-14627500D02*
X8967500Y-14657500D01*
D11*
X9296372Y-14533984D02*
X9315420Y-14533984D01*
X9315420Y-14533984D02*
X9334467Y-14543508D01*
X9334467Y-14543508D02*
X9343991Y-14553031D01*
X9343991Y-14553031D02*
X9353515Y-14572079D01*
X9353515Y-14572079D02*
X9363039Y-14610174D01*
X9363039Y-14610174D02*
X9363039Y-14657793D01*
X9363039Y-14657793D02*
X9353515Y-14695888D01*
X9353515Y-14695888D02*
X9343991Y-14714936D01*
X9343991Y-14714936D02*
X9334467Y-14724460D01*
X9334467Y-14724460D02*
X9315420Y-14733984D01*
X9315420Y-14733984D02*
X9296372Y-14733984D01*
X9296372Y-14733984D02*
X9277324Y-14724460D01*
X9277324Y-14724460D02*
X9267801Y-14714936D01*
X9267801Y-14714936D02*
X9258277Y-14695888D01*
X9258277Y-14695888D02*
X9248753Y-14657793D01*
X9248753Y-14657793D02*
X9248753Y-14610174D01*
X9248753Y-14610174D02*
X9258277Y-14572079D01*
X9258277Y-14572079D02*
X9267801Y-14553031D01*
X9267801Y-14553031D02*
X9277324Y-14543508D01*
X9277324Y-14543508D02*
X9296372Y-14533984D01*
X9448753Y-14714936D02*
X9458277Y-14724460D01*
X9458277Y-14724460D02*
X9448753Y-14733984D01*
X9448753Y-14733984D02*
X9439229Y-14724460D01*
X9439229Y-14724460D02*
X9448753Y-14714936D01*
X9448753Y-14714936D02*
X9448753Y-14733984D01*
X9524944Y-14533984D02*
X9648753Y-14533984D01*
X9648753Y-14533984D02*
X9582086Y-14610174D01*
X9582086Y-14610174D02*
X9610658Y-14610174D01*
X9610658Y-14610174D02*
X9629705Y-14619698D01*
X9629705Y-14619698D02*
X9639229Y-14629222D01*
X9639229Y-14629222D02*
X9648753Y-14648269D01*
X9648753Y-14648269D02*
X9648753Y-14695888D01*
X9648753Y-14695888D02*
X9639229Y-14714936D01*
X9639229Y-14714936D02*
X9629705Y-14724460D01*
X9629705Y-14724460D02*
X9610658Y-14733984D01*
X9610658Y-14733984D02*
X9553515Y-14733984D01*
X9553515Y-14733984D02*
X9534467Y-14724460D01*
X9534467Y-14724460D02*
X9524944Y-14714936D01*
X9772563Y-14533984D02*
X9791610Y-14533984D01*
X9791610Y-14533984D02*
X9810658Y-14543508D01*
X9810658Y-14543508D02*
X9820182Y-14553031D01*
X9820182Y-14553031D02*
X9829705Y-14572079D01*
X9829705Y-14572079D02*
X9839229Y-14610174D01*
X9839229Y-14610174D02*
X9839229Y-14657793D01*
X9839229Y-14657793D02*
X9829705Y-14695888D01*
X9829705Y-14695888D02*
X9820182Y-14714936D01*
X9820182Y-14714936D02*
X9810658Y-14724460D01*
X9810658Y-14724460D02*
X9791610Y-14733984D01*
X9791610Y-14733984D02*
X9772563Y-14733984D01*
X9772563Y-14733984D02*
X9753515Y-14724460D01*
X9753515Y-14724460D02*
X9743991Y-14714936D01*
X9743991Y-14714936D02*
X9734467Y-14695888D01*
X9734467Y-14695888D02*
X9724944Y-14657793D01*
X9724944Y-14657793D02*
X9724944Y-14610174D01*
X9724944Y-14610174D02*
X9734467Y-14572079D01*
X9734467Y-14572079D02*
X9743991Y-14553031D01*
X9743991Y-14553031D02*
X9753515Y-14543508D01*
X9753515Y-14543508D02*
X9772563Y-14533984D01*
X9963039Y-14533984D02*
X9982086Y-14533984D01*
X9982086Y-14533984D02*
X10001134Y-14543508D01*
X10001134Y-14543508D02*
X10010658Y-14553031D01*
X10010658Y-14553031D02*
X10020182Y-14572079D01*
X10020182Y-14572079D02*
X10029705Y-14610174D01*
X10029705Y-14610174D02*
X10029705Y-14657793D01*
X10029705Y-14657793D02*
X10020182Y-14695888D01*
X10020182Y-14695888D02*
X10010658Y-14714936D01*
X10010658Y-14714936D02*
X10001134Y-14724460D01*
X10001134Y-14724460D02*
X9982086Y-14733984D01*
X9982086Y-14733984D02*
X9963039Y-14733984D01*
X9963039Y-14733984D02*
X9943991Y-14724460D01*
X9943991Y-14724460D02*
X9934467Y-14714936D01*
X9934467Y-14714936D02*
X9924944Y-14695888D01*
X9924944Y-14695888D02*
X9915420Y-14657793D01*
X9915420Y-14657793D02*
X9915420Y-14610174D01*
X9915420Y-14610174D02*
X9924944Y-14572079D01*
X9924944Y-14572079D02*
X9934467Y-14553031D01*
X9934467Y-14553031D02*
X9943991Y-14543508D01*
X9943991Y-14543508D02*
X9963039Y-14533984D01*
X10115420Y-14733984D02*
X10115420Y-14600650D01*
X10115420Y-14619698D02*
X10124944Y-14610174D01*
X10124944Y-14610174D02*
X10143991Y-14600650D01*
X10143991Y-14600650D02*
X10172563Y-14600650D01*
X10172563Y-14600650D02*
X10191610Y-14610174D01*
X10191610Y-14610174D02*
X10201134Y-14629222D01*
X10201134Y-14629222D02*
X10201134Y-14733984D01*
X10201134Y-14629222D02*
X10210658Y-14610174D01*
X10210658Y-14610174D02*
X10229705Y-14600650D01*
X10229705Y-14600650D02*
X10258277Y-14600650D01*
X10258277Y-14600650D02*
X10277325Y-14610174D01*
X10277325Y-14610174D02*
X10286848Y-14629222D01*
X10286848Y-14629222D02*
X10286848Y-14733984D01*
X10382086Y-14733984D02*
X10382086Y-14600650D01*
X10382086Y-14619698D02*
X10391610Y-14610174D01*
X10391610Y-14610174D02*
X10410658Y-14600650D01*
X10410658Y-14600650D02*
X10439229Y-14600650D01*
X10439229Y-14600650D02*
X10458277Y-14610174D01*
X10458277Y-14610174D02*
X10467801Y-14629222D01*
X10467801Y-14629222D02*
X10467801Y-14733984D01*
X10467801Y-14629222D02*
X10477325Y-14610174D01*
X10477325Y-14610174D02*
X10496372Y-14600650D01*
X10496372Y-14600650D02*
X10524944Y-14600650D01*
X10524944Y-14600650D02*
X10543991Y-14610174D01*
X10543991Y-14610174D02*
X10553515Y-14629222D01*
X10553515Y-14629222D02*
X10553515Y-14733984D01*
X10943991Y-14524460D02*
X10772563Y-14781603D01*
X11201134Y-14533984D02*
X11220182Y-14533984D01*
X11220182Y-14533984D02*
X11239229Y-14543508D01*
X11239229Y-14543508D02*
X11248753Y-14553031D01*
X11248753Y-14553031D02*
X11258277Y-14572079D01*
X11258277Y-14572079D02*
X11267801Y-14610174D01*
X11267801Y-14610174D02*
X11267801Y-14657793D01*
X11267801Y-14657793D02*
X11258277Y-14695888D01*
X11258277Y-14695888D02*
X11248753Y-14714936D01*
X11248753Y-14714936D02*
X11239229Y-14724460D01*
X11239229Y-14724460D02*
X11220182Y-14733984D01*
X11220182Y-14733984D02*
X11201134Y-14733984D01*
X11201134Y-14733984D02*
X11182087Y-14724460D01*
X11182087Y-14724460D02*
X11172563Y-14714936D01*
X11172563Y-14714936D02*
X11163039Y-14695888D01*
X11163039Y-14695888D02*
X11153515Y-14657793D01*
X11153515Y-14657793D02*
X11153515Y-14610174D01*
X11153515Y-14610174D02*
X11163039Y-14572079D01*
X11163039Y-14572079D02*
X11172563Y-14553031D01*
X11172563Y-14553031D02*
X11182087Y-14543508D01*
X11182087Y-14543508D02*
X11201134Y-14533984D01*
X11353515Y-14714936D02*
X11363039Y-14724460D01*
X11363039Y-14724460D02*
X11353515Y-14733984D01*
X11353515Y-14733984D02*
X11343991Y-14724460D01*
X11343991Y-14724460D02*
X11353515Y-14714936D01*
X11353515Y-14714936D02*
X11353515Y-14733984D01*
X11486848Y-14533984D02*
X11505896Y-14533984D01*
X11505896Y-14533984D02*
X11524944Y-14543508D01*
X11524944Y-14543508D02*
X11534467Y-14553031D01*
X11534467Y-14553031D02*
X11543991Y-14572079D01*
X11543991Y-14572079D02*
X11553515Y-14610174D01*
X11553515Y-14610174D02*
X11553515Y-14657793D01*
X11553515Y-14657793D02*
X11543991Y-14695888D01*
X11543991Y-14695888D02*
X11534467Y-14714936D01*
X11534467Y-14714936D02*
X11524944Y-14724460D01*
X11524944Y-14724460D02*
X11505896Y-14733984D01*
X11505896Y-14733984D02*
X11486848Y-14733984D01*
X11486848Y-14733984D02*
X11467801Y-14724460D01*
X11467801Y-14724460D02*
X11458277Y-14714936D01*
X11458277Y-14714936D02*
X11448753Y-14695888D01*
X11448753Y-14695888D02*
X11439229Y-14657793D01*
X11439229Y-14657793D02*
X11439229Y-14610174D01*
X11439229Y-14610174D02*
X11448753Y-14572079D01*
X11448753Y-14572079D02*
X11458277Y-14553031D01*
X11458277Y-14553031D02*
X11467801Y-14543508D01*
X11467801Y-14543508D02*
X11486848Y-14533984D01*
X11743991Y-14733984D02*
X11629706Y-14733984D01*
X11686848Y-14733984D02*
X11686848Y-14533984D01*
X11686848Y-14533984D02*
X11667801Y-14562555D01*
X11667801Y-14562555D02*
X11648753Y-14581603D01*
X11648753Y-14581603D02*
X11629706Y-14591127D01*
X11934467Y-14733984D02*
X11820182Y-14733984D01*
X11877325Y-14733984D02*
X11877325Y-14533984D01*
X11877325Y-14533984D02*
X11858277Y-14562555D01*
X11858277Y-14562555D02*
X11839229Y-14581603D01*
X11839229Y-14581603D02*
X11820182Y-14591127D01*
X12048753Y-14619698D02*
X12029706Y-14610174D01*
X12029706Y-14610174D02*
X12020182Y-14600650D01*
X12020182Y-14600650D02*
X12010658Y-14581603D01*
X12010658Y-14581603D02*
X12010658Y-14572079D01*
X12010658Y-14572079D02*
X12020182Y-14553031D01*
X12020182Y-14553031D02*
X12029706Y-14543508D01*
X12029706Y-14543508D02*
X12048753Y-14533984D01*
X12048753Y-14533984D02*
X12086848Y-14533984D01*
X12086848Y-14533984D02*
X12105896Y-14543508D01*
X12105896Y-14543508D02*
X12115420Y-14553031D01*
X12115420Y-14553031D02*
X12124944Y-14572079D01*
X12124944Y-14572079D02*
X12124944Y-14581603D01*
X12124944Y-14581603D02*
X12115420Y-14600650D01*
X12115420Y-14600650D02*
X12105896Y-14610174D01*
X12105896Y-14610174D02*
X12086848Y-14619698D01*
X12086848Y-14619698D02*
X12048753Y-14619698D01*
X12048753Y-14619698D02*
X12029706Y-14629222D01*
X12029706Y-14629222D02*
X12020182Y-14638746D01*
X12020182Y-14638746D02*
X12010658Y-14657793D01*
X12010658Y-14657793D02*
X12010658Y-14695888D01*
X12010658Y-14695888D02*
X12020182Y-14714936D01*
X12020182Y-14714936D02*
X12029706Y-14724460D01*
X12029706Y-14724460D02*
X12048753Y-14733984D01*
X12048753Y-14733984D02*
X12086848Y-14733984D01*
X12086848Y-14733984D02*
X12105896Y-14724460D01*
X12105896Y-14724460D02*
X12115420Y-14714936D01*
X12115420Y-14714936D02*
X12124944Y-14695888D01*
X12124944Y-14695888D02*
X12124944Y-14657793D01*
X12124944Y-14657793D02*
X12115420Y-14638746D01*
X12115420Y-14638746D02*
X12105896Y-14629222D01*
X12105896Y-14629222D02*
X12086848Y-14619698D01*
X12201134Y-14533984D02*
X12201134Y-14572079D01*
X12277325Y-14533984D02*
X12277325Y-14572079D01*
X12572563Y-14810174D02*
X12563039Y-14800650D01*
X12563039Y-14800650D02*
X12543991Y-14772079D01*
X12543991Y-14772079D02*
X12534468Y-14753031D01*
X12534468Y-14753031D02*
X12524944Y-14724460D01*
X12524944Y-14724460D02*
X12515420Y-14676841D01*
X12515420Y-14676841D02*
X12515420Y-14638746D01*
X12515420Y-14638746D02*
X12524944Y-14591127D01*
X12524944Y-14591127D02*
X12534468Y-14562555D01*
X12534468Y-14562555D02*
X12543991Y-14543508D01*
X12543991Y-14543508D02*
X12563039Y-14514936D01*
X12563039Y-14514936D02*
X12572563Y-14505412D01*
X12743991Y-14533984D02*
X12648753Y-14533984D01*
X12648753Y-14533984D02*
X12639229Y-14629222D01*
X12639229Y-14629222D02*
X12648753Y-14619698D01*
X12648753Y-14619698D02*
X12667801Y-14610174D01*
X12667801Y-14610174D02*
X12715420Y-14610174D01*
X12715420Y-14610174D02*
X12734468Y-14619698D01*
X12734468Y-14619698D02*
X12743991Y-14629222D01*
X12743991Y-14629222D02*
X12753515Y-14648269D01*
X12753515Y-14648269D02*
X12753515Y-14695888D01*
X12753515Y-14695888D02*
X12743991Y-14714936D01*
X12743991Y-14714936D02*
X12734468Y-14724460D01*
X12734468Y-14724460D02*
X12715420Y-14733984D01*
X12715420Y-14733984D02*
X12667801Y-14733984D01*
X12667801Y-14733984D02*
X12648753Y-14724460D01*
X12648753Y-14724460D02*
X12639229Y-14714936D01*
X12820182Y-14533984D02*
X12953515Y-14533984D01*
X12953515Y-14533984D02*
X12867801Y-14733984D01*
X13020182Y-14553031D02*
X13029706Y-14543508D01*
X13029706Y-14543508D02*
X13048753Y-14533984D01*
X13048753Y-14533984D02*
X13096372Y-14533984D01*
X13096372Y-14533984D02*
X13115420Y-14543508D01*
X13115420Y-14543508D02*
X13124944Y-14553031D01*
X13124944Y-14553031D02*
X13134468Y-14572079D01*
X13134468Y-14572079D02*
X13134468Y-14591127D01*
X13134468Y-14591127D02*
X13124944Y-14619698D01*
X13124944Y-14619698D02*
X13010658Y-14733984D01*
X13010658Y-14733984D02*
X13134468Y-14733984D01*
X13372563Y-14733984D02*
X13372563Y-14533984D01*
X13458277Y-14733984D02*
X13458277Y-14629222D01*
X13458277Y-14629222D02*
X13448753Y-14610174D01*
X13448753Y-14610174D02*
X13429706Y-14600650D01*
X13429706Y-14600650D02*
X13401134Y-14600650D01*
X13401134Y-14600650D02*
X13382087Y-14610174D01*
X13382087Y-14610174D02*
X13372563Y-14619698D01*
X13582087Y-14733984D02*
X13563039Y-14724460D01*
X13563039Y-14724460D02*
X13553515Y-14714936D01*
X13553515Y-14714936D02*
X13543991Y-14695888D01*
X13543991Y-14695888D02*
X13543991Y-14638746D01*
X13543991Y-14638746D02*
X13553515Y-14619698D01*
X13553515Y-14619698D02*
X13563039Y-14610174D01*
X13563039Y-14610174D02*
X13582087Y-14600650D01*
X13582087Y-14600650D02*
X13610658Y-14600650D01*
X13610658Y-14600650D02*
X13629706Y-14610174D01*
X13629706Y-14610174D02*
X13639230Y-14619698D01*
X13639230Y-14619698D02*
X13648753Y-14638746D01*
X13648753Y-14638746D02*
X13648753Y-14695888D01*
X13648753Y-14695888D02*
X13639230Y-14714936D01*
X13639230Y-14714936D02*
X13629706Y-14724460D01*
X13629706Y-14724460D02*
X13610658Y-14733984D01*
X13610658Y-14733984D02*
X13582087Y-14733984D01*
X13763039Y-14733984D02*
X13743991Y-14724460D01*
X13743991Y-14724460D02*
X13734468Y-14705412D01*
X13734468Y-14705412D02*
X13734468Y-14533984D01*
X13915420Y-14724460D02*
X13896372Y-14733984D01*
X13896372Y-14733984D02*
X13858277Y-14733984D01*
X13858277Y-14733984D02*
X13839230Y-14724460D01*
X13839230Y-14724460D02*
X13829706Y-14705412D01*
X13829706Y-14705412D02*
X13829706Y-14629222D01*
X13829706Y-14629222D02*
X13839230Y-14610174D01*
X13839230Y-14610174D02*
X13858277Y-14600650D01*
X13858277Y-14600650D02*
X13896372Y-14600650D01*
X13896372Y-14600650D02*
X13915420Y-14610174D01*
X13915420Y-14610174D02*
X13924944Y-14629222D01*
X13924944Y-14629222D02*
X13924944Y-14648269D01*
X13924944Y-14648269D02*
X13829706Y-14667317D01*
X14001134Y-14724460D02*
X14020182Y-14733984D01*
X14020182Y-14733984D02*
X14058277Y-14733984D01*
X14058277Y-14733984D02*
X14077325Y-14724460D01*
X14077325Y-14724460D02*
X14086849Y-14705412D01*
X14086849Y-14705412D02*
X14086849Y-14695888D01*
X14086849Y-14695888D02*
X14077325Y-14676841D01*
X14077325Y-14676841D02*
X14058277Y-14667317D01*
X14058277Y-14667317D02*
X14029706Y-14667317D01*
X14029706Y-14667317D02*
X14010658Y-14657793D01*
X14010658Y-14657793D02*
X14001134Y-14638746D01*
X14001134Y-14638746D02*
X14001134Y-14629222D01*
X14001134Y-14629222D02*
X14010658Y-14610174D01*
X14010658Y-14610174D02*
X14029706Y-14600650D01*
X14029706Y-14600650D02*
X14058277Y-14600650D01*
X14058277Y-14600650D02*
X14077325Y-14610174D01*
X14153515Y-14810174D02*
X14163039Y-14800650D01*
X14163039Y-14800650D02*
X14182087Y-14772079D01*
X14182087Y-14772079D02*
X14191611Y-14753031D01*
X14191611Y-14753031D02*
X14201134Y-14724460D01*
X14201134Y-14724460D02*
X14210658Y-14676841D01*
X14210658Y-14676841D02*
X14210658Y-14638746D01*
X14210658Y-14638746D02*
X14201134Y-14591127D01*
X14201134Y-14591127D02*
X14191611Y-14562555D01*
X14191611Y-14562555D02*
X14182087Y-14543508D01*
X14182087Y-14543508D02*
X14163039Y-14514936D01*
X14163039Y-14514936D02*
X14153515Y-14505412D01*
D12*
X8997500Y-14906500D02*
G75*
G02*
X8917500Y-14906500I-40000J0D01*
G01*
X8917500Y-14906500D02*
G75*
G02*
X8997500Y-14906500I40000J0D01*
G01*
D11*
X9296372Y-14797984D02*
X9315420Y-14797984D01*
X9315420Y-14797984D02*
X9334467Y-14807508D01*
X9334467Y-14807508D02*
X9343991Y-14817031D01*
X9343991Y-14817031D02*
X9353515Y-14836079D01*
X9353515Y-14836079D02*
X9363039Y-14874174D01*
X9363039Y-14874174D02*
X9363039Y-14921793D01*
X9363039Y-14921793D02*
X9353515Y-14959888D01*
X9353515Y-14959888D02*
X9343991Y-14978936D01*
X9343991Y-14978936D02*
X9334467Y-14988460D01*
X9334467Y-14988460D02*
X9315420Y-14997984D01*
X9315420Y-14997984D02*
X9296372Y-14997984D01*
X9296372Y-14997984D02*
X9277324Y-14988460D01*
X9277324Y-14988460D02*
X9267801Y-14978936D01*
X9267801Y-14978936D02*
X9258277Y-14959888D01*
X9258277Y-14959888D02*
X9248753Y-14921793D01*
X9248753Y-14921793D02*
X9248753Y-14874174D01*
X9248753Y-14874174D02*
X9258277Y-14836079D01*
X9258277Y-14836079D02*
X9267801Y-14817031D01*
X9267801Y-14817031D02*
X9277324Y-14807508D01*
X9277324Y-14807508D02*
X9296372Y-14797984D01*
X9448753Y-14978936D02*
X9458277Y-14988460D01*
X9458277Y-14988460D02*
X9448753Y-14997984D01*
X9448753Y-14997984D02*
X9439229Y-14988460D01*
X9439229Y-14988460D02*
X9448753Y-14978936D01*
X9448753Y-14978936D02*
X9448753Y-14997984D01*
X9572563Y-14883698D02*
X9553515Y-14874174D01*
X9553515Y-14874174D02*
X9543991Y-14864650D01*
X9543991Y-14864650D02*
X9534467Y-14845603D01*
X9534467Y-14845603D02*
X9534467Y-14836079D01*
X9534467Y-14836079D02*
X9543991Y-14817031D01*
X9543991Y-14817031D02*
X9553515Y-14807508D01*
X9553515Y-14807508D02*
X9572563Y-14797984D01*
X9572563Y-14797984D02*
X9610658Y-14797984D01*
X9610658Y-14797984D02*
X9629705Y-14807508D01*
X9629705Y-14807508D02*
X9639229Y-14817031D01*
X9639229Y-14817031D02*
X9648753Y-14836079D01*
X9648753Y-14836079D02*
X9648753Y-14845603D01*
X9648753Y-14845603D02*
X9639229Y-14864650D01*
X9639229Y-14864650D02*
X9629705Y-14874174D01*
X9629705Y-14874174D02*
X9610658Y-14883698D01*
X9610658Y-14883698D02*
X9572563Y-14883698D01*
X9572563Y-14883698D02*
X9553515Y-14893222D01*
X9553515Y-14893222D02*
X9543991Y-14902746D01*
X9543991Y-14902746D02*
X9534467Y-14921793D01*
X9534467Y-14921793D02*
X9534467Y-14959888D01*
X9534467Y-14959888D02*
X9543991Y-14978936D01*
X9543991Y-14978936D02*
X9553515Y-14988460D01*
X9553515Y-14988460D02*
X9572563Y-14997984D01*
X9572563Y-14997984D02*
X9610658Y-14997984D01*
X9610658Y-14997984D02*
X9629705Y-14988460D01*
X9629705Y-14988460D02*
X9639229Y-14978936D01*
X9639229Y-14978936D02*
X9648753Y-14959888D01*
X9648753Y-14959888D02*
X9648753Y-14921793D01*
X9648753Y-14921793D02*
X9639229Y-14902746D01*
X9639229Y-14902746D02*
X9629705Y-14893222D01*
X9629705Y-14893222D02*
X9610658Y-14883698D01*
X9772563Y-14797984D02*
X9791610Y-14797984D01*
X9791610Y-14797984D02*
X9810658Y-14807508D01*
X9810658Y-14807508D02*
X9820182Y-14817031D01*
X9820182Y-14817031D02*
X9829705Y-14836079D01*
X9829705Y-14836079D02*
X9839229Y-14874174D01*
X9839229Y-14874174D02*
X9839229Y-14921793D01*
X9839229Y-14921793D02*
X9829705Y-14959888D01*
X9829705Y-14959888D02*
X9820182Y-14978936D01*
X9820182Y-14978936D02*
X9810658Y-14988460D01*
X9810658Y-14988460D02*
X9791610Y-14997984D01*
X9791610Y-14997984D02*
X9772563Y-14997984D01*
X9772563Y-14997984D02*
X9753515Y-14988460D01*
X9753515Y-14988460D02*
X9743991Y-14978936D01*
X9743991Y-14978936D02*
X9734467Y-14959888D01*
X9734467Y-14959888D02*
X9724944Y-14921793D01*
X9724944Y-14921793D02*
X9724944Y-14874174D01*
X9724944Y-14874174D02*
X9734467Y-14836079D01*
X9734467Y-14836079D02*
X9743991Y-14817031D01*
X9743991Y-14817031D02*
X9753515Y-14807508D01*
X9753515Y-14807508D02*
X9772563Y-14797984D01*
X9963039Y-14797984D02*
X9982086Y-14797984D01*
X9982086Y-14797984D02*
X10001134Y-14807508D01*
X10001134Y-14807508D02*
X10010658Y-14817031D01*
X10010658Y-14817031D02*
X10020182Y-14836079D01*
X10020182Y-14836079D02*
X10029705Y-14874174D01*
X10029705Y-14874174D02*
X10029705Y-14921793D01*
X10029705Y-14921793D02*
X10020182Y-14959888D01*
X10020182Y-14959888D02*
X10010658Y-14978936D01*
X10010658Y-14978936D02*
X10001134Y-14988460D01*
X10001134Y-14988460D02*
X9982086Y-14997984D01*
X9982086Y-14997984D02*
X9963039Y-14997984D01*
X9963039Y-14997984D02*
X9943991Y-14988460D01*
X9943991Y-14988460D02*
X9934467Y-14978936D01*
X9934467Y-14978936D02*
X9924944Y-14959888D01*
X9924944Y-14959888D02*
X9915420Y-14921793D01*
X9915420Y-14921793D02*
X9915420Y-14874174D01*
X9915420Y-14874174D02*
X9924944Y-14836079D01*
X9924944Y-14836079D02*
X9934467Y-14817031D01*
X9934467Y-14817031D02*
X9943991Y-14807508D01*
X9943991Y-14807508D02*
X9963039Y-14797984D01*
X10115420Y-14997984D02*
X10115420Y-14864650D01*
X10115420Y-14883698D02*
X10124944Y-14874174D01*
X10124944Y-14874174D02*
X10143991Y-14864650D01*
X10143991Y-14864650D02*
X10172563Y-14864650D01*
X10172563Y-14864650D02*
X10191610Y-14874174D01*
X10191610Y-14874174D02*
X10201134Y-14893222D01*
X10201134Y-14893222D02*
X10201134Y-14997984D01*
X10201134Y-14893222D02*
X10210658Y-14874174D01*
X10210658Y-14874174D02*
X10229705Y-14864650D01*
X10229705Y-14864650D02*
X10258277Y-14864650D01*
X10258277Y-14864650D02*
X10277325Y-14874174D01*
X10277325Y-14874174D02*
X10286848Y-14893222D01*
X10286848Y-14893222D02*
X10286848Y-14997984D01*
X10382086Y-14997984D02*
X10382086Y-14864650D01*
X10382086Y-14883698D02*
X10391610Y-14874174D01*
X10391610Y-14874174D02*
X10410658Y-14864650D01*
X10410658Y-14864650D02*
X10439229Y-14864650D01*
X10439229Y-14864650D02*
X10458277Y-14874174D01*
X10458277Y-14874174D02*
X10467801Y-14893222D01*
X10467801Y-14893222D02*
X10467801Y-14997984D01*
X10467801Y-14893222D02*
X10477325Y-14874174D01*
X10477325Y-14874174D02*
X10496372Y-14864650D01*
X10496372Y-14864650D02*
X10524944Y-14864650D01*
X10524944Y-14864650D02*
X10543991Y-14874174D01*
X10543991Y-14874174D02*
X10553515Y-14893222D01*
X10553515Y-14893222D02*
X10553515Y-14997984D01*
X10943991Y-14788460D02*
X10772563Y-15045603D01*
X11201134Y-14797984D02*
X11220182Y-14797984D01*
X11220182Y-14797984D02*
X11239229Y-14807508D01*
X11239229Y-14807508D02*
X11248753Y-14817031D01*
X11248753Y-14817031D02*
X11258277Y-14836079D01*
X11258277Y-14836079D02*
X11267801Y-14874174D01*
X11267801Y-14874174D02*
X11267801Y-14921793D01*
X11267801Y-14921793D02*
X11258277Y-14959888D01*
X11258277Y-14959888D02*
X11248753Y-14978936D01*
X11248753Y-14978936D02*
X11239229Y-14988460D01*
X11239229Y-14988460D02*
X11220182Y-14997984D01*
X11220182Y-14997984D02*
X11201134Y-14997984D01*
X11201134Y-14997984D02*
X11182087Y-14988460D01*
X11182087Y-14988460D02*
X11172563Y-14978936D01*
X11172563Y-14978936D02*
X11163039Y-14959888D01*
X11163039Y-14959888D02*
X11153515Y-14921793D01*
X11153515Y-14921793D02*
X11153515Y-14874174D01*
X11153515Y-14874174D02*
X11163039Y-14836079D01*
X11163039Y-14836079D02*
X11172563Y-14817031D01*
X11172563Y-14817031D02*
X11182087Y-14807508D01*
X11182087Y-14807508D02*
X11201134Y-14797984D01*
X11353515Y-14978936D02*
X11363039Y-14988460D01*
X11363039Y-14988460D02*
X11353515Y-14997984D01*
X11353515Y-14997984D02*
X11343991Y-14988460D01*
X11343991Y-14988460D02*
X11353515Y-14978936D01*
X11353515Y-14978936D02*
X11353515Y-14997984D01*
X11486848Y-14797984D02*
X11505896Y-14797984D01*
X11505896Y-14797984D02*
X11524944Y-14807508D01*
X11524944Y-14807508D02*
X11534467Y-14817031D01*
X11534467Y-14817031D02*
X11543991Y-14836079D01*
X11543991Y-14836079D02*
X11553515Y-14874174D01*
X11553515Y-14874174D02*
X11553515Y-14921793D01*
X11553515Y-14921793D02*
X11543991Y-14959888D01*
X11543991Y-14959888D02*
X11534467Y-14978936D01*
X11534467Y-14978936D02*
X11524944Y-14988460D01*
X11524944Y-14988460D02*
X11505896Y-14997984D01*
X11505896Y-14997984D02*
X11486848Y-14997984D01*
X11486848Y-14997984D02*
X11467801Y-14988460D01*
X11467801Y-14988460D02*
X11458277Y-14978936D01*
X11458277Y-14978936D02*
X11448753Y-14959888D01*
X11448753Y-14959888D02*
X11439229Y-14921793D01*
X11439229Y-14921793D02*
X11439229Y-14874174D01*
X11439229Y-14874174D02*
X11448753Y-14836079D01*
X11448753Y-14836079D02*
X11458277Y-14817031D01*
X11458277Y-14817031D02*
X11467801Y-14807508D01*
X11467801Y-14807508D02*
X11486848Y-14797984D01*
X11620182Y-14797984D02*
X11743991Y-14797984D01*
X11743991Y-14797984D02*
X11677325Y-14874174D01*
X11677325Y-14874174D02*
X11705896Y-14874174D01*
X11705896Y-14874174D02*
X11724944Y-14883698D01*
X11724944Y-14883698D02*
X11734467Y-14893222D01*
X11734467Y-14893222D02*
X11743991Y-14912269D01*
X11743991Y-14912269D02*
X11743991Y-14959888D01*
X11743991Y-14959888D02*
X11734467Y-14978936D01*
X11734467Y-14978936D02*
X11724944Y-14988460D01*
X11724944Y-14988460D02*
X11705896Y-14997984D01*
X11705896Y-14997984D02*
X11648753Y-14997984D01*
X11648753Y-14997984D02*
X11629706Y-14988460D01*
X11629706Y-14988460D02*
X11620182Y-14978936D01*
X11934467Y-14997984D02*
X11820182Y-14997984D01*
X11877325Y-14997984D02*
X11877325Y-14797984D01*
X11877325Y-14797984D02*
X11858277Y-14826555D01*
X11858277Y-14826555D02*
X11839229Y-14845603D01*
X11839229Y-14845603D02*
X11820182Y-14855127D01*
X12115420Y-14797984D02*
X12020182Y-14797984D01*
X12020182Y-14797984D02*
X12010658Y-14893222D01*
X12010658Y-14893222D02*
X12020182Y-14883698D01*
X12020182Y-14883698D02*
X12039229Y-14874174D01*
X12039229Y-14874174D02*
X12086848Y-14874174D01*
X12086848Y-14874174D02*
X12105896Y-14883698D01*
X12105896Y-14883698D02*
X12115420Y-14893222D01*
X12115420Y-14893222D02*
X12124944Y-14912269D01*
X12124944Y-14912269D02*
X12124944Y-14959888D01*
X12124944Y-14959888D02*
X12115420Y-14978936D01*
X12115420Y-14978936D02*
X12105896Y-14988460D01*
X12105896Y-14988460D02*
X12086848Y-14997984D01*
X12086848Y-14997984D02*
X12039229Y-14997984D01*
X12039229Y-14997984D02*
X12020182Y-14988460D01*
X12020182Y-14988460D02*
X12010658Y-14978936D01*
X12201134Y-14797984D02*
X12201134Y-14836079D01*
X12277325Y-14797984D02*
X12277325Y-14836079D01*
X12572563Y-15074174D02*
X12563039Y-15064650D01*
X12563039Y-15064650D02*
X12543991Y-15036079D01*
X12543991Y-15036079D02*
X12534468Y-15017031D01*
X12534468Y-15017031D02*
X12524944Y-14988460D01*
X12524944Y-14988460D02*
X12515420Y-14940841D01*
X12515420Y-14940841D02*
X12515420Y-14902746D01*
X12515420Y-14902746D02*
X12524944Y-14855127D01*
X12524944Y-14855127D02*
X12534468Y-14826555D01*
X12534468Y-14826555D02*
X12543991Y-14807508D01*
X12543991Y-14807508D02*
X12563039Y-14778936D01*
X12563039Y-14778936D02*
X12572563Y-14769412D01*
X12629706Y-14797984D02*
X12763039Y-14797984D01*
X12763039Y-14797984D02*
X12677325Y-14997984D01*
X12829706Y-14817031D02*
X12839229Y-14807508D01*
X12839229Y-14807508D02*
X12858277Y-14797984D01*
X12858277Y-14797984D02*
X12905896Y-14797984D01*
X12905896Y-14797984D02*
X12924944Y-14807508D01*
X12924944Y-14807508D02*
X12934468Y-14817031D01*
X12934468Y-14817031D02*
X12943991Y-14836079D01*
X12943991Y-14836079D02*
X12943991Y-14855127D01*
X12943991Y-14855127D02*
X12934468Y-14883698D01*
X12934468Y-14883698D02*
X12820182Y-14997984D01*
X12820182Y-14997984D02*
X12943991Y-14997984D01*
X13182087Y-14997984D02*
X13182087Y-14797984D01*
X13267801Y-14997984D02*
X13267801Y-14893222D01*
X13267801Y-14893222D02*
X13258277Y-14874174D01*
X13258277Y-14874174D02*
X13239230Y-14864650D01*
X13239230Y-14864650D02*
X13210658Y-14864650D01*
X13210658Y-14864650D02*
X13191610Y-14874174D01*
X13191610Y-14874174D02*
X13182087Y-14883698D01*
X13391610Y-14997984D02*
X13372563Y-14988460D01*
X13372563Y-14988460D02*
X13363039Y-14978936D01*
X13363039Y-14978936D02*
X13353515Y-14959888D01*
X13353515Y-14959888D02*
X13353515Y-14902746D01*
X13353515Y-14902746D02*
X13363039Y-14883698D01*
X13363039Y-14883698D02*
X13372563Y-14874174D01*
X13372563Y-14874174D02*
X13391610Y-14864650D01*
X13391610Y-14864650D02*
X13420182Y-14864650D01*
X13420182Y-14864650D02*
X13439230Y-14874174D01*
X13439230Y-14874174D02*
X13448753Y-14883698D01*
X13448753Y-14883698D02*
X13458277Y-14902746D01*
X13458277Y-14902746D02*
X13458277Y-14959888D01*
X13458277Y-14959888D02*
X13448753Y-14978936D01*
X13448753Y-14978936D02*
X13439230Y-14988460D01*
X13439230Y-14988460D02*
X13420182Y-14997984D01*
X13420182Y-14997984D02*
X13391610Y-14997984D01*
X13572563Y-14997984D02*
X13553515Y-14988460D01*
X13553515Y-14988460D02*
X13543991Y-14969412D01*
X13543991Y-14969412D02*
X13543991Y-14797984D01*
X13724944Y-14988460D02*
X13705896Y-14997984D01*
X13705896Y-14997984D02*
X13667801Y-14997984D01*
X13667801Y-14997984D02*
X13648753Y-14988460D01*
X13648753Y-14988460D02*
X13639230Y-14969412D01*
X13639230Y-14969412D02*
X13639230Y-14893222D01*
X13639230Y-14893222D02*
X13648753Y-14874174D01*
X13648753Y-14874174D02*
X13667801Y-14864650D01*
X13667801Y-14864650D02*
X13705896Y-14864650D01*
X13705896Y-14864650D02*
X13724944Y-14874174D01*
X13724944Y-14874174D02*
X13734468Y-14893222D01*
X13734468Y-14893222D02*
X13734468Y-14912269D01*
X13734468Y-14912269D02*
X13639230Y-14931317D01*
X13810658Y-14988460D02*
X13829706Y-14997984D01*
X13829706Y-14997984D02*
X13867801Y-14997984D01*
X13867801Y-14997984D02*
X13886849Y-14988460D01*
X13886849Y-14988460D02*
X13896372Y-14969412D01*
X13896372Y-14969412D02*
X13896372Y-14959888D01*
X13896372Y-14959888D02*
X13886849Y-14940841D01*
X13886849Y-14940841D02*
X13867801Y-14931317D01*
X13867801Y-14931317D02*
X13839230Y-14931317D01*
X13839230Y-14931317D02*
X13820182Y-14921793D01*
X13820182Y-14921793D02*
X13810658Y-14902746D01*
X13810658Y-14902746D02*
X13810658Y-14893222D01*
X13810658Y-14893222D02*
X13820182Y-14874174D01*
X13820182Y-14874174D02*
X13839230Y-14864650D01*
X13839230Y-14864650D02*
X13867801Y-14864650D01*
X13867801Y-14864650D02*
X13886849Y-14874174D01*
X13963039Y-15074174D02*
X13972563Y-15064650D01*
X13972563Y-15064650D02*
X13991611Y-15036079D01*
X13991611Y-15036079D02*
X14001134Y-15017031D01*
X14001134Y-15017031D02*
X14010658Y-14988460D01*
X14010658Y-14988460D02*
X14020182Y-14940841D01*
X14020182Y-14940841D02*
X14020182Y-14902746D01*
X14020182Y-14902746D02*
X14010658Y-14855127D01*
X14010658Y-14855127D02*
X14001134Y-14826555D01*
X14001134Y-14826555D02*
X13991611Y-14807508D01*
X13991611Y-14807508D02*
X13972563Y-14778936D01*
X13972563Y-14778936D02*
X13963039Y-14769412D01*
D12*
X8947500Y-15120500D02*
X8947500Y-15220500D01*
X8897500Y-15170500D02*
X8997500Y-15170500D01*
D11*
X9363039Y-15261984D02*
X9248753Y-15261984D01*
X9305896Y-15261984D02*
X9305896Y-15061984D01*
X9305896Y-15061984D02*
X9286848Y-15090555D01*
X9286848Y-15090555D02*
X9267801Y-15109603D01*
X9267801Y-15109603D02*
X9248753Y-15119127D01*
X9448753Y-15242936D02*
X9458277Y-15252460D01*
X9458277Y-15252460D02*
X9448753Y-15261984D01*
X9448753Y-15261984D02*
X9439229Y-15252460D01*
X9439229Y-15252460D02*
X9448753Y-15242936D01*
X9448753Y-15242936D02*
X9448753Y-15261984D01*
X9582086Y-15061984D02*
X9601134Y-15061984D01*
X9601134Y-15061984D02*
X9620182Y-15071508D01*
X9620182Y-15071508D02*
X9629705Y-15081031D01*
X9629705Y-15081031D02*
X9639229Y-15100079D01*
X9639229Y-15100079D02*
X9648753Y-15138174D01*
X9648753Y-15138174D02*
X9648753Y-15185793D01*
X9648753Y-15185793D02*
X9639229Y-15223888D01*
X9639229Y-15223888D02*
X9629705Y-15242936D01*
X9629705Y-15242936D02*
X9620182Y-15252460D01*
X9620182Y-15252460D02*
X9601134Y-15261984D01*
X9601134Y-15261984D02*
X9582086Y-15261984D01*
X9582086Y-15261984D02*
X9563039Y-15252460D01*
X9563039Y-15252460D02*
X9553515Y-15242936D01*
X9553515Y-15242936D02*
X9543991Y-15223888D01*
X9543991Y-15223888D02*
X9534467Y-15185793D01*
X9534467Y-15185793D02*
X9534467Y-15138174D01*
X9534467Y-15138174D02*
X9543991Y-15100079D01*
X9543991Y-15100079D02*
X9553515Y-15081031D01*
X9553515Y-15081031D02*
X9563039Y-15071508D01*
X9563039Y-15071508D02*
X9582086Y-15061984D01*
X9772563Y-15061984D02*
X9791610Y-15061984D01*
X9791610Y-15061984D02*
X9810658Y-15071508D01*
X9810658Y-15071508D02*
X9820182Y-15081031D01*
X9820182Y-15081031D02*
X9829705Y-15100079D01*
X9829705Y-15100079D02*
X9839229Y-15138174D01*
X9839229Y-15138174D02*
X9839229Y-15185793D01*
X9839229Y-15185793D02*
X9829705Y-15223888D01*
X9829705Y-15223888D02*
X9820182Y-15242936D01*
X9820182Y-15242936D02*
X9810658Y-15252460D01*
X9810658Y-15252460D02*
X9791610Y-15261984D01*
X9791610Y-15261984D02*
X9772563Y-15261984D01*
X9772563Y-15261984D02*
X9753515Y-15252460D01*
X9753515Y-15252460D02*
X9743991Y-15242936D01*
X9743991Y-15242936D02*
X9734467Y-15223888D01*
X9734467Y-15223888D02*
X9724944Y-15185793D01*
X9724944Y-15185793D02*
X9724944Y-15138174D01*
X9724944Y-15138174D02*
X9734467Y-15100079D01*
X9734467Y-15100079D02*
X9743991Y-15081031D01*
X9743991Y-15081031D02*
X9753515Y-15071508D01*
X9753515Y-15071508D02*
X9772563Y-15061984D01*
X9963039Y-15061984D02*
X9982086Y-15061984D01*
X9982086Y-15061984D02*
X10001134Y-15071508D01*
X10001134Y-15071508D02*
X10010658Y-15081031D01*
X10010658Y-15081031D02*
X10020182Y-15100079D01*
X10020182Y-15100079D02*
X10029705Y-15138174D01*
X10029705Y-15138174D02*
X10029705Y-15185793D01*
X10029705Y-15185793D02*
X10020182Y-15223888D01*
X10020182Y-15223888D02*
X10010658Y-15242936D01*
X10010658Y-15242936D02*
X10001134Y-15252460D01*
X10001134Y-15252460D02*
X9982086Y-15261984D01*
X9982086Y-15261984D02*
X9963039Y-15261984D01*
X9963039Y-15261984D02*
X9943991Y-15252460D01*
X9943991Y-15252460D02*
X9934467Y-15242936D01*
X9934467Y-15242936D02*
X9924944Y-15223888D01*
X9924944Y-15223888D02*
X9915420Y-15185793D01*
X9915420Y-15185793D02*
X9915420Y-15138174D01*
X9915420Y-15138174D02*
X9924944Y-15100079D01*
X9924944Y-15100079D02*
X9934467Y-15081031D01*
X9934467Y-15081031D02*
X9943991Y-15071508D01*
X9943991Y-15071508D02*
X9963039Y-15061984D01*
X10115420Y-15261984D02*
X10115420Y-15128650D01*
X10115420Y-15147698D02*
X10124944Y-15138174D01*
X10124944Y-15138174D02*
X10143991Y-15128650D01*
X10143991Y-15128650D02*
X10172563Y-15128650D01*
X10172563Y-15128650D02*
X10191610Y-15138174D01*
X10191610Y-15138174D02*
X10201134Y-15157222D01*
X10201134Y-15157222D02*
X10201134Y-15261984D01*
X10201134Y-15157222D02*
X10210658Y-15138174D01*
X10210658Y-15138174D02*
X10229705Y-15128650D01*
X10229705Y-15128650D02*
X10258277Y-15128650D01*
X10258277Y-15128650D02*
X10277325Y-15138174D01*
X10277325Y-15138174D02*
X10286848Y-15157222D01*
X10286848Y-15157222D02*
X10286848Y-15261984D01*
X10382086Y-15261984D02*
X10382086Y-15128650D01*
X10382086Y-15147698D02*
X10391610Y-15138174D01*
X10391610Y-15138174D02*
X10410658Y-15128650D01*
X10410658Y-15128650D02*
X10439229Y-15128650D01*
X10439229Y-15128650D02*
X10458277Y-15138174D01*
X10458277Y-15138174D02*
X10467801Y-15157222D01*
X10467801Y-15157222D02*
X10467801Y-15261984D01*
X10467801Y-15157222D02*
X10477325Y-15138174D01*
X10477325Y-15138174D02*
X10496372Y-15128650D01*
X10496372Y-15128650D02*
X10524944Y-15128650D01*
X10524944Y-15128650D02*
X10543991Y-15138174D01*
X10543991Y-15138174D02*
X10553515Y-15157222D01*
X10553515Y-15157222D02*
X10553515Y-15261984D01*
X10943991Y-15052460D02*
X10772563Y-15309603D01*
X11201134Y-15061984D02*
X11220182Y-15061984D01*
X11220182Y-15061984D02*
X11239229Y-15071508D01*
X11239229Y-15071508D02*
X11248753Y-15081031D01*
X11248753Y-15081031D02*
X11258277Y-15100079D01*
X11258277Y-15100079D02*
X11267801Y-15138174D01*
X11267801Y-15138174D02*
X11267801Y-15185793D01*
X11267801Y-15185793D02*
X11258277Y-15223888D01*
X11258277Y-15223888D02*
X11248753Y-15242936D01*
X11248753Y-15242936D02*
X11239229Y-15252460D01*
X11239229Y-15252460D02*
X11220182Y-15261984D01*
X11220182Y-15261984D02*
X11201134Y-15261984D01*
X11201134Y-15261984D02*
X11182087Y-15252460D01*
X11182087Y-15252460D02*
X11172563Y-15242936D01*
X11172563Y-15242936D02*
X11163039Y-15223888D01*
X11163039Y-15223888D02*
X11153515Y-15185793D01*
X11153515Y-15185793D02*
X11153515Y-15138174D01*
X11153515Y-15138174D02*
X11163039Y-15100079D01*
X11163039Y-15100079D02*
X11172563Y-15081031D01*
X11172563Y-15081031D02*
X11182087Y-15071508D01*
X11182087Y-15071508D02*
X11201134Y-15061984D01*
X11353515Y-15242936D02*
X11363039Y-15252460D01*
X11363039Y-15252460D02*
X11353515Y-15261984D01*
X11353515Y-15261984D02*
X11343991Y-15252460D01*
X11343991Y-15252460D02*
X11353515Y-15242936D01*
X11353515Y-15242936D02*
X11353515Y-15261984D01*
X11486848Y-15061984D02*
X11505896Y-15061984D01*
X11505896Y-15061984D02*
X11524944Y-15071508D01*
X11524944Y-15071508D02*
X11534467Y-15081031D01*
X11534467Y-15081031D02*
X11543991Y-15100079D01*
X11543991Y-15100079D02*
X11553515Y-15138174D01*
X11553515Y-15138174D02*
X11553515Y-15185793D01*
X11553515Y-15185793D02*
X11543991Y-15223888D01*
X11543991Y-15223888D02*
X11534467Y-15242936D01*
X11534467Y-15242936D02*
X11524944Y-15252460D01*
X11524944Y-15252460D02*
X11505896Y-15261984D01*
X11505896Y-15261984D02*
X11486848Y-15261984D01*
X11486848Y-15261984D02*
X11467801Y-15252460D01*
X11467801Y-15252460D02*
X11458277Y-15242936D01*
X11458277Y-15242936D02*
X11448753Y-15223888D01*
X11448753Y-15223888D02*
X11439229Y-15185793D01*
X11439229Y-15185793D02*
X11439229Y-15138174D01*
X11439229Y-15138174D02*
X11448753Y-15100079D01*
X11448753Y-15100079D02*
X11458277Y-15081031D01*
X11458277Y-15081031D02*
X11467801Y-15071508D01*
X11467801Y-15071508D02*
X11486848Y-15061984D01*
X11620182Y-15061984D02*
X11743991Y-15061984D01*
X11743991Y-15061984D02*
X11677325Y-15138174D01*
X11677325Y-15138174D02*
X11705896Y-15138174D01*
X11705896Y-15138174D02*
X11724944Y-15147698D01*
X11724944Y-15147698D02*
X11734467Y-15157222D01*
X11734467Y-15157222D02*
X11743991Y-15176269D01*
X11743991Y-15176269D02*
X11743991Y-15223888D01*
X11743991Y-15223888D02*
X11734467Y-15242936D01*
X11734467Y-15242936D02*
X11724944Y-15252460D01*
X11724944Y-15252460D02*
X11705896Y-15261984D01*
X11705896Y-15261984D02*
X11648753Y-15261984D01*
X11648753Y-15261984D02*
X11629706Y-15252460D01*
X11629706Y-15252460D02*
X11620182Y-15242936D01*
X11839229Y-15261984D02*
X11877325Y-15261984D01*
X11877325Y-15261984D02*
X11896372Y-15252460D01*
X11896372Y-15252460D02*
X11905896Y-15242936D01*
X11905896Y-15242936D02*
X11924944Y-15214365D01*
X11924944Y-15214365D02*
X11934467Y-15176269D01*
X11934467Y-15176269D02*
X11934467Y-15100079D01*
X11934467Y-15100079D02*
X11924944Y-15081031D01*
X11924944Y-15081031D02*
X11915420Y-15071508D01*
X11915420Y-15071508D02*
X11896372Y-15061984D01*
X11896372Y-15061984D02*
X11858277Y-15061984D01*
X11858277Y-15061984D02*
X11839229Y-15071508D01*
X11839229Y-15071508D02*
X11829706Y-15081031D01*
X11829706Y-15081031D02*
X11820182Y-15100079D01*
X11820182Y-15100079D02*
X11820182Y-15147698D01*
X11820182Y-15147698D02*
X11829706Y-15166746D01*
X11829706Y-15166746D02*
X11839229Y-15176269D01*
X11839229Y-15176269D02*
X11858277Y-15185793D01*
X11858277Y-15185793D02*
X11896372Y-15185793D01*
X11896372Y-15185793D02*
X11915420Y-15176269D01*
X11915420Y-15176269D02*
X11924944Y-15166746D01*
X11924944Y-15166746D02*
X11934467Y-15147698D01*
X12105896Y-15128650D02*
X12105896Y-15261984D01*
X12058277Y-15052460D02*
X12010658Y-15195317D01*
X12010658Y-15195317D02*
X12134467Y-15195317D01*
X12201134Y-15061984D02*
X12201134Y-15100079D01*
X12277325Y-15061984D02*
X12277325Y-15100079D01*
X12572563Y-15338174D02*
X12563039Y-15328650D01*
X12563039Y-15328650D02*
X12543991Y-15300079D01*
X12543991Y-15300079D02*
X12534468Y-15281031D01*
X12534468Y-15281031D02*
X12524944Y-15252460D01*
X12524944Y-15252460D02*
X12515420Y-15204841D01*
X12515420Y-15204841D02*
X12515420Y-15166746D01*
X12515420Y-15166746D02*
X12524944Y-15119127D01*
X12524944Y-15119127D02*
X12534468Y-15090555D01*
X12534468Y-15090555D02*
X12543991Y-15071508D01*
X12543991Y-15071508D02*
X12563039Y-15042936D01*
X12563039Y-15042936D02*
X12572563Y-15033412D01*
X12734468Y-15128650D02*
X12734468Y-15261984D01*
X12686848Y-15052460D02*
X12639229Y-15195317D01*
X12639229Y-15195317D02*
X12763039Y-15195317D01*
X12943991Y-15261984D02*
X12829706Y-15261984D01*
X12886848Y-15261984D02*
X12886848Y-15061984D01*
X12886848Y-15061984D02*
X12867801Y-15090555D01*
X12867801Y-15090555D02*
X12848753Y-15109603D01*
X12848753Y-15109603D02*
X12829706Y-15119127D01*
X13182087Y-15261984D02*
X13182087Y-15061984D01*
X13267801Y-15261984D02*
X13267801Y-15157222D01*
X13267801Y-15157222D02*
X13258277Y-15138174D01*
X13258277Y-15138174D02*
X13239230Y-15128650D01*
X13239230Y-15128650D02*
X13210658Y-15128650D01*
X13210658Y-15128650D02*
X13191610Y-15138174D01*
X13191610Y-15138174D02*
X13182087Y-15147698D01*
X13391610Y-15261984D02*
X13372563Y-15252460D01*
X13372563Y-15252460D02*
X13363039Y-15242936D01*
X13363039Y-15242936D02*
X13353515Y-15223888D01*
X13353515Y-15223888D02*
X13353515Y-15166746D01*
X13353515Y-15166746D02*
X13363039Y-15147698D01*
X13363039Y-15147698D02*
X13372563Y-15138174D01*
X13372563Y-15138174D02*
X13391610Y-15128650D01*
X13391610Y-15128650D02*
X13420182Y-15128650D01*
X13420182Y-15128650D02*
X13439230Y-15138174D01*
X13439230Y-15138174D02*
X13448753Y-15147698D01*
X13448753Y-15147698D02*
X13458277Y-15166746D01*
X13458277Y-15166746D02*
X13458277Y-15223888D01*
X13458277Y-15223888D02*
X13448753Y-15242936D01*
X13448753Y-15242936D02*
X13439230Y-15252460D01*
X13439230Y-15252460D02*
X13420182Y-15261984D01*
X13420182Y-15261984D02*
X13391610Y-15261984D01*
X13572563Y-15261984D02*
X13553515Y-15252460D01*
X13553515Y-15252460D02*
X13543991Y-15233412D01*
X13543991Y-15233412D02*
X13543991Y-15061984D01*
X13724944Y-15252460D02*
X13705896Y-15261984D01*
X13705896Y-15261984D02*
X13667801Y-15261984D01*
X13667801Y-15261984D02*
X13648753Y-15252460D01*
X13648753Y-15252460D02*
X13639230Y-15233412D01*
X13639230Y-15233412D02*
X13639230Y-15157222D01*
X13639230Y-15157222D02*
X13648753Y-15138174D01*
X13648753Y-15138174D02*
X13667801Y-15128650D01*
X13667801Y-15128650D02*
X13705896Y-15128650D01*
X13705896Y-15128650D02*
X13724944Y-15138174D01*
X13724944Y-15138174D02*
X13734468Y-15157222D01*
X13734468Y-15157222D02*
X13734468Y-15176269D01*
X13734468Y-15176269D02*
X13639230Y-15195317D01*
X13810658Y-15252460D02*
X13829706Y-15261984D01*
X13829706Y-15261984D02*
X13867801Y-15261984D01*
X13867801Y-15261984D02*
X13886849Y-15252460D01*
X13886849Y-15252460D02*
X13896372Y-15233412D01*
X13896372Y-15233412D02*
X13896372Y-15223888D01*
X13896372Y-15223888D02*
X13886849Y-15204841D01*
X13886849Y-15204841D02*
X13867801Y-15195317D01*
X13867801Y-15195317D02*
X13839230Y-15195317D01*
X13839230Y-15195317D02*
X13820182Y-15185793D01*
X13820182Y-15185793D02*
X13810658Y-15166746D01*
X13810658Y-15166746D02*
X13810658Y-15157222D01*
X13810658Y-15157222D02*
X13820182Y-15138174D01*
X13820182Y-15138174D02*
X13839230Y-15128650D01*
X13839230Y-15128650D02*
X13867801Y-15128650D01*
X13867801Y-15128650D02*
X13886849Y-15138174D01*
X13963039Y-15338174D02*
X13972563Y-15328650D01*
X13972563Y-15328650D02*
X13991611Y-15300079D01*
X13991611Y-15300079D02*
X14001134Y-15281031D01*
X14001134Y-15281031D02*
X14010658Y-15252460D01*
X14010658Y-15252460D02*
X14020182Y-15204841D01*
X14020182Y-15204841D02*
X14020182Y-15166746D01*
X14020182Y-15166746D02*
X14010658Y-15119127D01*
X14010658Y-15119127D02*
X14001134Y-15090555D01*
X14001134Y-15090555D02*
X13991611Y-15071508D01*
X13991611Y-15071508D02*
X13972563Y-15042936D01*
X13972563Y-15042936D02*
X13963039Y-15033412D01*
D13*
X8979927Y-15476927D02*
X8979927Y-15392073D01*
X8895073Y-15392073D01*
X8895073Y-15476927D01*
X8979927Y-15476927D01*
D11*
X9363039Y-15525984D02*
X9248753Y-15525984D01*
X9305896Y-15525984D02*
X9305896Y-15325984D01*
X9305896Y-15325984D02*
X9286848Y-15354555D01*
X9286848Y-15354555D02*
X9267801Y-15373603D01*
X9267801Y-15373603D02*
X9248753Y-15383127D01*
X9448753Y-15506936D02*
X9458277Y-15516460D01*
X9458277Y-15516460D02*
X9448753Y-15525984D01*
X9448753Y-15525984D02*
X9439229Y-15516460D01*
X9439229Y-15516460D02*
X9448753Y-15506936D01*
X9448753Y-15506936D02*
X9448753Y-15525984D01*
X9534467Y-15345031D02*
X9543991Y-15335508D01*
X9543991Y-15335508D02*
X9563039Y-15325984D01*
X9563039Y-15325984D02*
X9610658Y-15325984D01*
X9610658Y-15325984D02*
X9629705Y-15335508D01*
X9629705Y-15335508D02*
X9639229Y-15345031D01*
X9639229Y-15345031D02*
X9648753Y-15364079D01*
X9648753Y-15364079D02*
X9648753Y-15383127D01*
X9648753Y-15383127D02*
X9639229Y-15411698D01*
X9639229Y-15411698D02*
X9524944Y-15525984D01*
X9524944Y-15525984D02*
X9648753Y-15525984D01*
X9772563Y-15325984D02*
X9791610Y-15325984D01*
X9791610Y-15325984D02*
X9810658Y-15335508D01*
X9810658Y-15335508D02*
X9820182Y-15345031D01*
X9820182Y-15345031D02*
X9829705Y-15364079D01*
X9829705Y-15364079D02*
X9839229Y-15402174D01*
X9839229Y-15402174D02*
X9839229Y-15449793D01*
X9839229Y-15449793D02*
X9829705Y-15487888D01*
X9829705Y-15487888D02*
X9820182Y-15506936D01*
X9820182Y-15506936D02*
X9810658Y-15516460D01*
X9810658Y-15516460D02*
X9791610Y-15525984D01*
X9791610Y-15525984D02*
X9772563Y-15525984D01*
X9772563Y-15525984D02*
X9753515Y-15516460D01*
X9753515Y-15516460D02*
X9743991Y-15506936D01*
X9743991Y-15506936D02*
X9734467Y-15487888D01*
X9734467Y-15487888D02*
X9724944Y-15449793D01*
X9724944Y-15449793D02*
X9724944Y-15402174D01*
X9724944Y-15402174D02*
X9734467Y-15364079D01*
X9734467Y-15364079D02*
X9743991Y-15345031D01*
X9743991Y-15345031D02*
X9753515Y-15335508D01*
X9753515Y-15335508D02*
X9772563Y-15325984D01*
X9963039Y-15325984D02*
X9982086Y-15325984D01*
X9982086Y-15325984D02*
X10001134Y-15335508D01*
X10001134Y-15335508D02*
X10010658Y-15345031D01*
X10010658Y-15345031D02*
X10020182Y-15364079D01*
X10020182Y-15364079D02*
X10029705Y-15402174D01*
X10029705Y-15402174D02*
X10029705Y-15449793D01*
X10029705Y-15449793D02*
X10020182Y-15487888D01*
X10020182Y-15487888D02*
X10010658Y-15506936D01*
X10010658Y-15506936D02*
X10001134Y-15516460D01*
X10001134Y-15516460D02*
X9982086Y-15525984D01*
X9982086Y-15525984D02*
X9963039Y-15525984D01*
X9963039Y-15525984D02*
X9943991Y-15516460D01*
X9943991Y-15516460D02*
X9934467Y-15506936D01*
X9934467Y-15506936D02*
X9924944Y-15487888D01*
X9924944Y-15487888D02*
X9915420Y-15449793D01*
X9915420Y-15449793D02*
X9915420Y-15402174D01*
X9915420Y-15402174D02*
X9924944Y-15364079D01*
X9924944Y-15364079D02*
X9934467Y-15345031D01*
X9934467Y-15345031D02*
X9943991Y-15335508D01*
X9943991Y-15335508D02*
X9963039Y-15325984D01*
X10115420Y-15525984D02*
X10115420Y-15392650D01*
X10115420Y-15411698D02*
X10124944Y-15402174D01*
X10124944Y-15402174D02*
X10143991Y-15392650D01*
X10143991Y-15392650D02*
X10172563Y-15392650D01*
X10172563Y-15392650D02*
X10191610Y-15402174D01*
X10191610Y-15402174D02*
X10201134Y-15421222D01*
X10201134Y-15421222D02*
X10201134Y-15525984D01*
X10201134Y-15421222D02*
X10210658Y-15402174D01*
X10210658Y-15402174D02*
X10229705Y-15392650D01*
X10229705Y-15392650D02*
X10258277Y-15392650D01*
X10258277Y-15392650D02*
X10277325Y-15402174D01*
X10277325Y-15402174D02*
X10286848Y-15421222D01*
X10286848Y-15421222D02*
X10286848Y-15525984D01*
X10382086Y-15525984D02*
X10382086Y-15392650D01*
X10382086Y-15411698D02*
X10391610Y-15402174D01*
X10391610Y-15402174D02*
X10410658Y-15392650D01*
X10410658Y-15392650D02*
X10439229Y-15392650D01*
X10439229Y-15392650D02*
X10458277Y-15402174D01*
X10458277Y-15402174D02*
X10467801Y-15421222D01*
X10467801Y-15421222D02*
X10467801Y-15525984D01*
X10467801Y-15421222D02*
X10477325Y-15402174D01*
X10477325Y-15402174D02*
X10496372Y-15392650D01*
X10496372Y-15392650D02*
X10524944Y-15392650D01*
X10524944Y-15392650D02*
X10543991Y-15402174D01*
X10543991Y-15402174D02*
X10553515Y-15421222D01*
X10553515Y-15421222D02*
X10553515Y-15525984D01*
X10943991Y-15316460D02*
X10772563Y-15573603D01*
X11201134Y-15325984D02*
X11220182Y-15325984D01*
X11220182Y-15325984D02*
X11239229Y-15335508D01*
X11239229Y-15335508D02*
X11248753Y-15345031D01*
X11248753Y-15345031D02*
X11258277Y-15364079D01*
X11258277Y-15364079D02*
X11267801Y-15402174D01*
X11267801Y-15402174D02*
X11267801Y-15449793D01*
X11267801Y-15449793D02*
X11258277Y-15487888D01*
X11258277Y-15487888D02*
X11248753Y-15506936D01*
X11248753Y-15506936D02*
X11239229Y-15516460D01*
X11239229Y-15516460D02*
X11220182Y-15525984D01*
X11220182Y-15525984D02*
X11201134Y-15525984D01*
X11201134Y-15525984D02*
X11182087Y-15516460D01*
X11182087Y-15516460D02*
X11172563Y-15506936D01*
X11172563Y-15506936D02*
X11163039Y-15487888D01*
X11163039Y-15487888D02*
X11153515Y-15449793D01*
X11153515Y-15449793D02*
X11153515Y-15402174D01*
X11153515Y-15402174D02*
X11163039Y-15364079D01*
X11163039Y-15364079D02*
X11172563Y-15345031D01*
X11172563Y-15345031D02*
X11182087Y-15335508D01*
X11182087Y-15335508D02*
X11201134Y-15325984D01*
X11353515Y-15506936D02*
X11363039Y-15516460D01*
X11363039Y-15516460D02*
X11353515Y-15525984D01*
X11353515Y-15525984D02*
X11343991Y-15516460D01*
X11343991Y-15516460D02*
X11353515Y-15506936D01*
X11353515Y-15506936D02*
X11353515Y-15525984D01*
X11486848Y-15325984D02*
X11505896Y-15325984D01*
X11505896Y-15325984D02*
X11524944Y-15335508D01*
X11524944Y-15335508D02*
X11534467Y-15345031D01*
X11534467Y-15345031D02*
X11543991Y-15364079D01*
X11543991Y-15364079D02*
X11553515Y-15402174D01*
X11553515Y-15402174D02*
X11553515Y-15449793D01*
X11553515Y-15449793D02*
X11543991Y-15487888D01*
X11543991Y-15487888D02*
X11534467Y-15506936D01*
X11534467Y-15506936D02*
X11524944Y-15516460D01*
X11524944Y-15516460D02*
X11505896Y-15525984D01*
X11505896Y-15525984D02*
X11486848Y-15525984D01*
X11486848Y-15525984D02*
X11467801Y-15516460D01*
X11467801Y-15516460D02*
X11458277Y-15506936D01*
X11458277Y-15506936D02*
X11448753Y-15487888D01*
X11448753Y-15487888D02*
X11439229Y-15449793D01*
X11439229Y-15449793D02*
X11439229Y-15402174D01*
X11439229Y-15402174D02*
X11448753Y-15364079D01*
X11448753Y-15364079D02*
X11458277Y-15345031D01*
X11458277Y-15345031D02*
X11467801Y-15335508D01*
X11467801Y-15335508D02*
X11486848Y-15325984D01*
X11724944Y-15392650D02*
X11724944Y-15525984D01*
X11677325Y-15316460D02*
X11629706Y-15459317D01*
X11629706Y-15459317D02*
X11753515Y-15459317D01*
X11810658Y-15325984D02*
X11943991Y-15325984D01*
X11943991Y-15325984D02*
X11858277Y-15525984D01*
X12010658Y-15345031D02*
X12020182Y-15335508D01*
X12020182Y-15335508D02*
X12039229Y-15325984D01*
X12039229Y-15325984D02*
X12086848Y-15325984D01*
X12086848Y-15325984D02*
X12105896Y-15335508D01*
X12105896Y-15335508D02*
X12115420Y-15345031D01*
X12115420Y-15345031D02*
X12124944Y-15364079D01*
X12124944Y-15364079D02*
X12124944Y-15383127D01*
X12124944Y-15383127D02*
X12115420Y-15411698D01*
X12115420Y-15411698D02*
X12001134Y-15525984D01*
X12001134Y-15525984D02*
X12124944Y-15525984D01*
X12201134Y-15325984D02*
X12201134Y-15364079D01*
X12277325Y-15325984D02*
X12277325Y-15364079D01*
X12572563Y-15602174D02*
X12563039Y-15592650D01*
X12563039Y-15592650D02*
X12543991Y-15564079D01*
X12543991Y-15564079D02*
X12534468Y-15545031D01*
X12534468Y-15545031D02*
X12524944Y-15516460D01*
X12524944Y-15516460D02*
X12515420Y-15468841D01*
X12515420Y-15468841D02*
X12515420Y-15430746D01*
X12515420Y-15430746D02*
X12524944Y-15383127D01*
X12524944Y-15383127D02*
X12534468Y-15354555D01*
X12534468Y-15354555D02*
X12543991Y-15335508D01*
X12543991Y-15335508D02*
X12563039Y-15306936D01*
X12563039Y-15306936D02*
X12572563Y-15297412D01*
X12734468Y-15392650D02*
X12734468Y-15525984D01*
X12686848Y-15316460D02*
X12639229Y-15459317D01*
X12639229Y-15459317D02*
X12763039Y-15459317D01*
X12991610Y-15525984D02*
X12991610Y-15325984D01*
X13077325Y-15525984D02*
X13077325Y-15421222D01*
X13077325Y-15421222D02*
X13067801Y-15402174D01*
X13067801Y-15402174D02*
X13048753Y-15392650D01*
X13048753Y-15392650D02*
X13020182Y-15392650D01*
X13020182Y-15392650D02*
X13001134Y-15402174D01*
X13001134Y-15402174D02*
X12991610Y-15411698D01*
X13201134Y-15525984D02*
X13182087Y-15516460D01*
X13182087Y-15516460D02*
X13172563Y-15506936D01*
X13172563Y-15506936D02*
X13163039Y-15487888D01*
X13163039Y-15487888D02*
X13163039Y-15430746D01*
X13163039Y-15430746D02*
X13172563Y-15411698D01*
X13172563Y-15411698D02*
X13182087Y-15402174D01*
X13182087Y-15402174D02*
X13201134Y-15392650D01*
X13201134Y-15392650D02*
X13229706Y-15392650D01*
X13229706Y-15392650D02*
X13248753Y-15402174D01*
X13248753Y-15402174D02*
X13258277Y-15411698D01*
X13258277Y-15411698D02*
X13267801Y-15430746D01*
X13267801Y-15430746D02*
X13267801Y-15487888D01*
X13267801Y-15487888D02*
X13258277Y-15506936D01*
X13258277Y-15506936D02*
X13248753Y-15516460D01*
X13248753Y-15516460D02*
X13229706Y-15525984D01*
X13229706Y-15525984D02*
X13201134Y-15525984D01*
X13382087Y-15525984D02*
X13363039Y-15516460D01*
X13363039Y-15516460D02*
X13353515Y-15497412D01*
X13353515Y-15497412D02*
X13353515Y-15325984D01*
X13534468Y-15516460D02*
X13515420Y-15525984D01*
X13515420Y-15525984D02*
X13477325Y-15525984D01*
X13477325Y-15525984D02*
X13458277Y-15516460D01*
X13458277Y-15516460D02*
X13448753Y-15497412D01*
X13448753Y-15497412D02*
X13448753Y-15421222D01*
X13448753Y-15421222D02*
X13458277Y-15402174D01*
X13458277Y-15402174D02*
X13477325Y-15392650D01*
X13477325Y-15392650D02*
X13515420Y-15392650D01*
X13515420Y-15392650D02*
X13534468Y-15402174D01*
X13534468Y-15402174D02*
X13543991Y-15421222D01*
X13543991Y-15421222D02*
X13543991Y-15440269D01*
X13543991Y-15440269D02*
X13448753Y-15459317D01*
X13620182Y-15516460D02*
X13639230Y-15525984D01*
X13639230Y-15525984D02*
X13677325Y-15525984D01*
X13677325Y-15525984D02*
X13696372Y-15516460D01*
X13696372Y-15516460D02*
X13705896Y-15497412D01*
X13705896Y-15497412D02*
X13705896Y-15487888D01*
X13705896Y-15487888D02*
X13696372Y-15468841D01*
X13696372Y-15468841D02*
X13677325Y-15459317D01*
X13677325Y-15459317D02*
X13648753Y-15459317D01*
X13648753Y-15459317D02*
X13629706Y-15449793D01*
X13629706Y-15449793D02*
X13620182Y-15430746D01*
X13620182Y-15430746D02*
X13620182Y-15421222D01*
X13620182Y-15421222D02*
X13629706Y-15402174D01*
X13629706Y-15402174D02*
X13648753Y-15392650D01*
X13648753Y-15392650D02*
X13677325Y-15392650D01*
X13677325Y-15392650D02*
X13696372Y-15402174D01*
X13772563Y-15602174D02*
X13782087Y-15592650D01*
X13782087Y-15592650D02*
X13801134Y-15564079D01*
X13801134Y-15564079D02*
X13810658Y-15545031D01*
X13810658Y-15545031D02*
X13820182Y-15516460D01*
X13820182Y-15516460D02*
X13829706Y-15468841D01*
X13829706Y-15468841D02*
X13829706Y-15430746D01*
X13829706Y-15430746D02*
X13820182Y-15383127D01*
X13820182Y-15383127D02*
X13810658Y-15354555D01*
X13810658Y-15354555D02*
X13801134Y-15335508D01*
X13801134Y-15335508D02*
X13782087Y-15306936D01*
X13782087Y-15306936D02*
X13772563Y-15297412D01*
M02*
