%TF.GenerationSoftware,KiCad,Pcbnew,8.0.6*%
%TF.CreationDate,2024-12-03T08:55:31+01:00*%
%TF.ProjectId,PCB_Tester,5043425f-5465-4737-9465-722e6b696361,rev?*%
%TF.SameCoordinates,Original*%
%TF.FileFunction,Legend,Top*%
%TF.FilePolarity,Positive*%
%FSLAX46Y46*%
G04 Gerber Fmt 4.6, Leading zero omitted, Abs format (unit mm)*
G04 Created by KiCad (PCBNEW 8.0.6) date 2024-12-03 08:55:31*
%MOMM*%
%LPD*%
G01*
G04 APERTURE LIST*
%ADD10C,0.100000*%
%ADD11C,0.150000*%
%ADD12C,0.120000*%
G04 APERTURE END LIST*
D10*
X126986704Y-136843734D02*
X126986704Y-136367544D01*
X127272419Y-136938972D02*
X126272419Y-136605639D01*
X126272419Y-136605639D02*
X127272419Y-136272306D01*
X127272419Y-135462782D02*
X127272419Y-135938972D01*
X127272419Y-135938972D02*
X126272419Y-135938972D01*
X127272419Y-134605639D02*
X127272419Y-135177067D01*
X127272419Y-134891353D02*
X126272419Y-134891353D01*
X126272419Y-134891353D02*
X126415276Y-134986591D01*
X126415276Y-134986591D02*
X126510514Y-135081829D01*
X126510514Y-135081829D02*
X126558133Y-135177067D01*
X126272419Y-134272305D02*
X126272419Y-133653258D01*
X126272419Y-133653258D02*
X126653371Y-133986591D01*
X126653371Y-133986591D02*
X126653371Y-133843734D01*
X126653371Y-133843734D02*
X126700990Y-133748496D01*
X126700990Y-133748496D02*
X126748609Y-133700877D01*
X126748609Y-133700877D02*
X126843847Y-133653258D01*
X126843847Y-133653258D02*
X127081942Y-133653258D01*
X127081942Y-133653258D02*
X127177180Y-133700877D01*
X127177180Y-133700877D02*
X127224800Y-133748496D01*
X127224800Y-133748496D02*
X127272419Y-133843734D01*
X127272419Y-133843734D02*
X127272419Y-134129448D01*
X127272419Y-134129448D02*
X127224800Y-134224686D01*
X127224800Y-134224686D02*
X127177180Y-134272305D01*
X126605752Y-132796115D02*
X127272419Y-132796115D01*
X126224800Y-133034210D02*
X126939085Y-133272305D01*
X126939085Y-133272305D02*
X126939085Y-132653258D01*
X127224800Y-131558019D02*
X127272419Y-131415162D01*
X127272419Y-131415162D02*
X127272419Y-131177067D01*
X127272419Y-131177067D02*
X127224800Y-131081829D01*
X127224800Y-131081829D02*
X127177180Y-131034210D01*
X127177180Y-131034210D02*
X127081942Y-130986591D01*
X127081942Y-130986591D02*
X126986704Y-130986591D01*
X126986704Y-130986591D02*
X126891466Y-131034210D01*
X126891466Y-131034210D02*
X126843847Y-131081829D01*
X126843847Y-131081829D02*
X126796228Y-131177067D01*
X126796228Y-131177067D02*
X126748609Y-131367543D01*
X126748609Y-131367543D02*
X126700990Y-131462781D01*
X126700990Y-131462781D02*
X126653371Y-131510400D01*
X126653371Y-131510400D02*
X126558133Y-131558019D01*
X126558133Y-131558019D02*
X126462895Y-131558019D01*
X126462895Y-131558019D02*
X126367657Y-131510400D01*
X126367657Y-131510400D02*
X126320038Y-131462781D01*
X126320038Y-131462781D02*
X126272419Y-131367543D01*
X126272419Y-131367543D02*
X126272419Y-131129448D01*
X126272419Y-131129448D02*
X126320038Y-130986591D01*
X126605752Y-130558019D02*
X127272419Y-130558019D01*
X126700990Y-130558019D02*
X126653371Y-130510400D01*
X126653371Y-130510400D02*
X126605752Y-130415162D01*
X126605752Y-130415162D02*
X126605752Y-130272305D01*
X126605752Y-130272305D02*
X126653371Y-130177067D01*
X126653371Y-130177067D02*
X126748609Y-130129448D01*
X126748609Y-130129448D02*
X127272419Y-130129448D01*
X127224800Y-129272305D02*
X127272419Y-129367543D01*
X127272419Y-129367543D02*
X127272419Y-129558019D01*
X127272419Y-129558019D02*
X127224800Y-129653257D01*
X127224800Y-129653257D02*
X127129561Y-129700876D01*
X127129561Y-129700876D02*
X126748609Y-129700876D01*
X126748609Y-129700876D02*
X126653371Y-129653257D01*
X126653371Y-129653257D02*
X126605752Y-129558019D01*
X126605752Y-129558019D02*
X126605752Y-129367543D01*
X126605752Y-129367543D02*
X126653371Y-129272305D01*
X126653371Y-129272305D02*
X126748609Y-129224686D01*
X126748609Y-129224686D02*
X126843847Y-129224686D01*
X126843847Y-129224686D02*
X126939085Y-129700876D01*
X126605752Y-128367543D02*
X127415276Y-128367543D01*
X127415276Y-128367543D02*
X127510514Y-128415162D01*
X127510514Y-128415162D02*
X127558133Y-128462781D01*
X127558133Y-128462781D02*
X127605752Y-128558019D01*
X127605752Y-128558019D02*
X127605752Y-128700876D01*
X127605752Y-128700876D02*
X127558133Y-128796114D01*
X127224800Y-128367543D02*
X127272419Y-128462781D01*
X127272419Y-128462781D02*
X127272419Y-128653257D01*
X127272419Y-128653257D02*
X127224800Y-128748495D01*
X127224800Y-128748495D02*
X127177180Y-128796114D01*
X127177180Y-128796114D02*
X127081942Y-128843733D01*
X127081942Y-128843733D02*
X126796228Y-128843733D01*
X126796228Y-128843733D02*
X126700990Y-128796114D01*
X126700990Y-128796114D02*
X126653371Y-128748495D01*
X126653371Y-128748495D02*
X126605752Y-128653257D01*
X126605752Y-128653257D02*
X126605752Y-128462781D01*
X126605752Y-128462781D02*
X126653371Y-128367543D01*
X127272419Y-127748495D02*
X127224800Y-127843733D01*
X127224800Y-127843733D02*
X127129561Y-127891352D01*
X127129561Y-127891352D02*
X126272419Y-127891352D01*
X183527693Y-86820038D02*
X183432455Y-86772419D01*
X183432455Y-86772419D02*
X183289598Y-86772419D01*
X183289598Y-86772419D02*
X183146741Y-86820038D01*
X183146741Y-86820038D02*
X183051503Y-86915276D01*
X183051503Y-86915276D02*
X183003884Y-87010514D01*
X183003884Y-87010514D02*
X182956265Y-87200990D01*
X182956265Y-87200990D02*
X182956265Y-87343847D01*
X182956265Y-87343847D02*
X183003884Y-87534323D01*
X183003884Y-87534323D02*
X183051503Y-87629561D01*
X183051503Y-87629561D02*
X183146741Y-87724800D01*
X183146741Y-87724800D02*
X183289598Y-87772419D01*
X183289598Y-87772419D02*
X183384836Y-87772419D01*
X183384836Y-87772419D02*
X183527693Y-87724800D01*
X183527693Y-87724800D02*
X183575312Y-87677180D01*
X183575312Y-87677180D02*
X183575312Y-87343847D01*
X183575312Y-87343847D02*
X183384836Y-87343847D01*
X184003884Y-87772419D02*
X184003884Y-86772419D01*
X184003884Y-86772419D02*
X184575312Y-87772419D01*
X184575312Y-87772419D02*
X184575312Y-86772419D01*
X185051503Y-87772419D02*
X185051503Y-86772419D01*
X185051503Y-86772419D02*
X185289598Y-86772419D01*
X185289598Y-86772419D02*
X185432455Y-86820038D01*
X185432455Y-86820038D02*
X185527693Y-86915276D01*
X185527693Y-86915276D02*
X185575312Y-87010514D01*
X185575312Y-87010514D02*
X185622931Y-87200990D01*
X185622931Y-87200990D02*
X185622931Y-87343847D01*
X185622931Y-87343847D02*
X185575312Y-87534323D01*
X185575312Y-87534323D02*
X185527693Y-87629561D01*
X185527693Y-87629561D02*
X185432455Y-87724800D01*
X185432455Y-87724800D02*
X185289598Y-87772419D01*
X185289598Y-87772419D02*
X185051503Y-87772419D01*
D11*
X182436779Y-53669819D02*
X182436779Y-52669819D01*
X182436779Y-52669819D02*
X182674874Y-52669819D01*
X182674874Y-52669819D02*
X182817731Y-52717438D01*
X182817731Y-52717438D02*
X182912969Y-52812676D01*
X182912969Y-52812676D02*
X182960588Y-52907914D01*
X182960588Y-52907914D02*
X183008207Y-53098390D01*
X183008207Y-53098390D02*
X183008207Y-53241247D01*
X183008207Y-53241247D02*
X182960588Y-53431723D01*
X182960588Y-53431723D02*
X182912969Y-53526961D01*
X182912969Y-53526961D02*
X182817731Y-53622200D01*
X182817731Y-53622200D02*
X182674874Y-53669819D01*
X182674874Y-53669819D02*
X182436779Y-53669819D01*
X183436779Y-53669819D02*
X183436779Y-52669819D01*
X183436779Y-52669819D02*
X183817731Y-52669819D01*
X183817731Y-52669819D02*
X183912969Y-52717438D01*
X183912969Y-52717438D02*
X183960588Y-52765057D01*
X183960588Y-52765057D02*
X184008207Y-52860295D01*
X184008207Y-52860295D02*
X184008207Y-53003152D01*
X184008207Y-53003152D02*
X183960588Y-53098390D01*
X183960588Y-53098390D02*
X183912969Y-53146009D01*
X183912969Y-53146009D02*
X183817731Y-53193628D01*
X183817731Y-53193628D02*
X183436779Y-53193628D01*
X184389160Y-53622200D02*
X184532017Y-53669819D01*
X184532017Y-53669819D02*
X184770112Y-53669819D01*
X184770112Y-53669819D02*
X184865350Y-53622200D01*
X184865350Y-53622200D02*
X184912969Y-53574580D01*
X184912969Y-53574580D02*
X184960588Y-53479342D01*
X184960588Y-53479342D02*
X184960588Y-53384104D01*
X184960588Y-53384104D02*
X184912969Y-53288866D01*
X184912969Y-53288866D02*
X184865350Y-53241247D01*
X184865350Y-53241247D02*
X184770112Y-53193628D01*
X184770112Y-53193628D02*
X184579636Y-53146009D01*
X184579636Y-53146009D02*
X184484398Y-53098390D01*
X184484398Y-53098390D02*
X184436779Y-53050771D01*
X184436779Y-53050771D02*
X184389160Y-52955533D01*
X184389160Y-52955533D02*
X184389160Y-52860295D01*
X184389160Y-52860295D02*
X184436779Y-52765057D01*
X184436779Y-52765057D02*
X184484398Y-52717438D01*
X184484398Y-52717438D02*
X184579636Y-52669819D01*
X184579636Y-52669819D02*
X184817731Y-52669819D01*
X184817731Y-52669819D02*
X184960588Y-52717438D01*
D10*
X103948609Y-136762782D02*
X103948609Y-137096115D01*
X104472419Y-137096115D02*
X103472419Y-137096115D01*
X103472419Y-137096115D02*
X103472419Y-136619925D01*
X104472419Y-136096115D02*
X104424800Y-136191353D01*
X104424800Y-136191353D02*
X104329561Y-136238972D01*
X104329561Y-136238972D02*
X103472419Y-136238972D01*
X104472419Y-135286591D02*
X103948609Y-135286591D01*
X103948609Y-135286591D02*
X103853371Y-135334210D01*
X103853371Y-135334210D02*
X103805752Y-135429448D01*
X103805752Y-135429448D02*
X103805752Y-135619924D01*
X103805752Y-135619924D02*
X103853371Y-135715162D01*
X104424800Y-135286591D02*
X104472419Y-135381829D01*
X104472419Y-135381829D02*
X104472419Y-135619924D01*
X104472419Y-135619924D02*
X104424800Y-135715162D01*
X104424800Y-135715162D02*
X104329561Y-135762781D01*
X104329561Y-135762781D02*
X104234323Y-135762781D01*
X104234323Y-135762781D02*
X104139085Y-135715162D01*
X104139085Y-135715162D02*
X104091466Y-135619924D01*
X104091466Y-135619924D02*
X104091466Y-135381829D01*
X104091466Y-135381829D02*
X104043847Y-135286591D01*
X103805752Y-134810400D02*
X104805752Y-134810400D01*
X103853371Y-134810400D02*
X103805752Y-134715162D01*
X103805752Y-134715162D02*
X103805752Y-134524686D01*
X103805752Y-134524686D02*
X103853371Y-134429448D01*
X103853371Y-134429448D02*
X103900990Y-134381829D01*
X103900990Y-134381829D02*
X103996228Y-134334210D01*
X103996228Y-134334210D02*
X104281942Y-134334210D01*
X104281942Y-134334210D02*
X104377180Y-134381829D01*
X104377180Y-134381829D02*
X104424800Y-134429448D01*
X104424800Y-134429448D02*
X104472419Y-134524686D01*
X104472419Y-134524686D02*
X104472419Y-134715162D01*
X104472419Y-134715162D02*
X104424800Y-134810400D01*
X104377180Y-133905638D02*
X104424800Y-133858019D01*
X104424800Y-133858019D02*
X104472419Y-133905638D01*
X104472419Y-133905638D02*
X104424800Y-133953257D01*
X104424800Y-133953257D02*
X104377180Y-133905638D01*
X104377180Y-133905638D02*
X104472419Y-133905638D01*
X104424800Y-132715162D02*
X104472419Y-132572305D01*
X104472419Y-132572305D02*
X104472419Y-132334210D01*
X104472419Y-132334210D02*
X104424800Y-132238972D01*
X104424800Y-132238972D02*
X104377180Y-132191353D01*
X104377180Y-132191353D02*
X104281942Y-132143734D01*
X104281942Y-132143734D02*
X104186704Y-132143734D01*
X104186704Y-132143734D02*
X104091466Y-132191353D01*
X104091466Y-132191353D02*
X104043847Y-132238972D01*
X104043847Y-132238972D02*
X103996228Y-132334210D01*
X103996228Y-132334210D02*
X103948609Y-132524686D01*
X103948609Y-132524686D02*
X103900990Y-132619924D01*
X103900990Y-132619924D02*
X103853371Y-132667543D01*
X103853371Y-132667543D02*
X103758133Y-132715162D01*
X103758133Y-132715162D02*
X103662895Y-132715162D01*
X103662895Y-132715162D02*
X103567657Y-132667543D01*
X103567657Y-132667543D02*
X103520038Y-132619924D01*
X103520038Y-132619924D02*
X103472419Y-132524686D01*
X103472419Y-132524686D02*
X103472419Y-132286591D01*
X103472419Y-132286591D02*
X103520038Y-132143734D01*
X104424800Y-131334210D02*
X104472419Y-131429448D01*
X104472419Y-131429448D02*
X104472419Y-131619924D01*
X104472419Y-131619924D02*
X104424800Y-131715162D01*
X104424800Y-131715162D02*
X104329561Y-131762781D01*
X104329561Y-131762781D02*
X103948609Y-131762781D01*
X103948609Y-131762781D02*
X103853371Y-131715162D01*
X103853371Y-131715162D02*
X103805752Y-131619924D01*
X103805752Y-131619924D02*
X103805752Y-131429448D01*
X103805752Y-131429448D02*
X103853371Y-131334210D01*
X103853371Y-131334210D02*
X103948609Y-131286591D01*
X103948609Y-131286591D02*
X104043847Y-131286591D01*
X104043847Y-131286591D02*
X104139085Y-131762781D01*
X103805752Y-130858019D02*
X104472419Y-130858019D01*
X103900990Y-130858019D02*
X103853371Y-130810400D01*
X103853371Y-130810400D02*
X103805752Y-130715162D01*
X103805752Y-130715162D02*
X103805752Y-130572305D01*
X103805752Y-130572305D02*
X103853371Y-130477067D01*
X103853371Y-130477067D02*
X103948609Y-130429448D01*
X103948609Y-130429448D02*
X104472419Y-130429448D01*
X104424800Y-130000876D02*
X104472419Y-129905638D01*
X104472419Y-129905638D02*
X104472419Y-129715162D01*
X104472419Y-129715162D02*
X104424800Y-129619924D01*
X104424800Y-129619924D02*
X104329561Y-129572305D01*
X104329561Y-129572305D02*
X104281942Y-129572305D01*
X104281942Y-129572305D02*
X104186704Y-129619924D01*
X104186704Y-129619924D02*
X104139085Y-129715162D01*
X104139085Y-129715162D02*
X104139085Y-129858019D01*
X104139085Y-129858019D02*
X104091466Y-129953257D01*
X104091466Y-129953257D02*
X103996228Y-130000876D01*
X103996228Y-130000876D02*
X103948609Y-130000876D01*
X103948609Y-130000876D02*
X103853371Y-129953257D01*
X103853371Y-129953257D02*
X103805752Y-129858019D01*
X103805752Y-129858019D02*
X103805752Y-129715162D01*
X103805752Y-129715162D02*
X103853371Y-129619924D01*
X104472419Y-129000876D02*
X104424800Y-129096114D01*
X104424800Y-129096114D02*
X104377180Y-129143733D01*
X104377180Y-129143733D02*
X104281942Y-129191352D01*
X104281942Y-129191352D02*
X103996228Y-129191352D01*
X103996228Y-129191352D02*
X103900990Y-129143733D01*
X103900990Y-129143733D02*
X103853371Y-129096114D01*
X103853371Y-129096114D02*
X103805752Y-129000876D01*
X103805752Y-129000876D02*
X103805752Y-128858019D01*
X103805752Y-128858019D02*
X103853371Y-128762781D01*
X103853371Y-128762781D02*
X103900990Y-128715162D01*
X103900990Y-128715162D02*
X103996228Y-128667543D01*
X103996228Y-128667543D02*
X104281942Y-128667543D01*
X104281942Y-128667543D02*
X104377180Y-128715162D01*
X104377180Y-128715162D02*
X104424800Y-128762781D01*
X104424800Y-128762781D02*
X104472419Y-128858019D01*
X104472419Y-128858019D02*
X104472419Y-129000876D01*
X104472419Y-128238971D02*
X103805752Y-128238971D01*
X103996228Y-128238971D02*
X103900990Y-128191352D01*
X103900990Y-128191352D02*
X103853371Y-128143733D01*
X103853371Y-128143733D02*
X103805752Y-128048495D01*
X103805752Y-128048495D02*
X103805752Y-127953257D01*
X113772419Y-53005639D02*
X113772419Y-52815163D01*
X113772419Y-52815163D02*
X113820038Y-52719925D01*
X113820038Y-52719925D02*
X113915276Y-52624687D01*
X113915276Y-52624687D02*
X114105752Y-52577068D01*
X114105752Y-52577068D02*
X114439085Y-52577068D01*
X114439085Y-52577068D02*
X114629561Y-52624687D01*
X114629561Y-52624687D02*
X114724800Y-52719925D01*
X114724800Y-52719925D02*
X114772419Y-52815163D01*
X114772419Y-52815163D02*
X114772419Y-53005639D01*
X114772419Y-53005639D02*
X114724800Y-53100877D01*
X114724800Y-53100877D02*
X114629561Y-53196115D01*
X114629561Y-53196115D02*
X114439085Y-53243734D01*
X114439085Y-53243734D02*
X114105752Y-53243734D01*
X114105752Y-53243734D02*
X113915276Y-53196115D01*
X113915276Y-53196115D02*
X113820038Y-53100877D01*
X113820038Y-53100877D02*
X113772419Y-53005639D01*
X114772419Y-52148496D02*
X114105752Y-52148496D01*
X114200990Y-52148496D02*
X114153371Y-52100877D01*
X114153371Y-52100877D02*
X114105752Y-52005639D01*
X114105752Y-52005639D02*
X114105752Y-51862782D01*
X114105752Y-51862782D02*
X114153371Y-51767544D01*
X114153371Y-51767544D02*
X114248609Y-51719925D01*
X114248609Y-51719925D02*
X114772419Y-51719925D01*
X114248609Y-51719925D02*
X114153371Y-51672306D01*
X114153371Y-51672306D02*
X114105752Y-51577068D01*
X114105752Y-51577068D02*
X114105752Y-51434211D01*
X114105752Y-51434211D02*
X114153371Y-51338972D01*
X114153371Y-51338972D02*
X114248609Y-51291353D01*
X114248609Y-51291353D02*
X114772419Y-51291353D01*
X114724800Y-50862782D02*
X114772419Y-50767544D01*
X114772419Y-50767544D02*
X114772419Y-50577068D01*
X114772419Y-50577068D02*
X114724800Y-50481830D01*
X114724800Y-50481830D02*
X114629561Y-50434211D01*
X114629561Y-50434211D02*
X114581942Y-50434211D01*
X114581942Y-50434211D02*
X114486704Y-50481830D01*
X114486704Y-50481830D02*
X114439085Y-50577068D01*
X114439085Y-50577068D02*
X114439085Y-50719925D01*
X114439085Y-50719925D02*
X114391466Y-50815163D01*
X114391466Y-50815163D02*
X114296228Y-50862782D01*
X114296228Y-50862782D02*
X114248609Y-50862782D01*
X114248609Y-50862782D02*
X114153371Y-50815163D01*
X114153371Y-50815163D02*
X114105752Y-50719925D01*
X114105752Y-50719925D02*
X114105752Y-50577068D01*
X114105752Y-50577068D02*
X114153371Y-50481830D01*
X114772419Y-50005639D02*
X113772419Y-50005639D01*
X114391466Y-49910401D02*
X114772419Y-49624687D01*
X114105752Y-49624687D02*
X114486704Y-50005639D01*
X114772419Y-49196115D02*
X114105752Y-49196115D01*
X113772419Y-49196115D02*
X113820038Y-49243734D01*
X113820038Y-49243734D02*
X113867657Y-49196115D01*
X113867657Y-49196115D02*
X113820038Y-49148496D01*
X113820038Y-49148496D02*
X113772419Y-49196115D01*
X113772419Y-49196115D02*
X113867657Y-49196115D01*
X114105752Y-48862782D02*
X114105752Y-48481830D01*
X114772419Y-48719925D02*
X113915276Y-48719925D01*
X113915276Y-48719925D02*
X113820038Y-48672306D01*
X113820038Y-48672306D02*
X113772419Y-48577068D01*
X113772419Y-48577068D02*
X113772419Y-48481830D01*
X114105752Y-48291353D02*
X114105752Y-47910401D01*
X113772419Y-48148496D02*
X114629561Y-48148496D01*
X114629561Y-48148496D02*
X114724800Y-48100877D01*
X114724800Y-48100877D02*
X114772419Y-48005639D01*
X114772419Y-48005639D02*
X114772419Y-47910401D01*
X114724800Y-47196115D02*
X114772419Y-47291353D01*
X114772419Y-47291353D02*
X114772419Y-47481829D01*
X114772419Y-47481829D02*
X114724800Y-47577067D01*
X114724800Y-47577067D02*
X114629561Y-47624686D01*
X114629561Y-47624686D02*
X114248609Y-47624686D01*
X114248609Y-47624686D02*
X114153371Y-47577067D01*
X114153371Y-47577067D02*
X114105752Y-47481829D01*
X114105752Y-47481829D02*
X114105752Y-47291353D01*
X114105752Y-47291353D02*
X114153371Y-47196115D01*
X114153371Y-47196115D02*
X114248609Y-47148496D01*
X114248609Y-47148496D02*
X114343847Y-47148496D01*
X114343847Y-47148496D02*
X114439085Y-47624686D01*
X114772419Y-46719924D02*
X114105752Y-46719924D01*
X114296228Y-46719924D02*
X114200990Y-46672305D01*
X114200990Y-46672305D02*
X114153371Y-46624686D01*
X114153371Y-46624686D02*
X114105752Y-46529448D01*
X114105752Y-46529448D02*
X114105752Y-46434210D01*
X114772419Y-44767543D02*
X114296228Y-45100876D01*
X114772419Y-45338971D02*
X113772419Y-45338971D01*
X113772419Y-45338971D02*
X113772419Y-44958019D01*
X113772419Y-44958019D02*
X113820038Y-44862781D01*
X113820038Y-44862781D02*
X113867657Y-44815162D01*
X113867657Y-44815162D02*
X113962895Y-44767543D01*
X113962895Y-44767543D02*
X114105752Y-44767543D01*
X114105752Y-44767543D02*
X114200990Y-44815162D01*
X114200990Y-44815162D02*
X114248609Y-44862781D01*
X114248609Y-44862781D02*
X114296228Y-44958019D01*
X114296228Y-44958019D02*
X114296228Y-45338971D01*
X114772419Y-44338971D02*
X114105752Y-44338971D01*
X113772419Y-44338971D02*
X113820038Y-44386590D01*
X113820038Y-44386590D02*
X113867657Y-44338971D01*
X113867657Y-44338971D02*
X113820038Y-44291352D01*
X113820038Y-44291352D02*
X113772419Y-44338971D01*
X113772419Y-44338971D02*
X113867657Y-44338971D01*
X114105752Y-43434210D02*
X114915276Y-43434210D01*
X114915276Y-43434210D02*
X115010514Y-43481829D01*
X115010514Y-43481829D02*
X115058133Y-43529448D01*
X115058133Y-43529448D02*
X115105752Y-43624686D01*
X115105752Y-43624686D02*
X115105752Y-43767543D01*
X115105752Y-43767543D02*
X115058133Y-43862781D01*
X114724800Y-43434210D02*
X114772419Y-43529448D01*
X114772419Y-43529448D02*
X114772419Y-43719924D01*
X114772419Y-43719924D02*
X114724800Y-43815162D01*
X114724800Y-43815162D02*
X114677180Y-43862781D01*
X114677180Y-43862781D02*
X114581942Y-43910400D01*
X114581942Y-43910400D02*
X114296228Y-43910400D01*
X114296228Y-43910400D02*
X114200990Y-43862781D01*
X114200990Y-43862781D02*
X114153371Y-43815162D01*
X114153371Y-43815162D02*
X114105752Y-43719924D01*
X114105752Y-43719924D02*
X114105752Y-43529448D01*
X114105752Y-43529448D02*
X114153371Y-43434210D01*
X114772419Y-42958019D02*
X113772419Y-42958019D01*
X114772419Y-42529448D02*
X114248609Y-42529448D01*
X114248609Y-42529448D02*
X114153371Y-42577067D01*
X114153371Y-42577067D02*
X114105752Y-42672305D01*
X114105752Y-42672305D02*
X114105752Y-42815162D01*
X114105752Y-42815162D02*
X114153371Y-42910400D01*
X114153371Y-42910400D02*
X114200990Y-42958019D01*
X114105752Y-42196114D02*
X114105752Y-41815162D01*
X113772419Y-42053257D02*
X114629561Y-42053257D01*
X114629561Y-42053257D02*
X114724800Y-42005638D01*
X114724800Y-42005638D02*
X114772419Y-41910400D01*
X114772419Y-41910400D02*
X114772419Y-41815162D01*
X111172419Y-53005639D02*
X111172419Y-52815163D01*
X111172419Y-52815163D02*
X111220038Y-52719925D01*
X111220038Y-52719925D02*
X111315276Y-52624687D01*
X111315276Y-52624687D02*
X111505752Y-52577068D01*
X111505752Y-52577068D02*
X111839085Y-52577068D01*
X111839085Y-52577068D02*
X112029561Y-52624687D01*
X112029561Y-52624687D02*
X112124800Y-52719925D01*
X112124800Y-52719925D02*
X112172419Y-52815163D01*
X112172419Y-52815163D02*
X112172419Y-53005639D01*
X112172419Y-53005639D02*
X112124800Y-53100877D01*
X112124800Y-53100877D02*
X112029561Y-53196115D01*
X112029561Y-53196115D02*
X111839085Y-53243734D01*
X111839085Y-53243734D02*
X111505752Y-53243734D01*
X111505752Y-53243734D02*
X111315276Y-53196115D01*
X111315276Y-53196115D02*
X111220038Y-53100877D01*
X111220038Y-53100877D02*
X111172419Y-53005639D01*
X112172419Y-52148496D02*
X111505752Y-52148496D01*
X111600990Y-52148496D02*
X111553371Y-52100877D01*
X111553371Y-52100877D02*
X111505752Y-52005639D01*
X111505752Y-52005639D02*
X111505752Y-51862782D01*
X111505752Y-51862782D02*
X111553371Y-51767544D01*
X111553371Y-51767544D02*
X111648609Y-51719925D01*
X111648609Y-51719925D02*
X112172419Y-51719925D01*
X111648609Y-51719925D02*
X111553371Y-51672306D01*
X111553371Y-51672306D02*
X111505752Y-51577068D01*
X111505752Y-51577068D02*
X111505752Y-51434211D01*
X111505752Y-51434211D02*
X111553371Y-51338972D01*
X111553371Y-51338972D02*
X111648609Y-51291353D01*
X111648609Y-51291353D02*
X112172419Y-51291353D01*
X112124800Y-50862782D02*
X112172419Y-50767544D01*
X112172419Y-50767544D02*
X112172419Y-50577068D01*
X112172419Y-50577068D02*
X112124800Y-50481830D01*
X112124800Y-50481830D02*
X112029561Y-50434211D01*
X112029561Y-50434211D02*
X111981942Y-50434211D01*
X111981942Y-50434211D02*
X111886704Y-50481830D01*
X111886704Y-50481830D02*
X111839085Y-50577068D01*
X111839085Y-50577068D02*
X111839085Y-50719925D01*
X111839085Y-50719925D02*
X111791466Y-50815163D01*
X111791466Y-50815163D02*
X111696228Y-50862782D01*
X111696228Y-50862782D02*
X111648609Y-50862782D01*
X111648609Y-50862782D02*
X111553371Y-50815163D01*
X111553371Y-50815163D02*
X111505752Y-50719925D01*
X111505752Y-50719925D02*
X111505752Y-50577068D01*
X111505752Y-50577068D02*
X111553371Y-50481830D01*
X112172419Y-50005639D02*
X111172419Y-50005639D01*
X111791466Y-49910401D02*
X112172419Y-49624687D01*
X111505752Y-49624687D02*
X111886704Y-50005639D01*
X112172419Y-49196115D02*
X111505752Y-49196115D01*
X111172419Y-49196115D02*
X111220038Y-49243734D01*
X111220038Y-49243734D02*
X111267657Y-49196115D01*
X111267657Y-49196115D02*
X111220038Y-49148496D01*
X111220038Y-49148496D02*
X111172419Y-49196115D01*
X111172419Y-49196115D02*
X111267657Y-49196115D01*
X111505752Y-48862782D02*
X111505752Y-48481830D01*
X112172419Y-48719925D02*
X111315276Y-48719925D01*
X111315276Y-48719925D02*
X111220038Y-48672306D01*
X111220038Y-48672306D02*
X111172419Y-48577068D01*
X111172419Y-48577068D02*
X111172419Y-48481830D01*
X111505752Y-48291353D02*
X111505752Y-47910401D01*
X111172419Y-48148496D02*
X112029561Y-48148496D01*
X112029561Y-48148496D02*
X112124800Y-48100877D01*
X112124800Y-48100877D02*
X112172419Y-48005639D01*
X112172419Y-48005639D02*
X112172419Y-47910401D01*
X112124800Y-47196115D02*
X112172419Y-47291353D01*
X112172419Y-47291353D02*
X112172419Y-47481829D01*
X112172419Y-47481829D02*
X112124800Y-47577067D01*
X112124800Y-47577067D02*
X112029561Y-47624686D01*
X112029561Y-47624686D02*
X111648609Y-47624686D01*
X111648609Y-47624686D02*
X111553371Y-47577067D01*
X111553371Y-47577067D02*
X111505752Y-47481829D01*
X111505752Y-47481829D02*
X111505752Y-47291353D01*
X111505752Y-47291353D02*
X111553371Y-47196115D01*
X111553371Y-47196115D02*
X111648609Y-47148496D01*
X111648609Y-47148496D02*
X111743847Y-47148496D01*
X111743847Y-47148496D02*
X111839085Y-47624686D01*
X112172419Y-46719924D02*
X111505752Y-46719924D01*
X111696228Y-46719924D02*
X111600990Y-46672305D01*
X111600990Y-46672305D02*
X111553371Y-46624686D01*
X111553371Y-46624686D02*
X111505752Y-46529448D01*
X111505752Y-46529448D02*
X111505752Y-46434210D01*
X112172419Y-44862781D02*
X112172419Y-45338971D01*
X112172419Y-45338971D02*
X111172419Y-45338971D01*
X112124800Y-44148495D02*
X112172419Y-44243733D01*
X112172419Y-44243733D02*
X112172419Y-44434209D01*
X112172419Y-44434209D02*
X112124800Y-44529447D01*
X112124800Y-44529447D02*
X112029561Y-44577066D01*
X112029561Y-44577066D02*
X111648609Y-44577066D01*
X111648609Y-44577066D02*
X111553371Y-44529447D01*
X111553371Y-44529447D02*
X111505752Y-44434209D01*
X111505752Y-44434209D02*
X111505752Y-44243733D01*
X111505752Y-44243733D02*
X111553371Y-44148495D01*
X111553371Y-44148495D02*
X111648609Y-44100876D01*
X111648609Y-44100876D02*
X111743847Y-44100876D01*
X111743847Y-44100876D02*
X111839085Y-44577066D01*
X111505752Y-43815161D02*
X111505752Y-43434209D01*
X112172419Y-43672304D02*
X111315276Y-43672304D01*
X111315276Y-43672304D02*
X111220038Y-43624685D01*
X111220038Y-43624685D02*
X111172419Y-43529447D01*
X111172419Y-43529447D02*
X111172419Y-43434209D01*
X111505752Y-43243732D02*
X111505752Y-42862780D01*
X111172419Y-43100875D02*
X112029561Y-43100875D01*
X112029561Y-43100875D02*
X112124800Y-43053256D01*
X112124800Y-43053256D02*
X112172419Y-42958018D01*
X112172419Y-42958018D02*
X112172419Y-42862780D01*
D11*
X182870112Y-47946009D02*
X182536779Y-47946009D01*
X182536779Y-48469819D02*
X182536779Y-47469819D01*
X182536779Y-47469819D02*
X183012969Y-47469819D01*
X183536779Y-48469819D02*
X183441541Y-48422200D01*
X183441541Y-48422200D02*
X183393922Y-48326961D01*
X183393922Y-48326961D02*
X183393922Y-47469819D01*
X184346303Y-47803152D02*
X184346303Y-48469819D01*
X183917732Y-47803152D02*
X183917732Y-48326961D01*
X183917732Y-48326961D02*
X183965351Y-48422200D01*
X183965351Y-48422200D02*
X184060589Y-48469819D01*
X184060589Y-48469819D02*
X184203446Y-48469819D01*
X184203446Y-48469819D02*
X184298684Y-48422200D01*
X184298684Y-48422200D02*
X184346303Y-48374580D01*
X185203446Y-48422200D02*
X185108208Y-48469819D01*
X185108208Y-48469819D02*
X184917732Y-48469819D01*
X184917732Y-48469819D02*
X184822494Y-48422200D01*
X184822494Y-48422200D02*
X184774875Y-48326961D01*
X184774875Y-48326961D02*
X184774875Y-47946009D01*
X184774875Y-47946009D02*
X184822494Y-47850771D01*
X184822494Y-47850771D02*
X184917732Y-47803152D01*
X184917732Y-47803152D02*
X185108208Y-47803152D01*
X185108208Y-47803152D02*
X185203446Y-47850771D01*
X185203446Y-47850771D02*
X185251065Y-47946009D01*
X185251065Y-47946009D02*
X185251065Y-48041247D01*
X185251065Y-48041247D02*
X184774875Y-48136485D01*
X186965351Y-47517438D02*
X186870113Y-47469819D01*
X186870113Y-47469819D02*
X186727256Y-47469819D01*
X186727256Y-47469819D02*
X186584399Y-47517438D01*
X186584399Y-47517438D02*
X186489161Y-47612676D01*
X186489161Y-47612676D02*
X186441542Y-47707914D01*
X186441542Y-47707914D02*
X186393923Y-47898390D01*
X186393923Y-47898390D02*
X186393923Y-48041247D01*
X186393923Y-48041247D02*
X186441542Y-48231723D01*
X186441542Y-48231723D02*
X186489161Y-48326961D01*
X186489161Y-48326961D02*
X186584399Y-48422200D01*
X186584399Y-48422200D02*
X186727256Y-48469819D01*
X186727256Y-48469819D02*
X186822494Y-48469819D01*
X186822494Y-48469819D02*
X186965351Y-48422200D01*
X186965351Y-48422200D02*
X187012970Y-48374580D01*
X187012970Y-48374580D02*
X187012970Y-48041247D01*
X187012970Y-48041247D02*
X186822494Y-48041247D01*
X187870113Y-48469819D02*
X187870113Y-47946009D01*
X187870113Y-47946009D02*
X187822494Y-47850771D01*
X187822494Y-47850771D02*
X187727256Y-47803152D01*
X187727256Y-47803152D02*
X187536780Y-47803152D01*
X187536780Y-47803152D02*
X187441542Y-47850771D01*
X187870113Y-48422200D02*
X187774875Y-48469819D01*
X187774875Y-48469819D02*
X187536780Y-48469819D01*
X187536780Y-48469819D02*
X187441542Y-48422200D01*
X187441542Y-48422200D02*
X187393923Y-48326961D01*
X187393923Y-48326961D02*
X187393923Y-48231723D01*
X187393923Y-48231723D02*
X187441542Y-48136485D01*
X187441542Y-48136485D02*
X187536780Y-48088866D01*
X187536780Y-48088866D02*
X187774875Y-48088866D01*
X187774875Y-48088866D02*
X187870113Y-48041247D01*
X188298685Y-48422200D02*
X188393923Y-48469819D01*
X188393923Y-48469819D02*
X188584399Y-48469819D01*
X188584399Y-48469819D02*
X188679637Y-48422200D01*
X188679637Y-48422200D02*
X188727256Y-48326961D01*
X188727256Y-48326961D02*
X188727256Y-48279342D01*
X188727256Y-48279342D02*
X188679637Y-48184104D01*
X188679637Y-48184104D02*
X188584399Y-48136485D01*
X188584399Y-48136485D02*
X188441542Y-48136485D01*
X188441542Y-48136485D02*
X188346304Y-48088866D01*
X188346304Y-48088866D02*
X188298685Y-47993628D01*
X188298685Y-47993628D02*
X188298685Y-47946009D01*
X188298685Y-47946009D02*
X188346304Y-47850771D01*
X188346304Y-47850771D02*
X188441542Y-47803152D01*
X188441542Y-47803152D02*
X188584399Y-47803152D01*
X188584399Y-47803152D02*
X188679637Y-47850771D01*
D10*
X101872419Y-137196115D02*
X100872419Y-137196115D01*
X101348609Y-137196115D02*
X101348609Y-136624687D01*
X101872419Y-136624687D02*
X100872419Y-136624687D01*
X101824800Y-135767544D02*
X101872419Y-135862782D01*
X101872419Y-135862782D02*
X101872419Y-136053258D01*
X101872419Y-136053258D02*
X101824800Y-136148496D01*
X101824800Y-136148496D02*
X101729561Y-136196115D01*
X101729561Y-136196115D02*
X101348609Y-136196115D01*
X101348609Y-136196115D02*
X101253371Y-136148496D01*
X101253371Y-136148496D02*
X101205752Y-136053258D01*
X101205752Y-136053258D02*
X101205752Y-135862782D01*
X101205752Y-135862782D02*
X101253371Y-135767544D01*
X101253371Y-135767544D02*
X101348609Y-135719925D01*
X101348609Y-135719925D02*
X101443847Y-135719925D01*
X101443847Y-135719925D02*
X101539085Y-136196115D01*
X101872419Y-134862782D02*
X100872419Y-134862782D01*
X101824800Y-134862782D02*
X101872419Y-134958020D01*
X101872419Y-134958020D02*
X101872419Y-135148496D01*
X101872419Y-135148496D02*
X101824800Y-135243734D01*
X101824800Y-135243734D02*
X101777180Y-135291353D01*
X101777180Y-135291353D02*
X101681942Y-135338972D01*
X101681942Y-135338972D02*
X101396228Y-135338972D01*
X101396228Y-135338972D02*
X101300990Y-135291353D01*
X101300990Y-135291353D02*
X101253371Y-135243734D01*
X101253371Y-135243734D02*
X101205752Y-135148496D01*
X101205752Y-135148496D02*
X101205752Y-134958020D01*
X101205752Y-134958020D02*
X101253371Y-134862782D01*
X101824800Y-134005639D02*
X101872419Y-134100877D01*
X101872419Y-134100877D02*
X101872419Y-134291353D01*
X101872419Y-134291353D02*
X101824800Y-134386591D01*
X101824800Y-134386591D02*
X101729561Y-134434210D01*
X101729561Y-134434210D02*
X101348609Y-134434210D01*
X101348609Y-134434210D02*
X101253371Y-134386591D01*
X101253371Y-134386591D02*
X101205752Y-134291353D01*
X101205752Y-134291353D02*
X101205752Y-134100877D01*
X101205752Y-134100877D02*
X101253371Y-134005639D01*
X101253371Y-134005639D02*
X101348609Y-133958020D01*
X101348609Y-133958020D02*
X101443847Y-133958020D01*
X101443847Y-133958020D02*
X101539085Y-134434210D01*
X101777180Y-133529448D02*
X101824800Y-133481829D01*
X101824800Y-133481829D02*
X101872419Y-133529448D01*
X101872419Y-133529448D02*
X101824800Y-133577067D01*
X101824800Y-133577067D02*
X101777180Y-133529448D01*
X101777180Y-133529448D02*
X101872419Y-133529448D01*
X101824800Y-132338972D02*
X101872419Y-132196115D01*
X101872419Y-132196115D02*
X101872419Y-131958020D01*
X101872419Y-131958020D02*
X101824800Y-131862782D01*
X101824800Y-131862782D02*
X101777180Y-131815163D01*
X101777180Y-131815163D02*
X101681942Y-131767544D01*
X101681942Y-131767544D02*
X101586704Y-131767544D01*
X101586704Y-131767544D02*
X101491466Y-131815163D01*
X101491466Y-131815163D02*
X101443847Y-131862782D01*
X101443847Y-131862782D02*
X101396228Y-131958020D01*
X101396228Y-131958020D02*
X101348609Y-132148496D01*
X101348609Y-132148496D02*
X101300990Y-132243734D01*
X101300990Y-132243734D02*
X101253371Y-132291353D01*
X101253371Y-132291353D02*
X101158133Y-132338972D01*
X101158133Y-132338972D02*
X101062895Y-132338972D01*
X101062895Y-132338972D02*
X100967657Y-132291353D01*
X100967657Y-132291353D02*
X100920038Y-132243734D01*
X100920038Y-132243734D02*
X100872419Y-132148496D01*
X100872419Y-132148496D02*
X100872419Y-131910401D01*
X100872419Y-131910401D02*
X100920038Y-131767544D01*
X101205752Y-131434210D02*
X101872419Y-131243734D01*
X101872419Y-131243734D02*
X101396228Y-131053258D01*
X101396228Y-131053258D02*
X101872419Y-130862782D01*
X101872419Y-130862782D02*
X101205752Y-130672306D01*
X101872419Y-130291353D02*
X101205752Y-130291353D01*
X100872419Y-130291353D02*
X100920038Y-130338972D01*
X100920038Y-130338972D02*
X100967657Y-130291353D01*
X100967657Y-130291353D02*
X100920038Y-130243734D01*
X100920038Y-130243734D02*
X100872419Y-130291353D01*
X100872419Y-130291353D02*
X100967657Y-130291353D01*
X101205752Y-129958020D02*
X101205752Y-129577068D01*
X100872419Y-129815163D02*
X101729561Y-129815163D01*
X101729561Y-129815163D02*
X101824800Y-129767544D01*
X101824800Y-129767544D02*
X101872419Y-129672306D01*
X101872419Y-129672306D02*
X101872419Y-129577068D01*
X101824800Y-128815163D02*
X101872419Y-128910401D01*
X101872419Y-128910401D02*
X101872419Y-129100877D01*
X101872419Y-129100877D02*
X101824800Y-129196115D01*
X101824800Y-129196115D02*
X101777180Y-129243734D01*
X101777180Y-129243734D02*
X101681942Y-129291353D01*
X101681942Y-129291353D02*
X101396228Y-129291353D01*
X101396228Y-129291353D02*
X101300990Y-129243734D01*
X101300990Y-129243734D02*
X101253371Y-129196115D01*
X101253371Y-129196115D02*
X101205752Y-129100877D01*
X101205752Y-129100877D02*
X101205752Y-128910401D01*
X101205752Y-128910401D02*
X101253371Y-128815163D01*
X101872419Y-128386591D02*
X100872419Y-128386591D01*
X101872419Y-127958020D02*
X101348609Y-127958020D01*
X101348609Y-127958020D02*
X101253371Y-128005639D01*
X101253371Y-128005639D02*
X101205752Y-128100877D01*
X101205752Y-128100877D02*
X101205752Y-128243734D01*
X101205752Y-128243734D02*
X101253371Y-128338972D01*
X101253371Y-128338972D02*
X101300990Y-128386591D01*
X134972419Y-52524687D02*
X134496228Y-52858020D01*
X134972419Y-53096115D02*
X133972419Y-53096115D01*
X133972419Y-53096115D02*
X133972419Y-52715163D01*
X133972419Y-52715163D02*
X134020038Y-52619925D01*
X134020038Y-52619925D02*
X134067657Y-52572306D01*
X134067657Y-52572306D02*
X134162895Y-52524687D01*
X134162895Y-52524687D02*
X134305752Y-52524687D01*
X134305752Y-52524687D02*
X134400990Y-52572306D01*
X134400990Y-52572306D02*
X134448609Y-52619925D01*
X134448609Y-52619925D02*
X134496228Y-52715163D01*
X134496228Y-52715163D02*
X134496228Y-53096115D01*
X134305752Y-51572306D02*
X134972419Y-52191353D01*
X134972419Y-51953258D02*
X134924800Y-52048496D01*
X134924800Y-52048496D02*
X134877180Y-52096115D01*
X134877180Y-52096115D02*
X134781942Y-52143734D01*
X134781942Y-52143734D02*
X134496228Y-52143734D01*
X134496228Y-52143734D02*
X134400990Y-52096115D01*
X134400990Y-52096115D02*
X134353371Y-52048496D01*
X134353371Y-52048496D02*
X134305752Y-51953258D01*
X134305752Y-51953258D02*
X134305752Y-51810401D01*
X134305752Y-51810401D02*
X134353371Y-51715163D01*
X134353371Y-51715163D02*
X134400990Y-51667544D01*
X134400990Y-51667544D02*
X134496228Y-51619925D01*
X134496228Y-51619925D02*
X134781942Y-51619925D01*
X134781942Y-51619925D02*
X134877180Y-51667544D01*
X134877180Y-51667544D02*
X134924800Y-51715163D01*
X134924800Y-51715163D02*
X134972419Y-51810401D01*
X134972419Y-51810401D02*
X134972419Y-51953258D01*
X134305752Y-50762782D02*
X135115276Y-50762782D01*
X135115276Y-50762782D02*
X135210514Y-50810401D01*
X135210514Y-50810401D02*
X135258133Y-50858020D01*
X135258133Y-50858020D02*
X135305752Y-50953258D01*
X135305752Y-50953258D02*
X135305752Y-51096115D01*
X135305752Y-51096115D02*
X135258133Y-51191353D01*
X134924800Y-50762782D02*
X134972419Y-50858020D01*
X134972419Y-50858020D02*
X134972419Y-51048496D01*
X134972419Y-51048496D02*
X134924800Y-51143734D01*
X134924800Y-51143734D02*
X134877180Y-51191353D01*
X134877180Y-51191353D02*
X134781942Y-51238972D01*
X134781942Y-51238972D02*
X134496228Y-51238972D01*
X134496228Y-51238972D02*
X134400990Y-51191353D01*
X134400990Y-51191353D02*
X134353371Y-51143734D01*
X134353371Y-51143734D02*
X134305752Y-51048496D01*
X134305752Y-51048496D02*
X134305752Y-50858020D01*
X134305752Y-50858020D02*
X134353371Y-50762782D01*
X134305752Y-49858020D02*
X135115276Y-49858020D01*
X135115276Y-49858020D02*
X135210514Y-49905639D01*
X135210514Y-49905639D02*
X135258133Y-49953258D01*
X135258133Y-49953258D02*
X135305752Y-50048496D01*
X135305752Y-50048496D02*
X135305752Y-50191353D01*
X135305752Y-50191353D02*
X135258133Y-50286591D01*
X134924800Y-49858020D02*
X134972419Y-49953258D01*
X134972419Y-49953258D02*
X134972419Y-50143734D01*
X134972419Y-50143734D02*
X134924800Y-50238972D01*
X134924800Y-50238972D02*
X134877180Y-50286591D01*
X134877180Y-50286591D02*
X134781942Y-50334210D01*
X134781942Y-50334210D02*
X134496228Y-50334210D01*
X134496228Y-50334210D02*
X134400990Y-50286591D01*
X134400990Y-50286591D02*
X134353371Y-50238972D01*
X134353371Y-50238972D02*
X134305752Y-50143734D01*
X134305752Y-50143734D02*
X134305752Y-49953258D01*
X134305752Y-49953258D02*
X134353371Y-49858020D01*
X134972419Y-48953258D02*
X134448609Y-48953258D01*
X134448609Y-48953258D02*
X134353371Y-49000877D01*
X134353371Y-49000877D02*
X134305752Y-49096115D01*
X134305752Y-49096115D02*
X134305752Y-49286591D01*
X134305752Y-49286591D02*
X134353371Y-49381829D01*
X134924800Y-48953258D02*
X134972419Y-49048496D01*
X134972419Y-49048496D02*
X134972419Y-49286591D01*
X134972419Y-49286591D02*
X134924800Y-49381829D01*
X134924800Y-49381829D02*
X134829561Y-49429448D01*
X134829561Y-49429448D02*
X134734323Y-49429448D01*
X134734323Y-49429448D02*
X134639085Y-49381829D01*
X134639085Y-49381829D02*
X134591466Y-49286591D01*
X134591466Y-49286591D02*
X134591466Y-49048496D01*
X134591466Y-49048496D02*
X134543847Y-48953258D01*
X134924800Y-48524686D02*
X134972419Y-48429448D01*
X134972419Y-48429448D02*
X134972419Y-48238972D01*
X134972419Y-48238972D02*
X134924800Y-48143734D01*
X134924800Y-48143734D02*
X134829561Y-48096115D01*
X134829561Y-48096115D02*
X134781942Y-48096115D01*
X134781942Y-48096115D02*
X134686704Y-48143734D01*
X134686704Y-48143734D02*
X134639085Y-48238972D01*
X134639085Y-48238972D02*
X134639085Y-48381829D01*
X134639085Y-48381829D02*
X134591466Y-48477067D01*
X134591466Y-48477067D02*
X134496228Y-48524686D01*
X134496228Y-48524686D02*
X134448609Y-48524686D01*
X134448609Y-48524686D02*
X134353371Y-48477067D01*
X134353371Y-48477067D02*
X134305752Y-48381829D01*
X134305752Y-48381829D02*
X134305752Y-48238972D01*
X134305752Y-48238972D02*
X134353371Y-48143734D01*
X134924800Y-47715162D02*
X134972419Y-47619924D01*
X134972419Y-47619924D02*
X134972419Y-47429448D01*
X134972419Y-47429448D02*
X134924800Y-47334210D01*
X134924800Y-47334210D02*
X134829561Y-47286591D01*
X134829561Y-47286591D02*
X134781942Y-47286591D01*
X134781942Y-47286591D02*
X134686704Y-47334210D01*
X134686704Y-47334210D02*
X134639085Y-47429448D01*
X134639085Y-47429448D02*
X134639085Y-47572305D01*
X134639085Y-47572305D02*
X134591466Y-47667543D01*
X134591466Y-47667543D02*
X134496228Y-47715162D01*
X134496228Y-47715162D02*
X134448609Y-47715162D01*
X134448609Y-47715162D02*
X134353371Y-47667543D01*
X134353371Y-47667543D02*
X134305752Y-47572305D01*
X134305752Y-47572305D02*
X134305752Y-47429448D01*
X134305752Y-47429448D02*
X134353371Y-47334210D01*
X134305752Y-46429448D02*
X134972419Y-46429448D01*
X134305752Y-46858019D02*
X134829561Y-46858019D01*
X134829561Y-46858019D02*
X134924800Y-46810400D01*
X134924800Y-46810400D02*
X134972419Y-46715162D01*
X134972419Y-46715162D02*
X134972419Y-46572305D01*
X134972419Y-46572305D02*
X134924800Y-46477067D01*
X134924800Y-46477067D02*
X134877180Y-46429448D01*
X134305752Y-45524686D02*
X135115276Y-45524686D01*
X135115276Y-45524686D02*
X135210514Y-45572305D01*
X135210514Y-45572305D02*
X135258133Y-45619924D01*
X135258133Y-45619924D02*
X135305752Y-45715162D01*
X135305752Y-45715162D02*
X135305752Y-45858019D01*
X135305752Y-45858019D02*
X135258133Y-45953257D01*
X134924800Y-45524686D02*
X134972419Y-45619924D01*
X134972419Y-45619924D02*
X134972419Y-45810400D01*
X134972419Y-45810400D02*
X134924800Y-45905638D01*
X134924800Y-45905638D02*
X134877180Y-45953257D01*
X134877180Y-45953257D02*
X134781942Y-46000876D01*
X134781942Y-46000876D02*
X134496228Y-46000876D01*
X134496228Y-46000876D02*
X134400990Y-45953257D01*
X134400990Y-45953257D02*
X134353371Y-45905638D01*
X134353371Y-45905638D02*
X134305752Y-45810400D01*
X134305752Y-45810400D02*
X134305752Y-45619924D01*
X134305752Y-45619924D02*
X134353371Y-45524686D01*
X134924800Y-44667543D02*
X134972419Y-44762781D01*
X134972419Y-44762781D02*
X134972419Y-44953257D01*
X134972419Y-44953257D02*
X134924800Y-45048495D01*
X134924800Y-45048495D02*
X134829561Y-45096114D01*
X134829561Y-45096114D02*
X134448609Y-45096114D01*
X134448609Y-45096114D02*
X134353371Y-45048495D01*
X134353371Y-45048495D02*
X134305752Y-44953257D01*
X134305752Y-44953257D02*
X134305752Y-44762781D01*
X134305752Y-44762781D02*
X134353371Y-44667543D01*
X134353371Y-44667543D02*
X134448609Y-44619924D01*
X134448609Y-44619924D02*
X134543847Y-44619924D01*
X134543847Y-44619924D02*
X134639085Y-45096114D01*
X134972419Y-44191352D02*
X134305752Y-44191352D01*
X134496228Y-44191352D02*
X134400990Y-44143733D01*
X134400990Y-44143733D02*
X134353371Y-44096114D01*
X134353371Y-44096114D02*
X134305752Y-44000876D01*
X134305752Y-44000876D02*
X134305752Y-43905638D01*
X118972419Y-53138972D02*
X118972419Y-52567544D01*
X119972419Y-52853258D02*
X118972419Y-52853258D01*
X119353371Y-52234210D02*
X119305752Y-52138972D01*
X119305752Y-52138972D02*
X119305752Y-51948496D01*
X119305752Y-51948496D02*
X119353371Y-51853258D01*
X119353371Y-51853258D02*
X119448609Y-51805639D01*
X119924800Y-51377067D02*
X119972419Y-51472306D01*
X119972419Y-51472306D02*
X119972419Y-51662782D01*
X119972419Y-51662782D02*
X119924800Y-51758020D01*
X119924800Y-51758020D02*
X119829561Y-51805639D01*
X119829561Y-51805639D02*
X119448609Y-51805639D01*
X119448609Y-51805639D02*
X119353371Y-51758020D01*
X119353371Y-51758020D02*
X119305752Y-51662782D01*
X119305752Y-51662782D02*
X119305752Y-51472306D01*
X119305752Y-51472306D02*
X119353371Y-51377067D01*
X119353371Y-51377067D02*
X119448609Y-51329448D01*
X119448609Y-51329448D02*
X119543847Y-51329448D01*
X119543847Y-51329448D02*
X119591466Y-51805639D01*
X119591466Y-51805639D02*
X119591466Y-52138972D01*
X119591466Y-52138972D02*
X119639085Y-52234210D01*
X119639085Y-52234210D02*
X119734323Y-52281829D01*
X119734323Y-52281829D02*
X119829561Y-52281829D01*
X119829561Y-52281829D02*
X119924800Y-52234210D01*
X119924800Y-52234210D02*
X119972419Y-52138972D01*
X119972419Y-52138972D02*
X119972419Y-51948496D01*
X119972419Y-51948496D02*
X119924800Y-51853258D01*
X119924800Y-51853258D02*
X119829561Y-51805639D01*
X119305752Y-50900877D02*
X119972419Y-50900877D01*
X119400990Y-50900877D02*
X119353371Y-50853258D01*
X119353371Y-50853258D02*
X119305752Y-50758020D01*
X119305752Y-50758020D02*
X119305752Y-50615163D01*
X119305752Y-50615163D02*
X119353371Y-50519925D01*
X119353371Y-50519925D02*
X119448609Y-50472306D01*
X119448609Y-50472306D02*
X119972419Y-50472306D01*
X119972419Y-49567544D02*
X118972419Y-49567544D01*
X119924800Y-49567544D02*
X119972419Y-49662782D01*
X119972419Y-49662782D02*
X119972419Y-49853258D01*
X119972419Y-49853258D02*
X119924800Y-49948496D01*
X119924800Y-49948496D02*
X119877180Y-49996115D01*
X119877180Y-49996115D02*
X119781942Y-50043734D01*
X119781942Y-50043734D02*
X119496228Y-50043734D01*
X119496228Y-50043734D02*
X119400990Y-49996115D01*
X119400990Y-49996115D02*
X119353371Y-49948496D01*
X119353371Y-49948496D02*
X119305752Y-49853258D01*
X119305752Y-49853258D02*
X119305752Y-49662782D01*
X119305752Y-49662782D02*
X119353371Y-49567544D01*
X119972419Y-49091353D02*
X119305752Y-49091353D01*
X118972419Y-49091353D02*
X119020038Y-49138972D01*
X119020038Y-49138972D02*
X119067657Y-49091353D01*
X119067657Y-49091353D02*
X119020038Y-49043734D01*
X119020038Y-49043734D02*
X118972419Y-49091353D01*
X118972419Y-49091353D02*
X119067657Y-49091353D01*
X119305752Y-48615163D02*
X119972419Y-48615163D01*
X119400990Y-48615163D02*
X119353371Y-48567544D01*
X119353371Y-48567544D02*
X119305752Y-48472306D01*
X119305752Y-48472306D02*
X119305752Y-48329449D01*
X119305752Y-48329449D02*
X119353371Y-48234211D01*
X119353371Y-48234211D02*
X119448609Y-48186592D01*
X119448609Y-48186592D02*
X119972419Y-48186592D01*
X119305752Y-47281830D02*
X120115276Y-47281830D01*
X120115276Y-47281830D02*
X120210514Y-47329449D01*
X120210514Y-47329449D02*
X120258133Y-47377068D01*
X120258133Y-47377068D02*
X120305752Y-47472306D01*
X120305752Y-47472306D02*
X120305752Y-47615163D01*
X120305752Y-47615163D02*
X120258133Y-47710401D01*
X119924800Y-47281830D02*
X119972419Y-47377068D01*
X119972419Y-47377068D02*
X119972419Y-47567544D01*
X119972419Y-47567544D02*
X119924800Y-47662782D01*
X119924800Y-47662782D02*
X119877180Y-47710401D01*
X119877180Y-47710401D02*
X119781942Y-47758020D01*
X119781942Y-47758020D02*
X119496228Y-47758020D01*
X119496228Y-47758020D02*
X119400990Y-47710401D01*
X119400990Y-47710401D02*
X119353371Y-47662782D01*
X119353371Y-47662782D02*
X119305752Y-47567544D01*
X119305752Y-47567544D02*
X119305752Y-47377068D01*
X119305752Y-47377068D02*
X119353371Y-47281830D01*
X186327693Y-117320038D02*
X186232455Y-117272419D01*
X186232455Y-117272419D02*
X186089598Y-117272419D01*
X186089598Y-117272419D02*
X185946741Y-117320038D01*
X185946741Y-117320038D02*
X185851503Y-117415276D01*
X185851503Y-117415276D02*
X185803884Y-117510514D01*
X185803884Y-117510514D02*
X185756265Y-117700990D01*
X185756265Y-117700990D02*
X185756265Y-117843847D01*
X185756265Y-117843847D02*
X185803884Y-118034323D01*
X185803884Y-118034323D02*
X185851503Y-118129561D01*
X185851503Y-118129561D02*
X185946741Y-118224800D01*
X185946741Y-118224800D02*
X186089598Y-118272419D01*
X186089598Y-118272419D02*
X186184836Y-118272419D01*
X186184836Y-118272419D02*
X186327693Y-118224800D01*
X186327693Y-118224800D02*
X186375312Y-118177180D01*
X186375312Y-118177180D02*
X186375312Y-117843847D01*
X186375312Y-117843847D02*
X186184836Y-117843847D01*
X186803884Y-118272419D02*
X186803884Y-117272419D01*
X186803884Y-117272419D02*
X187375312Y-118272419D01*
X187375312Y-118272419D02*
X187375312Y-117272419D01*
X187851503Y-118272419D02*
X187851503Y-117272419D01*
X187851503Y-117272419D02*
X188089598Y-117272419D01*
X188089598Y-117272419D02*
X188232455Y-117320038D01*
X188232455Y-117320038D02*
X188327693Y-117415276D01*
X188327693Y-117415276D02*
X188375312Y-117510514D01*
X188375312Y-117510514D02*
X188422931Y-117700990D01*
X188422931Y-117700990D02*
X188422931Y-117843847D01*
X188422931Y-117843847D02*
X188375312Y-118034323D01*
X188375312Y-118034323D02*
X188327693Y-118129561D01*
X188327693Y-118129561D02*
X188232455Y-118224800D01*
X188232455Y-118224800D02*
X188089598Y-118272419D01*
X188089598Y-118272419D02*
X187851503Y-118272419D01*
X116886704Y-53043734D02*
X116886704Y-52567544D01*
X117172419Y-53138972D02*
X116172419Y-52805639D01*
X116172419Y-52805639D02*
X117172419Y-52472306D01*
X117124800Y-52186591D02*
X117172419Y-52091353D01*
X117172419Y-52091353D02*
X117172419Y-51900877D01*
X117172419Y-51900877D02*
X117124800Y-51805639D01*
X117124800Y-51805639D02*
X117029561Y-51758020D01*
X117029561Y-51758020D02*
X116981942Y-51758020D01*
X116981942Y-51758020D02*
X116886704Y-51805639D01*
X116886704Y-51805639D02*
X116839085Y-51900877D01*
X116839085Y-51900877D02*
X116839085Y-52043734D01*
X116839085Y-52043734D02*
X116791466Y-52138972D01*
X116791466Y-52138972D02*
X116696228Y-52186591D01*
X116696228Y-52186591D02*
X116648609Y-52186591D01*
X116648609Y-52186591D02*
X116553371Y-52138972D01*
X116553371Y-52138972D02*
X116505752Y-52043734D01*
X116505752Y-52043734D02*
X116505752Y-51900877D01*
X116505752Y-51900877D02*
X116553371Y-51805639D01*
X117172419Y-51329448D02*
X116172419Y-51329448D01*
X116791466Y-51234210D02*
X117172419Y-50948496D01*
X116505752Y-50948496D02*
X116886704Y-51329448D01*
X117124800Y-50138972D02*
X117172419Y-50234210D01*
X117172419Y-50234210D02*
X117172419Y-50424686D01*
X117172419Y-50424686D02*
X117124800Y-50519924D01*
X117124800Y-50519924D02*
X117029561Y-50567543D01*
X117029561Y-50567543D02*
X116648609Y-50567543D01*
X116648609Y-50567543D02*
X116553371Y-50519924D01*
X116553371Y-50519924D02*
X116505752Y-50424686D01*
X116505752Y-50424686D02*
X116505752Y-50234210D01*
X116505752Y-50234210D02*
X116553371Y-50138972D01*
X116553371Y-50138972D02*
X116648609Y-50091353D01*
X116648609Y-50091353D02*
X116743847Y-50091353D01*
X116743847Y-50091353D02*
X116839085Y-50567543D01*
X116172419Y-48710400D02*
X116172419Y-48519924D01*
X116172419Y-48519924D02*
X116220038Y-48424686D01*
X116220038Y-48424686D02*
X116315276Y-48329448D01*
X116315276Y-48329448D02*
X116505752Y-48281829D01*
X116505752Y-48281829D02*
X116839085Y-48281829D01*
X116839085Y-48281829D02*
X117029561Y-48329448D01*
X117029561Y-48329448D02*
X117124800Y-48424686D01*
X117124800Y-48424686D02*
X117172419Y-48519924D01*
X117172419Y-48519924D02*
X117172419Y-48710400D01*
X117172419Y-48710400D02*
X117124800Y-48805638D01*
X117124800Y-48805638D02*
X117029561Y-48900876D01*
X117029561Y-48900876D02*
X116839085Y-48948495D01*
X116839085Y-48948495D02*
X116505752Y-48948495D01*
X116505752Y-48948495D02*
X116315276Y-48900876D01*
X116315276Y-48900876D02*
X116220038Y-48805638D01*
X116220038Y-48805638D02*
X116172419Y-48710400D01*
X116505752Y-47853257D02*
X117505752Y-47853257D01*
X116553371Y-47853257D02*
X116505752Y-47758019D01*
X116505752Y-47758019D02*
X116505752Y-47567543D01*
X116505752Y-47567543D02*
X116553371Y-47472305D01*
X116553371Y-47472305D02*
X116600990Y-47424686D01*
X116600990Y-47424686D02*
X116696228Y-47377067D01*
X116696228Y-47377067D02*
X116981942Y-47377067D01*
X116981942Y-47377067D02*
X117077180Y-47424686D01*
X117077180Y-47424686D02*
X117124800Y-47472305D01*
X117124800Y-47472305D02*
X117172419Y-47567543D01*
X117172419Y-47567543D02*
X117172419Y-47758019D01*
X117172419Y-47758019D02*
X117124800Y-47853257D01*
X117124800Y-46567543D02*
X117172419Y-46662781D01*
X117172419Y-46662781D02*
X117172419Y-46853257D01*
X117172419Y-46853257D02*
X117124800Y-46948495D01*
X117124800Y-46948495D02*
X117029561Y-46996114D01*
X117029561Y-46996114D02*
X116648609Y-46996114D01*
X116648609Y-46996114D02*
X116553371Y-46948495D01*
X116553371Y-46948495D02*
X116505752Y-46853257D01*
X116505752Y-46853257D02*
X116505752Y-46662781D01*
X116505752Y-46662781D02*
X116553371Y-46567543D01*
X116553371Y-46567543D02*
X116648609Y-46519924D01*
X116648609Y-46519924D02*
X116743847Y-46519924D01*
X116743847Y-46519924D02*
X116839085Y-46996114D01*
X116505752Y-46091352D02*
X117172419Y-46091352D01*
X116600990Y-46091352D02*
X116553371Y-46043733D01*
X116553371Y-46043733D02*
X116505752Y-45948495D01*
X116505752Y-45948495D02*
X116505752Y-45805638D01*
X116505752Y-45805638D02*
X116553371Y-45710400D01*
X116553371Y-45710400D02*
X116648609Y-45662781D01*
X116648609Y-45662781D02*
X117172419Y-45662781D01*
X186127693Y-114672419D02*
X185556265Y-114672419D01*
X185841979Y-114672419D02*
X185841979Y-113672419D01*
X185841979Y-113672419D02*
X185746741Y-113815276D01*
X185746741Y-113815276D02*
X185651503Y-113910514D01*
X185651503Y-113910514D02*
X185556265Y-113958133D01*
X186508646Y-113767657D02*
X186556265Y-113720038D01*
X186556265Y-113720038D02*
X186651503Y-113672419D01*
X186651503Y-113672419D02*
X186889598Y-113672419D01*
X186889598Y-113672419D02*
X186984836Y-113720038D01*
X186984836Y-113720038D02*
X187032455Y-113767657D01*
X187032455Y-113767657D02*
X187080074Y-113862895D01*
X187080074Y-113862895D02*
X187080074Y-113958133D01*
X187080074Y-113958133D02*
X187032455Y-114100990D01*
X187032455Y-114100990D02*
X186461027Y-114672419D01*
X186461027Y-114672419D02*
X187080074Y-114672419D01*
X187365789Y-113672419D02*
X187699122Y-114672419D01*
X187699122Y-114672419D02*
X188032455Y-113672419D01*
X116886704Y-136243734D02*
X116886704Y-135767544D01*
X117172419Y-136338972D02*
X116172419Y-136005639D01*
X116172419Y-136005639D02*
X117172419Y-135672306D01*
X117124800Y-135386591D02*
X117172419Y-135291353D01*
X117172419Y-135291353D02*
X117172419Y-135100877D01*
X117172419Y-135100877D02*
X117124800Y-135005639D01*
X117124800Y-135005639D02*
X117029561Y-134958020D01*
X117029561Y-134958020D02*
X116981942Y-134958020D01*
X116981942Y-134958020D02*
X116886704Y-135005639D01*
X116886704Y-135005639D02*
X116839085Y-135100877D01*
X116839085Y-135100877D02*
X116839085Y-135243734D01*
X116839085Y-135243734D02*
X116791466Y-135338972D01*
X116791466Y-135338972D02*
X116696228Y-135386591D01*
X116696228Y-135386591D02*
X116648609Y-135386591D01*
X116648609Y-135386591D02*
X116553371Y-135338972D01*
X116553371Y-135338972D02*
X116505752Y-135243734D01*
X116505752Y-135243734D02*
X116505752Y-135100877D01*
X116505752Y-135100877D02*
X116553371Y-135005639D01*
X117172419Y-134529448D02*
X116172419Y-134529448D01*
X116791466Y-134434210D02*
X117172419Y-134148496D01*
X116505752Y-134148496D02*
X116886704Y-134529448D01*
X117124800Y-133338972D02*
X117172419Y-133434210D01*
X117172419Y-133434210D02*
X117172419Y-133624686D01*
X117172419Y-133624686D02*
X117124800Y-133719924D01*
X117124800Y-133719924D02*
X117029561Y-133767543D01*
X117029561Y-133767543D02*
X116648609Y-133767543D01*
X116648609Y-133767543D02*
X116553371Y-133719924D01*
X116553371Y-133719924D02*
X116505752Y-133624686D01*
X116505752Y-133624686D02*
X116505752Y-133434210D01*
X116505752Y-133434210D02*
X116553371Y-133338972D01*
X116553371Y-133338972D02*
X116648609Y-133291353D01*
X116648609Y-133291353D02*
X116743847Y-133291353D01*
X116743847Y-133291353D02*
X116839085Y-133767543D01*
X117124800Y-132148495D02*
X117172419Y-132005638D01*
X117172419Y-132005638D02*
X117172419Y-131767543D01*
X117172419Y-131767543D02*
X117124800Y-131672305D01*
X117124800Y-131672305D02*
X117077180Y-131624686D01*
X117077180Y-131624686D02*
X116981942Y-131577067D01*
X116981942Y-131577067D02*
X116886704Y-131577067D01*
X116886704Y-131577067D02*
X116791466Y-131624686D01*
X116791466Y-131624686D02*
X116743847Y-131672305D01*
X116743847Y-131672305D02*
X116696228Y-131767543D01*
X116696228Y-131767543D02*
X116648609Y-131958019D01*
X116648609Y-131958019D02*
X116600990Y-132053257D01*
X116600990Y-132053257D02*
X116553371Y-132100876D01*
X116553371Y-132100876D02*
X116458133Y-132148495D01*
X116458133Y-132148495D02*
X116362895Y-132148495D01*
X116362895Y-132148495D02*
X116267657Y-132100876D01*
X116267657Y-132100876D02*
X116220038Y-132053257D01*
X116220038Y-132053257D02*
X116172419Y-131958019D01*
X116172419Y-131958019D02*
X116172419Y-131719924D01*
X116172419Y-131719924D02*
X116220038Y-131577067D01*
X116505752Y-131243733D02*
X117172419Y-131053257D01*
X117172419Y-131053257D02*
X116696228Y-130862781D01*
X116696228Y-130862781D02*
X117172419Y-130672305D01*
X117172419Y-130672305D02*
X116505752Y-130481829D01*
X117172419Y-130100876D02*
X116505752Y-130100876D01*
X116172419Y-130100876D02*
X116220038Y-130148495D01*
X116220038Y-130148495D02*
X116267657Y-130100876D01*
X116267657Y-130100876D02*
X116220038Y-130053257D01*
X116220038Y-130053257D02*
X116172419Y-130100876D01*
X116172419Y-130100876D02*
X116267657Y-130100876D01*
X116505752Y-129767543D02*
X116505752Y-129386591D01*
X116172419Y-129624686D02*
X117029561Y-129624686D01*
X117029561Y-129624686D02*
X117124800Y-129577067D01*
X117124800Y-129577067D02*
X117172419Y-129481829D01*
X117172419Y-129481829D02*
X117172419Y-129386591D01*
X117124800Y-128624686D02*
X117172419Y-128719924D01*
X117172419Y-128719924D02*
X117172419Y-128910400D01*
X117172419Y-128910400D02*
X117124800Y-129005638D01*
X117124800Y-129005638D02*
X117077180Y-129053257D01*
X117077180Y-129053257D02*
X116981942Y-129100876D01*
X116981942Y-129100876D02*
X116696228Y-129100876D01*
X116696228Y-129100876D02*
X116600990Y-129053257D01*
X116600990Y-129053257D02*
X116553371Y-129005638D01*
X116553371Y-129005638D02*
X116505752Y-128910400D01*
X116505752Y-128910400D02*
X116505752Y-128719924D01*
X116505752Y-128719924D02*
X116553371Y-128624686D01*
X117172419Y-128196114D02*
X116172419Y-128196114D01*
X117172419Y-127767543D02*
X116648609Y-127767543D01*
X116648609Y-127767543D02*
X116553371Y-127815162D01*
X116553371Y-127815162D02*
X116505752Y-127910400D01*
X116505752Y-127910400D02*
X116505752Y-128053257D01*
X116505752Y-128053257D02*
X116553371Y-128148495D01*
X116553371Y-128148495D02*
X116600990Y-128196114D01*
X124386704Y-137143734D02*
X124386704Y-136667544D01*
X124672419Y-137238972D02*
X123672419Y-136905639D01*
X123672419Y-136905639D02*
X124672419Y-136572306D01*
X124672419Y-135762782D02*
X124672419Y-136238972D01*
X124672419Y-136238972D02*
X123672419Y-136238972D01*
X124672419Y-134905639D02*
X124672419Y-135477067D01*
X124672419Y-135191353D02*
X123672419Y-135191353D01*
X123672419Y-135191353D02*
X123815276Y-135286591D01*
X123815276Y-135286591D02*
X123910514Y-135381829D01*
X123910514Y-135381829D02*
X123958133Y-135477067D01*
X123672419Y-134572305D02*
X123672419Y-133953258D01*
X123672419Y-133953258D02*
X124053371Y-134286591D01*
X124053371Y-134286591D02*
X124053371Y-134143734D01*
X124053371Y-134143734D02*
X124100990Y-134048496D01*
X124100990Y-134048496D02*
X124148609Y-134000877D01*
X124148609Y-134000877D02*
X124243847Y-133953258D01*
X124243847Y-133953258D02*
X124481942Y-133953258D01*
X124481942Y-133953258D02*
X124577180Y-134000877D01*
X124577180Y-134000877D02*
X124624800Y-134048496D01*
X124624800Y-134048496D02*
X124672419Y-134143734D01*
X124672419Y-134143734D02*
X124672419Y-134429448D01*
X124672419Y-134429448D02*
X124624800Y-134524686D01*
X124624800Y-134524686D02*
X124577180Y-134572305D01*
X123672419Y-133619924D02*
X123672419Y-133000877D01*
X123672419Y-133000877D02*
X124053371Y-133334210D01*
X124053371Y-133334210D02*
X124053371Y-133191353D01*
X124053371Y-133191353D02*
X124100990Y-133096115D01*
X124100990Y-133096115D02*
X124148609Y-133048496D01*
X124148609Y-133048496D02*
X124243847Y-133000877D01*
X124243847Y-133000877D02*
X124481942Y-133000877D01*
X124481942Y-133000877D02*
X124577180Y-133048496D01*
X124577180Y-133048496D02*
X124624800Y-133096115D01*
X124624800Y-133096115D02*
X124672419Y-133191353D01*
X124672419Y-133191353D02*
X124672419Y-133477067D01*
X124672419Y-133477067D02*
X124624800Y-133572305D01*
X124624800Y-133572305D02*
X124577180Y-133619924D01*
X124148609Y-131477067D02*
X124196228Y-131334210D01*
X124196228Y-131334210D02*
X124243847Y-131286591D01*
X124243847Y-131286591D02*
X124339085Y-131238972D01*
X124339085Y-131238972D02*
X124481942Y-131238972D01*
X124481942Y-131238972D02*
X124577180Y-131286591D01*
X124577180Y-131286591D02*
X124624800Y-131334210D01*
X124624800Y-131334210D02*
X124672419Y-131429448D01*
X124672419Y-131429448D02*
X124672419Y-131810400D01*
X124672419Y-131810400D02*
X123672419Y-131810400D01*
X123672419Y-131810400D02*
X123672419Y-131477067D01*
X123672419Y-131477067D02*
X123720038Y-131381829D01*
X123720038Y-131381829D02*
X123767657Y-131334210D01*
X123767657Y-131334210D02*
X123862895Y-131286591D01*
X123862895Y-131286591D02*
X123958133Y-131286591D01*
X123958133Y-131286591D02*
X124053371Y-131334210D01*
X124053371Y-131334210D02*
X124100990Y-131381829D01*
X124100990Y-131381829D02*
X124148609Y-131477067D01*
X124148609Y-131477067D02*
X124148609Y-131810400D01*
X124672419Y-130667543D02*
X124624800Y-130762781D01*
X124624800Y-130762781D02*
X124577180Y-130810400D01*
X124577180Y-130810400D02*
X124481942Y-130858019D01*
X124481942Y-130858019D02*
X124196228Y-130858019D01*
X124196228Y-130858019D02*
X124100990Y-130810400D01*
X124100990Y-130810400D02*
X124053371Y-130762781D01*
X124053371Y-130762781D02*
X124005752Y-130667543D01*
X124005752Y-130667543D02*
X124005752Y-130524686D01*
X124005752Y-130524686D02*
X124053371Y-130429448D01*
X124053371Y-130429448D02*
X124100990Y-130381829D01*
X124100990Y-130381829D02*
X124196228Y-130334210D01*
X124196228Y-130334210D02*
X124481942Y-130334210D01*
X124481942Y-130334210D02*
X124577180Y-130381829D01*
X124577180Y-130381829D02*
X124624800Y-130429448D01*
X124624800Y-130429448D02*
X124672419Y-130524686D01*
X124672419Y-130524686D02*
X124672419Y-130667543D01*
X124672419Y-129905638D02*
X124005752Y-129905638D01*
X123672419Y-129905638D02*
X123720038Y-129953257D01*
X123720038Y-129953257D02*
X123767657Y-129905638D01*
X123767657Y-129905638D02*
X123720038Y-129858019D01*
X123720038Y-129858019D02*
X123672419Y-129905638D01*
X123672419Y-129905638D02*
X123767657Y-129905638D01*
X124672419Y-129286591D02*
X124624800Y-129381829D01*
X124624800Y-129381829D02*
X124529561Y-129429448D01*
X124529561Y-129429448D02*
X123672419Y-129429448D01*
X124624800Y-128524686D02*
X124672419Y-128619924D01*
X124672419Y-128619924D02*
X124672419Y-128810400D01*
X124672419Y-128810400D02*
X124624800Y-128905638D01*
X124624800Y-128905638D02*
X124529561Y-128953257D01*
X124529561Y-128953257D02*
X124148609Y-128953257D01*
X124148609Y-128953257D02*
X124053371Y-128905638D01*
X124053371Y-128905638D02*
X124005752Y-128810400D01*
X124005752Y-128810400D02*
X124005752Y-128619924D01*
X124005752Y-128619924D02*
X124053371Y-128524686D01*
X124053371Y-128524686D02*
X124148609Y-128477067D01*
X124148609Y-128477067D02*
X124243847Y-128477067D01*
X124243847Y-128477067D02*
X124339085Y-128953257D01*
X124672419Y-128048495D02*
X124005752Y-128048495D01*
X124196228Y-128048495D02*
X124100990Y-128000876D01*
X124100990Y-128000876D02*
X124053371Y-127953257D01*
X124053371Y-127953257D02*
X124005752Y-127858019D01*
X124005752Y-127858019D02*
X124005752Y-127762781D01*
X109524800Y-138043734D02*
X109572419Y-137900877D01*
X109572419Y-137900877D02*
X109572419Y-137662782D01*
X109572419Y-137662782D02*
X109524800Y-137567544D01*
X109524800Y-137567544D02*
X109477180Y-137519925D01*
X109477180Y-137519925D02*
X109381942Y-137472306D01*
X109381942Y-137472306D02*
X109286704Y-137472306D01*
X109286704Y-137472306D02*
X109191466Y-137519925D01*
X109191466Y-137519925D02*
X109143847Y-137567544D01*
X109143847Y-137567544D02*
X109096228Y-137662782D01*
X109096228Y-137662782D02*
X109048609Y-137853258D01*
X109048609Y-137853258D02*
X109000990Y-137948496D01*
X109000990Y-137948496D02*
X108953371Y-137996115D01*
X108953371Y-137996115D02*
X108858133Y-138043734D01*
X108858133Y-138043734D02*
X108762895Y-138043734D01*
X108762895Y-138043734D02*
X108667657Y-137996115D01*
X108667657Y-137996115D02*
X108620038Y-137948496D01*
X108620038Y-137948496D02*
X108572419Y-137853258D01*
X108572419Y-137853258D02*
X108572419Y-137615163D01*
X108572419Y-137615163D02*
X108620038Y-137472306D01*
X109572419Y-136519925D02*
X109572419Y-137091353D01*
X109572419Y-136805639D02*
X108572419Y-136805639D01*
X108572419Y-136805639D02*
X108715276Y-136900877D01*
X108715276Y-136900877D02*
X108810514Y-136996115D01*
X108810514Y-136996115D02*
X108858133Y-137091353D01*
X109572419Y-135567544D02*
X109572419Y-136138972D01*
X109572419Y-135853258D02*
X108572419Y-135853258D01*
X108572419Y-135853258D02*
X108715276Y-135948496D01*
X108715276Y-135948496D02*
X108810514Y-136043734D01*
X108810514Y-136043734D02*
X108858133Y-136138972D01*
X108572419Y-134186591D02*
X108572419Y-133996115D01*
X108572419Y-133996115D02*
X108620038Y-133900877D01*
X108620038Y-133900877D02*
X108715276Y-133805639D01*
X108715276Y-133805639D02*
X108905752Y-133758020D01*
X108905752Y-133758020D02*
X109239085Y-133758020D01*
X109239085Y-133758020D02*
X109429561Y-133805639D01*
X109429561Y-133805639D02*
X109524800Y-133900877D01*
X109524800Y-133900877D02*
X109572419Y-133996115D01*
X109572419Y-133996115D02*
X109572419Y-134186591D01*
X109572419Y-134186591D02*
X109524800Y-134281829D01*
X109524800Y-134281829D02*
X109429561Y-134377067D01*
X109429561Y-134377067D02*
X109239085Y-134424686D01*
X109239085Y-134424686D02*
X108905752Y-134424686D01*
X108905752Y-134424686D02*
X108715276Y-134377067D01*
X108715276Y-134377067D02*
X108620038Y-134281829D01*
X108620038Y-134281829D02*
X108572419Y-134186591D01*
X109572419Y-133329448D02*
X108905752Y-133329448D01*
X109000990Y-133329448D02*
X108953371Y-133281829D01*
X108953371Y-133281829D02*
X108905752Y-133186591D01*
X108905752Y-133186591D02*
X108905752Y-133043734D01*
X108905752Y-133043734D02*
X108953371Y-132948496D01*
X108953371Y-132948496D02*
X109048609Y-132900877D01*
X109048609Y-132900877D02*
X109572419Y-132900877D01*
X109048609Y-132900877D02*
X108953371Y-132853258D01*
X108953371Y-132853258D02*
X108905752Y-132758020D01*
X108905752Y-132758020D02*
X108905752Y-132615163D01*
X108905752Y-132615163D02*
X108953371Y-132519924D01*
X108953371Y-132519924D02*
X109048609Y-132472305D01*
X109048609Y-132472305D02*
X109572419Y-132472305D01*
X109524800Y-132043734D02*
X109572419Y-131948496D01*
X109572419Y-131948496D02*
X109572419Y-131758020D01*
X109572419Y-131758020D02*
X109524800Y-131662782D01*
X109524800Y-131662782D02*
X109429561Y-131615163D01*
X109429561Y-131615163D02*
X109381942Y-131615163D01*
X109381942Y-131615163D02*
X109286704Y-131662782D01*
X109286704Y-131662782D02*
X109239085Y-131758020D01*
X109239085Y-131758020D02*
X109239085Y-131900877D01*
X109239085Y-131900877D02*
X109191466Y-131996115D01*
X109191466Y-131996115D02*
X109096228Y-132043734D01*
X109096228Y-132043734D02*
X109048609Y-132043734D01*
X109048609Y-132043734D02*
X108953371Y-131996115D01*
X108953371Y-131996115D02*
X108905752Y-131900877D01*
X108905752Y-131900877D02*
X108905752Y-131758020D01*
X108905752Y-131758020D02*
X108953371Y-131662782D01*
X109572419Y-131186591D02*
X108572419Y-131186591D01*
X109191466Y-131091353D02*
X109572419Y-130805639D01*
X108905752Y-130805639D02*
X109286704Y-131186591D01*
X109572419Y-130377067D02*
X108905752Y-130377067D01*
X108572419Y-130377067D02*
X108620038Y-130424686D01*
X108620038Y-130424686D02*
X108667657Y-130377067D01*
X108667657Y-130377067D02*
X108620038Y-130329448D01*
X108620038Y-130329448D02*
X108572419Y-130377067D01*
X108572419Y-130377067D02*
X108667657Y-130377067D01*
X108905752Y-130043734D02*
X108905752Y-129662782D01*
X109572419Y-129900877D02*
X108715276Y-129900877D01*
X108715276Y-129900877D02*
X108620038Y-129853258D01*
X108620038Y-129853258D02*
X108572419Y-129758020D01*
X108572419Y-129758020D02*
X108572419Y-129662782D01*
X108905752Y-129472305D02*
X108905752Y-129091353D01*
X108572419Y-129329448D02*
X109429561Y-129329448D01*
X109429561Y-129329448D02*
X109524800Y-129281829D01*
X109524800Y-129281829D02*
X109572419Y-129186591D01*
X109572419Y-129186591D02*
X109572419Y-129091353D01*
X109524800Y-128377067D02*
X109572419Y-128472305D01*
X109572419Y-128472305D02*
X109572419Y-128662781D01*
X109572419Y-128662781D02*
X109524800Y-128758019D01*
X109524800Y-128758019D02*
X109429561Y-128805638D01*
X109429561Y-128805638D02*
X109048609Y-128805638D01*
X109048609Y-128805638D02*
X108953371Y-128758019D01*
X108953371Y-128758019D02*
X108905752Y-128662781D01*
X108905752Y-128662781D02*
X108905752Y-128472305D01*
X108905752Y-128472305D02*
X108953371Y-128377067D01*
X108953371Y-128377067D02*
X109048609Y-128329448D01*
X109048609Y-128329448D02*
X109143847Y-128329448D01*
X109143847Y-128329448D02*
X109239085Y-128805638D01*
X109572419Y-127900876D02*
X108905752Y-127900876D01*
X109096228Y-127900876D02*
X109000990Y-127853257D01*
X109000990Y-127853257D02*
X108953371Y-127805638D01*
X108953371Y-127805638D02*
X108905752Y-127710400D01*
X108905752Y-127710400D02*
X108905752Y-127615162D01*
X182961027Y-91872419D02*
X183532455Y-91872419D01*
X183246741Y-92872419D02*
X183246741Y-91872419D01*
X183770551Y-91872419D02*
X184437217Y-92872419D01*
X184437217Y-91872419D02*
X183770551Y-92872419D01*
D11*
X182393922Y-49969819D02*
X182965350Y-49969819D01*
X182679636Y-50969819D02*
X182679636Y-49969819D01*
X183298684Y-50969819D02*
X183298684Y-49969819D01*
X183727255Y-50969819D02*
X183727255Y-50446009D01*
X183727255Y-50446009D02*
X183679636Y-50350771D01*
X183679636Y-50350771D02*
X183584398Y-50303152D01*
X183584398Y-50303152D02*
X183441541Y-50303152D01*
X183441541Y-50303152D02*
X183346303Y-50350771D01*
X183346303Y-50350771D02*
X183298684Y-50398390D01*
X184584398Y-50922200D02*
X184489160Y-50969819D01*
X184489160Y-50969819D02*
X184298684Y-50969819D01*
X184298684Y-50969819D02*
X184203446Y-50922200D01*
X184203446Y-50922200D02*
X184155827Y-50826961D01*
X184155827Y-50826961D02*
X184155827Y-50446009D01*
X184155827Y-50446009D02*
X184203446Y-50350771D01*
X184203446Y-50350771D02*
X184298684Y-50303152D01*
X184298684Y-50303152D02*
X184489160Y-50303152D01*
X184489160Y-50303152D02*
X184584398Y-50350771D01*
X184584398Y-50350771D02*
X184632017Y-50446009D01*
X184632017Y-50446009D02*
X184632017Y-50541247D01*
X184632017Y-50541247D02*
X184155827Y-50636485D01*
X185060589Y-50969819D02*
X185060589Y-50303152D01*
X185060589Y-50493628D02*
X185108208Y-50398390D01*
X185108208Y-50398390D02*
X185155827Y-50350771D01*
X185155827Y-50350771D02*
X185251065Y-50303152D01*
X185251065Y-50303152D02*
X185346303Y-50303152D01*
X185679637Y-50969819D02*
X185679637Y-50303152D01*
X185679637Y-50398390D02*
X185727256Y-50350771D01*
X185727256Y-50350771D02*
X185822494Y-50303152D01*
X185822494Y-50303152D02*
X185965351Y-50303152D01*
X185965351Y-50303152D02*
X186060589Y-50350771D01*
X186060589Y-50350771D02*
X186108208Y-50446009D01*
X186108208Y-50446009D02*
X186108208Y-50969819D01*
X186108208Y-50446009D02*
X186155827Y-50350771D01*
X186155827Y-50350771D02*
X186251065Y-50303152D01*
X186251065Y-50303152D02*
X186393922Y-50303152D01*
X186393922Y-50303152D02*
X186489161Y-50350771D01*
X186489161Y-50350771D02*
X186536780Y-50446009D01*
X186536780Y-50446009D02*
X186536780Y-50969819D01*
X187155827Y-50969819D02*
X187060589Y-50922200D01*
X187060589Y-50922200D02*
X187012970Y-50874580D01*
X187012970Y-50874580D02*
X186965351Y-50779342D01*
X186965351Y-50779342D02*
X186965351Y-50493628D01*
X186965351Y-50493628D02*
X187012970Y-50398390D01*
X187012970Y-50398390D02*
X187060589Y-50350771D01*
X187060589Y-50350771D02*
X187155827Y-50303152D01*
X187155827Y-50303152D02*
X187298684Y-50303152D01*
X187298684Y-50303152D02*
X187393922Y-50350771D01*
X187393922Y-50350771D02*
X187441541Y-50398390D01*
X187441541Y-50398390D02*
X187489160Y-50493628D01*
X187489160Y-50493628D02*
X187489160Y-50779342D01*
X187489160Y-50779342D02*
X187441541Y-50874580D01*
X187441541Y-50874580D02*
X187393922Y-50922200D01*
X187393922Y-50922200D02*
X187298684Y-50969819D01*
X187298684Y-50969819D02*
X187155827Y-50969819D01*
D10*
X99424800Y-137243734D02*
X99472419Y-137100877D01*
X99472419Y-137100877D02*
X99472419Y-136862782D01*
X99472419Y-136862782D02*
X99424800Y-136767544D01*
X99424800Y-136767544D02*
X99377180Y-136719925D01*
X99377180Y-136719925D02*
X99281942Y-136672306D01*
X99281942Y-136672306D02*
X99186704Y-136672306D01*
X99186704Y-136672306D02*
X99091466Y-136719925D01*
X99091466Y-136719925D02*
X99043847Y-136767544D01*
X99043847Y-136767544D02*
X98996228Y-136862782D01*
X98996228Y-136862782D02*
X98948609Y-137053258D01*
X98948609Y-137053258D02*
X98900990Y-137148496D01*
X98900990Y-137148496D02*
X98853371Y-137196115D01*
X98853371Y-137196115D02*
X98758133Y-137243734D01*
X98758133Y-137243734D02*
X98662895Y-137243734D01*
X98662895Y-137243734D02*
X98567657Y-137196115D01*
X98567657Y-137196115D02*
X98520038Y-137148496D01*
X98520038Y-137148496D02*
X98472419Y-137053258D01*
X98472419Y-137053258D02*
X98472419Y-136815163D01*
X98472419Y-136815163D02*
X98520038Y-136672306D01*
X99424800Y-135862782D02*
X99472419Y-135958020D01*
X99472419Y-135958020D02*
X99472419Y-136148496D01*
X99472419Y-136148496D02*
X99424800Y-136243734D01*
X99424800Y-136243734D02*
X99329561Y-136291353D01*
X99329561Y-136291353D02*
X98948609Y-136291353D01*
X98948609Y-136291353D02*
X98853371Y-136243734D01*
X98853371Y-136243734D02*
X98805752Y-136148496D01*
X98805752Y-136148496D02*
X98805752Y-135958020D01*
X98805752Y-135958020D02*
X98853371Y-135862782D01*
X98853371Y-135862782D02*
X98948609Y-135815163D01*
X98948609Y-135815163D02*
X99043847Y-135815163D01*
X99043847Y-135815163D02*
X99139085Y-136291353D01*
X98805752Y-135386591D02*
X99472419Y-135386591D01*
X98900990Y-135386591D02*
X98853371Y-135338972D01*
X98853371Y-135338972D02*
X98805752Y-135243734D01*
X98805752Y-135243734D02*
X98805752Y-135100877D01*
X98805752Y-135100877D02*
X98853371Y-135005639D01*
X98853371Y-135005639D02*
X98948609Y-134958020D01*
X98948609Y-134958020D02*
X99472419Y-134958020D01*
X99424800Y-134529448D02*
X99472419Y-134434210D01*
X99472419Y-134434210D02*
X99472419Y-134243734D01*
X99472419Y-134243734D02*
X99424800Y-134148496D01*
X99424800Y-134148496D02*
X99329561Y-134100877D01*
X99329561Y-134100877D02*
X99281942Y-134100877D01*
X99281942Y-134100877D02*
X99186704Y-134148496D01*
X99186704Y-134148496D02*
X99139085Y-134243734D01*
X99139085Y-134243734D02*
X99139085Y-134386591D01*
X99139085Y-134386591D02*
X99091466Y-134481829D01*
X99091466Y-134481829D02*
X98996228Y-134529448D01*
X98996228Y-134529448D02*
X98948609Y-134529448D01*
X98948609Y-134529448D02*
X98853371Y-134481829D01*
X98853371Y-134481829D02*
X98805752Y-134386591D01*
X98805752Y-134386591D02*
X98805752Y-134243734D01*
X98805752Y-134243734D02*
X98853371Y-134148496D01*
X99472419Y-133529448D02*
X99424800Y-133624686D01*
X99424800Y-133624686D02*
X99377180Y-133672305D01*
X99377180Y-133672305D02*
X99281942Y-133719924D01*
X99281942Y-133719924D02*
X98996228Y-133719924D01*
X98996228Y-133719924D02*
X98900990Y-133672305D01*
X98900990Y-133672305D02*
X98853371Y-133624686D01*
X98853371Y-133624686D02*
X98805752Y-133529448D01*
X98805752Y-133529448D02*
X98805752Y-133386591D01*
X98805752Y-133386591D02*
X98853371Y-133291353D01*
X98853371Y-133291353D02*
X98900990Y-133243734D01*
X98900990Y-133243734D02*
X98996228Y-133196115D01*
X98996228Y-133196115D02*
X99281942Y-133196115D01*
X99281942Y-133196115D02*
X99377180Y-133243734D01*
X99377180Y-133243734D02*
X99424800Y-133291353D01*
X99424800Y-133291353D02*
X99472419Y-133386591D01*
X99472419Y-133386591D02*
X99472419Y-133529448D01*
X99472419Y-132767543D02*
X98805752Y-132767543D01*
X98996228Y-132767543D02*
X98900990Y-132719924D01*
X98900990Y-132719924D02*
X98853371Y-132672305D01*
X98853371Y-132672305D02*
X98805752Y-132577067D01*
X98805752Y-132577067D02*
X98805752Y-132481829D01*
X99424800Y-131434209D02*
X99472419Y-131291352D01*
X99472419Y-131291352D02*
X99472419Y-131053257D01*
X99472419Y-131053257D02*
X99424800Y-130958019D01*
X99424800Y-130958019D02*
X99377180Y-130910400D01*
X99377180Y-130910400D02*
X99281942Y-130862781D01*
X99281942Y-130862781D02*
X99186704Y-130862781D01*
X99186704Y-130862781D02*
X99091466Y-130910400D01*
X99091466Y-130910400D02*
X99043847Y-130958019D01*
X99043847Y-130958019D02*
X98996228Y-131053257D01*
X98996228Y-131053257D02*
X98948609Y-131243733D01*
X98948609Y-131243733D02*
X98900990Y-131338971D01*
X98900990Y-131338971D02*
X98853371Y-131386590D01*
X98853371Y-131386590D02*
X98758133Y-131434209D01*
X98758133Y-131434209D02*
X98662895Y-131434209D01*
X98662895Y-131434209D02*
X98567657Y-131386590D01*
X98567657Y-131386590D02*
X98520038Y-131338971D01*
X98520038Y-131338971D02*
X98472419Y-131243733D01*
X98472419Y-131243733D02*
X98472419Y-131005638D01*
X98472419Y-131005638D02*
X98520038Y-130862781D01*
X98805752Y-130434209D02*
X99472419Y-130434209D01*
X98900990Y-130434209D02*
X98853371Y-130386590D01*
X98853371Y-130386590D02*
X98805752Y-130291352D01*
X98805752Y-130291352D02*
X98805752Y-130148495D01*
X98805752Y-130148495D02*
X98853371Y-130053257D01*
X98853371Y-130053257D02*
X98948609Y-130005638D01*
X98948609Y-130005638D02*
X99472419Y-130005638D01*
X99424800Y-129148495D02*
X99472419Y-129243733D01*
X99472419Y-129243733D02*
X99472419Y-129434209D01*
X99472419Y-129434209D02*
X99424800Y-129529447D01*
X99424800Y-129529447D02*
X99329561Y-129577066D01*
X99329561Y-129577066D02*
X98948609Y-129577066D01*
X98948609Y-129577066D02*
X98853371Y-129529447D01*
X98853371Y-129529447D02*
X98805752Y-129434209D01*
X98805752Y-129434209D02*
X98805752Y-129243733D01*
X98805752Y-129243733D02*
X98853371Y-129148495D01*
X98853371Y-129148495D02*
X98948609Y-129100876D01*
X98948609Y-129100876D02*
X99043847Y-129100876D01*
X99043847Y-129100876D02*
X99139085Y-129577066D01*
X98805752Y-128243733D02*
X99615276Y-128243733D01*
X99615276Y-128243733D02*
X99710514Y-128291352D01*
X99710514Y-128291352D02*
X99758133Y-128338971D01*
X99758133Y-128338971D02*
X99805752Y-128434209D01*
X99805752Y-128434209D02*
X99805752Y-128577066D01*
X99805752Y-128577066D02*
X99758133Y-128672304D01*
X99424800Y-128243733D02*
X99472419Y-128338971D01*
X99472419Y-128338971D02*
X99472419Y-128529447D01*
X99472419Y-128529447D02*
X99424800Y-128624685D01*
X99424800Y-128624685D02*
X99377180Y-128672304D01*
X99377180Y-128672304D02*
X99281942Y-128719923D01*
X99281942Y-128719923D02*
X98996228Y-128719923D01*
X98996228Y-128719923D02*
X98900990Y-128672304D01*
X98900990Y-128672304D02*
X98853371Y-128624685D01*
X98853371Y-128624685D02*
X98805752Y-128529447D01*
X98805752Y-128529447D02*
X98805752Y-128338971D01*
X98805752Y-128338971D02*
X98853371Y-128243733D01*
X99472419Y-127624685D02*
X99424800Y-127719923D01*
X99424800Y-127719923D02*
X99329561Y-127767542D01*
X99329561Y-127767542D02*
X98472419Y-127767542D01*
X114572419Y-136396115D02*
X113572419Y-136396115D01*
X113572419Y-136396115D02*
X113572419Y-136158020D01*
X113572419Y-136158020D02*
X113620038Y-136015163D01*
X113620038Y-136015163D02*
X113715276Y-135919925D01*
X113715276Y-135919925D02*
X113810514Y-135872306D01*
X113810514Y-135872306D02*
X114000990Y-135824687D01*
X114000990Y-135824687D02*
X114143847Y-135824687D01*
X114143847Y-135824687D02*
X114334323Y-135872306D01*
X114334323Y-135872306D02*
X114429561Y-135919925D01*
X114429561Y-135919925D02*
X114524800Y-136015163D01*
X114524800Y-136015163D02*
X114572419Y-136158020D01*
X114572419Y-136158020D02*
X114572419Y-136396115D01*
X114572419Y-135253258D02*
X114524800Y-135348496D01*
X114524800Y-135348496D02*
X114477180Y-135396115D01*
X114477180Y-135396115D02*
X114381942Y-135443734D01*
X114381942Y-135443734D02*
X114096228Y-135443734D01*
X114096228Y-135443734D02*
X114000990Y-135396115D01*
X114000990Y-135396115D02*
X113953371Y-135348496D01*
X113953371Y-135348496D02*
X113905752Y-135253258D01*
X113905752Y-135253258D02*
X113905752Y-135110401D01*
X113905752Y-135110401D02*
X113953371Y-135015163D01*
X113953371Y-135015163D02*
X114000990Y-134967544D01*
X114000990Y-134967544D02*
X114096228Y-134919925D01*
X114096228Y-134919925D02*
X114381942Y-134919925D01*
X114381942Y-134919925D02*
X114477180Y-134967544D01*
X114477180Y-134967544D02*
X114524800Y-135015163D01*
X114524800Y-135015163D02*
X114572419Y-135110401D01*
X114572419Y-135110401D02*
X114572419Y-135253258D01*
X114572419Y-134348496D02*
X114524800Y-134443734D01*
X114524800Y-134443734D02*
X114477180Y-134491353D01*
X114477180Y-134491353D02*
X114381942Y-134538972D01*
X114381942Y-134538972D02*
X114096228Y-134538972D01*
X114096228Y-134538972D02*
X114000990Y-134491353D01*
X114000990Y-134491353D02*
X113953371Y-134443734D01*
X113953371Y-134443734D02*
X113905752Y-134348496D01*
X113905752Y-134348496D02*
X113905752Y-134205639D01*
X113905752Y-134205639D02*
X113953371Y-134110401D01*
X113953371Y-134110401D02*
X114000990Y-134062782D01*
X114000990Y-134062782D02*
X114096228Y-134015163D01*
X114096228Y-134015163D02*
X114381942Y-134015163D01*
X114381942Y-134015163D02*
X114477180Y-134062782D01*
X114477180Y-134062782D02*
X114524800Y-134110401D01*
X114524800Y-134110401D02*
X114572419Y-134205639D01*
X114572419Y-134205639D02*
X114572419Y-134348496D01*
X114572419Y-133586591D02*
X113905752Y-133586591D01*
X114096228Y-133586591D02*
X114000990Y-133538972D01*
X114000990Y-133538972D02*
X113953371Y-133491353D01*
X113953371Y-133491353D02*
X113905752Y-133396115D01*
X113905752Y-133396115D02*
X113905752Y-133300877D01*
X114524800Y-132253257D02*
X114572419Y-132110400D01*
X114572419Y-132110400D02*
X114572419Y-131872305D01*
X114572419Y-131872305D02*
X114524800Y-131777067D01*
X114524800Y-131777067D02*
X114477180Y-131729448D01*
X114477180Y-131729448D02*
X114381942Y-131681829D01*
X114381942Y-131681829D02*
X114286704Y-131681829D01*
X114286704Y-131681829D02*
X114191466Y-131729448D01*
X114191466Y-131729448D02*
X114143847Y-131777067D01*
X114143847Y-131777067D02*
X114096228Y-131872305D01*
X114096228Y-131872305D02*
X114048609Y-132062781D01*
X114048609Y-132062781D02*
X114000990Y-132158019D01*
X114000990Y-132158019D02*
X113953371Y-132205638D01*
X113953371Y-132205638D02*
X113858133Y-132253257D01*
X113858133Y-132253257D02*
X113762895Y-132253257D01*
X113762895Y-132253257D02*
X113667657Y-132205638D01*
X113667657Y-132205638D02*
X113620038Y-132158019D01*
X113620038Y-132158019D02*
X113572419Y-132062781D01*
X113572419Y-132062781D02*
X113572419Y-131824686D01*
X113572419Y-131824686D02*
X113620038Y-131681829D01*
X113905752Y-131348495D02*
X114572419Y-131158019D01*
X114572419Y-131158019D02*
X114096228Y-130967543D01*
X114096228Y-130967543D02*
X114572419Y-130777067D01*
X114572419Y-130777067D02*
X113905752Y-130586591D01*
X114572419Y-130205638D02*
X113905752Y-130205638D01*
X113572419Y-130205638D02*
X113620038Y-130253257D01*
X113620038Y-130253257D02*
X113667657Y-130205638D01*
X113667657Y-130205638D02*
X113620038Y-130158019D01*
X113620038Y-130158019D02*
X113572419Y-130205638D01*
X113572419Y-130205638D02*
X113667657Y-130205638D01*
X113905752Y-129872305D02*
X113905752Y-129491353D01*
X113572419Y-129729448D02*
X114429561Y-129729448D01*
X114429561Y-129729448D02*
X114524800Y-129681829D01*
X114524800Y-129681829D02*
X114572419Y-129586591D01*
X114572419Y-129586591D02*
X114572419Y-129491353D01*
X114524800Y-128729448D02*
X114572419Y-128824686D01*
X114572419Y-128824686D02*
X114572419Y-129015162D01*
X114572419Y-129015162D02*
X114524800Y-129110400D01*
X114524800Y-129110400D02*
X114477180Y-129158019D01*
X114477180Y-129158019D02*
X114381942Y-129205638D01*
X114381942Y-129205638D02*
X114096228Y-129205638D01*
X114096228Y-129205638D02*
X114000990Y-129158019D01*
X114000990Y-129158019D02*
X113953371Y-129110400D01*
X113953371Y-129110400D02*
X113905752Y-129015162D01*
X113905752Y-129015162D02*
X113905752Y-128824686D01*
X113905752Y-128824686D02*
X113953371Y-128729448D01*
X114572419Y-128300876D02*
X113572419Y-128300876D01*
X114572419Y-127872305D02*
X114048609Y-127872305D01*
X114048609Y-127872305D02*
X113953371Y-127919924D01*
X113953371Y-127919924D02*
X113905752Y-128015162D01*
X113905752Y-128015162D02*
X113905752Y-128158019D01*
X113905752Y-128158019D02*
X113953371Y-128253257D01*
X113953371Y-128253257D02*
X114000990Y-128300876D01*
X183475312Y-90372419D02*
X183141979Y-89896228D01*
X182903884Y-90372419D02*
X182903884Y-89372419D01*
X182903884Y-89372419D02*
X183284836Y-89372419D01*
X183284836Y-89372419D02*
X183380074Y-89420038D01*
X183380074Y-89420038D02*
X183427693Y-89467657D01*
X183427693Y-89467657D02*
X183475312Y-89562895D01*
X183475312Y-89562895D02*
X183475312Y-89705752D01*
X183475312Y-89705752D02*
X183427693Y-89800990D01*
X183427693Y-89800990D02*
X183380074Y-89848609D01*
X183380074Y-89848609D02*
X183284836Y-89896228D01*
X183284836Y-89896228D02*
X182903884Y-89896228D01*
X183808646Y-89372419D02*
X184475312Y-90372419D01*
X184475312Y-89372419D02*
X183808646Y-90372419D01*
X123772419Y-53091353D02*
X124772419Y-52424687D01*
X123772419Y-52424687D02*
X124772419Y-53091353D01*
X123867657Y-52091353D02*
X123820038Y-52043734D01*
X123820038Y-52043734D02*
X123772419Y-51948496D01*
X123772419Y-51948496D02*
X123772419Y-51710401D01*
X123772419Y-51710401D02*
X123820038Y-51615163D01*
X123820038Y-51615163D02*
X123867657Y-51567544D01*
X123867657Y-51567544D02*
X123962895Y-51519925D01*
X123962895Y-51519925D02*
X124058133Y-51519925D01*
X124058133Y-51519925D02*
X124200990Y-51567544D01*
X124200990Y-51567544D02*
X124772419Y-52138972D01*
X124772419Y-52138972D02*
X124772419Y-51519925D01*
X124105752Y-50662782D02*
X124772419Y-50662782D01*
X123724800Y-50900877D02*
X124439085Y-51138972D01*
X124439085Y-51138972D02*
X124439085Y-50519925D01*
D11*
X182870112Y-45346009D02*
X183012969Y-45393628D01*
X183012969Y-45393628D02*
X183060588Y-45441247D01*
X183060588Y-45441247D02*
X183108207Y-45536485D01*
X183108207Y-45536485D02*
X183108207Y-45679342D01*
X183108207Y-45679342D02*
X183060588Y-45774580D01*
X183060588Y-45774580D02*
X183012969Y-45822200D01*
X183012969Y-45822200D02*
X182917731Y-45869819D01*
X182917731Y-45869819D02*
X182536779Y-45869819D01*
X182536779Y-45869819D02*
X182536779Y-44869819D01*
X182536779Y-44869819D02*
X182870112Y-44869819D01*
X182870112Y-44869819D02*
X182965350Y-44917438D01*
X182965350Y-44917438D02*
X183012969Y-44965057D01*
X183012969Y-44965057D02*
X183060588Y-45060295D01*
X183060588Y-45060295D02*
X183060588Y-45155533D01*
X183060588Y-45155533D02*
X183012969Y-45250771D01*
X183012969Y-45250771D02*
X182965350Y-45298390D01*
X182965350Y-45298390D02*
X182870112Y-45346009D01*
X182870112Y-45346009D02*
X182536779Y-45346009D01*
X183679636Y-45869819D02*
X183584398Y-45822200D01*
X183584398Y-45822200D02*
X183536779Y-45774580D01*
X183536779Y-45774580D02*
X183489160Y-45679342D01*
X183489160Y-45679342D02*
X183489160Y-45393628D01*
X183489160Y-45393628D02*
X183536779Y-45298390D01*
X183536779Y-45298390D02*
X183584398Y-45250771D01*
X183584398Y-45250771D02*
X183679636Y-45203152D01*
X183679636Y-45203152D02*
X183822493Y-45203152D01*
X183822493Y-45203152D02*
X183917731Y-45250771D01*
X183917731Y-45250771D02*
X183965350Y-45298390D01*
X183965350Y-45298390D02*
X184012969Y-45393628D01*
X184012969Y-45393628D02*
X184012969Y-45679342D01*
X184012969Y-45679342D02*
X183965350Y-45774580D01*
X183965350Y-45774580D02*
X183917731Y-45822200D01*
X183917731Y-45822200D02*
X183822493Y-45869819D01*
X183822493Y-45869819D02*
X183679636Y-45869819D01*
X184441541Y-45869819D02*
X184441541Y-45203152D01*
X184441541Y-44869819D02*
X184393922Y-44917438D01*
X184393922Y-44917438D02*
X184441541Y-44965057D01*
X184441541Y-44965057D02*
X184489160Y-44917438D01*
X184489160Y-44917438D02*
X184441541Y-44869819D01*
X184441541Y-44869819D02*
X184441541Y-44965057D01*
X185060588Y-45869819D02*
X184965350Y-45822200D01*
X184965350Y-45822200D02*
X184917731Y-45726961D01*
X184917731Y-45726961D02*
X184917731Y-44869819D01*
X185822493Y-45822200D02*
X185727255Y-45869819D01*
X185727255Y-45869819D02*
X185536779Y-45869819D01*
X185536779Y-45869819D02*
X185441541Y-45822200D01*
X185441541Y-45822200D02*
X185393922Y-45726961D01*
X185393922Y-45726961D02*
X185393922Y-45346009D01*
X185393922Y-45346009D02*
X185441541Y-45250771D01*
X185441541Y-45250771D02*
X185536779Y-45203152D01*
X185536779Y-45203152D02*
X185727255Y-45203152D01*
X185727255Y-45203152D02*
X185822493Y-45250771D01*
X185822493Y-45250771D02*
X185870112Y-45346009D01*
X185870112Y-45346009D02*
X185870112Y-45441247D01*
X185870112Y-45441247D02*
X185393922Y-45536485D01*
X186298684Y-45869819D02*
X186298684Y-45203152D01*
X186298684Y-45393628D02*
X186346303Y-45298390D01*
X186346303Y-45298390D02*
X186393922Y-45250771D01*
X186393922Y-45250771D02*
X186489160Y-45203152D01*
X186489160Y-45203152D02*
X186584398Y-45203152D01*
D10*
X111072419Y-135038972D02*
X112072419Y-134705639D01*
X112072419Y-134705639D02*
X111072419Y-134372306D01*
X112072419Y-133610401D02*
X111548609Y-133610401D01*
X111548609Y-133610401D02*
X111453371Y-133658020D01*
X111453371Y-133658020D02*
X111405752Y-133753258D01*
X111405752Y-133753258D02*
X111405752Y-133943734D01*
X111405752Y-133943734D02*
X111453371Y-134038972D01*
X112024800Y-133610401D02*
X112072419Y-133705639D01*
X112072419Y-133705639D02*
X112072419Y-133943734D01*
X112072419Y-133943734D02*
X112024800Y-134038972D01*
X112024800Y-134038972D02*
X111929561Y-134086591D01*
X111929561Y-134086591D02*
X111834323Y-134086591D01*
X111834323Y-134086591D02*
X111739085Y-134038972D01*
X111739085Y-134038972D02*
X111691466Y-133943734D01*
X111691466Y-133943734D02*
X111691466Y-133705639D01*
X111691466Y-133705639D02*
X111643847Y-133610401D01*
X112072419Y-133134210D02*
X111405752Y-133134210D01*
X111596228Y-133134210D02*
X111500990Y-133086591D01*
X111500990Y-133086591D02*
X111453371Y-133038972D01*
X111453371Y-133038972D02*
X111405752Y-132943734D01*
X111405752Y-132943734D02*
X111405752Y-132848496D01*
X112072419Y-132515162D02*
X111405752Y-132515162D01*
X111500990Y-132515162D02*
X111453371Y-132467543D01*
X111453371Y-132467543D02*
X111405752Y-132372305D01*
X111405752Y-132372305D02*
X111405752Y-132229448D01*
X111405752Y-132229448D02*
X111453371Y-132134210D01*
X111453371Y-132134210D02*
X111548609Y-132086591D01*
X111548609Y-132086591D02*
X112072419Y-132086591D01*
X111548609Y-132086591D02*
X111453371Y-132038972D01*
X111453371Y-132038972D02*
X111405752Y-131943734D01*
X111405752Y-131943734D02*
X111405752Y-131800877D01*
X111405752Y-131800877D02*
X111453371Y-131705638D01*
X111453371Y-131705638D02*
X111548609Y-131658019D01*
X111548609Y-131658019D02*
X112072419Y-131658019D01*
X112024800Y-130800877D02*
X112072419Y-130896115D01*
X112072419Y-130896115D02*
X112072419Y-131086591D01*
X112072419Y-131086591D02*
X112024800Y-131181829D01*
X112024800Y-131181829D02*
X111929561Y-131229448D01*
X111929561Y-131229448D02*
X111548609Y-131229448D01*
X111548609Y-131229448D02*
X111453371Y-131181829D01*
X111453371Y-131181829D02*
X111405752Y-131086591D01*
X111405752Y-131086591D02*
X111405752Y-130896115D01*
X111405752Y-130896115D02*
X111453371Y-130800877D01*
X111453371Y-130800877D02*
X111548609Y-130753258D01*
X111548609Y-130753258D02*
X111643847Y-130753258D01*
X111643847Y-130753258D02*
X111739085Y-131229448D01*
X112072419Y-130324686D02*
X111072419Y-130324686D01*
X111691466Y-130229448D02*
X112072419Y-129943734D01*
X111405752Y-129943734D02*
X111786704Y-130324686D01*
X112072419Y-129086591D02*
X111548609Y-129086591D01*
X111548609Y-129086591D02*
X111453371Y-129134210D01*
X111453371Y-129134210D02*
X111405752Y-129229448D01*
X111405752Y-129229448D02*
X111405752Y-129419924D01*
X111405752Y-129419924D02*
X111453371Y-129515162D01*
X112024800Y-129086591D02*
X112072419Y-129181829D01*
X112072419Y-129181829D02*
X112072419Y-129419924D01*
X112072419Y-129419924D02*
X112024800Y-129515162D01*
X112024800Y-129515162D02*
X111929561Y-129562781D01*
X111929561Y-129562781D02*
X111834323Y-129562781D01*
X111834323Y-129562781D02*
X111739085Y-129515162D01*
X111739085Y-129515162D02*
X111691466Y-129419924D01*
X111691466Y-129419924D02*
X111691466Y-129181829D01*
X111691466Y-129181829D02*
X111643847Y-129086591D01*
X112072419Y-128467543D02*
X112024800Y-128562781D01*
X112024800Y-128562781D02*
X111929561Y-128610400D01*
X111929561Y-128610400D02*
X111072419Y-128610400D01*
X112072419Y-127658019D02*
X111072419Y-127658019D01*
X112024800Y-127658019D02*
X112072419Y-127753257D01*
X112072419Y-127753257D02*
X112072419Y-127943733D01*
X112072419Y-127943733D02*
X112024800Y-128038971D01*
X112024800Y-128038971D02*
X111977180Y-128086590D01*
X111977180Y-128086590D02*
X111881942Y-128134209D01*
X111881942Y-128134209D02*
X111596228Y-128134209D01*
X111596228Y-128134209D02*
X111500990Y-128086590D01*
X111500990Y-128086590D02*
X111453371Y-128038971D01*
X111453371Y-128038971D02*
X111405752Y-127943733D01*
X111405752Y-127943733D02*
X111405752Y-127753257D01*
X111405752Y-127753257D02*
X111453371Y-127658019D01*
X186327693Y-126872419D02*
X185756265Y-126872419D01*
X186041979Y-126872419D02*
X186041979Y-125872419D01*
X186041979Y-125872419D02*
X185946741Y-126015276D01*
X185946741Y-126015276D02*
X185851503Y-126110514D01*
X185851503Y-126110514D02*
X185756265Y-126158133D01*
X186708646Y-125967657D02*
X186756265Y-125920038D01*
X186756265Y-125920038D02*
X186851503Y-125872419D01*
X186851503Y-125872419D02*
X187089598Y-125872419D01*
X187089598Y-125872419D02*
X187184836Y-125920038D01*
X187184836Y-125920038D02*
X187232455Y-125967657D01*
X187232455Y-125967657D02*
X187280074Y-126062895D01*
X187280074Y-126062895D02*
X187280074Y-126158133D01*
X187280074Y-126158133D02*
X187232455Y-126300990D01*
X187232455Y-126300990D02*
X186661027Y-126872419D01*
X186661027Y-126872419D02*
X187280074Y-126872419D01*
X187565789Y-125872419D02*
X187899122Y-126872419D01*
X187899122Y-126872419D02*
X188232455Y-125872419D01*
X186327693Y-129520038D02*
X186232455Y-129472419D01*
X186232455Y-129472419D02*
X186089598Y-129472419D01*
X186089598Y-129472419D02*
X185946741Y-129520038D01*
X185946741Y-129520038D02*
X185851503Y-129615276D01*
X185851503Y-129615276D02*
X185803884Y-129710514D01*
X185803884Y-129710514D02*
X185756265Y-129900990D01*
X185756265Y-129900990D02*
X185756265Y-130043847D01*
X185756265Y-130043847D02*
X185803884Y-130234323D01*
X185803884Y-130234323D02*
X185851503Y-130329561D01*
X185851503Y-130329561D02*
X185946741Y-130424800D01*
X185946741Y-130424800D02*
X186089598Y-130472419D01*
X186089598Y-130472419D02*
X186184836Y-130472419D01*
X186184836Y-130472419D02*
X186327693Y-130424800D01*
X186327693Y-130424800D02*
X186375312Y-130377180D01*
X186375312Y-130377180D02*
X186375312Y-130043847D01*
X186375312Y-130043847D02*
X186184836Y-130043847D01*
X186803884Y-130472419D02*
X186803884Y-129472419D01*
X186803884Y-129472419D02*
X187375312Y-130472419D01*
X187375312Y-130472419D02*
X187375312Y-129472419D01*
X187851503Y-130472419D02*
X187851503Y-129472419D01*
X187851503Y-129472419D02*
X188089598Y-129472419D01*
X188089598Y-129472419D02*
X188232455Y-129520038D01*
X188232455Y-129520038D02*
X188327693Y-129615276D01*
X188327693Y-129615276D02*
X188375312Y-129710514D01*
X188375312Y-129710514D02*
X188422931Y-129900990D01*
X188422931Y-129900990D02*
X188422931Y-130043847D01*
X188422931Y-130043847D02*
X188375312Y-130234323D01*
X188375312Y-130234323D02*
X188327693Y-130329561D01*
X188327693Y-130329561D02*
X188232455Y-130424800D01*
X188232455Y-130424800D02*
X188089598Y-130472419D01*
X188089598Y-130472419D02*
X187851503Y-130472419D01*
X106924800Y-138043734D02*
X106972419Y-137900877D01*
X106972419Y-137900877D02*
X106972419Y-137662782D01*
X106972419Y-137662782D02*
X106924800Y-137567544D01*
X106924800Y-137567544D02*
X106877180Y-137519925D01*
X106877180Y-137519925D02*
X106781942Y-137472306D01*
X106781942Y-137472306D02*
X106686704Y-137472306D01*
X106686704Y-137472306D02*
X106591466Y-137519925D01*
X106591466Y-137519925D02*
X106543847Y-137567544D01*
X106543847Y-137567544D02*
X106496228Y-137662782D01*
X106496228Y-137662782D02*
X106448609Y-137853258D01*
X106448609Y-137853258D02*
X106400990Y-137948496D01*
X106400990Y-137948496D02*
X106353371Y-137996115D01*
X106353371Y-137996115D02*
X106258133Y-138043734D01*
X106258133Y-138043734D02*
X106162895Y-138043734D01*
X106162895Y-138043734D02*
X106067657Y-137996115D01*
X106067657Y-137996115D02*
X106020038Y-137948496D01*
X106020038Y-137948496D02*
X105972419Y-137853258D01*
X105972419Y-137853258D02*
X105972419Y-137615163D01*
X105972419Y-137615163D02*
X106020038Y-137472306D01*
X106972419Y-136519925D02*
X106972419Y-137091353D01*
X106972419Y-136805639D02*
X105972419Y-136805639D01*
X105972419Y-136805639D02*
X106115276Y-136900877D01*
X106115276Y-136900877D02*
X106210514Y-136996115D01*
X106210514Y-136996115D02*
X106258133Y-137091353D01*
X105972419Y-135900877D02*
X105972419Y-135805639D01*
X105972419Y-135805639D02*
X106020038Y-135710401D01*
X106020038Y-135710401D02*
X106067657Y-135662782D01*
X106067657Y-135662782D02*
X106162895Y-135615163D01*
X106162895Y-135615163D02*
X106353371Y-135567544D01*
X106353371Y-135567544D02*
X106591466Y-135567544D01*
X106591466Y-135567544D02*
X106781942Y-135615163D01*
X106781942Y-135615163D02*
X106877180Y-135662782D01*
X106877180Y-135662782D02*
X106924800Y-135710401D01*
X106924800Y-135710401D02*
X106972419Y-135805639D01*
X106972419Y-135805639D02*
X106972419Y-135900877D01*
X106972419Y-135900877D02*
X106924800Y-135996115D01*
X106924800Y-135996115D02*
X106877180Y-136043734D01*
X106877180Y-136043734D02*
X106781942Y-136091353D01*
X106781942Y-136091353D02*
X106591466Y-136138972D01*
X106591466Y-136138972D02*
X106353371Y-136138972D01*
X106353371Y-136138972D02*
X106162895Y-136091353D01*
X106162895Y-136091353D02*
X106067657Y-136043734D01*
X106067657Y-136043734D02*
X106020038Y-135996115D01*
X106020038Y-135996115D02*
X105972419Y-135900877D01*
X105972419Y-134186591D02*
X105972419Y-133996115D01*
X105972419Y-133996115D02*
X106020038Y-133900877D01*
X106020038Y-133900877D02*
X106115276Y-133805639D01*
X106115276Y-133805639D02*
X106305752Y-133758020D01*
X106305752Y-133758020D02*
X106639085Y-133758020D01*
X106639085Y-133758020D02*
X106829561Y-133805639D01*
X106829561Y-133805639D02*
X106924800Y-133900877D01*
X106924800Y-133900877D02*
X106972419Y-133996115D01*
X106972419Y-133996115D02*
X106972419Y-134186591D01*
X106972419Y-134186591D02*
X106924800Y-134281829D01*
X106924800Y-134281829D02*
X106829561Y-134377067D01*
X106829561Y-134377067D02*
X106639085Y-134424686D01*
X106639085Y-134424686D02*
X106305752Y-134424686D01*
X106305752Y-134424686D02*
X106115276Y-134377067D01*
X106115276Y-134377067D02*
X106020038Y-134281829D01*
X106020038Y-134281829D02*
X105972419Y-134186591D01*
X106972419Y-133329448D02*
X106305752Y-133329448D01*
X106400990Y-133329448D02*
X106353371Y-133281829D01*
X106353371Y-133281829D02*
X106305752Y-133186591D01*
X106305752Y-133186591D02*
X106305752Y-133043734D01*
X106305752Y-133043734D02*
X106353371Y-132948496D01*
X106353371Y-132948496D02*
X106448609Y-132900877D01*
X106448609Y-132900877D02*
X106972419Y-132900877D01*
X106448609Y-132900877D02*
X106353371Y-132853258D01*
X106353371Y-132853258D02*
X106305752Y-132758020D01*
X106305752Y-132758020D02*
X106305752Y-132615163D01*
X106305752Y-132615163D02*
X106353371Y-132519924D01*
X106353371Y-132519924D02*
X106448609Y-132472305D01*
X106448609Y-132472305D02*
X106972419Y-132472305D01*
X106924800Y-132043734D02*
X106972419Y-131948496D01*
X106972419Y-131948496D02*
X106972419Y-131758020D01*
X106972419Y-131758020D02*
X106924800Y-131662782D01*
X106924800Y-131662782D02*
X106829561Y-131615163D01*
X106829561Y-131615163D02*
X106781942Y-131615163D01*
X106781942Y-131615163D02*
X106686704Y-131662782D01*
X106686704Y-131662782D02*
X106639085Y-131758020D01*
X106639085Y-131758020D02*
X106639085Y-131900877D01*
X106639085Y-131900877D02*
X106591466Y-131996115D01*
X106591466Y-131996115D02*
X106496228Y-132043734D01*
X106496228Y-132043734D02*
X106448609Y-132043734D01*
X106448609Y-132043734D02*
X106353371Y-131996115D01*
X106353371Y-131996115D02*
X106305752Y-131900877D01*
X106305752Y-131900877D02*
X106305752Y-131758020D01*
X106305752Y-131758020D02*
X106353371Y-131662782D01*
X106972419Y-131186591D02*
X105972419Y-131186591D01*
X106591466Y-131091353D02*
X106972419Y-130805639D01*
X106305752Y-130805639D02*
X106686704Y-131186591D01*
X106972419Y-130377067D02*
X106305752Y-130377067D01*
X105972419Y-130377067D02*
X106020038Y-130424686D01*
X106020038Y-130424686D02*
X106067657Y-130377067D01*
X106067657Y-130377067D02*
X106020038Y-130329448D01*
X106020038Y-130329448D02*
X105972419Y-130377067D01*
X105972419Y-130377067D02*
X106067657Y-130377067D01*
X106305752Y-130043734D02*
X106305752Y-129662782D01*
X106972419Y-129900877D02*
X106115276Y-129900877D01*
X106115276Y-129900877D02*
X106020038Y-129853258D01*
X106020038Y-129853258D02*
X105972419Y-129758020D01*
X105972419Y-129758020D02*
X105972419Y-129662782D01*
X106305752Y-129472305D02*
X106305752Y-129091353D01*
X105972419Y-129329448D02*
X106829561Y-129329448D01*
X106829561Y-129329448D02*
X106924800Y-129281829D01*
X106924800Y-129281829D02*
X106972419Y-129186591D01*
X106972419Y-129186591D02*
X106972419Y-129091353D01*
X106924800Y-128377067D02*
X106972419Y-128472305D01*
X106972419Y-128472305D02*
X106972419Y-128662781D01*
X106972419Y-128662781D02*
X106924800Y-128758019D01*
X106924800Y-128758019D02*
X106829561Y-128805638D01*
X106829561Y-128805638D02*
X106448609Y-128805638D01*
X106448609Y-128805638D02*
X106353371Y-128758019D01*
X106353371Y-128758019D02*
X106305752Y-128662781D01*
X106305752Y-128662781D02*
X106305752Y-128472305D01*
X106305752Y-128472305D02*
X106353371Y-128377067D01*
X106353371Y-128377067D02*
X106448609Y-128329448D01*
X106448609Y-128329448D02*
X106543847Y-128329448D01*
X106543847Y-128329448D02*
X106639085Y-128805638D01*
X106972419Y-127900876D02*
X106305752Y-127900876D01*
X106496228Y-127900876D02*
X106400990Y-127853257D01*
X106400990Y-127853257D02*
X106353371Y-127805638D01*
X106353371Y-127805638D02*
X106305752Y-127710400D01*
X106305752Y-127710400D02*
X106305752Y-127615162D01*
X127372419Y-53096115D02*
X126372419Y-53096115D01*
X126848609Y-53096115D02*
X126848609Y-52524687D01*
X127372419Y-52524687D02*
X126372419Y-52524687D01*
X127324800Y-51667544D02*
X127372419Y-51762782D01*
X127372419Y-51762782D02*
X127372419Y-51953258D01*
X127372419Y-51953258D02*
X127324800Y-52048496D01*
X127324800Y-52048496D02*
X127229561Y-52096115D01*
X127229561Y-52096115D02*
X126848609Y-52096115D01*
X126848609Y-52096115D02*
X126753371Y-52048496D01*
X126753371Y-52048496D02*
X126705752Y-51953258D01*
X126705752Y-51953258D02*
X126705752Y-51762782D01*
X126705752Y-51762782D02*
X126753371Y-51667544D01*
X126753371Y-51667544D02*
X126848609Y-51619925D01*
X126848609Y-51619925D02*
X126943847Y-51619925D01*
X126943847Y-51619925D02*
X127039085Y-52096115D01*
X127372419Y-50762782D02*
X126372419Y-50762782D01*
X127324800Y-50762782D02*
X127372419Y-50858020D01*
X127372419Y-50858020D02*
X127372419Y-51048496D01*
X127372419Y-51048496D02*
X127324800Y-51143734D01*
X127324800Y-51143734D02*
X127277180Y-51191353D01*
X127277180Y-51191353D02*
X127181942Y-51238972D01*
X127181942Y-51238972D02*
X126896228Y-51238972D01*
X126896228Y-51238972D02*
X126800990Y-51191353D01*
X126800990Y-51191353D02*
X126753371Y-51143734D01*
X126753371Y-51143734D02*
X126705752Y-51048496D01*
X126705752Y-51048496D02*
X126705752Y-50858020D01*
X126705752Y-50858020D02*
X126753371Y-50762782D01*
X127324800Y-49905639D02*
X127372419Y-50000877D01*
X127372419Y-50000877D02*
X127372419Y-50191353D01*
X127372419Y-50191353D02*
X127324800Y-50286591D01*
X127324800Y-50286591D02*
X127229561Y-50334210D01*
X127229561Y-50334210D02*
X126848609Y-50334210D01*
X126848609Y-50334210D02*
X126753371Y-50286591D01*
X126753371Y-50286591D02*
X126705752Y-50191353D01*
X126705752Y-50191353D02*
X126705752Y-50000877D01*
X126705752Y-50000877D02*
X126753371Y-49905639D01*
X126753371Y-49905639D02*
X126848609Y-49858020D01*
X126848609Y-49858020D02*
X126943847Y-49858020D01*
X126943847Y-49858020D02*
X127039085Y-50334210D01*
X126705752Y-49572305D02*
X126705752Y-49191353D01*
X127372419Y-49429448D02*
X126515276Y-49429448D01*
X126515276Y-49429448D02*
X126420038Y-49381829D01*
X126420038Y-49381829D02*
X126372419Y-49286591D01*
X126372419Y-49286591D02*
X126372419Y-49191353D01*
X127372419Y-48715162D02*
X127324800Y-48810400D01*
X127324800Y-48810400D02*
X127229561Y-48858019D01*
X127229561Y-48858019D02*
X126372419Y-48858019D01*
X127372419Y-47905638D02*
X126848609Y-47905638D01*
X126848609Y-47905638D02*
X126753371Y-47953257D01*
X126753371Y-47953257D02*
X126705752Y-48048495D01*
X126705752Y-48048495D02*
X126705752Y-48238971D01*
X126705752Y-48238971D02*
X126753371Y-48334209D01*
X127324800Y-47905638D02*
X127372419Y-48000876D01*
X127372419Y-48000876D02*
X127372419Y-48238971D01*
X127372419Y-48238971D02*
X127324800Y-48334209D01*
X127324800Y-48334209D02*
X127229561Y-48381828D01*
X127229561Y-48381828D02*
X127134323Y-48381828D01*
X127134323Y-48381828D02*
X127039085Y-48334209D01*
X127039085Y-48334209D02*
X126991466Y-48238971D01*
X126991466Y-48238971D02*
X126991466Y-48000876D01*
X126991466Y-48000876D02*
X126943847Y-47905638D01*
X127372419Y-47000876D02*
X126372419Y-47000876D01*
X127324800Y-47000876D02*
X127372419Y-47096114D01*
X127372419Y-47096114D02*
X127372419Y-47286590D01*
X127372419Y-47286590D02*
X127324800Y-47381828D01*
X127324800Y-47381828D02*
X127277180Y-47429447D01*
X127277180Y-47429447D02*
X127181942Y-47477066D01*
X127181942Y-47477066D02*
X126896228Y-47477066D01*
X126896228Y-47477066D02*
X126800990Y-47429447D01*
X126800990Y-47429447D02*
X126753371Y-47381828D01*
X126753371Y-47381828D02*
X126705752Y-47286590D01*
X126705752Y-47286590D02*
X126705752Y-47096114D01*
X126705752Y-47096114D02*
X126753371Y-47000876D01*
X127324800Y-46143733D02*
X127372419Y-46238971D01*
X127372419Y-46238971D02*
X127372419Y-46429447D01*
X127372419Y-46429447D02*
X127324800Y-46524685D01*
X127324800Y-46524685D02*
X127229561Y-46572304D01*
X127229561Y-46572304D02*
X126848609Y-46572304D01*
X126848609Y-46572304D02*
X126753371Y-46524685D01*
X126753371Y-46524685D02*
X126705752Y-46429447D01*
X126705752Y-46429447D02*
X126705752Y-46238971D01*
X126705752Y-46238971D02*
X126753371Y-46143733D01*
X126753371Y-46143733D02*
X126848609Y-46096114D01*
X126848609Y-46096114D02*
X126943847Y-46096114D01*
X126943847Y-46096114D02*
X127039085Y-46572304D01*
X127372419Y-45667542D02*
X126705752Y-45667542D01*
X126896228Y-45667542D02*
X126800990Y-45619923D01*
X126800990Y-45619923D02*
X126753371Y-45572304D01*
X126753371Y-45572304D02*
X126705752Y-45477066D01*
X126705752Y-45477066D02*
X126705752Y-45381828D01*
X127324800Y-44667542D02*
X127372419Y-44762780D01*
X127372419Y-44762780D02*
X127372419Y-44953256D01*
X127372419Y-44953256D02*
X127324800Y-45048494D01*
X127324800Y-45048494D02*
X127229561Y-45096113D01*
X127229561Y-45096113D02*
X126848609Y-45096113D01*
X126848609Y-45096113D02*
X126753371Y-45048494D01*
X126753371Y-45048494D02*
X126705752Y-44953256D01*
X126705752Y-44953256D02*
X126705752Y-44762780D01*
X126705752Y-44762780D02*
X126753371Y-44667542D01*
X126753371Y-44667542D02*
X126848609Y-44619923D01*
X126848609Y-44619923D02*
X126943847Y-44619923D01*
X126943847Y-44619923D02*
X127039085Y-45096113D01*
X126705752Y-44191351D02*
X127372419Y-44191351D01*
X126800990Y-44191351D02*
X126753371Y-44143732D01*
X126753371Y-44143732D02*
X126705752Y-44048494D01*
X126705752Y-44048494D02*
X126705752Y-43905637D01*
X126705752Y-43905637D02*
X126753371Y-43810399D01*
X126753371Y-43810399D02*
X126848609Y-43762780D01*
X126848609Y-43762780D02*
X127372419Y-43762780D01*
X127324800Y-43334208D02*
X127372419Y-43238970D01*
X127372419Y-43238970D02*
X127372419Y-43048494D01*
X127372419Y-43048494D02*
X127324800Y-42953256D01*
X127324800Y-42953256D02*
X127229561Y-42905637D01*
X127229561Y-42905637D02*
X127181942Y-42905637D01*
X127181942Y-42905637D02*
X127086704Y-42953256D01*
X127086704Y-42953256D02*
X127039085Y-43048494D01*
X127039085Y-43048494D02*
X127039085Y-43191351D01*
X127039085Y-43191351D02*
X126991466Y-43286589D01*
X126991466Y-43286589D02*
X126896228Y-43334208D01*
X126896228Y-43334208D02*
X126848609Y-43334208D01*
X126848609Y-43334208D02*
X126753371Y-43286589D01*
X126753371Y-43286589D02*
X126705752Y-43191351D01*
X126705752Y-43191351D02*
X126705752Y-43048494D01*
X126705752Y-43048494D02*
X126753371Y-42953256D01*
X121072419Y-135338972D02*
X121072419Y-134767544D01*
X122072419Y-135053258D02*
X121072419Y-135053258D01*
X122072419Y-134434210D02*
X121405752Y-134434210D01*
X121596228Y-134434210D02*
X121500990Y-134386591D01*
X121500990Y-134386591D02*
X121453371Y-134338972D01*
X121453371Y-134338972D02*
X121405752Y-134243734D01*
X121405752Y-134243734D02*
X121405752Y-134148496D01*
X121405752Y-133910400D02*
X122072419Y-133672305D01*
X121405752Y-133434210D02*
X122072419Y-133672305D01*
X122072419Y-133672305D02*
X122310514Y-133767543D01*
X122310514Y-133767543D02*
X122358133Y-133815162D01*
X122358133Y-133815162D02*
X122405752Y-133910400D01*
X122072419Y-133053257D02*
X121072419Y-133053257D01*
X121691466Y-132958019D02*
X122072419Y-132672305D01*
X121405752Y-132672305D02*
X121786704Y-133053257D01*
X122024800Y-132291352D02*
X122072419Y-132196114D01*
X122072419Y-132196114D02*
X122072419Y-132005638D01*
X122072419Y-132005638D02*
X122024800Y-131910400D01*
X122024800Y-131910400D02*
X121929561Y-131862781D01*
X121929561Y-131862781D02*
X121881942Y-131862781D01*
X121881942Y-131862781D02*
X121786704Y-131910400D01*
X121786704Y-131910400D02*
X121739085Y-132005638D01*
X121739085Y-132005638D02*
X121739085Y-132148495D01*
X121739085Y-132148495D02*
X121691466Y-132243733D01*
X121691466Y-132243733D02*
X121596228Y-132291352D01*
X121596228Y-132291352D02*
X121548609Y-132291352D01*
X121548609Y-132291352D02*
X121453371Y-132243733D01*
X121453371Y-132243733D02*
X121405752Y-132148495D01*
X121405752Y-132148495D02*
X121405752Y-132005638D01*
X121405752Y-132005638D02*
X121453371Y-131910400D01*
X122024800Y-131053257D02*
X122072419Y-131148495D01*
X122072419Y-131148495D02*
X122072419Y-131338971D01*
X122072419Y-131338971D02*
X122024800Y-131434209D01*
X122024800Y-131434209D02*
X121929561Y-131481828D01*
X121929561Y-131481828D02*
X121548609Y-131481828D01*
X121548609Y-131481828D02*
X121453371Y-131434209D01*
X121453371Y-131434209D02*
X121405752Y-131338971D01*
X121405752Y-131338971D02*
X121405752Y-131148495D01*
X121405752Y-131148495D02*
X121453371Y-131053257D01*
X121453371Y-131053257D02*
X121548609Y-131005638D01*
X121548609Y-131005638D02*
X121643847Y-131005638D01*
X121643847Y-131005638D02*
X121739085Y-131481828D01*
X121405752Y-130577066D02*
X122072419Y-130577066D01*
X121500990Y-130577066D02*
X121453371Y-130529447D01*
X121453371Y-130529447D02*
X121405752Y-130434209D01*
X121405752Y-130434209D02*
X121405752Y-130291352D01*
X121405752Y-130291352D02*
X121453371Y-130196114D01*
X121453371Y-130196114D02*
X121548609Y-130148495D01*
X121548609Y-130148495D02*
X122072419Y-130148495D01*
X122024800Y-129719923D02*
X122072419Y-129624685D01*
X122072419Y-129624685D02*
X122072419Y-129434209D01*
X122072419Y-129434209D02*
X122024800Y-129338971D01*
X122024800Y-129338971D02*
X121929561Y-129291352D01*
X121929561Y-129291352D02*
X121881942Y-129291352D01*
X121881942Y-129291352D02*
X121786704Y-129338971D01*
X121786704Y-129338971D02*
X121739085Y-129434209D01*
X121739085Y-129434209D02*
X121739085Y-129577066D01*
X121739085Y-129577066D02*
X121691466Y-129672304D01*
X121691466Y-129672304D02*
X121596228Y-129719923D01*
X121596228Y-129719923D02*
X121548609Y-129719923D01*
X121548609Y-129719923D02*
X121453371Y-129672304D01*
X121453371Y-129672304D02*
X121405752Y-129577066D01*
X121405752Y-129577066D02*
X121405752Y-129434209D01*
X121405752Y-129434209D02*
X121453371Y-129338971D01*
X122072419Y-128719923D02*
X122024800Y-128815161D01*
X122024800Y-128815161D02*
X121977180Y-128862780D01*
X121977180Y-128862780D02*
X121881942Y-128910399D01*
X121881942Y-128910399D02*
X121596228Y-128910399D01*
X121596228Y-128910399D02*
X121500990Y-128862780D01*
X121500990Y-128862780D02*
X121453371Y-128815161D01*
X121453371Y-128815161D02*
X121405752Y-128719923D01*
X121405752Y-128719923D02*
X121405752Y-128577066D01*
X121405752Y-128577066D02*
X121453371Y-128481828D01*
X121453371Y-128481828D02*
X121500990Y-128434209D01*
X121500990Y-128434209D02*
X121596228Y-128386590D01*
X121596228Y-128386590D02*
X121881942Y-128386590D01*
X121881942Y-128386590D02*
X121977180Y-128434209D01*
X121977180Y-128434209D02*
X122024800Y-128481828D01*
X122024800Y-128481828D02*
X122072419Y-128577066D01*
X122072419Y-128577066D02*
X122072419Y-128719923D01*
X122072419Y-127958018D02*
X121405752Y-127958018D01*
X121596228Y-127958018D02*
X121500990Y-127910399D01*
X121500990Y-127910399D02*
X121453371Y-127862780D01*
X121453371Y-127862780D02*
X121405752Y-127767542D01*
X121405752Y-127767542D02*
X121405752Y-127672304D01*
X129586704Y-53043734D02*
X129586704Y-52567544D01*
X129872419Y-53138972D02*
X128872419Y-52805639D01*
X128872419Y-52805639D02*
X129872419Y-52472306D01*
X129824800Y-52186591D02*
X129872419Y-52091353D01*
X129872419Y-52091353D02*
X129872419Y-51900877D01*
X129872419Y-51900877D02*
X129824800Y-51805639D01*
X129824800Y-51805639D02*
X129729561Y-51758020D01*
X129729561Y-51758020D02*
X129681942Y-51758020D01*
X129681942Y-51758020D02*
X129586704Y-51805639D01*
X129586704Y-51805639D02*
X129539085Y-51900877D01*
X129539085Y-51900877D02*
X129539085Y-52043734D01*
X129539085Y-52043734D02*
X129491466Y-52138972D01*
X129491466Y-52138972D02*
X129396228Y-52186591D01*
X129396228Y-52186591D02*
X129348609Y-52186591D01*
X129348609Y-52186591D02*
X129253371Y-52138972D01*
X129253371Y-52138972D02*
X129205752Y-52043734D01*
X129205752Y-52043734D02*
X129205752Y-51900877D01*
X129205752Y-51900877D02*
X129253371Y-51805639D01*
X129872419Y-51329448D02*
X128872419Y-51329448D01*
X129491466Y-51234210D02*
X129872419Y-50948496D01*
X129205752Y-50948496D02*
X129586704Y-51329448D01*
X129824800Y-50138972D02*
X129872419Y-50234210D01*
X129872419Y-50234210D02*
X129872419Y-50424686D01*
X129872419Y-50424686D02*
X129824800Y-50519924D01*
X129824800Y-50519924D02*
X129729561Y-50567543D01*
X129729561Y-50567543D02*
X129348609Y-50567543D01*
X129348609Y-50567543D02*
X129253371Y-50519924D01*
X129253371Y-50519924D02*
X129205752Y-50424686D01*
X129205752Y-50424686D02*
X129205752Y-50234210D01*
X129205752Y-50234210D02*
X129253371Y-50138972D01*
X129253371Y-50138972D02*
X129348609Y-50091353D01*
X129348609Y-50091353D02*
X129443847Y-50091353D01*
X129443847Y-50091353D02*
X129539085Y-50567543D01*
X129824800Y-49710400D02*
X129872419Y-49615162D01*
X129872419Y-49615162D02*
X129872419Y-49424686D01*
X129872419Y-49424686D02*
X129824800Y-49329448D01*
X129824800Y-49329448D02*
X129729561Y-49281829D01*
X129729561Y-49281829D02*
X129681942Y-49281829D01*
X129681942Y-49281829D02*
X129586704Y-49329448D01*
X129586704Y-49329448D02*
X129539085Y-49424686D01*
X129539085Y-49424686D02*
X129539085Y-49567543D01*
X129539085Y-49567543D02*
X129491466Y-49662781D01*
X129491466Y-49662781D02*
X129396228Y-49710400D01*
X129396228Y-49710400D02*
X129348609Y-49710400D01*
X129348609Y-49710400D02*
X129253371Y-49662781D01*
X129253371Y-49662781D02*
X129205752Y-49567543D01*
X129205752Y-49567543D02*
X129205752Y-49424686D01*
X129205752Y-49424686D02*
X129253371Y-49329448D01*
X129205752Y-48853257D02*
X129872419Y-48853257D01*
X129300990Y-48853257D02*
X129253371Y-48805638D01*
X129253371Y-48805638D02*
X129205752Y-48710400D01*
X129205752Y-48710400D02*
X129205752Y-48567543D01*
X129205752Y-48567543D02*
X129253371Y-48472305D01*
X129253371Y-48472305D02*
X129348609Y-48424686D01*
X129348609Y-48424686D02*
X129872419Y-48424686D01*
X129824800Y-47567543D02*
X129872419Y-47662781D01*
X129872419Y-47662781D02*
X129872419Y-47853257D01*
X129872419Y-47853257D02*
X129824800Y-47948495D01*
X129824800Y-47948495D02*
X129729561Y-47996114D01*
X129729561Y-47996114D02*
X129348609Y-47996114D01*
X129348609Y-47996114D02*
X129253371Y-47948495D01*
X129253371Y-47948495D02*
X129205752Y-47853257D01*
X129205752Y-47853257D02*
X129205752Y-47662781D01*
X129205752Y-47662781D02*
X129253371Y-47567543D01*
X129253371Y-47567543D02*
X129348609Y-47519924D01*
X129348609Y-47519924D02*
X129443847Y-47519924D01*
X129443847Y-47519924D02*
X129539085Y-47996114D01*
X129205752Y-46662781D02*
X130015276Y-46662781D01*
X130015276Y-46662781D02*
X130110514Y-46710400D01*
X130110514Y-46710400D02*
X130158133Y-46758019D01*
X130158133Y-46758019D02*
X130205752Y-46853257D01*
X130205752Y-46853257D02*
X130205752Y-46996114D01*
X130205752Y-46996114D02*
X130158133Y-47091352D01*
X129824800Y-46662781D02*
X129872419Y-46758019D01*
X129872419Y-46758019D02*
X129872419Y-46948495D01*
X129872419Y-46948495D02*
X129824800Y-47043733D01*
X129824800Y-47043733D02*
X129777180Y-47091352D01*
X129777180Y-47091352D02*
X129681942Y-47138971D01*
X129681942Y-47138971D02*
X129396228Y-47138971D01*
X129396228Y-47138971D02*
X129300990Y-47091352D01*
X129300990Y-47091352D02*
X129253371Y-47043733D01*
X129253371Y-47043733D02*
X129205752Y-46948495D01*
X129205752Y-46948495D02*
X129205752Y-46758019D01*
X129205752Y-46758019D02*
X129253371Y-46662781D01*
X129872419Y-46043733D02*
X129824800Y-46138971D01*
X129824800Y-46138971D02*
X129729561Y-46186590D01*
X129729561Y-46186590D02*
X128872419Y-46186590D01*
X109572419Y-53196115D02*
X108572419Y-53196115D01*
X108572419Y-53196115D02*
X108572419Y-52815163D01*
X108572419Y-52815163D02*
X108620038Y-52719925D01*
X108620038Y-52719925D02*
X108667657Y-52672306D01*
X108667657Y-52672306D02*
X108762895Y-52624687D01*
X108762895Y-52624687D02*
X108905752Y-52624687D01*
X108905752Y-52624687D02*
X109000990Y-52672306D01*
X109000990Y-52672306D02*
X109048609Y-52719925D01*
X109048609Y-52719925D02*
X109096228Y-52815163D01*
X109096228Y-52815163D02*
X109096228Y-53196115D01*
X109572419Y-52196115D02*
X108905752Y-52196115D01*
X108572419Y-52196115D02*
X108620038Y-52243734D01*
X108620038Y-52243734D02*
X108667657Y-52196115D01*
X108667657Y-52196115D02*
X108620038Y-52148496D01*
X108620038Y-52148496D02*
X108572419Y-52196115D01*
X108572419Y-52196115D02*
X108667657Y-52196115D01*
X109572419Y-51577068D02*
X109524800Y-51672306D01*
X109524800Y-51672306D02*
X109429561Y-51719925D01*
X109429561Y-51719925D02*
X108572419Y-51719925D01*
X109572419Y-51053258D02*
X109524800Y-51148496D01*
X109524800Y-51148496D02*
X109429561Y-51196115D01*
X109429561Y-51196115D02*
X108572419Y-51196115D01*
X109524800Y-50291353D02*
X109572419Y-50386591D01*
X109572419Y-50386591D02*
X109572419Y-50577067D01*
X109572419Y-50577067D02*
X109524800Y-50672305D01*
X109524800Y-50672305D02*
X109429561Y-50719924D01*
X109429561Y-50719924D02*
X109048609Y-50719924D01*
X109048609Y-50719924D02*
X108953371Y-50672305D01*
X108953371Y-50672305D02*
X108905752Y-50577067D01*
X108905752Y-50577067D02*
X108905752Y-50386591D01*
X108905752Y-50386591D02*
X108953371Y-50291353D01*
X108953371Y-50291353D02*
X109048609Y-50243734D01*
X109048609Y-50243734D02*
X109143847Y-50243734D01*
X109143847Y-50243734D02*
X109239085Y-50719924D01*
X109524800Y-49862781D02*
X109572419Y-49767543D01*
X109572419Y-49767543D02*
X109572419Y-49577067D01*
X109572419Y-49577067D02*
X109524800Y-49481829D01*
X109524800Y-49481829D02*
X109429561Y-49434210D01*
X109429561Y-49434210D02*
X109381942Y-49434210D01*
X109381942Y-49434210D02*
X109286704Y-49481829D01*
X109286704Y-49481829D02*
X109239085Y-49577067D01*
X109239085Y-49577067D02*
X109239085Y-49719924D01*
X109239085Y-49719924D02*
X109191466Y-49815162D01*
X109191466Y-49815162D02*
X109096228Y-49862781D01*
X109096228Y-49862781D02*
X109048609Y-49862781D01*
X109048609Y-49862781D02*
X108953371Y-49815162D01*
X108953371Y-49815162D02*
X108905752Y-49719924D01*
X108905752Y-49719924D02*
X108905752Y-49577067D01*
X108905752Y-49577067D02*
X108953371Y-49481829D01*
X108905752Y-48577067D02*
X109572419Y-48577067D01*
X108905752Y-49005638D02*
X109429561Y-49005638D01*
X109429561Y-49005638D02*
X109524800Y-48958019D01*
X109524800Y-48958019D02*
X109572419Y-48862781D01*
X109572419Y-48862781D02*
X109572419Y-48719924D01*
X109572419Y-48719924D02*
X109524800Y-48624686D01*
X109524800Y-48624686D02*
X109477180Y-48577067D01*
X108905752Y-47672305D02*
X109715276Y-47672305D01*
X109715276Y-47672305D02*
X109810514Y-47719924D01*
X109810514Y-47719924D02*
X109858133Y-47767543D01*
X109858133Y-47767543D02*
X109905752Y-47862781D01*
X109905752Y-47862781D02*
X109905752Y-48005638D01*
X109905752Y-48005638D02*
X109858133Y-48100876D01*
X109524800Y-47672305D02*
X109572419Y-47767543D01*
X109572419Y-47767543D02*
X109572419Y-47958019D01*
X109572419Y-47958019D02*
X109524800Y-48053257D01*
X109524800Y-48053257D02*
X109477180Y-48100876D01*
X109477180Y-48100876D02*
X109381942Y-48148495D01*
X109381942Y-48148495D02*
X109096228Y-48148495D01*
X109096228Y-48148495D02*
X109000990Y-48100876D01*
X109000990Y-48100876D02*
X108953371Y-48053257D01*
X108953371Y-48053257D02*
X108905752Y-47958019D01*
X108905752Y-47958019D02*
X108905752Y-47767543D01*
X108905752Y-47767543D02*
X108953371Y-47672305D01*
X121986704Y-53043734D02*
X121986704Y-52567544D01*
X122272419Y-53138972D02*
X121272419Y-52805639D01*
X121272419Y-52805639D02*
X122272419Y-52472306D01*
X122224800Y-52186591D02*
X122272419Y-52091353D01*
X122272419Y-52091353D02*
X122272419Y-51900877D01*
X122272419Y-51900877D02*
X122224800Y-51805639D01*
X122224800Y-51805639D02*
X122129561Y-51758020D01*
X122129561Y-51758020D02*
X122081942Y-51758020D01*
X122081942Y-51758020D02*
X121986704Y-51805639D01*
X121986704Y-51805639D02*
X121939085Y-51900877D01*
X121939085Y-51900877D02*
X121939085Y-52043734D01*
X121939085Y-52043734D02*
X121891466Y-52138972D01*
X121891466Y-52138972D02*
X121796228Y-52186591D01*
X121796228Y-52186591D02*
X121748609Y-52186591D01*
X121748609Y-52186591D02*
X121653371Y-52138972D01*
X121653371Y-52138972D02*
X121605752Y-52043734D01*
X121605752Y-52043734D02*
X121605752Y-51900877D01*
X121605752Y-51900877D02*
X121653371Y-51805639D01*
X122272419Y-51329448D02*
X121272419Y-51329448D01*
X121891466Y-51234210D02*
X122272419Y-50948496D01*
X121605752Y-50948496D02*
X121986704Y-51329448D01*
X122224800Y-50138972D02*
X122272419Y-50234210D01*
X122272419Y-50234210D02*
X122272419Y-50424686D01*
X122272419Y-50424686D02*
X122224800Y-50519924D01*
X122224800Y-50519924D02*
X122129561Y-50567543D01*
X122129561Y-50567543D02*
X121748609Y-50567543D01*
X121748609Y-50567543D02*
X121653371Y-50519924D01*
X121653371Y-50519924D02*
X121605752Y-50424686D01*
X121605752Y-50424686D02*
X121605752Y-50234210D01*
X121605752Y-50234210D02*
X121653371Y-50138972D01*
X121653371Y-50138972D02*
X121748609Y-50091353D01*
X121748609Y-50091353D02*
X121843847Y-50091353D01*
X121843847Y-50091353D02*
X121939085Y-50567543D01*
X122272419Y-48424686D02*
X122272419Y-48900876D01*
X122272419Y-48900876D02*
X121272419Y-48900876D01*
X121605752Y-47662781D02*
X122272419Y-47662781D01*
X121605752Y-48091352D02*
X122129561Y-48091352D01*
X122129561Y-48091352D02*
X122224800Y-48043733D01*
X122224800Y-48043733D02*
X122272419Y-47948495D01*
X122272419Y-47948495D02*
X122272419Y-47805638D01*
X122272419Y-47805638D02*
X122224800Y-47710400D01*
X122224800Y-47710400D02*
X122177180Y-47662781D01*
X122272419Y-47186590D02*
X121272419Y-47186590D01*
X121891466Y-47091352D02*
X122272419Y-46805638D01*
X121605752Y-46805638D02*
X121986704Y-47186590D01*
X119524800Y-133943734D02*
X119572419Y-133800877D01*
X119572419Y-133800877D02*
X119572419Y-133562782D01*
X119572419Y-133562782D02*
X119524800Y-133467544D01*
X119524800Y-133467544D02*
X119477180Y-133419925D01*
X119477180Y-133419925D02*
X119381942Y-133372306D01*
X119381942Y-133372306D02*
X119286704Y-133372306D01*
X119286704Y-133372306D02*
X119191466Y-133419925D01*
X119191466Y-133419925D02*
X119143847Y-133467544D01*
X119143847Y-133467544D02*
X119096228Y-133562782D01*
X119096228Y-133562782D02*
X119048609Y-133753258D01*
X119048609Y-133753258D02*
X119000990Y-133848496D01*
X119000990Y-133848496D02*
X118953371Y-133896115D01*
X118953371Y-133896115D02*
X118858133Y-133943734D01*
X118858133Y-133943734D02*
X118762895Y-133943734D01*
X118762895Y-133943734D02*
X118667657Y-133896115D01*
X118667657Y-133896115D02*
X118620038Y-133848496D01*
X118620038Y-133848496D02*
X118572419Y-133753258D01*
X118572419Y-133753258D02*
X118572419Y-133515163D01*
X118572419Y-133515163D02*
X118620038Y-133372306D01*
X119572419Y-132943734D02*
X118905752Y-132943734D01*
X118572419Y-132943734D02*
X118620038Y-132991353D01*
X118620038Y-132991353D02*
X118667657Y-132943734D01*
X118667657Y-132943734D02*
X118620038Y-132896115D01*
X118620038Y-132896115D02*
X118572419Y-132943734D01*
X118572419Y-132943734D02*
X118667657Y-132943734D01*
X119572419Y-132324687D02*
X119524800Y-132419925D01*
X119524800Y-132419925D02*
X119429561Y-132467544D01*
X119429561Y-132467544D02*
X118572419Y-132467544D01*
X119572419Y-131800877D02*
X119524800Y-131896115D01*
X119524800Y-131896115D02*
X119477180Y-131943734D01*
X119477180Y-131943734D02*
X119381942Y-131991353D01*
X119381942Y-131991353D02*
X119096228Y-131991353D01*
X119096228Y-131991353D02*
X119000990Y-131943734D01*
X119000990Y-131943734D02*
X118953371Y-131896115D01*
X118953371Y-131896115D02*
X118905752Y-131800877D01*
X118905752Y-131800877D02*
X118905752Y-131658020D01*
X118905752Y-131658020D02*
X118953371Y-131562782D01*
X118953371Y-131562782D02*
X119000990Y-131515163D01*
X119000990Y-131515163D02*
X119096228Y-131467544D01*
X119096228Y-131467544D02*
X119381942Y-131467544D01*
X119381942Y-131467544D02*
X119477180Y-131515163D01*
X119477180Y-131515163D02*
X119524800Y-131562782D01*
X119524800Y-131562782D02*
X119572419Y-131658020D01*
X119572419Y-131658020D02*
X119572419Y-131800877D01*
X118572419Y-130419924D02*
X118572419Y-129848496D01*
X119572419Y-130134210D02*
X118572419Y-130134210D01*
X119572419Y-129372305D02*
X119524800Y-129467543D01*
X119524800Y-129467543D02*
X119477180Y-129515162D01*
X119477180Y-129515162D02*
X119381942Y-129562781D01*
X119381942Y-129562781D02*
X119096228Y-129562781D01*
X119096228Y-129562781D02*
X119000990Y-129515162D01*
X119000990Y-129515162D02*
X118953371Y-129467543D01*
X118953371Y-129467543D02*
X118905752Y-129372305D01*
X118905752Y-129372305D02*
X118905752Y-129229448D01*
X118905752Y-129229448D02*
X118953371Y-129134210D01*
X118953371Y-129134210D02*
X119000990Y-129086591D01*
X119000990Y-129086591D02*
X119096228Y-129038972D01*
X119096228Y-129038972D02*
X119381942Y-129038972D01*
X119381942Y-129038972D02*
X119477180Y-129086591D01*
X119477180Y-129086591D02*
X119524800Y-129134210D01*
X119524800Y-129134210D02*
X119572419Y-129229448D01*
X119572419Y-129229448D02*
X119572419Y-129372305D01*
X119572419Y-128610400D02*
X118905752Y-128610400D01*
X119000990Y-128610400D02*
X118953371Y-128562781D01*
X118953371Y-128562781D02*
X118905752Y-128467543D01*
X118905752Y-128467543D02*
X118905752Y-128324686D01*
X118905752Y-128324686D02*
X118953371Y-128229448D01*
X118953371Y-128229448D02*
X119048609Y-128181829D01*
X119048609Y-128181829D02*
X119572419Y-128181829D01*
X119048609Y-128181829D02*
X118953371Y-128134210D01*
X118953371Y-128134210D02*
X118905752Y-128038972D01*
X118905752Y-128038972D02*
X118905752Y-127896115D01*
X118905752Y-127896115D02*
X118953371Y-127800876D01*
X118953371Y-127800876D02*
X119048609Y-127753257D01*
X119048609Y-127753257D02*
X119572419Y-127753257D01*
X132472419Y-53096115D02*
X131472419Y-53096115D01*
X131472419Y-53096115D02*
X131472419Y-52715163D01*
X131472419Y-52715163D02*
X131520038Y-52619925D01*
X131520038Y-52619925D02*
X131567657Y-52572306D01*
X131567657Y-52572306D02*
X131662895Y-52524687D01*
X131662895Y-52524687D02*
X131805752Y-52524687D01*
X131805752Y-52524687D02*
X131900990Y-52572306D01*
X131900990Y-52572306D02*
X131948609Y-52619925D01*
X131948609Y-52619925D02*
X131996228Y-52715163D01*
X131996228Y-52715163D02*
X131996228Y-53096115D01*
X132472419Y-52096115D02*
X131805752Y-52096115D01*
X131472419Y-52096115D02*
X131520038Y-52143734D01*
X131520038Y-52143734D02*
X131567657Y-52096115D01*
X131567657Y-52096115D02*
X131520038Y-52048496D01*
X131520038Y-52048496D02*
X131472419Y-52096115D01*
X131472419Y-52096115D02*
X131567657Y-52096115D01*
X132472419Y-51477068D02*
X132424800Y-51572306D01*
X132424800Y-51572306D02*
X132329561Y-51619925D01*
X132329561Y-51619925D02*
X131472419Y-51619925D01*
X132472419Y-50953258D02*
X132424800Y-51048496D01*
X132424800Y-51048496D02*
X132329561Y-51096115D01*
X132329561Y-51096115D02*
X131472419Y-51096115D01*
X132424800Y-50191353D02*
X132472419Y-50286591D01*
X132472419Y-50286591D02*
X132472419Y-50477067D01*
X132472419Y-50477067D02*
X132424800Y-50572305D01*
X132424800Y-50572305D02*
X132329561Y-50619924D01*
X132329561Y-50619924D02*
X131948609Y-50619924D01*
X131948609Y-50619924D02*
X131853371Y-50572305D01*
X131853371Y-50572305D02*
X131805752Y-50477067D01*
X131805752Y-50477067D02*
X131805752Y-50286591D01*
X131805752Y-50286591D02*
X131853371Y-50191353D01*
X131853371Y-50191353D02*
X131948609Y-50143734D01*
X131948609Y-50143734D02*
X132043847Y-50143734D01*
X132043847Y-50143734D02*
X132139085Y-50619924D01*
X132424800Y-49762781D02*
X132472419Y-49667543D01*
X132472419Y-49667543D02*
X132472419Y-49477067D01*
X132472419Y-49477067D02*
X132424800Y-49381829D01*
X132424800Y-49381829D02*
X132329561Y-49334210D01*
X132329561Y-49334210D02*
X132281942Y-49334210D01*
X132281942Y-49334210D02*
X132186704Y-49381829D01*
X132186704Y-49381829D02*
X132139085Y-49477067D01*
X132139085Y-49477067D02*
X132139085Y-49619924D01*
X132139085Y-49619924D02*
X132091466Y-49715162D01*
X132091466Y-49715162D02*
X131996228Y-49762781D01*
X131996228Y-49762781D02*
X131948609Y-49762781D01*
X131948609Y-49762781D02*
X131853371Y-49715162D01*
X131853371Y-49715162D02*
X131805752Y-49619924D01*
X131805752Y-49619924D02*
X131805752Y-49477067D01*
X131805752Y-49477067D02*
X131853371Y-49381829D01*
X131805752Y-48905638D02*
X132472419Y-48905638D01*
X131900990Y-48905638D02*
X131853371Y-48858019D01*
X131853371Y-48858019D02*
X131805752Y-48762781D01*
X131805752Y-48762781D02*
X131805752Y-48619924D01*
X131805752Y-48619924D02*
X131853371Y-48524686D01*
X131853371Y-48524686D02*
X131948609Y-48477067D01*
X131948609Y-48477067D02*
X132472419Y-48477067D01*
X132424800Y-47619924D02*
X132472419Y-47715162D01*
X132472419Y-47715162D02*
X132472419Y-47905638D01*
X132472419Y-47905638D02*
X132424800Y-48000876D01*
X132424800Y-48000876D02*
X132329561Y-48048495D01*
X132329561Y-48048495D02*
X131948609Y-48048495D01*
X131948609Y-48048495D02*
X131853371Y-48000876D01*
X131853371Y-48000876D02*
X131805752Y-47905638D01*
X131805752Y-47905638D02*
X131805752Y-47715162D01*
X131805752Y-47715162D02*
X131853371Y-47619924D01*
X131853371Y-47619924D02*
X131948609Y-47572305D01*
X131948609Y-47572305D02*
X132043847Y-47572305D01*
X132043847Y-47572305D02*
X132139085Y-48048495D01*
X131805752Y-46715162D02*
X132615276Y-46715162D01*
X132615276Y-46715162D02*
X132710514Y-46762781D01*
X132710514Y-46762781D02*
X132758133Y-46810400D01*
X132758133Y-46810400D02*
X132805752Y-46905638D01*
X132805752Y-46905638D02*
X132805752Y-47048495D01*
X132805752Y-47048495D02*
X132758133Y-47143733D01*
X132424800Y-46715162D02*
X132472419Y-46810400D01*
X132472419Y-46810400D02*
X132472419Y-47000876D01*
X132472419Y-47000876D02*
X132424800Y-47096114D01*
X132424800Y-47096114D02*
X132377180Y-47143733D01*
X132377180Y-47143733D02*
X132281942Y-47191352D01*
X132281942Y-47191352D02*
X131996228Y-47191352D01*
X131996228Y-47191352D02*
X131900990Y-47143733D01*
X131900990Y-47143733D02*
X131853371Y-47096114D01*
X131853371Y-47096114D02*
X131805752Y-47000876D01*
X131805752Y-47000876D02*
X131805752Y-46810400D01*
X131805752Y-46810400D02*
X131853371Y-46715162D01*
X132472419Y-46096114D02*
X132424800Y-46191352D01*
X132424800Y-46191352D02*
X132329561Y-46238971D01*
X132329561Y-46238971D02*
X131472419Y-46238971D01*
D11*
X175404819Y-116283333D02*
X176119104Y-116283333D01*
X176119104Y-116283333D02*
X176261961Y-116330952D01*
X176261961Y-116330952D02*
X176357200Y-116426190D01*
X176357200Y-116426190D02*
X176404819Y-116569047D01*
X176404819Y-116569047D02*
X176404819Y-116664285D01*
X175738152Y-115378571D02*
X176404819Y-115378571D01*
X175357200Y-115616666D02*
X176071485Y-115854761D01*
X176071485Y-115854761D02*
X176071485Y-115235714D01*
X141484819Y-63233333D02*
X142199104Y-63233333D01*
X142199104Y-63233333D02*
X142341961Y-63280952D01*
X142341961Y-63280952D02*
X142437200Y-63376190D01*
X142437200Y-63376190D02*
X142484819Y-63519047D01*
X142484819Y-63519047D02*
X142484819Y-63614285D01*
X141580057Y-62804761D02*
X141532438Y-62757142D01*
X141532438Y-62757142D02*
X141484819Y-62661904D01*
X141484819Y-62661904D02*
X141484819Y-62423809D01*
X141484819Y-62423809D02*
X141532438Y-62328571D01*
X141532438Y-62328571D02*
X141580057Y-62280952D01*
X141580057Y-62280952D02*
X141675295Y-62233333D01*
X141675295Y-62233333D02*
X141770533Y-62233333D01*
X141770533Y-62233333D02*
X141913390Y-62280952D01*
X141913390Y-62280952D02*
X142484819Y-62852380D01*
X142484819Y-62852380D02*
X142484819Y-62233333D01*
X180166666Y-84524819D02*
X180166666Y-85239104D01*
X180166666Y-85239104D02*
X180119047Y-85381961D01*
X180119047Y-85381961D02*
X180023809Y-85477200D01*
X180023809Y-85477200D02*
X179880952Y-85524819D01*
X179880952Y-85524819D02*
X179785714Y-85524819D01*
X181071428Y-84524819D02*
X180880952Y-84524819D01*
X180880952Y-84524819D02*
X180785714Y-84572438D01*
X180785714Y-84572438D02*
X180738095Y-84620057D01*
X180738095Y-84620057D02*
X180642857Y-84762914D01*
X180642857Y-84762914D02*
X180595238Y-84953390D01*
X180595238Y-84953390D02*
X180595238Y-85334342D01*
X180595238Y-85334342D02*
X180642857Y-85429580D01*
X180642857Y-85429580D02*
X180690476Y-85477200D01*
X180690476Y-85477200D02*
X180785714Y-85524819D01*
X180785714Y-85524819D02*
X180976190Y-85524819D01*
X180976190Y-85524819D02*
X181071428Y-85477200D01*
X181071428Y-85477200D02*
X181119047Y-85429580D01*
X181119047Y-85429580D02*
X181166666Y-85334342D01*
X181166666Y-85334342D02*
X181166666Y-85096247D01*
X181166666Y-85096247D02*
X181119047Y-85001009D01*
X181119047Y-85001009D02*
X181071428Y-84953390D01*
X181071428Y-84953390D02*
X180976190Y-84905771D01*
X180976190Y-84905771D02*
X180785714Y-84905771D01*
X180785714Y-84905771D02*
X180690476Y-84953390D01*
X180690476Y-84953390D02*
X180642857Y-85001009D01*
X180642857Y-85001009D02*
X180595238Y-85096247D01*
X96064819Y-118205833D02*
X96779104Y-118205833D01*
X96779104Y-118205833D02*
X96921961Y-118253452D01*
X96921961Y-118253452D02*
X97017200Y-118348690D01*
X97017200Y-118348690D02*
X97064819Y-118491547D01*
X97064819Y-118491547D02*
X97064819Y-118586785D01*
X97064819Y-117205833D02*
X97064819Y-117777261D01*
X97064819Y-117491547D02*
X96064819Y-117491547D01*
X96064819Y-117491547D02*
X96207676Y-117586785D01*
X96207676Y-117586785D02*
X96302914Y-117682023D01*
X96302914Y-117682023D02*
X96350533Y-117777261D01*
X171409580Y-123098989D02*
X171457200Y-123146608D01*
X171457200Y-123146608D02*
X171504819Y-123289465D01*
X171504819Y-123289465D02*
X171504819Y-123384703D01*
X171504819Y-123384703D02*
X171457200Y-123527560D01*
X171457200Y-123527560D02*
X171361961Y-123622798D01*
X171361961Y-123622798D02*
X171266723Y-123670417D01*
X171266723Y-123670417D02*
X171076247Y-123718036D01*
X171076247Y-123718036D02*
X170933390Y-123718036D01*
X170933390Y-123718036D02*
X170742914Y-123670417D01*
X170742914Y-123670417D02*
X170647676Y-123622798D01*
X170647676Y-123622798D02*
X170552438Y-123527560D01*
X170552438Y-123527560D02*
X170504819Y-123384703D01*
X170504819Y-123384703D02*
X170504819Y-123289465D01*
X170504819Y-123289465D02*
X170552438Y-123146608D01*
X170552438Y-123146608D02*
X170600057Y-123098989D01*
X171504819Y-122622798D02*
X171504819Y-122432322D01*
X171504819Y-122432322D02*
X171457200Y-122337084D01*
X171457200Y-122337084D02*
X171409580Y-122289465D01*
X171409580Y-122289465D02*
X171266723Y-122194227D01*
X171266723Y-122194227D02*
X171076247Y-122146608D01*
X171076247Y-122146608D02*
X170695295Y-122146608D01*
X170695295Y-122146608D02*
X170600057Y-122194227D01*
X170600057Y-122194227D02*
X170552438Y-122241846D01*
X170552438Y-122241846D02*
X170504819Y-122337084D01*
X170504819Y-122337084D02*
X170504819Y-122527560D01*
X170504819Y-122527560D02*
X170552438Y-122622798D01*
X170552438Y-122622798D02*
X170600057Y-122670417D01*
X170600057Y-122670417D02*
X170695295Y-122718036D01*
X170695295Y-122718036D02*
X170933390Y-122718036D01*
X170933390Y-122718036D02*
X171028628Y-122670417D01*
X171028628Y-122670417D02*
X171076247Y-122622798D01*
X171076247Y-122622798D02*
X171123866Y-122527560D01*
X171123866Y-122527560D02*
X171123866Y-122337084D01*
X171123866Y-122337084D02*
X171076247Y-122241846D01*
X171076247Y-122241846D02*
X171028628Y-122194227D01*
X171028628Y-122194227D02*
X170933390Y-122146608D01*
X93664819Y-84641904D02*
X94474342Y-84641904D01*
X94474342Y-84641904D02*
X94569580Y-84594285D01*
X94569580Y-84594285D02*
X94617200Y-84546666D01*
X94617200Y-84546666D02*
X94664819Y-84451428D01*
X94664819Y-84451428D02*
X94664819Y-84260952D01*
X94664819Y-84260952D02*
X94617200Y-84165714D01*
X94617200Y-84165714D02*
X94569580Y-84118095D01*
X94569580Y-84118095D02*
X94474342Y-84070476D01*
X94474342Y-84070476D02*
X93664819Y-84070476D01*
X93664819Y-83689523D02*
X93664819Y-83070476D01*
X93664819Y-83070476D02*
X94045771Y-83403809D01*
X94045771Y-83403809D02*
X94045771Y-83260952D01*
X94045771Y-83260952D02*
X94093390Y-83165714D01*
X94093390Y-83165714D02*
X94141009Y-83118095D01*
X94141009Y-83118095D02*
X94236247Y-83070476D01*
X94236247Y-83070476D02*
X94474342Y-83070476D01*
X94474342Y-83070476D02*
X94569580Y-83118095D01*
X94569580Y-83118095D02*
X94617200Y-83165714D01*
X94617200Y-83165714D02*
X94664819Y-83260952D01*
X94664819Y-83260952D02*
X94664819Y-83546666D01*
X94664819Y-83546666D02*
X94617200Y-83641904D01*
X94617200Y-83641904D02*
X94569580Y-83689523D01*
X139684819Y-104451904D02*
X140494342Y-104451904D01*
X140494342Y-104451904D02*
X140589580Y-104404285D01*
X140589580Y-104404285D02*
X140637200Y-104356666D01*
X140637200Y-104356666D02*
X140684819Y-104261428D01*
X140684819Y-104261428D02*
X140684819Y-104070952D01*
X140684819Y-104070952D02*
X140637200Y-103975714D01*
X140637200Y-103975714D02*
X140589580Y-103928095D01*
X140589580Y-103928095D02*
X140494342Y-103880476D01*
X140494342Y-103880476D02*
X139684819Y-103880476D01*
X139780057Y-103451904D02*
X139732438Y-103404285D01*
X139732438Y-103404285D02*
X139684819Y-103309047D01*
X139684819Y-103309047D02*
X139684819Y-103070952D01*
X139684819Y-103070952D02*
X139732438Y-102975714D01*
X139732438Y-102975714D02*
X139780057Y-102928095D01*
X139780057Y-102928095D02*
X139875295Y-102880476D01*
X139875295Y-102880476D02*
X139970533Y-102880476D01*
X139970533Y-102880476D02*
X140113390Y-102928095D01*
X140113390Y-102928095D02*
X140684819Y-103499523D01*
X140684819Y-103499523D02*
X140684819Y-102880476D01*
X175304819Y-128583333D02*
X176019104Y-128583333D01*
X176019104Y-128583333D02*
X176161961Y-128630952D01*
X176161961Y-128630952D02*
X176257200Y-128726190D01*
X176257200Y-128726190D02*
X176304819Y-128869047D01*
X176304819Y-128869047D02*
X176304819Y-128964285D01*
X175304819Y-127630952D02*
X175304819Y-128107142D01*
X175304819Y-128107142D02*
X175781009Y-128154761D01*
X175781009Y-128154761D02*
X175733390Y-128107142D01*
X175733390Y-128107142D02*
X175685771Y-128011904D01*
X175685771Y-128011904D02*
X175685771Y-127773809D01*
X175685771Y-127773809D02*
X175733390Y-127678571D01*
X175733390Y-127678571D02*
X175781009Y-127630952D01*
X175781009Y-127630952D02*
X175876247Y-127583333D01*
X175876247Y-127583333D02*
X176114342Y-127583333D01*
X176114342Y-127583333D02*
X176209580Y-127630952D01*
X176209580Y-127630952D02*
X176257200Y-127678571D01*
X176257200Y-127678571D02*
X176304819Y-127773809D01*
X176304819Y-127773809D02*
X176304819Y-128011904D01*
X176304819Y-128011904D02*
X176257200Y-128107142D01*
X176257200Y-128107142D02*
X176209580Y-128154761D01*
X179566666Y-42524819D02*
X179566666Y-43239104D01*
X179566666Y-43239104D02*
X179519047Y-43381961D01*
X179519047Y-43381961D02*
X179423809Y-43477200D01*
X179423809Y-43477200D02*
X179280952Y-43524819D01*
X179280952Y-43524819D02*
X179185714Y-43524819D01*
X179947619Y-42524819D02*
X180566666Y-42524819D01*
X180566666Y-42524819D02*
X180233333Y-42905771D01*
X180233333Y-42905771D02*
X180376190Y-42905771D01*
X180376190Y-42905771D02*
X180471428Y-42953390D01*
X180471428Y-42953390D02*
X180519047Y-43001009D01*
X180519047Y-43001009D02*
X180566666Y-43096247D01*
X180566666Y-43096247D02*
X180566666Y-43334342D01*
X180566666Y-43334342D02*
X180519047Y-43429580D01*
X180519047Y-43429580D02*
X180471428Y-43477200D01*
X180471428Y-43477200D02*
X180376190Y-43524819D01*
X180376190Y-43524819D02*
X180090476Y-43524819D01*
X180090476Y-43524819D02*
X179995238Y-43477200D01*
X179995238Y-43477200D02*
X179947619Y-43429580D01*
X115964819Y-104431904D02*
X116774342Y-104431904D01*
X116774342Y-104431904D02*
X116869580Y-104384285D01*
X116869580Y-104384285D02*
X116917200Y-104336666D01*
X116917200Y-104336666D02*
X116964819Y-104241428D01*
X116964819Y-104241428D02*
X116964819Y-104050952D01*
X116964819Y-104050952D02*
X116917200Y-103955714D01*
X116917200Y-103955714D02*
X116869580Y-103908095D01*
X116869580Y-103908095D02*
X116774342Y-103860476D01*
X116774342Y-103860476D02*
X115964819Y-103860476D01*
X116964819Y-102860476D02*
X116964819Y-103431904D01*
X116964819Y-103146190D02*
X115964819Y-103146190D01*
X115964819Y-103146190D02*
X116107676Y-103241428D01*
X116107676Y-103241428D02*
X116202914Y-103336666D01*
X116202914Y-103336666D02*
X116250533Y-103431904D01*
D12*
%TO.C,R27*%
X128745000Y-121345436D02*
X128745000Y-121799564D01*
X130215000Y-121345436D02*
X130215000Y-121799564D01*
%TO.C,R49*%
X118665000Y-59339564D02*
X118665000Y-58885436D01*
X120135000Y-59339564D02*
X120135000Y-58885436D01*
%TO.C,D8*%
X115720000Y-123487500D02*
X115720000Y-126172500D01*
X117640000Y-123487500D02*
X115720000Y-123487500D01*
X117640000Y-126172500D02*
X117640000Y-123487500D01*
%TO.C,D11*%
X123320000Y-123487500D02*
X123320000Y-126172500D01*
X125240000Y-123487500D02*
X123320000Y-123487500D01*
X125240000Y-126172500D02*
X125240000Y-123487500D01*
%TO.C,R29*%
X170427064Y-52765000D02*
X169972936Y-52765000D01*
X170427064Y-54235000D02*
X169972936Y-54235000D01*
%TO.C,R45*%
X128765000Y-59339564D02*
X128765000Y-58885436D01*
X130235000Y-59339564D02*
X130235000Y-58885436D01*
%TO.C,R20*%
X110845000Y-121332936D02*
X110845000Y-121787064D01*
X112315000Y-121332936D02*
X112315000Y-121787064D01*
%TO.C,R5*%
X108345000Y-113832936D02*
X108345000Y-114287064D01*
X109815000Y-113832936D02*
X109815000Y-114287064D01*
%TO.C,J4*%
X176650000Y-120650000D02*
X176650000Y-118650000D01*
X177040000Y-111640000D02*
X177040000Y-120260000D01*
X177040000Y-120260000D02*
X184510000Y-120260000D01*
X177900000Y-120650000D02*
X176650000Y-120650000D01*
X178000000Y-112700000D02*
X179000000Y-112950000D01*
X178000000Y-115700000D02*
X178000000Y-112700000D01*
X178000000Y-116200000D02*
X179000000Y-116450000D01*
X178000000Y-119200000D02*
X178000000Y-116200000D01*
X179000000Y-112950000D02*
X179000000Y-113450000D01*
X179000000Y-113450000D02*
X179350000Y-113450000D01*
X179000000Y-114950000D02*
X179000000Y-115450000D01*
X179000000Y-115450000D02*
X178000000Y-115700000D01*
X179000000Y-116450000D02*
X179000000Y-116950000D01*
X179000000Y-116950000D02*
X179350000Y-116950000D01*
X179000000Y-118450000D02*
X179000000Y-118950000D01*
X179000000Y-118950000D02*
X178000000Y-119200000D01*
X179350000Y-112700000D02*
X183650000Y-112700000D01*
X179350000Y-113450000D02*
X179350000Y-112700000D01*
X179350000Y-114950000D02*
X179000000Y-114950000D01*
X179350000Y-115700000D02*
X179350000Y-114950000D01*
X179350000Y-116200000D02*
X183650000Y-116200000D01*
X179350000Y-116950000D02*
X179350000Y-116200000D01*
X179350000Y-118450000D02*
X179000000Y-118450000D01*
X179350000Y-119200000D02*
X179350000Y-118450000D01*
X183650000Y-112700000D02*
X183650000Y-113450000D01*
X183650000Y-114950000D02*
X183650000Y-115700000D01*
X183650000Y-115700000D02*
X179350000Y-115700000D01*
X183650000Y-116200000D02*
X183650000Y-116950000D01*
X183650000Y-118450000D02*
X183650000Y-119200000D01*
X183650000Y-119200000D02*
X179350000Y-119200000D01*
X184510000Y-111640000D02*
X177040000Y-111640000D01*
X184510000Y-120260000D02*
X184510000Y-111640000D01*
X183650000Y-114950000D02*
G75*
G02*
X183649844Y-113450353I1700000J750000D01*
G01*
X183650000Y-118450000D02*
G75*
G02*
X183649844Y-116950353I1700000J750000D01*
G01*
%TO.C,R1*%
X98245000Y-113857936D02*
X98245000Y-114312064D01*
X99715000Y-113857936D02*
X99715000Y-114312064D01*
%TO.C,D17*%
X128540000Y-54537500D02*
X128540000Y-57222500D01*
X128540000Y-57222500D02*
X130460000Y-57222500D01*
X130460000Y-57222500D02*
X130460000Y-54537500D01*
%TO.C,J2*%
X102810000Y-61570000D02*
X102810000Y-64230000D01*
X138430000Y-61570000D02*
X102810000Y-61570000D01*
X138430000Y-61570000D02*
X138430000Y-64230000D01*
X138430000Y-64230000D02*
X102810000Y-64230000D01*
X139700000Y-61570000D02*
X141030000Y-61570000D01*
X141030000Y-61570000D02*
X141030000Y-62900000D01*
%TO.C,R57*%
X105865000Y-103560436D02*
X105865000Y-104014564D01*
X107335000Y-103560436D02*
X107335000Y-104014564D01*
%TO.C,C6*%
X174165000Y-56088748D02*
X174165000Y-56611252D01*
X175635000Y-56088748D02*
X175635000Y-56611252D01*
%TO.C,R43*%
X166814564Y-56765000D02*
X166360436Y-56765000D01*
X166814564Y-58235000D02*
X166360436Y-58235000D01*
%TO.C,D2*%
X100520000Y-123487500D02*
X100520000Y-126172500D01*
X102440000Y-123487500D02*
X100520000Y-123487500D01*
X102440000Y-126172500D02*
X102440000Y-123487500D01*
%TO.C,C5*%
X172065000Y-56088748D02*
X172065000Y-56611252D01*
X173535000Y-56088748D02*
X173535000Y-56611252D01*
%TO.C,R25*%
X123545000Y-121345436D02*
X123545000Y-121799564D01*
X125015000Y-121345436D02*
X125015000Y-121799564D01*
%TO.C,D13*%
X128520000Y-123487500D02*
X128520000Y-126172500D01*
X130440000Y-123487500D02*
X128520000Y-123487500D01*
X130440000Y-126172500D02*
X130440000Y-123487500D01*
%TO.C,R55*%
X100765000Y-103585436D02*
X100765000Y-104039564D01*
X102235000Y-103585436D02*
X102235000Y-104039564D01*
%TO.C,R46*%
X126265000Y-59339564D02*
X126265000Y-58885436D01*
X127735000Y-59339564D02*
X127735000Y-58885436D01*
%TO.C,R8*%
X115945000Y-113857936D02*
X115945000Y-114312064D01*
X117415000Y-113857936D02*
X117415000Y-114312064D01*
%TO.C,D19*%
X123440000Y-54537500D02*
X123440000Y-57222500D01*
X123440000Y-57222500D02*
X125360000Y-57222500D01*
X125360000Y-57222500D02*
X125360000Y-54537500D01*
%TO.C,R54*%
X98165000Y-103560436D02*
X98165000Y-104014564D01*
X99635000Y-103560436D02*
X99635000Y-104014564D01*
%TO.C,C1*%
X171890000Y-65113748D02*
X171890000Y-65636252D01*
X173360000Y-65113748D02*
X173360000Y-65636252D01*
%TO.C,D7*%
X113220000Y-123487500D02*
X113220000Y-126172500D01*
X115140000Y-123487500D02*
X113220000Y-123487500D01*
X115140000Y-126172500D02*
X115140000Y-123487500D01*
%TO.C,C4*%
X174190000Y-74363748D02*
X174190000Y-74886252D01*
X175660000Y-74363748D02*
X175660000Y-74886252D01*
%TO.C,R47*%
X123665000Y-59339564D02*
X123665000Y-58885436D01*
X125135000Y-59339564D02*
X125135000Y-58885436D01*
%TO.C,R26*%
X126145000Y-121345436D02*
X126145000Y-121799564D01*
X127615000Y-121345436D02*
X127615000Y-121799564D01*
%TO.C,D5*%
X108120000Y-123487500D02*
X108120000Y-126172500D01*
X110040000Y-123487500D02*
X108120000Y-123487500D01*
X110040000Y-126172500D02*
X110040000Y-123487500D01*
%TO.C,R17*%
X103245000Y-121345436D02*
X103245000Y-121799564D01*
X104715000Y-121345436D02*
X104715000Y-121799564D01*
%TO.C,R42*%
X174452064Y-71040000D02*
X173997936Y-71040000D01*
X174452064Y-72510000D02*
X173997936Y-72510000D01*
%TO.C,R63*%
X126965000Y-103585436D02*
X126965000Y-104039564D01*
X128435000Y-103585436D02*
X128435000Y-104039564D01*
%TO.C,J6*%
X179170000Y-86070000D02*
X180500000Y-86070000D01*
X179170000Y-87400000D02*
X179170000Y-86070000D01*
X179170000Y-88670000D02*
X179170000Y-101430000D01*
X179170000Y-88670000D02*
X181830000Y-88670000D01*
X179170000Y-101430000D02*
X181830000Y-101430000D01*
X181830000Y-88670000D02*
X181830000Y-101430000D01*
%TO.C,R36*%
X169865000Y-47160436D02*
X169865000Y-47614564D01*
X171335000Y-47160436D02*
X171335000Y-47614564D01*
%TO.C,J1*%
X97610000Y-119202500D02*
X97610000Y-117872500D01*
X98940000Y-119202500D02*
X97610000Y-119202500D01*
X100210000Y-116542500D02*
X133290000Y-116542500D01*
X100210000Y-119202500D02*
X100210000Y-116542500D01*
X100210000Y-119202500D02*
X133290000Y-119202500D01*
X133290000Y-119202500D02*
X133290000Y-116542500D01*
%TO.C,R12*%
X126145000Y-113832936D02*
X126145000Y-114287064D01*
X127615000Y-113832936D02*
X127615000Y-114287064D01*
%TO.C,R10*%
X121045000Y-113845436D02*
X121045000Y-114299564D01*
X122515000Y-113845436D02*
X122515000Y-114299564D01*
%TO.C,R67*%
X136365000Y-103585436D02*
X136365000Y-104039564D01*
X137835000Y-103585436D02*
X137835000Y-104039564D01*
%TO.C,R37*%
X174414564Y-43840000D02*
X173960436Y-43840000D01*
X174414564Y-45310000D02*
X173960436Y-45310000D01*
%TO.C,R28*%
X131245000Y-121332936D02*
X131245000Y-121787064D01*
X132715000Y-121332936D02*
X132715000Y-121787064D01*
%TO.C,R19*%
X108345000Y-121332936D02*
X108345000Y-121787064D01*
X109815000Y-121332936D02*
X109815000Y-121787064D01*
%TO.C,C9*%
X163559000Y-124213323D02*
X159882000Y-124213323D01*
X163559000Y-124253323D02*
X159893000Y-124253323D01*
X163559000Y-124293323D02*
X159903000Y-124293323D01*
X163559000Y-124333323D02*
X159915000Y-124333323D01*
X163559000Y-124373323D02*
X159926000Y-124373323D01*
X163559000Y-124413323D02*
X159938000Y-124413323D01*
X163559000Y-124453323D02*
X159950000Y-124453323D01*
X163559000Y-124493323D02*
X159963000Y-124493323D01*
X163559000Y-124533323D02*
X159976000Y-124533323D01*
X163559000Y-124573323D02*
X159989000Y-124573323D01*
X163559000Y-124613323D02*
X160003000Y-124613323D01*
X163559000Y-124653323D02*
X160017000Y-124653323D01*
X163559000Y-124693323D02*
X160032000Y-124693323D01*
X163559000Y-124733323D02*
X160046000Y-124733323D01*
X163559000Y-124773323D02*
X160062000Y-124773323D01*
X163559000Y-124813323D02*
X160077000Y-124813323D01*
X163559000Y-124853323D02*
X160093000Y-124853323D01*
X163559000Y-124893323D02*
X160110000Y-124893323D01*
X163559000Y-124933323D02*
X160126000Y-124933323D01*
X163559000Y-124973323D02*
X160143000Y-124973323D01*
X163559000Y-125013323D02*
X160161000Y-125013323D01*
X163559000Y-125053323D02*
X160179000Y-125053323D01*
X163559000Y-125093323D02*
X160197000Y-125093323D01*
X163559000Y-125133323D02*
X160216000Y-125133323D01*
X163559000Y-125173323D02*
X160236000Y-125173323D01*
X163559000Y-125213323D02*
X160255000Y-125213323D01*
X163559000Y-125253323D02*
X160275000Y-125253323D01*
X163559000Y-125293323D02*
X160296000Y-125293323D01*
X163559000Y-125333323D02*
X160317000Y-125333323D01*
X163559000Y-125373323D02*
X160338000Y-125373323D01*
X163559000Y-125413323D02*
X160360000Y-125413323D01*
X163559000Y-125453323D02*
X160383000Y-125453323D01*
X163559000Y-125493323D02*
X160405000Y-125493323D01*
X163559000Y-125533323D02*
X160429000Y-125533323D01*
X163559000Y-125573323D02*
X160453000Y-125573323D01*
X163559000Y-125613323D02*
X160477000Y-125613323D01*
X163559000Y-125653323D02*
X160502000Y-125653323D01*
X163559000Y-125693323D02*
X160527000Y-125693323D01*
X163559000Y-125733323D02*
X160553000Y-125733323D01*
X163559000Y-125773323D02*
X160579000Y-125773323D01*
X163559000Y-125813323D02*
X160606000Y-125813323D01*
X163559000Y-125853323D02*
X160634000Y-125853323D01*
X163559000Y-125893323D02*
X160662000Y-125893323D01*
X163559000Y-125933323D02*
X160690000Y-125933323D01*
X163559000Y-125973323D02*
X160720000Y-125973323D01*
X163559000Y-126013323D02*
X160750000Y-126013323D01*
X163559000Y-126053323D02*
X160780000Y-126053323D01*
X163559000Y-126093323D02*
X160811000Y-126093323D01*
X163559000Y-126133323D02*
X160843000Y-126133323D01*
X163559000Y-126173323D02*
X160875000Y-126173323D01*
X163559000Y-126213323D02*
X160908000Y-126213323D01*
X163559000Y-126253323D02*
X160942000Y-126253323D01*
X163559000Y-126293323D02*
X160976000Y-126293323D01*
X163559000Y-126333323D02*
X161011000Y-126333323D01*
X163559000Y-126373323D02*
X161047000Y-126373323D01*
X163559000Y-126413323D02*
X161084000Y-126413323D01*
X163559000Y-126453323D02*
X161121000Y-126453323D01*
X163559000Y-126493323D02*
X161160000Y-126493323D01*
X163559000Y-126533323D02*
X161199000Y-126533323D01*
X163559000Y-126573323D02*
X161239000Y-126573323D01*
X163559000Y-126613323D02*
X161280000Y-126613323D01*
X163559000Y-126653323D02*
X161322000Y-126653323D01*
X165399000Y-128013323D02*
X164201000Y-128013323D01*
X165662000Y-127973323D02*
X163938000Y-127973323D01*
X165862000Y-127933323D02*
X163738000Y-127933323D01*
X166030000Y-127893323D02*
X163570000Y-127893323D01*
X166178000Y-127853323D02*
X163422000Y-127853323D01*
X166310000Y-127813323D02*
X163290000Y-127813323D01*
X166430000Y-127773323D02*
X163170000Y-127773323D01*
X166542000Y-127733323D02*
X163058000Y-127733323D01*
X166646000Y-127693323D02*
X162954000Y-127693323D01*
X166744000Y-127653323D02*
X162856000Y-127653323D01*
X166837000Y-127613323D02*
X162763000Y-127613323D01*
X166925000Y-127573323D02*
X162675000Y-127573323D01*
X167009000Y-127533323D02*
X162591000Y-127533323D01*
X167089000Y-127493323D02*
X162511000Y-127493323D01*
X167165000Y-127453323D02*
X162435000Y-127453323D01*
X167239000Y-127413323D02*
X162361000Y-127413323D01*
X167310000Y-127373323D02*
X162290000Y-127373323D01*
X167379000Y-127333323D02*
X162221000Y-127333323D01*
X167445000Y-127293323D02*
X162155000Y-127293323D01*
X167509000Y-127253323D02*
X162091000Y-127253323D01*
X167570000Y-127213323D02*
X162030000Y-127213323D01*
X167630000Y-127173323D02*
X161970000Y-127173323D01*
X167675000Y-117452677D02*
X167675000Y-118452677D01*
X167689000Y-127133323D02*
X161911000Y-127133323D01*
X167745000Y-127093323D02*
X161855000Y-127093323D01*
X167800000Y-127053323D02*
X161800000Y-127053323D01*
X167854000Y-127013323D02*
X161746000Y-127013323D01*
X167906000Y-126973323D02*
X161694000Y-126973323D01*
X167956000Y-126933323D02*
X161644000Y-126933323D01*
X168006000Y-126893323D02*
X161594000Y-126893323D01*
X168054000Y-126853323D02*
X161546000Y-126853323D01*
X168101000Y-126813323D02*
X161499000Y-126813323D01*
X168147000Y-126773323D02*
X161453000Y-126773323D01*
X168175000Y-117952677D02*
X167175000Y-117952677D01*
X168192000Y-126733323D02*
X161408000Y-126733323D01*
X168236000Y-126693323D02*
X161364000Y-126693323D01*
X168278000Y-126653323D02*
X166041000Y-126653323D01*
X168320000Y-126613323D02*
X166041000Y-126613323D01*
X168361000Y-126573323D02*
X166041000Y-126573323D01*
X168401000Y-126533323D02*
X166041000Y-126533323D01*
X168440000Y-126493323D02*
X166041000Y-126493323D01*
X168479000Y-126453323D02*
X166041000Y-126453323D01*
X168516000Y-126413323D02*
X166041000Y-126413323D01*
X168553000Y-126373323D02*
X166041000Y-126373323D01*
X168589000Y-126333323D02*
X166041000Y-126333323D01*
X168624000Y-126293323D02*
X166041000Y-126293323D01*
X168658000Y-126253323D02*
X166041000Y-126253323D01*
X168692000Y-126213323D02*
X166041000Y-126213323D01*
X168725000Y-126173323D02*
X166041000Y-126173323D01*
X168757000Y-126133323D02*
X166041000Y-126133323D01*
X168789000Y-126093323D02*
X166041000Y-126093323D01*
X168820000Y-126053323D02*
X166041000Y-126053323D01*
X168850000Y-126013323D02*
X166041000Y-126013323D01*
X168880000Y-125973323D02*
X166041000Y-125973323D01*
X168910000Y-125933323D02*
X166041000Y-125933323D01*
X168938000Y-125893323D02*
X166041000Y-125893323D01*
X168966000Y-125853323D02*
X166041000Y-125853323D01*
X168994000Y-125813323D02*
X166041000Y-125813323D01*
X169021000Y-125773323D02*
X166041000Y-125773323D01*
X169047000Y-125733323D02*
X166041000Y-125733323D01*
X169073000Y-125693323D02*
X166041000Y-125693323D01*
X169098000Y-125653323D02*
X166041000Y-125653323D01*
X169123000Y-125613323D02*
X166041000Y-125613323D01*
X169147000Y-125573323D02*
X166041000Y-125573323D01*
X169171000Y-125533323D02*
X166041000Y-125533323D01*
X169195000Y-125493323D02*
X166041000Y-125493323D01*
X169217000Y-125453323D02*
X166041000Y-125453323D01*
X169240000Y-125413323D02*
X166041000Y-125413323D01*
X169262000Y-125373323D02*
X166041000Y-125373323D01*
X169283000Y-125333323D02*
X166041000Y-125333323D01*
X169304000Y-125293323D02*
X166041000Y-125293323D01*
X169325000Y-125253323D02*
X166041000Y-125253323D01*
X169345000Y-125213323D02*
X166041000Y-125213323D01*
X169364000Y-125173323D02*
X166041000Y-125173323D01*
X169384000Y-125133323D02*
X166041000Y-125133323D01*
X169403000Y-125093323D02*
X166041000Y-125093323D01*
X169421000Y-125053323D02*
X166041000Y-125053323D01*
X169439000Y-125013323D02*
X166041000Y-125013323D01*
X169457000Y-124973323D02*
X166041000Y-124973323D01*
X169474000Y-124933323D02*
X166041000Y-124933323D01*
X169490000Y-124893323D02*
X166041000Y-124893323D01*
X169507000Y-124853323D02*
X166041000Y-124853323D01*
X169523000Y-124813323D02*
X166041000Y-124813323D01*
X169538000Y-124773323D02*
X166041000Y-124773323D01*
X169554000Y-124733323D02*
X166041000Y-124733323D01*
X169568000Y-124693323D02*
X166041000Y-124693323D01*
X169583000Y-124653323D02*
X166041000Y-124653323D01*
X169597000Y-124613323D02*
X166041000Y-124613323D01*
X169611000Y-124573323D02*
X166041000Y-124573323D01*
X169624000Y-124533323D02*
X166041000Y-124533323D01*
X169637000Y-124493323D02*
X166041000Y-124493323D01*
X169650000Y-124453323D02*
X166041000Y-124453323D01*
X169662000Y-124413323D02*
X166041000Y-124413323D01*
X169674000Y-124373323D02*
X166041000Y-124373323D01*
X169685000Y-124333323D02*
X166041000Y-124333323D01*
X169697000Y-124293323D02*
X166041000Y-124293323D01*
X169707000Y-124253323D02*
X166041000Y-124253323D01*
X169718000Y-124213323D02*
X166041000Y-124213323D01*
X169728000Y-124173323D02*
X159872000Y-124173323D01*
X169738000Y-124133323D02*
X159862000Y-124133323D01*
X169747000Y-124093323D02*
X159853000Y-124093323D01*
X169756000Y-124053323D02*
X159844000Y-124053323D01*
X169765000Y-124013323D02*
X159835000Y-124013323D01*
X169774000Y-123973323D02*
X159826000Y-123973323D01*
X169782000Y-123933323D02*
X159818000Y-123933323D01*
X169790000Y-123893323D02*
X159810000Y-123893323D01*
X169797000Y-123853323D02*
X159803000Y-123853323D01*
X169804000Y-123813323D02*
X159796000Y-123813323D01*
X169811000Y-123773323D02*
X159789000Y-123773323D01*
X169818000Y-123733323D02*
X159782000Y-123733323D01*
X169824000Y-123693323D02*
X159776000Y-123693323D01*
X169830000Y-123653323D02*
X159770000Y-123653323D01*
X169835000Y-123612323D02*
X159765000Y-123612323D01*
X169840000Y-123572323D02*
X159760000Y-123572323D01*
X169845000Y-123532323D02*
X159755000Y-123532323D01*
X169850000Y-123492323D02*
X159750000Y-123492323D01*
X169854000Y-123452323D02*
X159746000Y-123452323D01*
X169858000Y-123412323D02*
X159742000Y-123412323D01*
X169862000Y-123372323D02*
X159738000Y-123372323D01*
X169865000Y-123332323D02*
X159735000Y-123332323D01*
X169868000Y-123292323D02*
X159732000Y-123292323D01*
X169870000Y-123252323D02*
X159730000Y-123252323D01*
X169873000Y-123212323D02*
X159727000Y-123212323D01*
X169875000Y-123172323D02*
X159725000Y-123172323D01*
X169877000Y-123132323D02*
X159723000Y-123132323D01*
X169878000Y-123092323D02*
X159722000Y-123092323D01*
X169879000Y-123052323D02*
X159721000Y-123052323D01*
X169880000Y-122932323D02*
X159720000Y-122932323D01*
X169880000Y-122972323D02*
X159720000Y-122972323D01*
X169880000Y-123012323D02*
X159720000Y-123012323D01*
X169920000Y-122932323D02*
G75*
G02*
X159680000Y-122932323I-5120000J0D01*
G01*
X159680000Y-122932323D02*
G75*
G02*
X169920000Y-122932323I5120000J0D01*
G01*
%TO.C,R58*%
X108365000Y-103585436D02*
X108365000Y-104039564D01*
X109835000Y-103585436D02*
X109835000Y-104039564D01*
%TO.C,D20*%
X120940000Y-54500000D02*
X120940000Y-57185000D01*
X120940000Y-57185000D02*
X122860000Y-57185000D01*
X122860000Y-57185000D02*
X122860000Y-54500000D01*
%TO.C,U3*%
X95150000Y-74930000D02*
X95150000Y-92830000D01*
X95150000Y-92830000D02*
X146190000Y-92830000D01*
X95210000Y-77420000D02*
X95210000Y-82880000D01*
X95210000Y-84880000D02*
X95210000Y-90340000D01*
X95210000Y-90340000D02*
X146130000Y-90340000D01*
X146130000Y-77420000D02*
X95210000Y-77420000D01*
X146130000Y-90340000D02*
X146130000Y-77420000D01*
X146190000Y-74930000D02*
X95150000Y-74930000D01*
X146190000Y-92830000D02*
X146190000Y-74930000D01*
X95210000Y-82880000D02*
G75*
G02*
X95210000Y-84880000I0J-1000000D01*
G01*
%TO.C,D9*%
X118320000Y-123487500D02*
X118320000Y-126172500D01*
X120240000Y-123487500D02*
X118320000Y-123487500D01*
X120240000Y-126172500D02*
X120240000Y-123487500D01*
%TO.C,D6*%
X110620000Y-123487500D02*
X110620000Y-126172500D01*
X112540000Y-123487500D02*
X110620000Y-123487500D01*
X112540000Y-126172500D02*
X112540000Y-123487500D01*
%TO.C,R15*%
X98245000Y-121345436D02*
X98245000Y-121799564D01*
X99715000Y-121345436D02*
X99715000Y-121799564D01*
%TO.C,R39*%
X131365000Y-59339564D02*
X131365000Y-58885436D01*
X132835000Y-59339564D02*
X132835000Y-58885436D01*
%TO.C,D10*%
X120820000Y-123487500D02*
X120820000Y-126172500D01*
X122740000Y-123487500D02*
X120820000Y-123487500D01*
X122740000Y-126172500D02*
X122740000Y-123487500D01*
%TO.C,U2*%
X118730000Y-98550000D02*
X118730000Y-108830000D01*
X118730000Y-108830000D02*
X139290000Y-108830000D01*
X118790000Y-101040000D02*
X118790000Y-106340000D01*
X118790000Y-106340000D02*
X139230000Y-106340000D01*
X139230000Y-101040000D02*
X118790000Y-101040000D01*
X139230000Y-102690000D02*
X139230000Y-101040000D01*
X139230000Y-106340000D02*
X139230000Y-104690000D01*
X139290000Y-98550000D02*
X118730000Y-98550000D01*
X139290000Y-108830000D02*
X139290000Y-98550000D01*
X139230000Y-104690000D02*
G75*
G02*
X139230000Y-102690000I0J1000000D01*
G01*
%TO.C,R61*%
X121965000Y-103585436D02*
X121965000Y-104039564D01*
X123435000Y-103585436D02*
X123435000Y-104039564D01*
%TO.C,J5*%
X176550000Y-132950000D02*
X176550000Y-130950000D01*
X176940000Y-123940000D02*
X176940000Y-132560000D01*
X176940000Y-132560000D02*
X184410000Y-132560000D01*
X177800000Y-132950000D02*
X176550000Y-132950000D01*
X177900000Y-125000000D02*
X178900000Y-125250000D01*
X177900000Y-128000000D02*
X177900000Y-125000000D01*
X177900000Y-128500000D02*
X178900000Y-128750000D01*
X177900000Y-131500000D02*
X177900000Y-128500000D01*
X178900000Y-125250000D02*
X178900000Y-125750000D01*
X178900000Y-125750000D02*
X179250000Y-125750000D01*
X178900000Y-127250000D02*
X178900000Y-127750000D01*
X178900000Y-127750000D02*
X177900000Y-128000000D01*
X178900000Y-128750000D02*
X178900000Y-129250000D01*
X178900000Y-129250000D02*
X179250000Y-129250000D01*
X178900000Y-130750000D02*
X178900000Y-131250000D01*
X178900000Y-131250000D02*
X177900000Y-131500000D01*
X179250000Y-125000000D02*
X183550000Y-125000000D01*
X179250000Y-125750000D02*
X179250000Y-125000000D01*
X179250000Y-127250000D02*
X178900000Y-127250000D01*
X179250000Y-128000000D02*
X179250000Y-127250000D01*
X179250000Y-128500000D02*
X183550000Y-128500000D01*
X179250000Y-129250000D02*
X179250000Y-128500000D01*
X179250000Y-130750000D02*
X178900000Y-130750000D01*
X179250000Y-131500000D02*
X179250000Y-130750000D01*
X183550000Y-125000000D02*
X183550000Y-125750000D01*
X183550000Y-127250000D02*
X183550000Y-128000000D01*
X183550000Y-128000000D02*
X179250000Y-128000000D01*
X183550000Y-128500000D02*
X183550000Y-129250000D01*
X183550000Y-130750000D02*
X183550000Y-131500000D01*
X183550000Y-131500000D02*
X179250000Y-131500000D01*
X184410000Y-123940000D02*
X176940000Y-123940000D01*
X184410000Y-132560000D02*
X184410000Y-123940000D01*
X183550000Y-127250000D02*
G75*
G02*
X183549844Y-125750353I1700000J750000D01*
G01*
X183550000Y-130750000D02*
G75*
G02*
X183549844Y-129250353I1700000J750000D01*
G01*
%TO.C,R9*%
X118545000Y-113845436D02*
X118545000Y-114299564D01*
X120015000Y-113845436D02*
X120015000Y-114299564D01*
%TO.C,R7*%
X113445000Y-113832936D02*
X113445000Y-114287064D01*
X114915000Y-113832936D02*
X114915000Y-114287064D01*
%TO.C,D3*%
X103020000Y-123487500D02*
X103020000Y-126172500D01*
X104940000Y-123487500D02*
X103020000Y-123487500D01*
X104940000Y-126172500D02*
X104940000Y-123487500D01*
%TO.C,R56*%
X103265000Y-103585436D02*
X103265000Y-104039564D01*
X104735000Y-103585436D02*
X104735000Y-104039564D01*
%TO.C,R59*%
X110465000Y-103585436D02*
X110465000Y-104039564D01*
X111935000Y-103585436D02*
X111935000Y-104039564D01*
%TO.C,C8*%
X174165000Y-47113748D02*
X174165000Y-47636252D01*
X175635000Y-47113748D02*
X175635000Y-47636252D01*
%TO.C,D21*%
X118440000Y-54537500D02*
X118440000Y-57222500D01*
X118440000Y-57222500D02*
X120360000Y-57222500D01*
X120360000Y-57222500D02*
X120360000Y-54537500D01*
%TO.C,R50*%
X116065000Y-59327064D02*
X116065000Y-58872936D01*
X117535000Y-59327064D02*
X117535000Y-58872936D01*
%TO.C,R60*%
X112565000Y-103585436D02*
X112565000Y-104039564D01*
X114035000Y-103585436D02*
X114035000Y-104039564D01*
%TO.C,R64*%
X129565000Y-103585436D02*
X129565000Y-104039564D01*
X131035000Y-103585436D02*
X131035000Y-104039564D01*
%TO.C,R51*%
X113465000Y-59327064D02*
X113465000Y-58872936D01*
X114935000Y-59327064D02*
X114935000Y-58872936D01*
%TO.C,R48*%
X121165000Y-59339564D02*
X121165000Y-58885436D01*
X122635000Y-59339564D02*
X122635000Y-58885436D01*
%TO.C,R35*%
X170514564Y-43840000D02*
X170060436Y-43840000D01*
X170514564Y-45310000D02*
X170060436Y-45310000D01*
%TO.C,R44*%
X166927064Y-47865000D02*
X166472936Y-47865000D01*
X166927064Y-49335000D02*
X166472936Y-49335000D01*
%TO.C,D4*%
X105620000Y-123487500D02*
X105620000Y-126172500D01*
X107540000Y-123487500D02*
X105620000Y-123487500D01*
X107540000Y-126172500D02*
X107540000Y-123487500D01*
%TO.C,R23*%
X118545000Y-121357936D02*
X118545000Y-121812064D01*
X120015000Y-121357936D02*
X120015000Y-121812064D01*
%TO.C,R62*%
X124465000Y-103585436D02*
X124465000Y-104039564D01*
X125935000Y-103585436D02*
X125935000Y-104039564D01*
%TO.C,J3*%
X178570000Y-44070000D02*
X179900000Y-44070000D01*
X178570000Y-45400000D02*
X178570000Y-44070000D01*
X178570000Y-46670000D02*
X178570000Y-54350000D01*
X178570000Y-46670000D02*
X181230000Y-46670000D01*
X178570000Y-54350000D02*
X181230000Y-54350000D01*
X181230000Y-46670000D02*
X181230000Y-54350000D01*
%TO.C,R53*%
X108465000Y-59339564D02*
X108465000Y-58885436D01*
X109935000Y-59339564D02*
X109935000Y-58885436D01*
%TO.C,R40*%
X170364564Y-71040000D02*
X169910436Y-71040000D01*
X170364564Y-72510000D02*
X169910436Y-72510000D01*
%TO.C,D16*%
X131140000Y-54537500D02*
X131140000Y-57222500D01*
X131140000Y-57222500D02*
X133060000Y-57222500D01*
X133060000Y-57222500D02*
X133060000Y-54537500D01*
%TO.C,D23*%
X113240000Y-54500000D02*
X113240000Y-57185000D01*
X113240000Y-57185000D02*
X115160000Y-57185000D01*
X115160000Y-57185000D02*
X115160000Y-54500000D01*
%TO.C,U1*%
X95010000Y-98530000D02*
X95010000Y-108810000D01*
X95010000Y-108810000D02*
X115570000Y-108810000D01*
X95070000Y-101020000D02*
X95070000Y-106320000D01*
X95070000Y-106320000D02*
X115510000Y-106320000D01*
X115510000Y-101020000D02*
X95070000Y-101020000D01*
X115510000Y-102670000D02*
X115510000Y-101020000D01*
X115510000Y-106320000D02*
X115510000Y-104670000D01*
X115570000Y-98530000D02*
X95010000Y-98530000D01*
X115570000Y-108810000D02*
X115570000Y-98530000D01*
X115510000Y-104670000D02*
G75*
G02*
X115510000Y-102670000I0J1000000D01*
G01*
%TO.C,D14*%
X131020000Y-123487500D02*
X131020000Y-126172500D01*
X132940000Y-123487500D02*
X131020000Y-123487500D01*
X132940000Y-126172500D02*
X132940000Y-123487500D01*
%TO.C,R66*%
X134265000Y-103585436D02*
X134265000Y-104039564D01*
X135735000Y-103585436D02*
X135735000Y-104039564D01*
%TO.C,R16*%
X100745000Y-121345436D02*
X100745000Y-121799564D01*
X102215000Y-121345436D02*
X102215000Y-121799564D01*
%TO.C,R30*%
X169865000Y-56085436D02*
X169865000Y-56539564D01*
X171335000Y-56085436D02*
X171335000Y-56539564D01*
%TO.C,C3*%
X171990000Y-74363748D02*
X171990000Y-74886252D01*
X173460000Y-74363748D02*
X173460000Y-74886252D01*
%TO.C,D12*%
X125920000Y-123487500D02*
X125920000Y-126172500D01*
X127840000Y-123487500D02*
X125920000Y-123487500D01*
X127840000Y-126172500D02*
X127840000Y-123487500D01*
%TO.C,Q1*%
X165040000Y-54437500D02*
X165040000Y-53787500D01*
X165040000Y-54437500D02*
X165040000Y-55087500D01*
X168160000Y-54437500D02*
X168160000Y-53787500D01*
X168160000Y-54437500D02*
X168160000Y-55087500D01*
X165090000Y-55600000D02*
X164760000Y-55840000D01*
X164760000Y-55360000D01*
X165090000Y-55600000D01*
G36*
X165090000Y-55600000D02*
G01*
X164760000Y-55840000D01*
X164760000Y-55360000D01*
X165090000Y-55600000D01*
G37*
%TO.C,D25*%
X108240000Y-54500000D02*
X108240000Y-57185000D01*
X108240000Y-57185000D02*
X110160000Y-57185000D01*
X110160000Y-57185000D02*
X110160000Y-54500000D01*
%TO.C,D24*%
X110740000Y-54537500D02*
X110740000Y-57222500D01*
X110740000Y-57222500D02*
X112660000Y-57222500D01*
X112660000Y-57222500D02*
X112660000Y-54537500D01*
%TO.C,R2*%
X100745000Y-113845436D02*
X100745000Y-114299564D01*
X102215000Y-113845436D02*
X102215000Y-114299564D01*
%TO.C,D18*%
X126040000Y-54537500D02*
X126040000Y-57222500D01*
X126040000Y-57222500D02*
X127960000Y-57222500D01*
X127960000Y-57222500D02*
X127960000Y-54537500D01*
%TO.C,R34*%
X174427064Y-52765000D02*
X173972936Y-52765000D01*
X174427064Y-54235000D02*
X173972936Y-54235000D01*
%TO.C,C2*%
X174090000Y-65113748D02*
X174090000Y-65636252D01*
X175560000Y-65113748D02*
X175560000Y-65636252D01*
%TO.C,C7*%
X172065000Y-47113748D02*
X172065000Y-47636252D01*
X173535000Y-47113748D02*
X173535000Y-47636252D01*
%TO.C,R13*%
X128645000Y-113845436D02*
X128645000Y-114299564D01*
X130115000Y-113845436D02*
X130115000Y-114299564D01*
%TO.C,R3*%
X103245000Y-113857936D02*
X103245000Y-114312064D01*
X104715000Y-113857936D02*
X104715000Y-114312064D01*
%TO.C,R21*%
X113445000Y-121332936D02*
X113445000Y-121787064D01*
X114915000Y-121332936D02*
X114915000Y-121787064D01*
%TO.C,R6*%
X110945000Y-113832936D02*
X110945000Y-114287064D01*
X112415000Y-113832936D02*
X112415000Y-114287064D01*
%TO.C,R33*%
X174339564Y-61840000D02*
X173885436Y-61840000D01*
X174339564Y-63310000D02*
X173885436Y-63310000D01*
%TO.C,R18*%
X105845000Y-121332936D02*
X105845000Y-121787064D01*
X107315000Y-121332936D02*
X107315000Y-121787064D01*
%TO.C,R32*%
X169690000Y-65135436D02*
X169690000Y-65589564D01*
X171160000Y-65135436D02*
X171160000Y-65589564D01*
%TO.C,R52*%
X110965000Y-59339564D02*
X110965000Y-58885436D01*
X112435000Y-59339564D02*
X112435000Y-58885436D01*
%TO.C,D22*%
X115840000Y-54500000D02*
X115840000Y-57185000D01*
X115840000Y-57185000D02*
X117760000Y-57185000D01*
X117760000Y-57185000D02*
X117760000Y-54500000D01*
%TO.C,D15*%
X133640000Y-54500000D02*
X133640000Y-57185000D01*
X133640000Y-57185000D02*
X135560000Y-57185000D01*
X135560000Y-57185000D02*
X135560000Y-54500000D01*
%TO.C,R14*%
X131245000Y-113832936D02*
X131245000Y-114287064D01*
X132715000Y-113832936D02*
X132715000Y-114287064D01*
%TO.C,R4*%
X105845000Y-113832936D02*
X105845000Y-114287064D01*
X107315000Y-113832936D02*
X107315000Y-114287064D01*
%TO.C,D1*%
X98020000Y-123487500D02*
X98020000Y-126172500D01*
X99940000Y-123487500D02*
X98020000Y-123487500D01*
X99940000Y-126172500D02*
X99940000Y-123487500D01*
%TO.C,R38*%
X133865000Y-59327064D02*
X133865000Y-58872936D01*
X135335000Y-59327064D02*
X135335000Y-58872936D01*
%TO.C,R65*%
X132165000Y-103585436D02*
X132165000Y-104039564D01*
X133635000Y-103585436D02*
X133635000Y-104039564D01*
%TO.C,R41*%
X169790000Y-74360436D02*
X169790000Y-74814564D01*
X171260000Y-74360436D02*
X171260000Y-74814564D01*
%TO.C,R22*%
X115945000Y-121332936D02*
X115945000Y-121787064D01*
X117415000Y-121332936D02*
X117415000Y-121787064D01*
%TO.C,Q2*%
X165140000Y-45537500D02*
X165140000Y-44887500D01*
X165140000Y-45537500D02*
X165140000Y-46187500D01*
X168260000Y-45537500D02*
X168260000Y-44887500D01*
X168260000Y-45537500D02*
X168260000Y-46187500D01*
X165190000Y-46700000D02*
X164860000Y-46940000D01*
X164860000Y-46460000D01*
X165190000Y-46700000D01*
G36*
X165190000Y-46700000D02*
G01*
X164860000Y-46940000D01*
X164860000Y-46460000D01*
X165190000Y-46700000D01*
G37*
%TO.C,R24*%
X121045000Y-121345436D02*
X121045000Y-121799564D01*
X122515000Y-121345436D02*
X122515000Y-121799564D01*
%TO.C,R11*%
X123545000Y-113845436D02*
X123545000Y-114299564D01*
X125015000Y-113845436D02*
X125015000Y-114299564D01*
%TO.C,R31*%
X170264564Y-61840000D02*
X169810436Y-61840000D01*
X170264564Y-63310000D02*
X169810436Y-63310000D01*
%TD*%
M02*
