M48
; DRILL file {KiCad 8.0.6} date 2024-12-02T12:53:20+0100
; FORMAT={-:-/ absolute / metric / decimal}
; #@! TF.CreationDate,2024-12-02T12:53:20+01:00
; #@! TF.GenerationSoftware,Kicad,Pcbnew,8.0.6
; #@! TF.FileFunction,Plated,1,2,PTH
FMAT,2
METRIC
; #@! TA.AperFunction,Plated,PTH,ViaDrill
T1C0.300
; #@! TA.AperFunction,Plated,PTH,ComponentDrill
T2C0.800
; #@! TA.AperFunction,Plated,PTH,ComponentDrill
T3C1.000
; #@! TA.AperFunction,Plated,PTH,ComponentDrill
T4C1.200
%
G90
G05
T1
X90.8Y-55.0
X90.8Y-83.9
X90.8Y-88.7
X90.9Y-79.4
X91.0Y-59.5
X91.0Y-64.6
X91.0Y-70.6
X91.0Y-75.9
X91.0Y-93.2
X91.0Y-98.3
X91.0Y-104.3
X91.0Y-109.6
X91.1Y-42.0
X91.1Y-45.5
X91.1Y-50.9
X91.1Y-130.2
X91.2Y-114.7
X91.2Y-119.8
X91.2Y-125.8
X91.2Y-134.5
X91.2Y-138.4
X93.5Y-42.0
X93.5Y-45.5
X93.5Y-50.9
X93.5Y-130.2
X93.6Y-134.5
X93.6Y-138.4
X94.2Y-84.3
X94.2Y-101.9
X94.2Y-104.7
X94.3Y-77.6
X94.4Y-93.2
X94.4Y-112.7
X94.4Y-123.6
X95.1Y-73.8
X95.2Y-56.5
X95.2Y-60.0
X95.2Y-65.4
X95.2Y-69.7
X95.9Y-42.0
X95.9Y-45.5
X95.9Y-50.9
X95.9Y-130.2
X96.0Y-134.5
X96.0Y-138.4
X96.1Y-115.0
X96.1Y-119.8
X96.1Y-124.5
X96.4Y-105.1
X96.6Y-126.1
X97.4Y-101.7
X98.1Y-83.4
X98.1Y-87.7
X98.5Y-42.0
X98.5Y-45.5
X98.5Y-50.9
X98.5Y-130.2
X98.6Y-134.5
X98.6Y-138.4
X98.8Y-95.0
X99.5Y-73.9
X99.6Y-56.6
X99.6Y-60.1
X99.6Y-65.5
X99.6Y-69.8
X100.1Y-101.5
X100.2Y-110.8
X100.5Y-83.4
X100.5Y-87.7
X101.1Y-42.0
X101.1Y-45.5
X101.1Y-50.9
X101.1Y-130.2
X101.2Y-134.5
X101.2Y-138.4
X101.7Y-95.0
X102.7Y-101.5
X102.7Y-110.9
X102.9Y-56.6
X102.9Y-60.1
X102.9Y-83.4
X102.9Y-87.7
X103.4Y-73.9
X103.5Y-65.5
X103.5Y-69.8
X103.8Y-42.0
X103.8Y-45.5
X103.8Y-50.9
X103.8Y-130.2
X103.9Y-134.5
X103.9Y-138.4
X104.3Y-95.1
X105.2Y-110.9
X105.3Y-101.5
X105.5Y-78.6
X105.5Y-83.4
X105.5Y-87.7
X106.4Y-42.0
X106.4Y-45.5
X106.4Y-50.9
X106.4Y-130.2
X106.5Y-134.5
X106.5Y-138.4
X106.9Y-95.2
X107.2Y-54.6
X107.3Y-56.7
X107.3Y-60.2
X107.7Y-110.9
X107.8Y-74.0
X107.8Y-101.4
X107.9Y-65.6
X107.9Y-69.9
X108.1Y-83.4
X108.1Y-87.7
X109.0Y-42.0
X109.0Y-45.5
X109.0Y-50.9
X109.0Y-130.2
X109.1Y-134.5
X109.1Y-138.4
X109.6Y-95.2
X110.3Y-101.4
X110.3Y-110.9
X110.4Y-65.7
X110.6Y-73.5
X110.8Y-83.4
X112.2Y-42.0
X112.2Y-45.5
X112.2Y-50.9
X112.2Y-130.2
X112.3Y-134.5
X112.3Y-138.4
X112.6Y-101.5
X112.9Y-110.9
X113.0Y-65.8
X113.0Y-93.3
X113.1Y-73.5
X113.4Y-83.4
X113.4Y-88.2
X114.7Y-42.0
X114.7Y-45.5
X114.7Y-50.9
X114.7Y-130.2
X114.8Y-134.5
X114.8Y-138.4
X115.4Y-111.5
X115.5Y-65.8
X115.5Y-73.5
X115.6Y-93.4
X116.0Y-83.4
X116.0Y-88.1
X116.6Y-101.3
X116.6Y-105.3
X116.6Y-109.3
X117.2Y-42.0
X117.2Y-45.5
X117.2Y-50.9
X117.2Y-130.2
X117.3Y-134.5
X117.3Y-138.4
X118.0Y-65.8
X118.1Y-73.5
X118.1Y-93.5
X119.2Y-83.4
X119.2Y-88.1
X119.6Y-42.0
X119.6Y-45.5
X119.6Y-130.2
X119.7Y-50.9
X119.7Y-134.5
X119.7Y-138.4
X120.0Y-105.2
X120.1Y-101.8
X120.3Y-110.9
X120.6Y-65.8
X120.6Y-73.5
X120.9Y-93.5
X121.7Y-83.4
X121.7Y-88.1
X121.9Y-51.0
X122.0Y-42.0
X122.0Y-45.5
X122.0Y-130.2
X122.1Y-134.5
X122.1Y-138.4
X122.8Y-110.8
X123.1Y-65.8
X123.2Y-73.5
X123.8Y-97.4
X123.9Y-101.6
X124.2Y-83.4
X124.2Y-88.2
X124.4Y-42.0
X124.4Y-45.5
X124.4Y-130.2
X124.5Y-51.0
X124.5Y-134.5
X124.5Y-138.4
X125.2Y-110.9
X125.7Y-65.9
X125.8Y-73.6
X126.4Y-97.4
X126.5Y-101.6
X127.0Y-42.0
X127.0Y-45.5
X127.0Y-50.9
X127.0Y-130.2
X127.1Y-134.5
X127.1Y-138.4
X127.6Y-83.4
X127.7Y-88.2
X127.8Y-110.9
X128.2Y-73.6
X128.4Y-65.9
X128.8Y-97.4
X129.0Y-101.6
X129.7Y-42.0
X129.7Y-45.5
X129.7Y-50.9
X129.7Y-130.2
X129.8Y-134.5
X129.8Y-138.4
X130.4Y-110.9
X130.8Y-66.5
X130.8Y-73.6
X131.0Y-93.6
X131.4Y-85.9
X131.5Y-101.6
X131.8Y-97.4
X132.3Y-42.0
X132.3Y-45.5
X132.3Y-50.9
X132.3Y-130.2
X132.4Y-134.5
X132.4Y-138.4
X133.0Y-110.9
X133.3Y-66.5
X134.1Y-101.6
X134.4Y-79.7
X134.5Y-97.4
X134.7Y-73.5
X134.9Y-42.0
X134.9Y-45.5
X134.9Y-50.9
X134.9Y-117.0
X134.9Y-130.2
X135.0Y-121.2
X135.0Y-134.5
X135.0Y-138.4
X135.1Y-125.9
X136.4Y-101.6
X136.5Y-66.4
X137.0Y-79.0
X137.1Y-97.3
X137.4Y-59.3
X137.4Y-93.6
X137.5Y-42.0
X137.5Y-45.5
X137.5Y-50.9
X137.5Y-55.2
X137.5Y-117.0
X137.5Y-130.2
X137.6Y-121.2
X137.6Y-134.5
X137.6Y-138.4
X137.7Y-125.9
X138.2Y-69.2
X138.6Y-73.7
X139.4Y-81.1
X139.7Y-111.6
X139.8Y-94.8
X140.5Y-59.3
X140.6Y-42.0
X140.6Y-45.5
X140.6Y-50.9
X140.6Y-55.2
X140.6Y-117.0
X140.6Y-130.2
X140.7Y-121.2
X140.7Y-134.5
X140.7Y-138.4
X140.8Y-125.9
X141.0Y-79.0
X141.3Y-101.5
X141.5Y-97.4
X141.7Y-108.7
X142.0Y-73.1
X142.1Y-64.7
X142.1Y-69.0
X142.4Y-82.5
X142.4Y-111.6
X144.0Y-59.3
X144.1Y-42.0
X144.1Y-45.5
X144.1Y-50.9
X144.1Y-55.2
X144.1Y-117.0
X144.1Y-130.2
X144.2Y-121.2
X144.2Y-134.5
X144.2Y-138.4
X144.3Y-125.9
X144.9Y-108.7
X145.1Y-111.6
X146.0Y-82.6
X146.1Y-78.9
X146.4Y-73.2
X146.5Y-64.8
X146.5Y-69.1
X147.2Y-59.3
X147.3Y-42.0
X147.3Y-45.5
X147.3Y-50.9
X147.3Y-55.2
X147.3Y-117.0
X147.3Y-130.2
X147.4Y-121.2
X147.4Y-134.5
X147.4Y-138.4
X147.5Y-125.9
X147.6Y-97.3
X147.6Y-108.7
X147.8Y-103.3
X148.0Y-111.6
X149.8Y-91.1
X149.9Y-59.3
X150.0Y-42.0
X150.0Y-45.5
X150.0Y-50.9
X150.0Y-55.2
X150.0Y-117.0
X150.0Y-130.2
X150.1Y-121.2
X150.1Y-134.5
X150.1Y-138.4
X150.2Y-125.9
X150.5Y-97.3
X150.5Y-108.7
X150.7Y-103.3
X151.7Y-111.6
X152.6Y-59.3
X152.6Y-62.7
X152.6Y-65.2
X152.6Y-67.9
X152.6Y-70.6
X152.6Y-73.8
X152.6Y-77.3
X152.6Y-80.4
X152.7Y-42.0
X152.7Y-45.5
X152.7Y-50.9
X152.7Y-55.2
X152.7Y-117.0
X152.7Y-130.2
X152.8Y-121.2
X152.8Y-134.5
X152.8Y-138.4
X152.9Y-125.9
X154.2Y-97.3
X154.2Y-108.7
X154.4Y-103.3
X155.1Y-59.3
X155.2Y-50.9
X155.2Y-55.2
X155.2Y-82.4
X155.6Y-42.0
X155.6Y-45.5
X155.6Y-111.6
X155.6Y-117.0
X155.6Y-130.2
X155.7Y-121.2
X155.7Y-134.5
X155.7Y-138.4
X155.8Y-125.9
X158.1Y-97.3
X158.1Y-108.7
X158.3Y-103.3
X159.0Y-111.6
X159.3Y-42.0
X159.3Y-45.5
X159.3Y-50.9
X159.3Y-117.0
X159.3Y-130.2
X159.4Y-60.3
X159.4Y-121.2
X159.4Y-134.5
X159.4Y-138.4
X159.5Y-125.9
X160.7Y-69.2
X161.5Y-97.3
X161.5Y-108.7
X161.7Y-103.3
X162.1Y-60.3
X162.3Y-50.9
X162.3Y-83.0
X162.3Y-87.8
X162.4Y-78.5
X162.6Y-111.6
X163.0Y-115.9
X163.2Y-42.0
X163.3Y-130.3
X163.3Y-134.5
X163.3Y-138.4
X163.4Y-48.6
X163.4Y-69.2
X163.5Y-57.5
X164.7Y-83.0
X164.7Y-87.8
X164.8Y-60.3
X164.8Y-78.5
X165.0Y-50.9
X165.1Y-97.3
X165.1Y-108.7
X165.3Y-103.3
X166.1Y-69.2
X166.5Y-111.6
X166.5Y-115.9
X166.6Y-42.0
X166.7Y-130.3
X166.7Y-134.5
X166.7Y-138.4
X166.9Y-62.6
X167.1Y-71.8
X167.1Y-83.0
X167.1Y-87.8
X167.2Y-78.5
X167.7Y-50.9
X167.7Y-60.3
X169.0Y-69.2
X169.0Y-97.3
X169.0Y-108.7
X169.2Y-103.3
X169.7Y-83.0
X169.7Y-87.8
X169.8Y-78.5
X170.0Y-111.6
X170.2Y-42.0
X170.3Y-130.3
X170.3Y-134.5
X170.3Y-138.4
X170.5Y-126.2
X170.6Y-50.9
X170.7Y-121.1
X171.4Y-60.3
X171.5Y-115.9
X172.3Y-83.0
X172.3Y-87.8
X172.4Y-78.5
X172.5Y-97.3
X172.5Y-108.7
X172.7Y-69.2
X172.7Y-103.3
X173.5Y-111.6
X174.1Y-42.0
X174.2Y-116.5
X174.2Y-120.4
X174.2Y-124.0
X174.2Y-127.4
X174.2Y-130.3
X174.2Y-134.5
X174.2Y-138.4
X174.3Y-50.9
X174.9Y-60.3
X175.0Y-83.0
X175.0Y-87.8
X175.1Y-78.5
X175.7Y-69.2
X176.0Y-97.3
X176.0Y-108.7
X176.2Y-103.3
X176.7Y-111.6
X177.6Y-42.0
X177.6Y-83.0
X177.6Y-87.8
X177.6Y-122.1
X177.7Y-78.5
X177.7Y-128.0
X177.7Y-134.5
X177.7Y-138.4
X178.2Y-91.2
X178.4Y-54.8
X178.4Y-59.2
X178.4Y-62.4
X178.4Y-65.9
X178.4Y-69.4
X178.4Y-73.3
X179.2Y-108.7
X179.4Y-103.3
X180.2Y-83.0
X180.3Y-78.5
X181.1Y-42.0
X181.2Y-134.5
X181.2Y-138.4
X182.9Y-92.3
X182.9Y-97.4
X183.1Y-103.4
X183.1Y-108.7
X183.4Y-83.0
X183.4Y-87.8
X183.5Y-78.5
X184.3Y-42.0
X184.3Y-49.4
X184.4Y-44.9
X184.4Y-122.1
X184.4Y-130.1
X184.4Y-134.5
X184.4Y-138.4
X184.5Y-54.2
X184.5Y-58.7
X184.5Y-63.8
X184.5Y-69.8
X184.5Y-75.1
X184.7Y-116.0
X184.9Y-124.9
X185.8Y-92.3
X185.8Y-97.4
X185.9Y-83.0
X185.9Y-87.8
X186.0Y-78.5
X186.0Y-103.4
X186.0Y-108.7
X188.4Y-49.3
X188.4Y-83.0
X188.4Y-87.8
X188.5Y-44.8
X188.5Y-78.5
X188.6Y-54.1
X188.6Y-58.6
X188.6Y-63.7
X188.6Y-69.7
X188.6Y-75.0
X188.6Y-92.3
X188.6Y-97.4
X188.6Y-103.4
X188.6Y-108.7
X188.7Y-42.0
X188.8Y-113.8
X188.8Y-118.9
X188.8Y-124.9
X188.8Y-130.2
X188.8Y-134.5
X188.8Y-138.4
T2
X96.4Y-99.86
X96.4Y-107.48
X96.54Y-76.26
X96.54Y-91.5
X98.94Y-99.86
X98.94Y-107.48
X99.08Y-76.26
X99.08Y-91.5
X101.48Y-99.86
X101.48Y-107.48
X101.62Y-76.26
X101.62Y-91.5
X104.02Y-99.86
X104.02Y-107.48
X104.16Y-76.26
X104.16Y-91.5
X106.56Y-99.86
X106.56Y-107.48
X106.7Y-76.26
X106.7Y-91.5
X109.1Y-99.86
X109.1Y-107.48
X109.24Y-76.26
X109.24Y-91.5
X111.64Y-99.86
X111.64Y-107.48
X111.78Y-76.26
X111.78Y-91.5
X114.18Y-99.86
X114.18Y-107.48
X114.32Y-76.26
X114.32Y-91.5
X116.86Y-76.26
X116.86Y-91.5
X119.4Y-76.26
X119.4Y-91.5
X120.12Y-99.88
X120.12Y-107.5
X121.94Y-76.26
X121.94Y-91.5
X122.66Y-99.88
X122.66Y-107.5
X124.48Y-76.26
X124.48Y-91.5
X125.2Y-99.88
X125.2Y-107.5
X127.02Y-76.26
X127.02Y-91.5
X127.74Y-99.88
X127.74Y-107.5
X129.56Y-76.26
X129.56Y-91.5
X130.28Y-99.88
X130.28Y-107.5
X132.1Y-76.26
X132.1Y-91.5
X132.82Y-99.88
X132.82Y-107.5
X134.64Y-76.26
X134.64Y-91.5
X135.36Y-99.88
X135.36Y-107.5
X137.18Y-76.26
X137.18Y-91.5
X137.9Y-99.88
X137.9Y-107.5
X139.72Y-76.26
X139.72Y-91.5
X142.26Y-76.26
X142.26Y-91.5
X144.8Y-76.26
X144.8Y-91.5
T3
X98.94Y-117.872
X101.48Y-117.872
X104.02Y-117.872
X104.14Y-62.9
X106.56Y-117.872
X106.68Y-62.9
X109.1Y-117.872
X109.22Y-62.9
X111.64Y-117.872
X111.76Y-62.9
X114.18Y-117.872
X114.3Y-62.9
X116.72Y-117.872
X116.84Y-62.9
X119.26Y-117.872
X119.38Y-62.9
X121.8Y-117.872
X121.92Y-62.9
X124.34Y-117.872
X124.46Y-62.9
X126.88Y-117.872
X127.0Y-62.9
X129.42Y-117.872
X129.54Y-62.9
X131.96Y-117.872
X132.08Y-62.9
X134.62Y-62.9
X137.16Y-62.9
X139.7Y-62.9
X164.8Y-120.432
X164.8Y-125.432
X179.9Y-45.4
X179.9Y-47.94
X179.9Y-50.48
X179.9Y-53.02
X180.5Y-87.4
X180.5Y-89.94
X180.5Y-92.48
X180.5Y-95.02
X180.5Y-97.56
X180.5Y-100.1
T4
X181.3Y-126.5
X181.3Y-130.0
X181.4Y-114.2
X181.4Y-117.7
M30
