G04 #@! TF.GenerationSoftware,KiCad,Pcbnew,8.0.6*
G04 #@! TF.CreationDate,2024-12-02T12:53:20+01:00*
G04 #@! TF.ProjectId,PCB_Tester,5043425f-5465-4737-9465-722e6b696361,rev?*
G04 #@! TF.SameCoordinates,Original*
G04 #@! TF.FileFunction,Other,User*
%FSLAX46Y46*%
G04 Gerber Fmt 4.6, Leading zero omitted, Abs format (unit mm)*
G04 Created by KiCad (PCBNEW 8.0.6) date 2024-12-02 12:53:20*
%MOMM*%
%LPD*%
G01*
G04 APERTURE LIST*
%ADD10C,0.050000*%
G04 APERTURE END LIST*
D10*
G04 #@! TO.C,J6*
X178700000Y-85600000D02*
X178700000Y-101900000D01*
X178700000Y-101900000D02*
X182300000Y-101900000D01*
X182300000Y-85600000D02*
X178700000Y-85600000D01*
X182300000Y-101900000D02*
X182300000Y-85600000D01*
G04 #@! TO.C,C9*
X170050000Y-122932323D02*
G75*
G02*
X159550000Y-122932323I-5250000J0D01*
G01*
X159550000Y-122932323D02*
G75*
G02*
X170050000Y-122932323I5250000J0D01*
G01*
G04 #@! TO.C,J5*
X176550000Y-132950000D02*
X184800000Y-132950000D01*
X184800000Y-132950000D02*
X184800000Y-123550000D01*
X176550000Y-123550000D02*
X176550000Y-132950000D01*
X184800000Y-123550000D02*
X176550000Y-123550000D01*
G04 #@! TO.C,J4*
X176650000Y-120650000D02*
X184900000Y-120650000D01*
X184900000Y-120650000D02*
X184900000Y-111250000D01*
X176650000Y-111250000D02*
X176650000Y-120650000D01*
X184900000Y-111250000D02*
X176650000Y-111250000D01*
G04 #@! TO.C,R27*
X128530000Y-119892500D02*
X130430000Y-119892500D01*
X128530000Y-123252500D02*
X128530000Y-119892500D01*
X130430000Y-119892500D02*
X130430000Y-123252500D01*
X130430000Y-123252500D02*
X128530000Y-123252500D01*
G04 #@! TO.C,R49*
X118450000Y-57432500D02*
X120350000Y-57432500D01*
X118450000Y-60792500D02*
X118450000Y-57432500D01*
X120350000Y-57432500D02*
X120350000Y-60792500D01*
X120350000Y-60792500D02*
X118450000Y-60792500D01*
G04 #@! TO.C,D8*
X115730000Y-123492500D02*
X117630000Y-123492500D01*
X115730000Y-126852500D02*
X115730000Y-123492500D01*
X117630000Y-123492500D02*
X117630000Y-126852500D01*
X117630000Y-126852500D02*
X115730000Y-126852500D01*
G04 #@! TO.C,D11*
X123330000Y-123492500D02*
X125230000Y-123492500D01*
X123330000Y-126852500D02*
X123330000Y-123492500D01*
X125230000Y-123492500D02*
X125230000Y-126852500D01*
X125230000Y-126852500D02*
X123330000Y-126852500D01*
G04 #@! TO.C,R29*
X168520000Y-52550000D02*
X171880000Y-52550000D01*
X168520000Y-54450000D02*
X168520000Y-52550000D01*
X171880000Y-52550000D02*
X171880000Y-54450000D01*
X171880000Y-54450000D02*
X168520000Y-54450000D01*
G04 #@! TO.C,R45*
X128550000Y-57432500D02*
X130450000Y-57432500D01*
X128550000Y-60792500D02*
X128550000Y-57432500D01*
X130450000Y-57432500D02*
X130450000Y-60792500D01*
X130450000Y-60792500D02*
X128550000Y-60792500D01*
G04 #@! TO.C,R20*
X110630000Y-119880000D02*
X112530000Y-119880000D01*
X110630000Y-123240000D02*
X110630000Y-119880000D01*
X112530000Y-119880000D02*
X112530000Y-123240000D01*
X112530000Y-123240000D02*
X110630000Y-123240000D01*
G04 #@! TO.C,R5*
X108130000Y-112380000D02*
X110030000Y-112380000D01*
X108130000Y-115740000D02*
X108130000Y-112380000D01*
X110030000Y-112380000D02*
X110030000Y-115740000D01*
X110030000Y-115740000D02*
X108130000Y-115740000D01*
G04 #@! TO.C,R1*
X98030000Y-112405000D02*
X99930000Y-112405000D01*
X98030000Y-115765000D02*
X98030000Y-112405000D01*
X99930000Y-112405000D02*
X99930000Y-115765000D01*
X99930000Y-115765000D02*
X98030000Y-115765000D01*
G04 #@! TO.C,D17*
X128550000Y-53857500D02*
X130450000Y-53857500D01*
X128550000Y-57217500D02*
X128550000Y-53857500D01*
X130450000Y-53857500D02*
X130450000Y-57217500D01*
X130450000Y-57217500D02*
X128550000Y-57217500D01*
G04 #@! TO.C,J2*
X102350000Y-61100000D02*
X102350000Y-64700000D01*
X102350000Y-64700000D02*
X141500000Y-64700000D01*
X141500000Y-61100000D02*
X102350000Y-61100000D01*
X141500000Y-64700000D02*
X141500000Y-61100000D01*
G04 #@! TO.C,R57*
X105650000Y-102107500D02*
X107550000Y-102107500D01*
X105650000Y-105467500D02*
X105650000Y-102107500D01*
X107550000Y-102107500D02*
X107550000Y-105467500D01*
X107550000Y-105467500D02*
X105650000Y-105467500D01*
G04 #@! TO.C,C6*
X173920000Y-54650000D02*
X175880000Y-54650000D01*
X173920000Y-58050000D02*
X173920000Y-54650000D01*
X175880000Y-54650000D02*
X175880000Y-58050000D01*
X175880000Y-58050000D02*
X173920000Y-58050000D01*
G04 #@! TO.C,R43*
X164907500Y-56550000D02*
X168267500Y-56550000D01*
X164907500Y-58450000D02*
X164907500Y-56550000D01*
X168267500Y-56550000D02*
X168267500Y-58450000D01*
X168267500Y-58450000D02*
X164907500Y-58450000D01*
G04 #@! TO.C,D2*
X100530000Y-123492500D02*
X102430000Y-123492500D01*
X100530000Y-126852500D02*
X100530000Y-123492500D01*
X102430000Y-123492500D02*
X102430000Y-126852500D01*
X102430000Y-126852500D02*
X100530000Y-126852500D01*
G04 #@! TO.C,C5*
X171820000Y-54650000D02*
X173780000Y-54650000D01*
X171820000Y-58050000D02*
X171820000Y-54650000D01*
X173780000Y-54650000D02*
X173780000Y-58050000D01*
X173780000Y-58050000D02*
X171820000Y-58050000D01*
G04 #@! TO.C,R25*
X123330000Y-119892500D02*
X125230000Y-119892500D01*
X123330000Y-123252500D02*
X123330000Y-119892500D01*
X125230000Y-119892500D02*
X125230000Y-123252500D01*
X125230000Y-123252500D02*
X123330000Y-123252500D01*
G04 #@! TO.C,D13*
X128530000Y-123492500D02*
X130430000Y-123492500D01*
X128530000Y-126852500D02*
X128530000Y-123492500D01*
X130430000Y-123492500D02*
X130430000Y-126852500D01*
X130430000Y-126852500D02*
X128530000Y-126852500D01*
G04 #@! TO.C,R55*
X100550000Y-102132500D02*
X102450000Y-102132500D01*
X100550000Y-105492500D02*
X100550000Y-102132500D01*
X102450000Y-102132500D02*
X102450000Y-105492500D01*
X102450000Y-105492500D02*
X100550000Y-105492500D01*
G04 #@! TO.C,R46*
X126050000Y-57432500D02*
X127950000Y-57432500D01*
X126050000Y-60792500D02*
X126050000Y-57432500D01*
X127950000Y-57432500D02*
X127950000Y-60792500D01*
X127950000Y-60792500D02*
X126050000Y-60792500D01*
G04 #@! TO.C,R8*
X115730000Y-112405000D02*
X117630000Y-112405000D01*
X115730000Y-115765000D02*
X115730000Y-112405000D01*
X117630000Y-112405000D02*
X117630000Y-115765000D01*
X117630000Y-115765000D02*
X115730000Y-115765000D01*
G04 #@! TO.C,D19*
X123450000Y-53857500D02*
X125350000Y-53857500D01*
X123450000Y-57217500D02*
X123450000Y-53857500D01*
X125350000Y-53857500D02*
X125350000Y-57217500D01*
X125350000Y-57217500D02*
X123450000Y-57217500D01*
G04 #@! TO.C,R54*
X97950000Y-102107500D02*
X99850000Y-102107500D01*
X97950000Y-105467500D02*
X97950000Y-102107500D01*
X99850000Y-102107500D02*
X99850000Y-105467500D01*
X99850000Y-105467500D02*
X97950000Y-105467500D01*
G04 #@! TO.C,C1*
X171645000Y-63675000D02*
X173605000Y-63675000D01*
X171645000Y-67075000D02*
X171645000Y-63675000D01*
X173605000Y-63675000D02*
X173605000Y-67075000D01*
X173605000Y-67075000D02*
X171645000Y-67075000D01*
G04 #@! TO.C,D7*
X113230000Y-123492500D02*
X115130000Y-123492500D01*
X113230000Y-126852500D02*
X113230000Y-123492500D01*
X115130000Y-123492500D02*
X115130000Y-126852500D01*
X115130000Y-126852500D02*
X113230000Y-126852500D01*
G04 #@! TO.C,C4*
X173945000Y-72925000D02*
X175905000Y-72925000D01*
X173945000Y-76325000D02*
X173945000Y-72925000D01*
X175905000Y-72925000D02*
X175905000Y-76325000D01*
X175905000Y-76325000D02*
X173945000Y-76325000D01*
G04 #@! TO.C,R47*
X123450000Y-57432500D02*
X125350000Y-57432500D01*
X123450000Y-60792500D02*
X123450000Y-57432500D01*
X125350000Y-57432500D02*
X125350000Y-60792500D01*
X125350000Y-60792500D02*
X123450000Y-60792500D01*
G04 #@! TO.C,R26*
X125930000Y-119892500D02*
X127830000Y-119892500D01*
X125930000Y-123252500D02*
X125930000Y-119892500D01*
X127830000Y-119892500D02*
X127830000Y-123252500D01*
X127830000Y-123252500D02*
X125930000Y-123252500D01*
G04 #@! TO.C,D5*
X108130000Y-123492500D02*
X110030000Y-123492500D01*
X108130000Y-126852500D02*
X108130000Y-123492500D01*
X110030000Y-123492500D02*
X110030000Y-126852500D01*
X110030000Y-126852500D02*
X108130000Y-126852500D01*
G04 #@! TO.C,R17*
X103030000Y-119892500D02*
X104930000Y-119892500D01*
X103030000Y-123252500D02*
X103030000Y-119892500D01*
X104930000Y-119892500D02*
X104930000Y-123252500D01*
X104930000Y-123252500D02*
X103030000Y-123252500D01*
G04 #@! TO.C,R42*
X172545000Y-70825000D02*
X175905000Y-70825000D01*
X172545000Y-72725000D02*
X172545000Y-70825000D01*
X175905000Y-70825000D02*
X175905000Y-72725000D01*
X175905000Y-72725000D02*
X172545000Y-72725000D01*
G04 #@! TO.C,R63*
X126750000Y-102132500D02*
X128650000Y-102132500D01*
X126750000Y-105492500D02*
X126750000Y-102132500D01*
X128650000Y-102132500D02*
X128650000Y-105492500D01*
X128650000Y-105492500D02*
X126750000Y-105492500D01*
G04 #@! TO.C,R36*
X169650000Y-45707500D02*
X171550000Y-45707500D01*
X169650000Y-49067500D02*
X169650000Y-45707500D01*
X171550000Y-45707500D02*
X171550000Y-49067500D01*
X171550000Y-49067500D02*
X169650000Y-49067500D01*
G04 #@! TO.C,J1*
X97140000Y-116072500D02*
X97140000Y-119672500D01*
X97140000Y-119672500D02*
X133740000Y-119672500D01*
X133740000Y-116072500D02*
X97140000Y-116072500D01*
X133740000Y-119672500D02*
X133740000Y-116072500D01*
G04 #@! TO.C,R12*
X125930000Y-112380000D02*
X127830000Y-112380000D01*
X125930000Y-115740000D02*
X125930000Y-112380000D01*
X127830000Y-112380000D02*
X127830000Y-115740000D01*
X127830000Y-115740000D02*
X125930000Y-115740000D01*
G04 #@! TO.C,R10*
X120830000Y-112392500D02*
X122730000Y-112392500D01*
X120830000Y-115752500D02*
X120830000Y-112392500D01*
X122730000Y-112392500D02*
X122730000Y-115752500D01*
X122730000Y-115752500D02*
X120830000Y-115752500D01*
G04 #@! TO.C,R67*
X136150000Y-102132500D02*
X138050000Y-102132500D01*
X136150000Y-105492500D02*
X136150000Y-102132500D01*
X138050000Y-102132500D02*
X138050000Y-105492500D01*
X138050000Y-105492500D02*
X136150000Y-105492500D01*
G04 #@! TO.C,R37*
X172507500Y-43625000D02*
X175867500Y-43625000D01*
X172507500Y-45525000D02*
X172507500Y-43625000D01*
X175867500Y-43625000D02*
X175867500Y-45525000D01*
X175867500Y-45525000D02*
X172507500Y-45525000D01*
G04 #@! TO.C,R28*
X131030000Y-119880000D02*
X132930000Y-119880000D01*
X131030000Y-123240000D02*
X131030000Y-119880000D01*
X132930000Y-119880000D02*
X132930000Y-123240000D01*
X132930000Y-123240000D02*
X131030000Y-123240000D01*
G04 #@! TO.C,R19*
X108130000Y-119880000D02*
X110030000Y-119880000D01*
X108130000Y-123240000D02*
X108130000Y-119880000D01*
X110030000Y-119880000D02*
X110030000Y-123240000D01*
X110030000Y-123240000D02*
X108130000Y-123240000D01*
G04 #@! TO.C,R58*
X108150000Y-102132500D02*
X110050000Y-102132500D01*
X108150000Y-105492500D02*
X108150000Y-102132500D01*
X110050000Y-102132500D02*
X110050000Y-105492500D01*
X110050000Y-105492500D02*
X108150000Y-105492500D01*
G04 #@! TO.C,D20*
X120950000Y-53820000D02*
X122850000Y-53820000D01*
X120950000Y-57180000D02*
X120950000Y-53820000D01*
X122850000Y-53820000D02*
X122850000Y-57180000D01*
X122850000Y-57180000D02*
X120950000Y-57180000D01*
G04 #@! TO.C,U3*
X146390000Y-93050000D02*
X146390000Y-74700000D01*
X146390000Y-74700000D02*
X94940000Y-74700000D01*
X94940000Y-93050000D02*
X146390000Y-93050000D01*
X94940000Y-74700000D02*
X94940000Y-93050000D01*
G04 #@! TO.C,D9*
X118330000Y-123492500D02*
X120230000Y-123492500D01*
X118330000Y-126852500D02*
X118330000Y-123492500D01*
X120230000Y-123492500D02*
X120230000Y-126852500D01*
X120230000Y-126852500D02*
X118330000Y-126852500D01*
G04 #@! TO.C,D6*
X110630000Y-123492500D02*
X112530000Y-123492500D01*
X110630000Y-126852500D02*
X110630000Y-123492500D01*
X112530000Y-123492500D02*
X112530000Y-126852500D01*
X112530000Y-126852500D02*
X110630000Y-126852500D01*
G04 #@! TO.C,R15*
X98030000Y-119892500D02*
X99930000Y-119892500D01*
X98030000Y-123252500D02*
X98030000Y-119892500D01*
X99930000Y-119892500D02*
X99930000Y-123252500D01*
X99930000Y-123252500D02*
X98030000Y-123252500D01*
G04 #@! TO.C,R39*
X131150000Y-57432500D02*
X133050000Y-57432500D01*
X131150000Y-60792500D02*
X131150000Y-57432500D01*
X133050000Y-57432500D02*
X133050000Y-60792500D01*
X133050000Y-60792500D02*
X131150000Y-60792500D01*
G04 #@! TO.C,D10*
X120830000Y-123492500D02*
X122730000Y-123492500D01*
X120830000Y-126852500D02*
X120830000Y-123492500D01*
X122730000Y-123492500D02*
X122730000Y-126852500D01*
X122730000Y-126852500D02*
X120830000Y-126852500D01*
G04 #@! TO.C,U2*
X118500000Y-98330000D02*
X118500000Y-109030000D01*
X118500000Y-109030000D02*
X139500000Y-109030000D01*
X139500000Y-98330000D02*
X118500000Y-98330000D01*
X139500000Y-109030000D02*
X139500000Y-98330000D01*
G04 #@! TO.C,R61*
X121750000Y-102132500D02*
X123650000Y-102132500D01*
X121750000Y-105492500D02*
X121750000Y-102132500D01*
X123650000Y-102132500D02*
X123650000Y-105492500D01*
X123650000Y-105492500D02*
X121750000Y-105492500D01*
G04 #@! TO.C,R9*
X118330000Y-112392500D02*
X120230000Y-112392500D01*
X118330000Y-115752500D02*
X118330000Y-112392500D01*
X120230000Y-112392500D02*
X120230000Y-115752500D01*
X120230000Y-115752500D02*
X118330000Y-115752500D01*
G04 #@! TO.C,R7*
X113230000Y-112380000D02*
X115130000Y-112380000D01*
X113230000Y-115740000D02*
X113230000Y-112380000D01*
X115130000Y-112380000D02*
X115130000Y-115740000D01*
X115130000Y-115740000D02*
X113230000Y-115740000D01*
G04 #@! TO.C,D3*
X103030000Y-123492500D02*
X104930000Y-123492500D01*
X103030000Y-126852500D02*
X103030000Y-123492500D01*
X104930000Y-123492500D02*
X104930000Y-126852500D01*
X104930000Y-126852500D02*
X103030000Y-126852500D01*
G04 #@! TO.C,R56*
X103050000Y-102132500D02*
X104950000Y-102132500D01*
X103050000Y-105492500D02*
X103050000Y-102132500D01*
X104950000Y-102132500D02*
X104950000Y-105492500D01*
X104950000Y-105492500D02*
X103050000Y-105492500D01*
G04 #@! TO.C,R59*
X110250000Y-102132500D02*
X112150000Y-102132500D01*
X110250000Y-105492500D02*
X110250000Y-102132500D01*
X112150000Y-102132500D02*
X112150000Y-105492500D01*
X112150000Y-105492500D02*
X110250000Y-105492500D01*
G04 #@! TO.C,C8*
X173920000Y-45675000D02*
X175880000Y-45675000D01*
X173920000Y-49075000D02*
X173920000Y-45675000D01*
X175880000Y-45675000D02*
X175880000Y-49075000D01*
X175880000Y-49075000D02*
X173920000Y-49075000D01*
G04 #@! TO.C,D21*
X118450000Y-53857500D02*
X120350000Y-53857500D01*
X118450000Y-57217500D02*
X118450000Y-53857500D01*
X120350000Y-53857500D02*
X120350000Y-57217500D01*
X120350000Y-57217500D02*
X118450000Y-57217500D01*
G04 #@! TO.C,R50*
X115850000Y-57420000D02*
X117750000Y-57420000D01*
X115850000Y-60780000D02*
X115850000Y-57420000D01*
X117750000Y-57420000D02*
X117750000Y-60780000D01*
X117750000Y-60780000D02*
X115850000Y-60780000D01*
G04 #@! TO.C,R60*
X112350000Y-102132500D02*
X114250000Y-102132500D01*
X112350000Y-105492500D02*
X112350000Y-102132500D01*
X114250000Y-102132500D02*
X114250000Y-105492500D01*
X114250000Y-105492500D02*
X112350000Y-105492500D01*
G04 #@! TO.C,R64*
X129350000Y-102132500D02*
X131250000Y-102132500D01*
X129350000Y-105492500D02*
X129350000Y-102132500D01*
X131250000Y-102132500D02*
X131250000Y-105492500D01*
X131250000Y-105492500D02*
X129350000Y-105492500D01*
G04 #@! TO.C,R51*
X113250000Y-57420000D02*
X115150000Y-57420000D01*
X113250000Y-60780000D02*
X113250000Y-57420000D01*
X115150000Y-57420000D02*
X115150000Y-60780000D01*
X115150000Y-60780000D02*
X113250000Y-60780000D01*
G04 #@! TO.C,R48*
X120950000Y-57432500D02*
X122850000Y-57432500D01*
X120950000Y-60792500D02*
X120950000Y-57432500D01*
X122850000Y-57432500D02*
X122850000Y-60792500D01*
X122850000Y-60792500D02*
X120950000Y-60792500D01*
G04 #@! TO.C,R35*
X168607500Y-43625000D02*
X171967500Y-43625000D01*
X168607500Y-45525000D02*
X168607500Y-43625000D01*
X171967500Y-43625000D02*
X171967500Y-45525000D01*
X171967500Y-45525000D02*
X168607500Y-45525000D01*
G04 #@! TO.C,R44*
X165020000Y-47650000D02*
X168380000Y-47650000D01*
X165020000Y-49550000D02*
X165020000Y-47650000D01*
X168380000Y-47650000D02*
X168380000Y-49550000D01*
X168380000Y-49550000D02*
X165020000Y-49550000D01*
G04 #@! TO.C,D4*
X105630000Y-123492500D02*
X107530000Y-123492500D01*
X105630000Y-126852500D02*
X105630000Y-123492500D01*
X107530000Y-123492500D02*
X107530000Y-126852500D01*
X107530000Y-126852500D02*
X105630000Y-126852500D01*
G04 #@! TO.C,R23*
X118330000Y-119905000D02*
X120230000Y-119905000D01*
X118330000Y-123265000D02*
X118330000Y-119905000D01*
X120230000Y-119905000D02*
X120230000Y-123265000D01*
X120230000Y-123265000D02*
X118330000Y-123265000D01*
G04 #@! TO.C,R62*
X124250000Y-102132500D02*
X126150000Y-102132500D01*
X124250000Y-105492500D02*
X124250000Y-102132500D01*
X126150000Y-102132500D02*
X126150000Y-105492500D01*
X126150000Y-105492500D02*
X124250000Y-105492500D01*
G04 #@! TO.C,J3*
X178100000Y-43600000D02*
X178100000Y-54800000D01*
X178100000Y-54800000D02*
X181700000Y-54800000D01*
X181700000Y-43600000D02*
X178100000Y-43600000D01*
X181700000Y-54800000D02*
X181700000Y-43600000D01*
G04 #@! TO.C,R53*
X108250000Y-57432500D02*
X110150000Y-57432500D01*
X108250000Y-60792500D02*
X108250000Y-57432500D01*
X110150000Y-57432500D02*
X110150000Y-60792500D01*
X110150000Y-60792500D02*
X108250000Y-60792500D01*
G04 #@! TO.C,R40*
X168457500Y-70825000D02*
X171817500Y-70825000D01*
X168457500Y-72725000D02*
X168457500Y-70825000D01*
X171817500Y-70825000D02*
X171817500Y-72725000D01*
X171817500Y-72725000D02*
X168457500Y-72725000D01*
G04 #@! TO.C,D16*
X131150000Y-53857500D02*
X133050000Y-53857500D01*
X131150000Y-57217500D02*
X131150000Y-53857500D01*
X133050000Y-53857500D02*
X133050000Y-57217500D01*
X133050000Y-57217500D02*
X131150000Y-57217500D01*
G04 #@! TO.C,D23*
X113250000Y-53820000D02*
X115150000Y-53820000D01*
X113250000Y-57180000D02*
X113250000Y-53820000D01*
X115150000Y-53820000D02*
X115150000Y-57180000D01*
X115150000Y-57180000D02*
X113250000Y-57180000D01*
G04 #@! TO.C,U1*
X94780000Y-98310000D02*
X94780000Y-109010000D01*
X94780000Y-109010000D02*
X115780000Y-109010000D01*
X115780000Y-98310000D02*
X94780000Y-98310000D01*
X115780000Y-109010000D02*
X115780000Y-98310000D01*
G04 #@! TO.C,D14*
X131030000Y-123492500D02*
X132930000Y-123492500D01*
X131030000Y-126852500D02*
X131030000Y-123492500D01*
X132930000Y-123492500D02*
X132930000Y-126852500D01*
X132930000Y-126852500D02*
X131030000Y-126852500D01*
G04 #@! TO.C,R66*
X134050000Y-102132500D02*
X135950000Y-102132500D01*
X134050000Y-105492500D02*
X134050000Y-102132500D01*
X135950000Y-102132500D02*
X135950000Y-105492500D01*
X135950000Y-105492500D02*
X134050000Y-105492500D01*
G04 #@! TO.C,R16*
X100530000Y-119892500D02*
X102430000Y-119892500D01*
X100530000Y-123252500D02*
X100530000Y-119892500D01*
X102430000Y-119892500D02*
X102430000Y-123252500D01*
X102430000Y-123252500D02*
X100530000Y-123252500D01*
G04 #@! TO.C,R30*
X169650000Y-54632500D02*
X171550000Y-54632500D01*
X169650000Y-57992500D02*
X169650000Y-54632500D01*
X171550000Y-54632500D02*
X171550000Y-57992500D01*
X171550000Y-57992500D02*
X169650000Y-57992500D01*
G04 #@! TO.C,C3*
X171745000Y-72925000D02*
X173705000Y-72925000D01*
X171745000Y-76325000D02*
X171745000Y-72925000D01*
X173705000Y-72925000D02*
X173705000Y-76325000D01*
X173705000Y-76325000D02*
X171745000Y-76325000D01*
G04 #@! TO.C,D12*
X125930000Y-123492500D02*
X127830000Y-123492500D01*
X125930000Y-126852500D02*
X125930000Y-123492500D01*
X127830000Y-123492500D02*
X127830000Y-126852500D01*
X127830000Y-126852500D02*
X125930000Y-126852500D01*
G04 #@! TO.C,Q1*
X164900000Y-52517500D02*
X164900000Y-56357500D01*
X164900000Y-56357500D02*
X168300000Y-56357500D01*
X168300000Y-52517500D02*
X164900000Y-52517500D01*
X168300000Y-56357500D02*
X168300000Y-52517500D01*
G04 #@! TO.C,D25*
X108250000Y-53820000D02*
X110150000Y-53820000D01*
X108250000Y-57180000D02*
X108250000Y-53820000D01*
X110150000Y-53820000D02*
X110150000Y-57180000D01*
X110150000Y-57180000D02*
X108250000Y-57180000D01*
G04 #@! TO.C,D24*
X110750000Y-53857500D02*
X112650000Y-53857500D01*
X110750000Y-57217500D02*
X110750000Y-53857500D01*
X112650000Y-53857500D02*
X112650000Y-57217500D01*
X112650000Y-57217500D02*
X110750000Y-57217500D01*
G04 #@! TO.C,R2*
X100530000Y-112392500D02*
X102430000Y-112392500D01*
X100530000Y-115752500D02*
X100530000Y-112392500D01*
X102430000Y-112392500D02*
X102430000Y-115752500D01*
X102430000Y-115752500D02*
X100530000Y-115752500D01*
G04 #@! TO.C,D18*
X126050000Y-53857500D02*
X127950000Y-53857500D01*
X126050000Y-57217500D02*
X126050000Y-53857500D01*
X127950000Y-53857500D02*
X127950000Y-57217500D01*
X127950000Y-57217500D02*
X126050000Y-57217500D01*
G04 #@! TO.C,R34*
X172520000Y-52550000D02*
X175880000Y-52550000D01*
X172520000Y-54450000D02*
X172520000Y-52550000D01*
X175880000Y-52550000D02*
X175880000Y-54450000D01*
X175880000Y-54450000D02*
X172520000Y-54450000D01*
G04 #@! TO.C,C2*
X173845000Y-63675000D02*
X175805000Y-63675000D01*
X173845000Y-67075000D02*
X173845000Y-63675000D01*
X175805000Y-63675000D02*
X175805000Y-67075000D01*
X175805000Y-67075000D02*
X173845000Y-67075000D01*
G04 #@! TO.C,C7*
X171820000Y-45675000D02*
X173780000Y-45675000D01*
X171820000Y-49075000D02*
X171820000Y-45675000D01*
X173780000Y-45675000D02*
X173780000Y-49075000D01*
X173780000Y-49075000D02*
X171820000Y-49075000D01*
G04 #@! TO.C,R13*
X128430000Y-112392500D02*
X130330000Y-112392500D01*
X128430000Y-115752500D02*
X128430000Y-112392500D01*
X130330000Y-112392500D02*
X130330000Y-115752500D01*
X130330000Y-115752500D02*
X128430000Y-115752500D01*
G04 #@! TO.C,R3*
X103030000Y-112405000D02*
X104930000Y-112405000D01*
X103030000Y-115765000D02*
X103030000Y-112405000D01*
X104930000Y-112405000D02*
X104930000Y-115765000D01*
X104930000Y-115765000D02*
X103030000Y-115765000D01*
G04 #@! TO.C,R21*
X113230000Y-119880000D02*
X115130000Y-119880000D01*
X113230000Y-123240000D02*
X113230000Y-119880000D01*
X115130000Y-119880000D02*
X115130000Y-123240000D01*
X115130000Y-123240000D02*
X113230000Y-123240000D01*
G04 #@! TO.C,R6*
X110730000Y-112380000D02*
X112630000Y-112380000D01*
X110730000Y-115740000D02*
X110730000Y-112380000D01*
X112630000Y-112380000D02*
X112630000Y-115740000D01*
X112630000Y-115740000D02*
X110730000Y-115740000D01*
G04 #@! TO.C,R33*
X172432500Y-61625000D02*
X175792500Y-61625000D01*
X172432500Y-63525000D02*
X172432500Y-61625000D01*
X175792500Y-61625000D02*
X175792500Y-63525000D01*
X175792500Y-63525000D02*
X172432500Y-63525000D01*
G04 #@! TO.C,R18*
X105630000Y-119880000D02*
X107530000Y-119880000D01*
X105630000Y-123240000D02*
X105630000Y-119880000D01*
X107530000Y-119880000D02*
X107530000Y-123240000D01*
X107530000Y-123240000D02*
X105630000Y-123240000D01*
G04 #@! TO.C,R32*
X169475000Y-63682500D02*
X171375000Y-63682500D01*
X169475000Y-67042500D02*
X169475000Y-63682500D01*
X171375000Y-63682500D02*
X171375000Y-67042500D01*
X171375000Y-67042500D02*
X169475000Y-67042500D01*
G04 #@! TO.C,R52*
X110750000Y-57432500D02*
X112650000Y-57432500D01*
X110750000Y-60792500D02*
X110750000Y-57432500D01*
X112650000Y-57432500D02*
X112650000Y-60792500D01*
X112650000Y-60792500D02*
X110750000Y-60792500D01*
G04 #@! TO.C,D22*
X115850000Y-53820000D02*
X117750000Y-53820000D01*
X115850000Y-57180000D02*
X115850000Y-53820000D01*
X117750000Y-53820000D02*
X117750000Y-57180000D01*
X117750000Y-57180000D02*
X115850000Y-57180000D01*
G04 #@! TO.C,D15*
X133650000Y-53820000D02*
X135550000Y-53820000D01*
X133650000Y-57180000D02*
X133650000Y-53820000D01*
X135550000Y-53820000D02*
X135550000Y-57180000D01*
X135550000Y-57180000D02*
X133650000Y-57180000D01*
G04 #@! TO.C,R14*
X131030000Y-112380000D02*
X132930000Y-112380000D01*
X131030000Y-115740000D02*
X131030000Y-112380000D01*
X132930000Y-112380000D02*
X132930000Y-115740000D01*
X132930000Y-115740000D02*
X131030000Y-115740000D01*
G04 #@! TO.C,R4*
X105630000Y-112380000D02*
X107530000Y-112380000D01*
X105630000Y-115740000D02*
X105630000Y-112380000D01*
X107530000Y-112380000D02*
X107530000Y-115740000D01*
X107530000Y-115740000D02*
X105630000Y-115740000D01*
G04 #@! TO.C,D1*
X98030000Y-123492500D02*
X99930000Y-123492500D01*
X98030000Y-126852500D02*
X98030000Y-123492500D01*
X99930000Y-123492500D02*
X99930000Y-126852500D01*
X99930000Y-126852500D02*
X98030000Y-126852500D01*
G04 #@! TO.C,R38*
X133650000Y-57420000D02*
X135550000Y-57420000D01*
X133650000Y-60780000D02*
X133650000Y-57420000D01*
X135550000Y-57420000D02*
X135550000Y-60780000D01*
X135550000Y-60780000D02*
X133650000Y-60780000D01*
G04 #@! TO.C,R41*
X169575000Y-72907500D02*
X171475000Y-72907500D01*
X169575000Y-76267500D02*
X169575000Y-72907500D01*
X171475000Y-72907500D02*
X171475000Y-76267500D01*
X171475000Y-76267500D02*
X169575000Y-76267500D01*
G04 #@! TO.C,R22*
X115730000Y-119880000D02*
X117630000Y-119880000D01*
X115730000Y-123240000D02*
X115730000Y-119880000D01*
X117630000Y-119880000D02*
X117630000Y-123240000D01*
X117630000Y-123240000D02*
X115730000Y-123240000D01*
G04 #@! TO.C,Q2*
X165000000Y-43617500D02*
X165000000Y-47457500D01*
X165000000Y-47457500D02*
X168400000Y-47457500D01*
X168400000Y-43617500D02*
X165000000Y-43617500D01*
X168400000Y-47457500D02*
X168400000Y-43617500D01*
G04 #@! TO.C,R24*
X120830000Y-119892500D02*
X122730000Y-119892500D01*
X120830000Y-123252500D02*
X120830000Y-119892500D01*
X122730000Y-119892500D02*
X122730000Y-123252500D01*
X122730000Y-123252500D02*
X120830000Y-123252500D01*
G04 #@! TO.C,R11*
X123330000Y-112392500D02*
X125230000Y-112392500D01*
X123330000Y-115752500D02*
X123330000Y-112392500D01*
X125230000Y-112392500D02*
X125230000Y-115752500D01*
X125230000Y-115752500D02*
X123330000Y-115752500D01*
G04 #@! TO.C,R31*
X168357500Y-61625000D02*
X171717500Y-61625000D01*
X168357500Y-63525000D02*
X168357500Y-61625000D01*
X171717500Y-61625000D02*
X171717500Y-63525000D01*
X171717500Y-63525000D02*
X168357500Y-63525000D01*
G04 #@! TO.C,R65*
X131950000Y-102132500D02*
X133850000Y-102132500D01*
X131950000Y-105492500D02*
X131950000Y-102132500D01*
X133850000Y-102132500D02*
X133850000Y-105492500D01*
X133850000Y-105492500D02*
X131950000Y-105492500D01*
G04 #@! TD*
M02*
